M48
;Layer_Color=9474304
;FILE_FORMAT=2:5
INCH,LZ
;TYPE=PLATED
T1F00S00C0.01600
T2F00S00C0.02000
T3F00S00C0.02500
T4F00S00C0.03543
T5F00S00C0.04000
T6F00S00C0.07874
T7F00S00C0.08268
;TYPE=NON_PLATED
T8F00S00C0.06100
T9F00S00C0.12500
%
T01
X0281496Y0383858
X0287205Y0393701
X0300886Y0404134
X0291142Y043061
X0301969Y0456102
X031752Y0452559
X0322736
X0322736Y0378347
X031752
X031752Y0527165
X0322736
X0322736Y060187
X031752
X0301673Y0605413
X0291057Y05803
X0301393Y0551503
X0302067Y0530709
X0291057Y0505614
X0301393Y0476893
X0301378Y062687
X0291057Y0654987
X0302165Y068061
X0301476Y0701279
X0291057Y0729673
X030187Y0754823
X0301279Y0776772
X031752Y075128
X0322736
X0322736Y0676575
X031752
X031752Y0825984
X0322736
X0322736Y0900591
X031752
X0301969Y0904331
X0301575Y0926083
X0291057Y0879046
X0301476Y0851575
X0301673Y0829823
X0291142Y0801968
X0291057Y0953732
X0301969Y0974213
X0301575Y0995571
X0291057Y1023399
X0301575Y1049114
X0301772Y1071161
X031752Y104498
X0322736
X0322736Y0970276
X031752
X0291057Y1098085
X0281187Y1176328
X0268Y1168724
X0240664Y1219144
X0231805
T02
X0324213Y1139665
X0343043Y1139673
X0311417Y1127166
X0302756Y1127067
X0288583Y1135728
X0266535Y1127362
X0256791
X0231299Y1172146
T03
X0302264Y0462697
X0302362Y0537303
Y0611909
X0302461Y0686811
Y0761614
X0302362Y0836319
X0302461Y0910827
Y0980512
X0302264Y1055315
X0251575Y1182972
T04
X0322106Y1214665
X0332106
X0345669Y1202854
Y1192854
X0312106Y1214665
X0302106
X0292106
X0282106
X0272106
X0262106
T05
X0355Y1132
Y1142
Y1152
Y1162
X0365
Y1152
Y1142
Y1132
X0245
X0235
Y1142
X0245
Y1152
X0235
Y1162
X0245
T06
X0277756Y0419559
X0322244
Y0494245
Y0568932
X0277756
Y0494245
Y0643618
Y0718304
X0322244
Y0643618
Y0792991
Y0867677
X0277756
Y0792991
Y0942363
Y101203
Y1086716
X0322244
Y101203
Y0942363
T07
X0279724Y0399087
X0320276
Y0473773
Y0548459
Y0623145
X0279724
Y0548459
Y0473773
Y0697832
Y0772518
X0320276
Y0697832
Y0847204
Y0921891
X0279724
Y0847204
Y0991558
Y1066244
X0320276
Y0991558
T08
X0277953Y0409323
X0322047
Y0484009
Y0558696
X0277953
Y0484009
Y0633382
Y0708068
X0322047
Y0633382
Y0782755
Y0857441
Y0932127
X0277953
Y0857441
Y0782755
Y1001794
Y107648
X0322047
Y1001794
T09
X03Y0381299
X0300098Y0819685
X0298622Y1186909
M30
