%FSLAX25Y25*%
%MOIN*%
G70*
G01*
G75*
G04 Layer_Physical_Order=2*
G04 Layer_Color=16711680*
%ADD10R,0.03543X0.02756*%
%ADD11R,0.03150X0.03150*%
%ADD12R,0.03543X0.03150*%
%ADD13R,0.02756X0.03543*%
%ADD14R,0.03543X0.03543*%
%ADD15R,0.03150X0.03543*%
%ADD16R,0.08661X0.02756*%
%ADD17R,0.01969X0.07874*%
%ADD18C,0.02500*%
%ADD19C,0.01600*%
%ADD20C,0.01800*%
%ADD21C,0.01500*%
%ADD22C,0.05906*%
%ADD23R,0.05906X0.05906*%
%ADD24C,0.12500*%
%ADD25R,0.05906X0.05906*%
%ADD26C,0.06100*%
%ADD27C,0.04000*%
%ADD28C,0.02500*%
%ADD29C,0.03500*%
%ADD30C,0.09449*%
%ADD31C,0.09843*%
%ADD32C,0.18000*%
%ADD33C,0.12000*%
G36*
X373327Y1109154D02*
X373327Y1109154D01*
X373327Y1109153D01*
X373286Y1109055D01*
X333563D01*
Y372146D01*
X333366Y371949D01*
X266535D01*
Y1109055D01*
X226575D01*
Y1222342D01*
X226542Y1222605D01*
X227005Y1223130D01*
X373327D01*
Y1109154D01*
D02*
G37*
%LPC*%
G36*
X324951Y676175D02*
X323136D01*
Y674360D01*
X323614Y674455D01*
X324358Y674953D01*
X324856Y675697D01*
X324951Y676175D01*
D02*
G37*
G36*
X317120Y678789D02*
X316642Y678694D01*
X315898Y678197D01*
X315400Y677453D01*
X315305Y676975D01*
X317120D01*
Y678789D01*
D02*
G37*
G36*
X317920D02*
Y676975D01*
X319734D01*
X319639Y677453D01*
X319142Y678197D01*
X318398Y678694D01*
X317920Y678789D01*
D02*
G37*
G36*
X322336Y676175D02*
X320522D01*
X320617Y675697D01*
X321114Y674953D01*
X321858Y674455D01*
X322336Y674360D01*
Y676175D01*
D02*
G37*
G36*
X291458Y657201D02*
Y655387D01*
X293272D01*
X293177Y655865D01*
X292680Y656609D01*
X291935Y657106D01*
X291458Y657201D01*
D02*
G37*
G36*
X317120Y676175D02*
X315305D01*
X315400Y675697D01*
X315898Y674953D01*
X316642Y674455D01*
X317120Y674360D01*
Y676175D01*
D02*
G37*
G36*
X319734D02*
X317920D01*
Y674360D01*
X318398Y674455D01*
X319142Y674953D01*
X319639Y675697D01*
X319734Y676175D01*
D02*
G37*
G36*
X322336Y678789D02*
X321858Y678694D01*
X321114Y678197D01*
X320617Y677453D01*
X320522Y676975D01*
X322336D01*
Y678789D01*
D02*
G37*
G36*
X302565Y682825D02*
Y681010D01*
X304380D01*
X304285Y681488D01*
X303787Y682232D01*
X303043Y682730D01*
X302565Y682825D01*
D02*
G37*
G36*
X301476Y703574D02*
X300599Y703399D01*
X299854Y702902D01*
X299357Y702157D01*
X299182Y701279D01*
X299357Y700402D01*
X299854Y699657D01*
X300599Y699160D01*
X300676Y699145D01*
Y688908D01*
X300499Y688772D01*
X300059Y688198D01*
X299781Y687529D01*
X299687Y686811D01*
X299781Y686093D01*
X300059Y685424D01*
X300499Y684850D01*
X301074Y684409D01*
X301743Y684132D01*
X302461Y684037D01*
X303179Y684132D01*
X303848Y684409D01*
X304422Y684850D01*
X304863Y685424D01*
X305140Y686093D01*
X305234Y686811D01*
X305140Y687529D01*
X304863Y688198D01*
X304422Y688772D01*
X304245Y688908D01*
Y700295D01*
X304109Y700978D01*
X303722Y701557D01*
X303713Y701566D01*
X303596Y702157D01*
X303099Y702902D01*
X302354Y703399D01*
X301476Y703574D01*
D02*
G37*
G36*
X277756Y724078D02*
X276261Y723881D01*
X274869Y723305D01*
X273673Y722387D01*
X272756Y721191D01*
X272179Y719799D01*
X271982Y718304D01*
X272179Y716810D01*
X272756Y715417D01*
X273673Y714222D01*
X274869Y713304D01*
X276261Y712727D01*
X276511Y712695D01*
X276603Y712001D01*
X275860Y711693D01*
X274993Y711028D01*
X274328Y710161D01*
X273910Y709152D01*
X273767Y708068D01*
X273910Y706985D01*
X274328Y705975D01*
X274993Y705109D01*
X275860Y704444D01*
X276870Y704025D01*
X277244Y703976D01*
X277370Y703287D01*
X276419Y702779D01*
X275517Y702039D01*
X274777Y701138D01*
X274227Y700109D01*
X273889Y698993D01*
X273775Y697832D01*
X273889Y696671D01*
X274227Y695555D01*
X274777Y694526D01*
X275517Y693625D01*
X276419Y692885D01*
X277448Y692335D01*
X278564Y691996D01*
X279724Y691882D01*
X280885Y691996D01*
X282001Y692335D01*
X283030Y692885D01*
X283932Y693625D01*
X284672Y694526D01*
X285221Y695555D01*
X285560Y696671D01*
X285674Y697832D01*
X285560Y698993D01*
X285221Y700109D01*
X284672Y701138D01*
X283932Y702039D01*
X283030Y702779D01*
X282001Y703329D01*
X280885Y703668D01*
X280127Y703742D01*
X280024Y704435D01*
X280046Y704444D01*
X280912Y705109D01*
X281577Y705975D01*
X281996Y706985D01*
X282138Y708068D01*
X281996Y709152D01*
X281577Y710161D01*
X280912Y711028D01*
X280046Y711693D01*
X279348Y711982D01*
X279250Y712727D01*
X280643Y713304D01*
X281839Y714222D01*
X282756Y715417D01*
X283333Y716810D01*
X283530Y718304D01*
X283333Y719799D01*
X282756Y721191D01*
X281839Y722387D01*
X280643Y723305D01*
X279250Y723881D01*
X277756Y724078D01*
D02*
G37*
G36*
X301765Y682825D02*
X301287Y682730D01*
X300543Y682232D01*
X300046Y681488D01*
X299951Y681010D01*
X301765D01*
Y682825D01*
D02*
G37*
G36*
X323136Y678789D02*
Y676975D01*
X324951D01*
X324856Y677453D01*
X324358Y678197D01*
X323614Y678694D01*
X323136Y678789D01*
D02*
G37*
G36*
X301765Y680210D02*
X299951D01*
X300046Y679732D01*
X300543Y678988D01*
X301287Y678491D01*
X301765Y678396D01*
Y680210D01*
D02*
G37*
G36*
X304380D02*
X302565D01*
Y678396D01*
X303043Y678491D01*
X303787Y678988D01*
X304285Y679732D01*
X304380Y680210D01*
D02*
G37*
G36*
X323136Y604085D02*
Y602270D01*
X324951D01*
X324856Y602748D01*
X324358Y603492D01*
X323614Y603990D01*
X323136Y604085D01*
D02*
G37*
G36*
X301273Y605013D02*
X299459D01*
X299554Y604535D01*
X300051Y603791D01*
X300795Y603294D01*
X301273Y603199D01*
Y605013D01*
D02*
G37*
G36*
X303888D02*
X302073D01*
Y603199D01*
X302551Y603294D01*
X303295Y603791D01*
X303793Y604535D01*
X303888Y605013D01*
D02*
G37*
G36*
X322336Y604085D02*
X321858Y603990D01*
X321114Y603492D01*
X320617Y602748D01*
X320522Y602270D01*
X322336D01*
Y604085D01*
D02*
G37*
G36*
X324951Y601470D02*
X323136D01*
Y599656D01*
X323614Y599751D01*
X324358Y600248D01*
X324856Y600992D01*
X324951Y601470D01*
D02*
G37*
G36*
X317120Y604085D02*
X316642Y603990D01*
X315897Y603492D01*
X315400Y602748D01*
X315305Y602270D01*
X317120D01*
Y604085D01*
D02*
G37*
G36*
X317920D02*
Y602270D01*
X319734D01*
X319639Y602748D01*
X319142Y603492D01*
X318398Y603990D01*
X317920Y604085D01*
D02*
G37*
G36*
X301273Y607628D02*
X300795Y607533D01*
X300051Y607035D01*
X299554Y606291D01*
X299459Y605813D01*
X301273D01*
Y607628D01*
D02*
G37*
G36*
X290657Y654587D02*
X288843D01*
X288938Y654109D01*
X289435Y653365D01*
X290180Y652867D01*
X290657Y652772D01*
Y654587D01*
D02*
G37*
G36*
X293272D02*
X291458D01*
Y652772D01*
X291935Y652867D01*
X292680Y653365D01*
X293177Y654109D01*
X293272Y654587D01*
D02*
G37*
G36*
X290657Y657201D02*
X290180Y657106D01*
X289435Y656609D01*
X288938Y655865D01*
X288843Y655387D01*
X290657D01*
Y657201D01*
D02*
G37*
G36*
X322244Y649392D02*
X320750Y649195D01*
X319357Y648618D01*
X318161Y647701D01*
X317244Y646505D01*
X316667Y645112D01*
X316470Y643618D01*
X316667Y642124D01*
X317244Y640731D01*
X318161Y639535D01*
X319357Y638618D01*
X320750Y638041D01*
X320652Y637295D01*
X319954Y637006D01*
X319088Y636341D01*
X318423Y635474D01*
X318004Y634465D01*
X317862Y633382D01*
X318004Y632299D01*
X318423Y631289D01*
X319088Y630422D01*
X319954Y629757D01*
X319976Y629748D01*
X319873Y629056D01*
X319115Y628981D01*
X317999Y628643D01*
X316970Y628093D01*
X316068Y627353D01*
X315328Y626451D01*
X314779Y625422D01*
X314440Y624306D01*
X314326Y623145D01*
X314440Y621985D01*
X314779Y620869D01*
X315328Y619840D01*
X316068Y618938D01*
X316970Y618198D01*
X317999Y617649D01*
X319115Y617310D01*
X320276Y617196D01*
X321436Y617310D01*
X322552Y617649D01*
X323581Y618198D01*
X324483Y618938D01*
X325223Y619840D01*
X325773Y620869D01*
X326111Y621985D01*
X326225Y623145D01*
X326111Y624306D01*
X325773Y625422D01*
X325223Y626451D01*
X324483Y627353D01*
X323581Y628093D01*
X322630Y628601D01*
X322756Y629290D01*
X323130Y629339D01*
X324140Y629757D01*
X325007Y630422D01*
X325672Y631289D01*
X326090Y632299D01*
X326233Y633382D01*
X326090Y634465D01*
X325672Y635474D01*
X325007Y636341D01*
X324140Y637006D01*
X323397Y637314D01*
X323489Y638008D01*
X323739Y638041D01*
X325131Y638618D01*
X326327Y639535D01*
X327244Y640731D01*
X327821Y642124D01*
X328018Y643618D01*
X327821Y645112D01*
X327244Y646505D01*
X326327Y647701D01*
X325131Y648618D01*
X323739Y649195D01*
X322244Y649392D01*
D02*
G37*
G36*
X302073Y607628D02*
Y605813D01*
X303888D01*
X303793Y606291D01*
X303295Y607035D01*
X302551Y607533D01*
X302073Y607628D01*
D02*
G37*
G36*
X301378Y629164D02*
X300500Y628990D01*
X299756Y628492D01*
X299258Y627748D01*
X299084Y626870D01*
X299258Y625992D01*
X299756Y625248D01*
X300425Y624801D01*
Y613889D01*
X300401Y613871D01*
X299960Y613296D01*
X299683Y612627D01*
X299588Y611909D01*
X299683Y611192D01*
X299960Y610523D01*
X300401Y609948D01*
X300975Y609507D01*
X301644Y609230D01*
X302362Y609136D01*
X303080Y609230D01*
X303749Y609507D01*
X304324Y609948D01*
X304764Y610523D01*
X305042Y611192D01*
X305136Y611909D01*
X305042Y612627D01*
X304764Y613296D01*
X304324Y613871D01*
X304299Y613889D01*
Y625886D01*
X304152Y626627D01*
X303732Y627256D01*
X303574Y627361D01*
X303497Y627748D01*
X303000Y628492D01*
X302256Y628990D01*
X301378Y629164D01*
D02*
G37*
G36*
X277756Y649392D02*
X276261Y649195D01*
X274869Y648618D01*
X273673Y647701D01*
X272756Y646505D01*
X272179Y645112D01*
X271982Y643618D01*
X272179Y642124D01*
X272756Y640731D01*
X273673Y639535D01*
X274869Y638618D01*
X276261Y638041D01*
X276511Y638008D01*
X276603Y637314D01*
X275860Y637006D01*
X274993Y636341D01*
X274328Y635474D01*
X273910Y634465D01*
X273767Y633382D01*
X273910Y632299D01*
X274328Y631289D01*
X274993Y630422D01*
X275860Y629757D01*
X276870Y629339D01*
X277244Y629290D01*
X277370Y628601D01*
X276419Y628093D01*
X275517Y627353D01*
X274777Y626451D01*
X274227Y625422D01*
X273889Y624306D01*
X273775Y623145D01*
X273889Y621985D01*
X274227Y620869D01*
X274777Y619840D01*
X275517Y618938D01*
X276419Y618198D01*
X277448Y617649D01*
X278564Y617310D01*
X279724Y617196D01*
X280885Y617310D01*
X282001Y617649D01*
X283030Y618198D01*
X283932Y618938D01*
X284672Y619840D01*
X285221Y620869D01*
X285560Y621985D01*
X285674Y623145D01*
X285560Y624306D01*
X285221Y625422D01*
X284672Y626451D01*
X283932Y627353D01*
X283030Y628093D01*
X282001Y628643D01*
X280885Y628981D01*
X280127Y629056D01*
X280024Y629748D01*
X280046Y629757D01*
X280912Y630422D01*
X281577Y631289D01*
X281996Y632299D01*
X282138Y633382D01*
X281996Y634465D01*
X281577Y635474D01*
X280912Y636341D01*
X280046Y637006D01*
X279348Y637295D01*
X279250Y638041D01*
X280643Y638618D01*
X281839Y639535D01*
X282756Y640731D01*
X283333Y642124D01*
X283530Y643618D01*
X283333Y645112D01*
X282756Y646505D01*
X281839Y647701D01*
X280643Y648618D01*
X279250Y649195D01*
X277756Y649392D01*
D02*
G37*
G36*
X322244Y798765D02*
X320750Y798568D01*
X319357Y797991D01*
X318161Y797073D01*
X317244Y795878D01*
X316667Y794485D01*
X316470Y792991D01*
X316667Y791496D01*
X317244Y790104D01*
X318161Y788908D01*
X319357Y787990D01*
X320750Y787414D01*
X320652Y786668D01*
X319954Y786379D01*
X319088Y785714D01*
X318423Y784847D01*
X318004Y783838D01*
X317862Y782755D01*
X318004Y781671D01*
X318423Y780662D01*
X319088Y779795D01*
X319954Y779130D01*
X319976Y779121D01*
X319873Y778429D01*
X319115Y778354D01*
X317999Y778015D01*
X316970Y777465D01*
X316068Y776725D01*
X315328Y775824D01*
X314779Y774795D01*
X314440Y773679D01*
X314326Y772518D01*
X314440Y771357D01*
X314779Y770241D01*
X315328Y769213D01*
X316068Y768311D01*
X316970Y767571D01*
X317999Y767021D01*
X319115Y766683D01*
X320276Y766568D01*
X321436Y766683D01*
X322552Y767021D01*
X323581Y767571D01*
X324483Y768311D01*
X325223Y769213D01*
X325773Y770241D01*
X326111Y771357D01*
X326225Y772518D01*
X326111Y773679D01*
X325773Y774795D01*
X325223Y775824D01*
X324483Y776725D01*
X323581Y777465D01*
X322630Y777974D01*
X322756Y778662D01*
X323130Y778712D01*
X324140Y779130D01*
X325007Y779795D01*
X325672Y780662D01*
X326090Y781671D01*
X326233Y782755D01*
X326090Y783838D01*
X325672Y784847D01*
X325007Y785714D01*
X324140Y786379D01*
X323397Y786687D01*
X323489Y787381D01*
X323739Y787414D01*
X325131Y787990D01*
X326327Y788908D01*
X327244Y790104D01*
X327821Y791496D01*
X328018Y792991D01*
X327821Y794485D01*
X327244Y795878D01*
X326327Y797073D01*
X325131Y797991D01*
X323739Y798568D01*
X322244Y798765D01*
D02*
G37*
G36*
X290742Y801569D02*
X288927D01*
X289022Y801091D01*
X289520Y800346D01*
X290264Y799849D01*
X290742Y799754D01*
Y801569D01*
D02*
G37*
G36*
X293356D02*
X291542D01*
Y799754D01*
X292020Y799849D01*
X292764Y800346D01*
X293261Y801091D01*
X293356Y801569D01*
D02*
G37*
G36*
X277756Y798765D02*
X276261Y798568D01*
X274869Y797991D01*
X273673Y797073D01*
X272756Y795878D01*
X272179Y794485D01*
X271982Y792991D01*
X272179Y791496D01*
X272756Y790104D01*
X273673Y788908D01*
X274869Y787990D01*
X276261Y787414D01*
X276511Y787381D01*
X276603Y786687D01*
X275860Y786379D01*
X274993Y785714D01*
X274328Y784847D01*
X273910Y783838D01*
X273767Y782755D01*
X273910Y781671D01*
X274328Y780662D01*
X274993Y779795D01*
X275860Y779130D01*
X276870Y778712D01*
X277244Y778662D01*
X277370Y777974D01*
X276419Y777465D01*
X275517Y776725D01*
X274777Y775824D01*
X274227Y774795D01*
X273889Y773679D01*
X273775Y772518D01*
X273889Y771357D01*
X274227Y770241D01*
X274777Y769213D01*
X275517Y768311D01*
X276419Y767571D01*
X277448Y767021D01*
X278564Y766683D01*
X279724Y766568D01*
X280885Y766683D01*
X282001Y767021D01*
X283030Y767571D01*
X283932Y768311D01*
X284672Y769213D01*
X285221Y770241D01*
X285560Y771357D01*
X285674Y772518D01*
X285560Y773679D01*
X285221Y774795D01*
X284672Y775824D01*
X283932Y776725D01*
X283030Y777465D01*
X282001Y778015D01*
X280885Y778354D01*
X280127Y778429D01*
X280024Y779121D01*
X280046Y779130D01*
X280912Y779795D01*
X281577Y780662D01*
X281996Y781671D01*
X282138Y782755D01*
X281996Y783838D01*
X281577Y784847D01*
X280912Y785714D01*
X280046Y786379D01*
X279348Y786668D01*
X279250Y787414D01*
X280643Y787990D01*
X281839Y788908D01*
X282756Y790104D01*
X283333Y791496D01*
X283530Y792991D01*
X283333Y794485D01*
X282756Y795878D01*
X281839Y797073D01*
X280643Y797991D01*
X279250Y798568D01*
X277756Y798765D01*
D02*
G37*
G36*
X301470Y757037D02*
X300992Y756942D01*
X300248Y756445D01*
X299751Y755701D01*
X299656Y755223D01*
X301470D01*
Y757037D01*
D02*
G37*
G36*
X302270D02*
Y755223D01*
X304085D01*
X303990Y755701D01*
X303492Y756445D01*
X302748Y756942D01*
X302270Y757037D01*
D02*
G37*
G36*
X301279Y779066D02*
X300402Y778891D01*
X299657Y778394D01*
X299160Y777650D01*
X298985Y776772D01*
X299160Y775894D01*
X299657Y775149D01*
X300402Y774652D01*
X300523Y774628D01*
Y763594D01*
X300499Y763576D01*
X300059Y763001D01*
X299781Y762332D01*
X299687Y761614D01*
X299781Y760896D01*
X300059Y760227D01*
X300499Y759653D01*
X301074Y759212D01*
X301743Y758935D01*
X302461Y758840D01*
X303179Y758935D01*
X303848Y759212D01*
X304422Y759653D01*
X304863Y760227D01*
X305140Y760896D01*
X305234Y761614D01*
X305140Y762332D01*
X304863Y763001D01*
X304422Y763576D01*
X304398Y763594D01*
Y775591D01*
X304250Y776332D01*
X303831Y776960D01*
X303491Y777187D01*
X303399Y777650D01*
X302902Y778394D01*
X302157Y778891D01*
X301279Y779066D01*
D02*
G37*
G36*
X290742Y804183D02*
X290264Y804088D01*
X289520Y803591D01*
X289022Y802846D01*
X288927Y802369D01*
X290742D01*
Y804183D01*
D02*
G37*
G36*
X322336Y825584D02*
X320522D01*
X320617Y825106D01*
X321114Y824362D01*
X321858Y823865D01*
X322336Y823770D01*
Y825584D01*
D02*
G37*
G36*
X324951D02*
X323136D01*
Y823770D01*
X323614Y823865D01*
X324358Y824362D01*
X324856Y825106D01*
X324951Y825584D01*
D02*
G37*
G36*
X317120Y828199D02*
X316642Y828104D01*
X315897Y827606D01*
X315400Y826862D01*
X315305Y826384D01*
X317120D01*
Y828199D01*
D02*
G37*
G36*
X319734Y825584D02*
X317920D01*
Y823770D01*
X318398Y823865D01*
X319142Y824362D01*
X319639Y825106D01*
X319734Y825584D01*
D02*
G37*
G36*
X291542Y804183D02*
Y802369D01*
X293356D01*
X293261Y802846D01*
X292764Y803591D01*
X292020Y804088D01*
X291542Y804183D01*
D02*
G37*
G36*
X300098Y826970D02*
X298677Y826830D01*
X297310Y826416D01*
X296051Y825742D01*
X294947Y824836D01*
X294041Y823732D01*
X293368Y822473D01*
X292953Y821106D01*
X292813Y819685D01*
X292953Y818264D01*
X293368Y816897D01*
X294041Y815638D01*
X294947Y814534D01*
X296051Y813628D01*
X297310Y812955D01*
X298677Y812540D01*
X300098Y812400D01*
X301520Y812540D01*
X302886Y812955D01*
X304146Y813628D01*
X305250Y814534D01*
X306156Y815638D01*
X306829Y816897D01*
X307243Y818264D01*
X307383Y819685D01*
X307243Y821106D01*
X306829Y822473D01*
X306156Y823732D01*
X305250Y824836D01*
X304146Y825742D01*
X302886Y826416D01*
X301520Y826830D01*
X300098Y826970D01*
D02*
G37*
G36*
X317120Y825584D02*
X315305D01*
X315400Y825106D01*
X315897Y824362D01*
X316642Y823865D01*
X317120Y823770D01*
Y825584D01*
D02*
G37*
G36*
X291458Y731888D02*
Y730073D01*
X293272D01*
X293177Y730551D01*
X292680Y731295D01*
X291935Y731793D01*
X291458Y731888D01*
D02*
G37*
G36*
X317120Y750880D02*
X315305D01*
X315400Y750402D01*
X315898Y749657D01*
X316642Y749160D01*
X317120Y749065D01*
Y750880D01*
D02*
G37*
G36*
X319734D02*
X317920D01*
Y749065D01*
X318398Y749160D01*
X319142Y749657D01*
X319639Y750402D01*
X319734Y750880D01*
D02*
G37*
G36*
X290657Y731888D02*
X290180Y731793D01*
X289435Y731295D01*
X288938Y730551D01*
X288843Y730073D01*
X290657D01*
Y731888D01*
D02*
G37*
G36*
X322244Y724078D02*
X320750Y723881D01*
X319357Y723305D01*
X318161Y722387D01*
X317244Y721191D01*
X316667Y719799D01*
X316470Y718304D01*
X316667Y716810D01*
X317244Y715417D01*
X318161Y714222D01*
X319357Y713304D01*
X320750Y712727D01*
X320652Y711982D01*
X319954Y711693D01*
X319088Y711028D01*
X318423Y710161D01*
X318004Y709152D01*
X317862Y708068D01*
X318004Y706985D01*
X318423Y705975D01*
X319088Y705109D01*
X319954Y704444D01*
X319976Y704435D01*
X319873Y703742D01*
X319115Y703668D01*
X317999Y703329D01*
X316970Y702779D01*
X316068Y702039D01*
X315328Y701138D01*
X314779Y700109D01*
X314440Y698993D01*
X314326Y697832D01*
X314440Y696671D01*
X314779Y695555D01*
X315328Y694526D01*
X316068Y693625D01*
X316970Y692885D01*
X317999Y692335D01*
X319115Y691996D01*
X320276Y691882D01*
X321436Y691996D01*
X322552Y692335D01*
X323581Y692885D01*
X324483Y693625D01*
X325223Y694526D01*
X325773Y695555D01*
X326111Y696671D01*
X326225Y697832D01*
X326111Y698993D01*
X325773Y700109D01*
X325223Y701138D01*
X324483Y702039D01*
X323581Y702779D01*
X322630Y703287D01*
X322756Y703976D01*
X323130Y704025D01*
X324140Y704444D01*
X325007Y705109D01*
X325672Y705975D01*
X326090Y706985D01*
X326233Y708068D01*
X326090Y709152D01*
X325672Y710161D01*
X325007Y711028D01*
X324140Y711693D01*
X323397Y712001D01*
X323489Y712695D01*
X323739Y712727D01*
X325131Y713304D01*
X326327Y714222D01*
X327244Y715417D01*
X327821Y716810D01*
X328018Y718304D01*
X327821Y719799D01*
X327244Y721191D01*
X326327Y722387D01*
X325131Y723305D01*
X323739Y723881D01*
X322244Y724078D01*
D02*
G37*
G36*
X290657Y729273D02*
X288843D01*
X288938Y728795D01*
X289435Y728051D01*
X290180Y727554D01*
X290657Y727459D01*
Y729273D01*
D02*
G37*
G36*
X293272D02*
X291458D01*
Y727459D01*
X291935Y727554D01*
X292680Y728051D01*
X293177Y728795D01*
X293272Y729273D01*
D02*
G37*
G36*
X322336Y750880D02*
X320522D01*
X320617Y750402D01*
X321114Y749657D01*
X321858Y749160D01*
X322336Y749065D01*
Y750880D01*
D02*
G37*
G36*
X323136Y753494D02*
Y751680D01*
X324951D01*
X324856Y752157D01*
X324358Y752902D01*
X323614Y753399D01*
X323136Y753494D01*
D02*
G37*
G36*
X301470Y754423D02*
X299656D01*
X299751Y753945D01*
X300248Y753201D01*
X300992Y752703D01*
X301470Y752608D01*
Y754423D01*
D02*
G37*
G36*
X304085D02*
X302270D01*
Y752608D01*
X302748Y752703D01*
X303492Y753201D01*
X303990Y753945D01*
X304085Y754423D01*
D02*
G37*
G36*
X322336Y753494D02*
X321858Y753399D01*
X321114Y752902D01*
X320617Y752157D01*
X320522Y751680D01*
X322336D01*
Y753494D01*
D02*
G37*
G36*
X324951Y750880D02*
X323136D01*
Y749065D01*
X323614Y749160D01*
X324358Y749657D01*
X324856Y750402D01*
X324951Y750880D01*
D02*
G37*
G36*
X317120Y753494D02*
X316642Y753399D01*
X315898Y752902D01*
X315400Y752157D01*
X315305Y751680D01*
X317120D01*
Y753494D01*
D02*
G37*
G36*
X317920D02*
Y751680D01*
X319734D01*
X319639Y752157D01*
X319142Y752902D01*
X318398Y753399D01*
X317920Y753494D01*
D02*
G37*
G36*
X322336Y601470D02*
X320522D01*
X320617Y600992D01*
X321114Y600248D01*
X321858Y599751D01*
X322336Y599656D01*
Y601470D01*
D02*
G37*
G36*
X291542Y432825D02*
Y431010D01*
X293356D01*
X293261Y431488D01*
X292764Y432232D01*
X292020Y432730D01*
X291542Y432825D01*
D02*
G37*
G36*
X317120Y452159D02*
X315305D01*
X315400Y451681D01*
X315897Y450937D01*
X316642Y450440D01*
X317120Y450345D01*
Y452159D01*
D02*
G37*
G36*
X319734D02*
X317920D01*
Y450345D01*
X318398Y450440D01*
X319142Y450937D01*
X319639Y451681D01*
X319734Y452159D01*
D02*
G37*
G36*
X290742Y432825D02*
X290264Y432730D01*
X289520Y432232D01*
X289022Y431488D01*
X288927Y431010D01*
X290742D01*
Y432825D01*
D02*
G37*
G36*
X300886Y406428D02*
X300008Y406253D01*
X299583Y405969D01*
X297638D01*
X297052Y405853D01*
X296936Y405829D01*
X296340Y405432D01*
X286828Y395920D01*
X286327Y395820D01*
X285583Y395323D01*
X285085Y394579D01*
X284911Y393701D01*
X285085Y392823D01*
X285583Y392079D01*
X286327Y391581D01*
X287205Y391407D01*
X288083Y391581D01*
X288827Y392079D01*
X289324Y392823D01*
X289424Y393325D01*
X298398Y402299D01*
X299583D01*
X300008Y402014D01*
X300886Y401840D01*
X301764Y402014D01*
X302508Y402512D01*
X303005Y403256D01*
X303180Y404134D01*
X303005Y405012D01*
X302508Y405756D01*
X301764Y406253D01*
X300886Y406428D01*
D02*
G37*
G36*
X290742Y430210D02*
X288927D01*
X289022Y429732D01*
X289520Y428988D01*
X290264Y428491D01*
X290742Y428396D01*
Y430210D01*
D02*
G37*
G36*
X293356D02*
X291542D01*
Y428396D01*
X292020Y428491D01*
X292764Y428988D01*
X293261Y429732D01*
X293356Y430210D01*
D02*
G37*
G36*
X322336Y452159D02*
X320522D01*
X320617Y451681D01*
X321114Y450937D01*
X321858Y450440D01*
X322336Y450345D01*
Y452159D01*
D02*
G37*
G36*
X323136Y454774D02*
Y452959D01*
X324951D01*
X324856Y453437D01*
X324358Y454181D01*
X323614Y454678D01*
X323136Y454774D01*
D02*
G37*
G36*
X301569Y455702D02*
X299754D01*
X299849Y455224D01*
X300346Y454480D01*
X301091Y453983D01*
X301569Y453888D01*
Y455702D01*
D02*
G37*
G36*
X304183D02*
X302368D01*
Y453888D01*
X302846Y453983D01*
X303591Y454480D01*
X304088Y455224D01*
X304183Y455702D01*
D02*
G37*
G36*
X322336Y454774D02*
X321858Y454678D01*
X321114Y454181D01*
X320617Y453437D01*
X320522Y452959D01*
X322336D01*
Y454774D01*
D02*
G37*
G36*
X324951Y452159D02*
X323136D01*
Y450345D01*
X323614Y450440D01*
X324358Y450937D01*
X324856Y451681D01*
X324951Y452159D01*
D02*
G37*
G36*
X317120Y454774D02*
X316642Y454678D01*
X315897Y454181D01*
X315400Y453437D01*
X315305Y452959D01*
X317120D01*
Y454774D01*
D02*
G37*
G36*
X317920D02*
Y452959D01*
X319734D01*
X319639Y453437D01*
X319142Y454181D01*
X318398Y454678D01*
X317920Y454774D01*
D02*
G37*
G36*
X324951Y377947D02*
X323136D01*
Y376132D01*
X323614Y376227D01*
X324358Y376725D01*
X324856Y377469D01*
X324951Y377947D01*
D02*
G37*
G36*
X317120Y380561D02*
X316642Y380466D01*
X315897Y379969D01*
X315400Y379225D01*
X315305Y378747D01*
X317120D01*
Y380561D01*
D02*
G37*
G36*
X317920D02*
Y378747D01*
X319734D01*
X319639Y379225D01*
X319142Y379969D01*
X318398Y380466D01*
X317920Y380561D01*
D02*
G37*
G36*
X322336Y377947D02*
X320522D01*
X320617Y377469D01*
X321114Y376725D01*
X321858Y376227D01*
X322336Y376132D01*
Y377947D01*
D02*
G37*
G36*
X300000Y388584D02*
X298579Y388444D01*
X297212Y388030D01*
X295953Y387356D01*
X294849Y386451D01*
X293943Y385347D01*
X293269Y384087D01*
X292855Y382720D01*
X292715Y381299D01*
X292855Y379878D01*
X293269Y378511D01*
X293943Y377252D01*
X294849Y376148D01*
X295953Y375242D01*
X297212Y374569D01*
X298579Y374154D01*
X300000Y374014D01*
X301421Y374154D01*
X302788Y374569D01*
X304047Y375242D01*
X305151Y376148D01*
X306057Y377252D01*
X306731Y378511D01*
X307145Y379878D01*
X307285Y381299D01*
X307145Y382720D01*
X306731Y384087D01*
X306057Y385347D01*
X305151Y386451D01*
X304047Y387356D01*
X302788Y388030D01*
X301421Y388444D01*
X300000Y388584D01*
D02*
G37*
G36*
X317120Y377947D02*
X315305D01*
X315400Y377469D01*
X315897Y376725D01*
X316642Y376227D01*
X317120Y376132D01*
Y377947D01*
D02*
G37*
G36*
X319734D02*
X317920D01*
Y376132D01*
X318398Y376227D01*
X319142Y376725D01*
X319639Y377469D01*
X319734Y377947D01*
D02*
G37*
G36*
X322336Y380561D02*
X321858Y380466D01*
X321114Y379969D01*
X320617Y379225D01*
X320522Y378747D01*
X322336D01*
Y380561D01*
D02*
G37*
G36*
X281896Y386073D02*
Y384258D01*
X283711D01*
X283615Y384736D01*
X283118Y385480D01*
X282374Y385978D01*
X281896Y386073D01*
D02*
G37*
G36*
X277756Y425333D02*
X276261Y425136D01*
X274869Y424559D01*
X273673Y423642D01*
X272756Y422446D01*
X272179Y421053D01*
X271982Y419559D01*
X272179Y418065D01*
X272756Y416672D01*
X273673Y415476D01*
X274869Y414559D01*
X276261Y413982D01*
X276511Y413949D01*
X276603Y413255D01*
X275860Y412948D01*
X274993Y412282D01*
X274328Y411415D01*
X273910Y410406D01*
X273767Y409323D01*
X273910Y408240D01*
X274328Y407230D01*
X274993Y406363D01*
X275860Y405698D01*
X276870Y405280D01*
X277244Y405231D01*
X277370Y404542D01*
X276419Y404034D01*
X275517Y403294D01*
X274777Y402392D01*
X274227Y401364D01*
X273889Y400247D01*
X273775Y399087D01*
X273889Y397926D01*
X274227Y396810D01*
X274777Y395781D01*
X275517Y394879D01*
X276419Y394139D01*
X277448Y393590D01*
X278564Y393251D01*
X279724Y393137D01*
X280885Y393251D01*
X282001Y393590D01*
X283030Y394139D01*
X283932Y394879D01*
X284672Y395781D01*
X285221Y396810D01*
X285560Y397926D01*
X285674Y399087D01*
X285560Y400247D01*
X285221Y401364D01*
X284672Y402392D01*
X283932Y403294D01*
X283030Y404034D01*
X282001Y404584D01*
X280885Y404922D01*
X280127Y404997D01*
X280024Y405689D01*
X280046Y405698D01*
X280912Y406363D01*
X281577Y407230D01*
X281996Y408240D01*
X282138Y409323D01*
X281996Y410406D01*
X281577Y411415D01*
X280912Y412282D01*
X280046Y412948D01*
X279348Y413236D01*
X279250Y413982D01*
X280643Y414559D01*
X281839Y415476D01*
X282756Y416672D01*
X283333Y418065D01*
X283530Y419559D01*
X283333Y421053D01*
X282756Y422446D01*
X281839Y423642D01*
X280643Y424559D01*
X279250Y425136D01*
X277756Y425333D01*
D02*
G37*
G36*
X322244D02*
X320750Y425136D01*
X319357Y424559D01*
X318161Y423642D01*
X317244Y422446D01*
X316667Y421053D01*
X316470Y419559D01*
X316667Y418065D01*
X317244Y416672D01*
X318161Y415476D01*
X319357Y414559D01*
X320750Y413982D01*
X320652Y413236D01*
X319954Y412948D01*
X319088Y412282D01*
X318423Y411415D01*
X318004Y410406D01*
X317862Y409323D01*
X318004Y408240D01*
X318423Y407230D01*
X319088Y406363D01*
X319954Y405698D01*
X319976Y405689D01*
X319873Y404997D01*
X319115Y404922D01*
X317999Y404584D01*
X316970Y404034D01*
X316068Y403294D01*
X315328Y402392D01*
X314779Y401364D01*
X314440Y400247D01*
X314326Y399087D01*
X314440Y397926D01*
X314779Y396810D01*
X315328Y395781D01*
X316068Y394879D01*
X316970Y394139D01*
X317999Y393590D01*
X319115Y393251D01*
X320276Y393137D01*
X321436Y393251D01*
X322552Y393590D01*
X323581Y394139D01*
X324483Y394879D01*
X325223Y395781D01*
X325773Y396810D01*
X326111Y397926D01*
X326225Y399087D01*
X326111Y400247D01*
X325773Y401364D01*
X325223Y402392D01*
X324483Y403294D01*
X323581Y404034D01*
X322630Y404542D01*
X322756Y405231D01*
X323130Y405280D01*
X324140Y405698D01*
X325007Y406363D01*
X325672Y407230D01*
X326090Y408240D01*
X326233Y409323D01*
X326090Y410406D01*
X325672Y411415D01*
X325007Y412282D01*
X324140Y412948D01*
X323397Y413255D01*
X323489Y413949D01*
X323739Y413982D01*
X325131Y414559D01*
X326327Y415476D01*
X327244Y416672D01*
X327821Y418065D01*
X328018Y419559D01*
X327821Y421053D01*
X327244Y422446D01*
X326327Y423642D01*
X325131Y424559D01*
X323739Y425136D01*
X322244Y425333D01*
D02*
G37*
G36*
X281096Y386073D02*
X280618Y385978D01*
X279874Y385480D01*
X279377Y384736D01*
X279282Y384258D01*
X281096D01*
Y386073D01*
D02*
G37*
G36*
X323136Y380561D02*
Y378747D01*
X324951D01*
X324856Y379225D01*
X324358Y379969D01*
X323614Y380466D01*
X323136Y380561D01*
D02*
G37*
G36*
X281096Y383458D02*
X279282D01*
X279377Y382980D01*
X279874Y382236D01*
X280618Y381739D01*
X281096Y381644D01*
Y383458D01*
D02*
G37*
G36*
X283711D02*
X281896D01*
Y381644D01*
X282374Y381739D01*
X283118Y382236D01*
X283615Y382980D01*
X283711Y383458D01*
D02*
G37*
G36*
X301667Y532923D02*
X301189Y532828D01*
X300445Y532331D01*
X299948Y531587D01*
X299852Y531109D01*
X301667D01*
Y532923D01*
D02*
G37*
G36*
X302467D02*
Y531109D01*
X304281D01*
X304186Y531587D01*
X303689Y532331D01*
X302945Y532828D01*
X302467Y532923D01*
D02*
G37*
G36*
X301393Y553797D02*
X300515Y553623D01*
X299770Y553125D01*
X299273Y552381D01*
X299099Y551503D01*
X299273Y550625D01*
X299770Y549881D01*
X300425Y549444D01*
Y539283D01*
X300401Y539264D01*
X299960Y538690D01*
X299683Y538021D01*
X299588Y537303D01*
X299683Y536585D01*
X299960Y535916D01*
X300401Y535342D01*
X300975Y534901D01*
X301644Y534624D01*
X302362Y534529D01*
X303080Y534624D01*
X303749Y534901D01*
X304324Y535342D01*
X304764Y535916D01*
X305042Y536585D01*
X305136Y537303D01*
X305042Y538021D01*
X304764Y538690D01*
X304324Y539264D01*
X304299Y539283D01*
Y550534D01*
X304152Y551275D01*
X303732Y551903D01*
X303588Y552000D01*
X303512Y552381D01*
X303015Y553125D01*
X302271Y553623D01*
X301393Y553797D01*
D02*
G37*
G36*
X304281Y530309D02*
X302467D01*
Y528494D01*
X302945Y528589D01*
X303689Y529086D01*
X304186Y529831D01*
X304281Y530309D01*
D02*
G37*
G36*
X322336Y529380D02*
X321858Y529285D01*
X321114Y528788D01*
X320617Y528043D01*
X320522Y527565D01*
X322336D01*
Y529380D01*
D02*
G37*
G36*
X323136D02*
Y527565D01*
X324951D01*
X324856Y528043D01*
X324358Y528788D01*
X323614Y529285D01*
X323136Y529380D01*
D02*
G37*
G36*
X301667Y530309D02*
X299852D01*
X299948Y529831D01*
X300445Y529086D01*
X301189Y528589D01*
X301667Y528494D01*
Y530309D01*
D02*
G37*
G36*
X277756Y574706D02*
X276261Y574509D01*
X274869Y573932D01*
X273673Y573014D01*
X272756Y571819D01*
X272179Y570426D01*
X271982Y568932D01*
X272179Y567437D01*
X272756Y566045D01*
X273673Y564849D01*
X274869Y563932D01*
X276261Y563355D01*
X276511Y563322D01*
X276603Y562628D01*
X275860Y562320D01*
X274993Y561655D01*
X274328Y560788D01*
X273910Y559779D01*
X273767Y558696D01*
X273910Y557612D01*
X274328Y556603D01*
X274993Y555736D01*
X275860Y555071D01*
X276870Y554653D01*
X277244Y554603D01*
X277370Y553915D01*
X276419Y553406D01*
X275517Y552667D01*
X274777Y551765D01*
X274227Y550736D01*
X273889Y549620D01*
X273775Y548459D01*
X273889Y547298D01*
X274227Y546182D01*
X274777Y545154D01*
X275517Y544252D01*
X276419Y543512D01*
X277448Y542962D01*
X278564Y542624D01*
X279724Y542509D01*
X280885Y542624D01*
X282001Y542962D01*
X283030Y543512D01*
X283932Y544252D01*
X284672Y545154D01*
X285221Y546182D01*
X285560Y547298D01*
X285674Y548459D01*
X285560Y549620D01*
X285221Y550736D01*
X284672Y551765D01*
X283932Y552667D01*
X283030Y553406D01*
X282001Y553956D01*
X280885Y554295D01*
X280127Y554370D01*
X280024Y555062D01*
X280046Y555071D01*
X280912Y555736D01*
X281577Y556603D01*
X281996Y557612D01*
X282138Y558696D01*
X281996Y559779D01*
X281577Y560788D01*
X280912Y561655D01*
X280046Y562320D01*
X279348Y562609D01*
X279250Y563355D01*
X280643Y563932D01*
X281839Y564849D01*
X282756Y566045D01*
X283333Y567437D01*
X283530Y568932D01*
X283333Y570426D01*
X282756Y571819D01*
X281839Y573014D01*
X280643Y573932D01*
X279250Y574509D01*
X277756Y574706D01*
D02*
G37*
G36*
X291458Y582515D02*
Y580700D01*
X293272D01*
X293177Y581178D01*
X292680Y581923D01*
X291935Y582420D01*
X291458Y582515D01*
D02*
G37*
G36*
X317120Y601470D02*
X315305D01*
X315400Y600992D01*
X315897Y600248D01*
X316642Y599751D01*
X317120Y599656D01*
Y601470D01*
D02*
G37*
G36*
X319734D02*
X317920D01*
Y599656D01*
X318398Y599751D01*
X319142Y600248D01*
X319639Y600992D01*
X319734Y601470D01*
D02*
G37*
G36*
X290657Y582515D02*
X290180Y582420D01*
X289435Y581923D01*
X288938Y581178D01*
X288843Y580700D01*
X290657D01*
Y582515D01*
D02*
G37*
G36*
X322244Y574706D02*
X320750Y574509D01*
X319357Y573932D01*
X318161Y573014D01*
X317244Y571819D01*
X316667Y570426D01*
X316470Y568932D01*
X316667Y567437D01*
X317244Y566045D01*
X318161Y564849D01*
X319357Y563932D01*
X320750Y563355D01*
X320652Y562609D01*
X319954Y562320D01*
X319088Y561655D01*
X318423Y560788D01*
X318004Y559779D01*
X317862Y558696D01*
X318004Y557612D01*
X318423Y556603D01*
X319088Y555736D01*
X319954Y555071D01*
X319976Y555062D01*
X319873Y554370D01*
X319115Y554295D01*
X317999Y553956D01*
X316970Y553406D01*
X316068Y552667D01*
X315328Y551765D01*
X314779Y550736D01*
X314440Y549620D01*
X314326Y548459D01*
X314440Y547298D01*
X314779Y546182D01*
X315328Y545154D01*
X316068Y544252D01*
X316970Y543512D01*
X317999Y542962D01*
X319115Y542624D01*
X320276Y542509D01*
X321436Y542624D01*
X322552Y542962D01*
X323581Y543512D01*
X324483Y544252D01*
X325223Y545154D01*
X325773Y546182D01*
X326111Y547298D01*
X326225Y548459D01*
X326111Y549620D01*
X325773Y550736D01*
X325223Y551765D01*
X324483Y552667D01*
X323581Y553406D01*
X322630Y553915D01*
X322756Y554603D01*
X323130Y554653D01*
X324140Y555071D01*
X325007Y555736D01*
X325672Y556603D01*
X326090Y557612D01*
X326233Y558696D01*
X326090Y559779D01*
X325672Y560788D01*
X325007Y561655D01*
X324140Y562320D01*
X323397Y562628D01*
X323489Y563322D01*
X323739Y563355D01*
X325131Y563932D01*
X326327Y564849D01*
X327244Y566045D01*
X327821Y567437D01*
X328018Y568932D01*
X327821Y570426D01*
X327244Y571819D01*
X326327Y573014D01*
X325131Y573932D01*
X323739Y574509D01*
X322244Y574706D01*
D02*
G37*
G36*
X290657Y579900D02*
X288843D01*
X288938Y579423D01*
X289435Y578678D01*
X290180Y578181D01*
X290657Y578086D01*
Y579900D01*
D02*
G37*
G36*
X293272D02*
X291458D01*
Y578086D01*
X291935Y578181D01*
X292680Y578678D01*
X293177Y579423D01*
X293272Y579900D01*
D02*
G37*
G36*
X322244Y500019D02*
X320750Y499822D01*
X319357Y499246D01*
X318161Y498328D01*
X317244Y497132D01*
X316667Y495740D01*
X316470Y494245D01*
X316667Y492751D01*
X317244Y491358D01*
X318161Y490163D01*
X319357Y489245D01*
X320750Y488668D01*
X320652Y487922D01*
X319954Y487634D01*
X319088Y486969D01*
X318423Y486102D01*
X318004Y485092D01*
X317862Y484009D01*
X318004Y482926D01*
X318423Y481916D01*
X319088Y481049D01*
X319954Y480384D01*
X319976Y480376D01*
X319873Y479683D01*
X319115Y479608D01*
X317999Y479270D01*
X316970Y478720D01*
X316068Y477980D01*
X315328Y477078D01*
X314779Y476050D01*
X314440Y474934D01*
X314326Y473773D01*
X314440Y472612D01*
X314779Y471496D01*
X315328Y470467D01*
X316068Y469566D01*
X316970Y468826D01*
X317999Y468276D01*
X319115Y467937D01*
X320276Y467823D01*
X321436Y467937D01*
X322552Y468276D01*
X323581Y468826D01*
X324483Y469566D01*
X325223Y470467D01*
X325773Y471496D01*
X326111Y472612D01*
X326225Y473773D01*
X326111Y474934D01*
X325773Y476050D01*
X325223Y477078D01*
X324483Y477980D01*
X323581Y478720D01*
X322630Y479228D01*
X322756Y479917D01*
X323130Y479966D01*
X324140Y480384D01*
X325007Y481049D01*
X325672Y481916D01*
X326090Y482926D01*
X326233Y484009D01*
X326090Y485092D01*
X325672Y486102D01*
X325007Y486969D01*
X324140Y487634D01*
X323397Y487941D01*
X323489Y488635D01*
X323739Y488668D01*
X325131Y489245D01*
X326327Y490163D01*
X327244Y491358D01*
X327821Y492751D01*
X328018Y494245D01*
X327821Y495740D01*
X327244Y497132D01*
X326327Y498328D01*
X325131Y499246D01*
X323739Y499822D01*
X322244Y500019D01*
D02*
G37*
G36*
X290657Y505214D02*
X288843D01*
X288938Y504736D01*
X289435Y503992D01*
X290180Y503495D01*
X290657Y503400D01*
Y505214D01*
D02*
G37*
G36*
X293272D02*
X291458D01*
Y503400D01*
X291935Y503495D01*
X292680Y503992D01*
X293177Y504736D01*
X293272Y505214D01*
D02*
G37*
G36*
X277756Y500019D02*
X276261Y499822D01*
X274869Y499246D01*
X273673Y498328D01*
X272756Y497132D01*
X272179Y495740D01*
X271982Y494245D01*
X272179Y492751D01*
X272756Y491358D01*
X273673Y490163D01*
X274869Y489245D01*
X276261Y488668D01*
X276511Y488635D01*
X276603Y487941D01*
X275860Y487634D01*
X274993Y486969D01*
X274328Y486102D01*
X273910Y485092D01*
X273767Y484009D01*
X273910Y482926D01*
X274328Y481916D01*
X274993Y481049D01*
X275860Y480384D01*
X276870Y479966D01*
X277244Y479917D01*
X277370Y479228D01*
X276419Y478720D01*
X275517Y477980D01*
X274777Y477078D01*
X274227Y476050D01*
X273889Y474934D01*
X273775Y473773D01*
X273889Y472612D01*
X274227Y471496D01*
X274777Y470467D01*
X275517Y469566D01*
X276419Y468826D01*
X277448Y468276D01*
X278564Y467937D01*
X279724Y467823D01*
X280885Y467937D01*
X282001Y468276D01*
X283030Y468826D01*
X283932Y469566D01*
X284672Y470467D01*
X285221Y471496D01*
X285560Y472612D01*
X285674Y473773D01*
X285560Y474934D01*
X285221Y476050D01*
X284672Y477078D01*
X283932Y477980D01*
X283030Y478720D01*
X282001Y479270D01*
X280885Y479608D01*
X280127Y479683D01*
X280024Y480376D01*
X280046Y480384D01*
X280912Y481049D01*
X281577Y481916D01*
X281996Y482926D01*
X282138Y484009D01*
X281996Y485092D01*
X281577Y486102D01*
X280912Y486969D01*
X280046Y487634D01*
X279348Y487922D01*
X279250Y488668D01*
X280643Y489245D01*
X281839Y490163D01*
X282756Y491358D01*
X283333Y492751D01*
X283530Y494245D01*
X283333Y495740D01*
X282756Y497132D01*
X281839Y498328D01*
X280643Y499246D01*
X279250Y499822D01*
X277756Y500019D01*
D02*
G37*
G36*
X301569Y458317D02*
X301091Y458222D01*
X300346Y457725D01*
X299849Y456980D01*
X299754Y456502D01*
X301569D01*
Y458317D01*
D02*
G37*
G36*
X302368D02*
Y456502D01*
X304183D01*
X304088Y456980D01*
X303591Y457725D01*
X302846Y458222D01*
X302368Y458317D01*
D02*
G37*
G36*
X301393Y479187D02*
X300515Y479013D01*
X299770Y478515D01*
X299273Y477771D01*
X299099Y476893D01*
X299273Y476015D01*
X299455Y475743D01*
Y474985D01*
X299603Y474244D01*
X300023Y473616D01*
X300327Y473312D01*
Y464677D01*
X300303Y464658D01*
X299862Y464084D01*
X299585Y463415D01*
X299490Y462697D01*
X299585Y461979D01*
X299862Y461310D01*
X300303Y460736D01*
X300877Y460295D01*
X301546Y460018D01*
X302264Y459923D01*
X302982Y460018D01*
X303651Y460295D01*
X304225Y460736D01*
X304666Y461310D01*
X304943Y461979D01*
X305038Y462697D01*
X304943Y463415D01*
X304666Y464084D01*
X304225Y464658D01*
X304201Y464677D01*
Y474114D01*
X304054Y474856D01*
X303634Y475484D01*
X303348Y475770D01*
X303512Y476015D01*
X303687Y476893D01*
X303512Y477771D01*
X303015Y478515D01*
X302271Y479013D01*
X301393Y479187D01*
D02*
G37*
G36*
X290657Y507829D02*
X290180Y507733D01*
X289435Y507236D01*
X288938Y506492D01*
X288843Y506014D01*
X290657D01*
Y507829D01*
D02*
G37*
G36*
X324951Y526765D02*
X323136D01*
Y524951D01*
X323614Y525046D01*
X324358Y525543D01*
X324856Y526288D01*
X324951Y526765D01*
D02*
G37*
G36*
X317120Y529380D02*
X316642Y529285D01*
X315898Y528788D01*
X315400Y528043D01*
X315305Y527565D01*
X317120D01*
Y529380D01*
D02*
G37*
G36*
X317920D02*
Y527565D01*
X319734D01*
X319639Y528043D01*
X319142Y528788D01*
X318398Y529285D01*
X317920Y529380D01*
D02*
G37*
G36*
X322336Y526765D02*
X320522D01*
X320617Y526288D01*
X321114Y525543D01*
X321858Y525046D01*
X322336Y524951D01*
Y526765D01*
D02*
G37*
G36*
X291458Y507829D02*
Y506014D01*
X293272D01*
X293177Y506492D01*
X292680Y507236D01*
X291935Y507733D01*
X291458Y507829D01*
D02*
G37*
G36*
X317120Y526765D02*
X315305D01*
X315400Y526288D01*
X315898Y525543D01*
X316642Y525046D01*
X317120Y524951D01*
Y526765D01*
D02*
G37*
G36*
X319734D02*
X317920D01*
Y524951D01*
X318398Y525046D01*
X319142Y525543D01*
X319639Y526288D01*
X319734Y526765D01*
D02*
G37*
G36*
X238934Y1161600D02*
X235400D01*
Y1158066D01*
X236032Y1158149D01*
X236993Y1158547D01*
X237819Y1159181D01*
X238453Y1160007D01*
X238851Y1160968D01*
X238934Y1161600D01*
D02*
G37*
G36*
X364600D02*
X361066D01*
X361149Y1160968D01*
X361547Y1160007D01*
X362181Y1159181D01*
X363007Y1158547D01*
X363968Y1158149D01*
X364600Y1158066D01*
Y1161600D01*
D02*
G37*
G36*
X368934D02*
X365400D01*
Y1158066D01*
X366032Y1158149D01*
X366993Y1158547D01*
X367819Y1159181D01*
X368453Y1160007D01*
X368851Y1160968D01*
X368934Y1161600D01*
D02*
G37*
G36*
X234600D02*
X231066D01*
X231149Y1160968D01*
X231547Y1160007D01*
X232181Y1159181D01*
X233007Y1158547D01*
X233968Y1158149D01*
X234600Y1158066D01*
Y1161600D01*
D02*
G37*
G36*
X238953Y1135953D02*
X235400D01*
Y1132400D01*
X238953D01*
Y1135953D01*
D02*
G37*
G36*
X364600D02*
X361047D01*
Y1132400D01*
X364600D01*
Y1135953D01*
D02*
G37*
G36*
X368953D02*
X365400D01*
Y1132400D01*
X368953D01*
Y1135953D01*
D02*
G37*
G36*
X332106Y1218652D02*
X331074Y1218516D01*
X330113Y1218118D01*
X329287Y1217484D01*
X328654Y1216659D01*
X328255Y1215697D01*
X328119Y1214665D01*
X328255Y1213634D01*
X328654Y1212672D01*
X329287Y1211846D01*
X330071Y1211245D01*
Y1185905D01*
X330071Y1185905D01*
X330071D01*
X330218Y1185164D01*
X330638Y1184536D01*
X351440Y1163734D01*
X351149Y1163032D01*
X351013Y1162000D01*
X351149Y1160968D01*
X351547Y1160007D01*
X351812Y1159662D01*
X351502Y1159034D01*
X350624D01*
X350511Y1159172D01*
X348988Y1160422D01*
X347251Y1161350D01*
X345366Y1161922D01*
X343406Y1162115D01*
X328629D01*
X314302Y1176442D01*
Y1211368D01*
X314925Y1211846D01*
X315559Y1212672D01*
X315957Y1213634D01*
X316093Y1214665D01*
X315957Y1215697D01*
X315559Y1216659D01*
X314925Y1217484D01*
X314100Y1218118D01*
X313138Y1218516D01*
X312106Y1218652D01*
X311074Y1218516D01*
X310113Y1218118D01*
X309287Y1217484D01*
X308654Y1216659D01*
X308255Y1215697D01*
X308119Y1214665D01*
X308255Y1213634D01*
X308654Y1212672D01*
X309287Y1211846D01*
X309714Y1211519D01*
Y1175492D01*
X309888Y1174614D01*
X310386Y1173870D01*
X310386Y1173870D01*
X310386D01*
Y1173870D01*
X310386Y1173870D01*
X321494Y1162762D01*
X321226Y1162115D01*
X256102D01*
X254142Y1161922D01*
X253059Y1161594D01*
X252497Y1162011D01*
Y1164155D01*
X252322Y1165033D01*
X251825Y1165777D01*
X246290Y1171312D01*
Y1175625D01*
X250738Y1180072D01*
X250792Y1180050D01*
X251575Y1179947D01*
X252358Y1180050D01*
X253088Y1180352D01*
X253714Y1180833D01*
X254195Y1181460D01*
X254498Y1182189D01*
X254601Y1182972D01*
X254498Y1183756D01*
X254195Y1184485D01*
X253714Y1185112D01*
X253088Y1185593D01*
X252358Y1185895D01*
X251575Y1185998D01*
X250792Y1185895D01*
X250062Y1185593D01*
X249435Y1185112D01*
X249319Y1184960D01*
X248772Y1184595D01*
X242374Y1178197D01*
X241877Y1177453D01*
X241702Y1176575D01*
Y1173062D01*
X234167D01*
X233920Y1173659D01*
X233439Y1174285D01*
X232812Y1174766D01*
X232082Y1175068D01*
X231299Y1175172D01*
X230516Y1175068D01*
X229786Y1174766D01*
X229160Y1174285D01*
X228679Y1173659D01*
X228376Y1172929D01*
X228273Y1172146D01*
X228376Y1171362D01*
X228679Y1170633D01*
X229160Y1170006D01*
X229786Y1169525D01*
X230516Y1169223D01*
X231048Y1169153D01*
X231055Y1169146D01*
X231799Y1168648D01*
X232677Y1168474D01*
X242640D01*
X244552Y1166561D01*
X244327Y1165898D01*
X243968Y1165851D01*
X243007Y1165453D01*
X242181Y1164819D01*
X241547Y1163993D01*
X241149Y1163032D01*
X241013Y1162000D01*
X241149Y1160968D01*
X241547Y1160007D01*
X242181Y1159181D01*
X242245Y1159132D01*
X242188Y1158434D01*
X241092Y1157848D01*
X240026Y1156974D01*
X239152Y1155908D01*
X238566Y1154812D01*
X237868Y1154755D01*
X237819Y1154819D01*
X236993Y1155453D01*
X236032Y1155851D01*
X235000Y1155987D01*
X233968Y1155851D01*
X233007Y1155453D01*
X232181Y1154819D01*
X231547Y1153993D01*
X231149Y1153032D01*
X231013Y1152000D01*
X231149Y1150968D01*
X231547Y1150007D01*
X232181Y1149181D01*
X233007Y1148547D01*
X233968Y1148149D01*
X235000Y1148013D01*
X236032Y1148149D01*
X236993Y1148547D01*
X237819Y1149181D01*
X237868Y1149245D01*
X238566Y1149188D01*
X239152Y1148092D01*
X240026Y1147026D01*
X241092Y1146152D01*
X242188Y1145566D01*
X242245Y1144868D01*
X242181Y1144819D01*
X241547Y1143993D01*
X241149Y1143032D01*
X241101Y1142664D01*
X240438Y1142439D01*
X239507Y1143370D01*
X238878Y1143790D01*
X238506Y1143864D01*
X238453Y1143993D01*
X237819Y1144819D01*
X236993Y1145453D01*
X236032Y1145851D01*
X235000Y1145987D01*
X233968Y1145851D01*
X233007Y1145453D01*
X232181Y1144819D01*
X231547Y1143993D01*
X231149Y1143032D01*
X231013Y1142000D01*
X231149Y1140968D01*
X231547Y1140007D01*
X232181Y1139181D01*
X233007Y1138547D01*
X233968Y1138149D01*
X235000Y1138013D01*
X236032Y1138149D01*
X236993Y1138547D01*
X237819Y1139181D01*
X238192Y1139205D01*
X241915Y1135483D01*
X241915D01*
X241915Y1135483D01*
X241915D01*
X241915Y1135483D01*
Y1135483D01*
X241915Y1135483D01*
Y1135483D01*
X242002Y1135425D01*
X242116Y1134734D01*
X241547Y1133993D01*
X241149Y1133032D01*
X241013Y1132000D01*
X241149Y1130968D01*
X241547Y1130007D01*
X242181Y1129181D01*
X243007Y1128547D01*
X243968Y1128149D01*
X245000Y1128013D01*
X246032Y1128149D01*
X246993Y1128547D01*
X247819Y1129181D01*
X248345Y1129866D01*
X254140D01*
X254449Y1129238D01*
X254171Y1128875D01*
X253869Y1128145D01*
X253765Y1127362D01*
X253869Y1126579D01*
X254171Y1125849D01*
X254652Y1125223D01*
X255278Y1124742D01*
X256008Y1124439D01*
X256791Y1124336D01*
X257575Y1124439D01*
X258304Y1124742D01*
X258931Y1125223D01*
X259086Y1125425D01*
X264241D01*
X264396Y1125223D01*
X265022Y1124742D01*
X265752Y1124439D01*
X266535Y1124336D01*
X267319Y1124439D01*
X268048Y1124742D01*
X268675Y1125223D01*
X269156Y1125849D01*
X269458Y1126579D01*
X269561Y1127362D01*
X269458Y1128145D01*
X269156Y1128875D01*
X268877Y1129238D01*
X269187Y1129866D01*
X300110D01*
X300616Y1129207D01*
X300135Y1128580D01*
X299833Y1127850D01*
X299730Y1127067D01*
X299833Y1126284D01*
X300135Y1125554D01*
X300616Y1124927D01*
X301243Y1124446D01*
X301973Y1124144D01*
X302756Y1124041D01*
X303539Y1124144D01*
X304269Y1124446D01*
X304895Y1124927D01*
X305126Y1125228D01*
X309122D01*
X309278Y1125026D01*
X309904Y1124545D01*
X310634Y1124243D01*
X311417Y1124140D01*
X312200Y1124243D01*
X312930Y1124545D01*
X313557Y1125026D01*
X314038Y1125653D01*
X314340Y1126382D01*
X314443Y1127166D01*
X314340Y1127949D01*
X314038Y1128678D01*
X313608Y1129238D01*
X313793Y1129613D01*
X313987Y1129866D01*
X351655D01*
X352181Y1129181D01*
X353007Y1128547D01*
X353968Y1128149D01*
X355000Y1128013D01*
X356032Y1128149D01*
X356993Y1128547D01*
X357819Y1129181D01*
X358453Y1130007D01*
X358851Y1130968D01*
X358987Y1132000D01*
X358851Y1133032D01*
X358453Y1133993D01*
X357835Y1134799D01*
X357949Y1135489D01*
X358380Y1135777D01*
X361808Y1139205D01*
X362181Y1139181D01*
X363007Y1138547D01*
X363968Y1138149D01*
X365000Y1138013D01*
X366032Y1138149D01*
X366993Y1138547D01*
X367819Y1139181D01*
X368453Y1140007D01*
X368851Y1140968D01*
X368987Y1142000D01*
X368851Y1143032D01*
X368453Y1143993D01*
X367819Y1144819D01*
X366993Y1145453D01*
X366032Y1145851D01*
X365000Y1145987D01*
X363968Y1145851D01*
X363007Y1145453D01*
X362181Y1144819D01*
X361547Y1143993D01*
X361494Y1143864D01*
X361122Y1143790D01*
X360493Y1143370D01*
X359562Y1142439D01*
X358899Y1142664D01*
X358851Y1143032D01*
X358453Y1143993D01*
X357819Y1144819D01*
X357755Y1144868D01*
X357812Y1145566D01*
X358908Y1146152D01*
X359974Y1147026D01*
X360848Y1148092D01*
X361434Y1149188D01*
X362132Y1149245D01*
X362181Y1149181D01*
X363007Y1148547D01*
X363968Y1148149D01*
X365000Y1148013D01*
X366032Y1148149D01*
X366993Y1148547D01*
X367819Y1149181D01*
X368453Y1150007D01*
X368851Y1150968D01*
X368987Y1152000D01*
X368851Y1153032D01*
X368453Y1153993D01*
X367819Y1154819D01*
X366993Y1155453D01*
X366032Y1155851D01*
X365000Y1155987D01*
X363968Y1155851D01*
X363007Y1155453D01*
X362181Y1154819D01*
X362132Y1154755D01*
X361434Y1154812D01*
X360848Y1155908D01*
X359974Y1156974D01*
X358908Y1157848D01*
X357812Y1158434D01*
X357755Y1159132D01*
X357819Y1159181D01*
X358453Y1160007D01*
X358851Y1160968D01*
X358987Y1162000D01*
X358851Y1163032D01*
X358453Y1163993D01*
X357819Y1164819D01*
X356993Y1165453D01*
X356032Y1165851D01*
X355000Y1165987D01*
X354705Y1165948D01*
X333945Y1186708D01*
Y1211149D01*
X334100Y1211213D01*
X334925Y1211846D01*
X335559Y1212672D01*
X335957Y1213634D01*
X336093Y1214665D01*
X335957Y1215697D01*
X335559Y1216659D01*
X334925Y1217484D01*
X334100Y1218118D01*
X333138Y1218516D01*
X332106Y1218652D01*
D02*
G37*
G36*
X267600Y1168324D02*
X265786D01*
X265880Y1167846D01*
X266378Y1167102D01*
X267122Y1166605D01*
X267600Y1166510D01*
Y1168324D01*
D02*
G37*
G36*
X270215D02*
X268400D01*
Y1166510D01*
X268878Y1166605D01*
X269622Y1167102D01*
X270120Y1167846D01*
X270215Y1168324D01*
D02*
G37*
G36*
X267600Y1170939D02*
X267122Y1170844D01*
X266378Y1170347D01*
X265880Y1169602D01*
X265786Y1169124D01*
X267600D01*
Y1170939D01*
D02*
G37*
G36*
X365400Y1165934D02*
Y1162400D01*
X368934D01*
X368851Y1163032D01*
X368453Y1163993D01*
X367819Y1164819D01*
X366993Y1165453D01*
X366032Y1165851D01*
X365400Y1165934D01*
D02*
G37*
G36*
X234600D02*
X233968Y1165851D01*
X233007Y1165453D01*
X232181Y1164819D01*
X231547Y1163993D01*
X231149Y1163032D01*
X231066Y1162400D01*
X234600D01*
Y1165934D01*
D02*
G37*
G36*
X235400D02*
Y1162400D01*
X238934D01*
X238851Y1163032D01*
X238453Y1163993D01*
X237819Y1164819D01*
X236993Y1165453D01*
X236032Y1165851D01*
X235400Y1165934D01*
D02*
G37*
G36*
X364600D02*
X363968Y1165851D01*
X363007Y1165453D01*
X362181Y1164819D01*
X361547Y1163993D01*
X361149Y1163032D01*
X361066Y1162400D01*
X364600D01*
Y1165934D01*
D02*
G37*
G36*
X277756Y1092490D02*
X276261Y1092293D01*
X274869Y1091717D01*
X273673Y1090799D01*
X272756Y1089603D01*
X272179Y1088211D01*
X271982Y1086716D01*
X272179Y1085222D01*
X272756Y1083829D01*
X273673Y1082634D01*
X274869Y1081716D01*
X276261Y1081139D01*
X276511Y1081106D01*
X276603Y1080412D01*
X275860Y1080105D01*
X274993Y1079440D01*
X274328Y1078573D01*
X273910Y1077563D01*
X273767Y1076480D01*
X273910Y1075397D01*
X274328Y1074387D01*
X274993Y1073521D01*
X275860Y1072855D01*
X276870Y1072437D01*
X277244Y1072388D01*
X277370Y1071699D01*
X276419Y1071191D01*
X275517Y1070451D01*
X274777Y1069549D01*
X274227Y1068521D01*
X273889Y1067405D01*
X273775Y1066244D01*
X273889Y1065083D01*
X274227Y1063967D01*
X274777Y1062938D01*
X275517Y1062037D01*
X276419Y1061297D01*
X277448Y1060747D01*
X278564Y1060408D01*
X279724Y1060294D01*
X280885Y1060408D01*
X282001Y1060747D01*
X283030Y1061297D01*
X283932Y1062037D01*
X284672Y1062938D01*
X285221Y1063967D01*
X285560Y1065083D01*
X285674Y1066244D01*
X285560Y1067405D01*
X285221Y1068521D01*
X284672Y1069549D01*
X283932Y1070451D01*
X283030Y1071191D01*
X282001Y1071741D01*
X280885Y1072079D01*
X280127Y1072154D01*
X280024Y1072847D01*
X280046Y1072855D01*
X280912Y1073521D01*
X281577Y1074387D01*
X281996Y1075397D01*
X282138Y1076480D01*
X281996Y1077563D01*
X281577Y1078573D01*
X280912Y1079440D01*
X280046Y1080105D01*
X279348Y1080394D01*
X279250Y1081139D01*
X280643Y1081716D01*
X281839Y1082634D01*
X282756Y1083829D01*
X283333Y1085222D01*
X283530Y1086716D01*
X283333Y1088211D01*
X282756Y1089603D01*
X281839Y1090799D01*
X280643Y1091717D01*
X279250Y1092293D01*
X277756Y1092490D01*
D02*
G37*
G36*
X322244D02*
X320750Y1092293D01*
X319357Y1091717D01*
X318161Y1090799D01*
X317244Y1089603D01*
X316667Y1088211D01*
X316470Y1086716D01*
X316667Y1085222D01*
X317244Y1083829D01*
X318161Y1082634D01*
X319357Y1081716D01*
X320750Y1081139D01*
X320652Y1080394D01*
X319954Y1080105D01*
X319088Y1079440D01*
X318423Y1078573D01*
X318004Y1077563D01*
X317862Y1076480D01*
X318004Y1075397D01*
X318423Y1074387D01*
X319088Y1073521D01*
X319954Y1072855D01*
X319976Y1072847D01*
X319873Y1072154D01*
X319115Y1072079D01*
X317999Y1071741D01*
X316970Y1071191D01*
X316068Y1070451D01*
X315328Y1069549D01*
X314779Y1068521D01*
X314440Y1067405D01*
X314326Y1066244D01*
X314440Y1065083D01*
X314779Y1063967D01*
X315328Y1062938D01*
X316068Y1062037D01*
X316970Y1061297D01*
X317999Y1060747D01*
X319115Y1060408D01*
X320276Y1060294D01*
X321436Y1060408D01*
X322552Y1060747D01*
X323581Y1061297D01*
X324483Y1062037D01*
X325223Y1062938D01*
X325773Y1063967D01*
X326111Y1065083D01*
X326225Y1066244D01*
X326111Y1067405D01*
X325773Y1068521D01*
X325223Y1069549D01*
X324483Y1070451D01*
X323581Y1071191D01*
X322630Y1071699D01*
X322756Y1072388D01*
X323130Y1072437D01*
X324140Y1072855D01*
X325007Y1073521D01*
X325672Y1074387D01*
X326090Y1075397D01*
X326233Y1076480D01*
X326090Y1077563D01*
X325672Y1078573D01*
X325007Y1079440D01*
X324140Y1080105D01*
X323397Y1080412D01*
X323489Y1081106D01*
X323739Y1081139D01*
X325131Y1081716D01*
X326327Y1082634D01*
X327244Y1083829D01*
X327821Y1085222D01*
X328018Y1086716D01*
X327821Y1088211D01*
X327244Y1089603D01*
X326327Y1090799D01*
X325131Y1091717D01*
X323739Y1092293D01*
X322244Y1092490D01*
D02*
G37*
G36*
X290657Y1097685D02*
X288843D01*
X288938Y1097207D01*
X289435Y1096463D01*
X290180Y1095966D01*
X290657Y1095871D01*
Y1097685D01*
D02*
G37*
G36*
X301772Y1073456D02*
X300894Y1073281D01*
X300149Y1072784D01*
X299652Y1072039D01*
X299478Y1071161D01*
X299652Y1070284D01*
X300149Y1069539D01*
X300327Y1069421D01*
Y1057295D01*
X300303Y1057276D01*
X299862Y1056702D01*
X299585Y1056033D01*
X299490Y1055315D01*
X299585Y1054597D01*
X299862Y1053928D01*
X300303Y1053354D01*
X300877Y1052913D01*
X301546Y1052636D01*
X302264Y1052541D01*
X302982Y1052636D01*
X303651Y1052913D01*
X304225Y1053354D01*
X304666Y1053928D01*
X304943Y1054597D01*
X305037Y1055315D01*
X304943Y1056033D01*
X304666Y1056702D01*
X304225Y1057276D01*
X304201Y1057295D01*
Y1070669D01*
X304054Y1071411D01*
X304000Y1071490D01*
X303891Y1072039D01*
X303394Y1072784D01*
X302650Y1073281D01*
X301772Y1073456D01*
D02*
G37*
G36*
X303789Y1048714D02*
X301975D01*
Y1046900D01*
X302453Y1046995D01*
X303197Y1047492D01*
X303694Y1048236D01*
X303789Y1048714D01*
D02*
G37*
G36*
X301175Y1051329D02*
X300697Y1051234D01*
X299953Y1050736D01*
X299455Y1049992D01*
X299360Y1049514D01*
X301175D01*
Y1051329D01*
D02*
G37*
G36*
X301975D02*
Y1049514D01*
X303789D01*
X303694Y1049992D01*
X303197Y1050736D01*
X302453Y1051234D01*
X301975Y1051329D01*
D02*
G37*
G36*
X293272Y1097685D02*
X291458D01*
Y1095871D01*
X291935Y1095966D01*
X292680Y1096463D01*
X293177Y1097207D01*
X293272Y1097685D01*
D02*
G37*
G36*
X364600Y1131600D02*
X361047D01*
Y1128047D01*
X364600D01*
Y1131600D01*
D02*
G37*
G36*
X368953D02*
X365400D01*
Y1128047D01*
X368953D01*
Y1131600D01*
D02*
G37*
G36*
X234600Y1135953D02*
X231047D01*
Y1132400D01*
X234600D01*
Y1135953D01*
D02*
G37*
G36*
X238953Y1131600D02*
X235400D01*
Y1128047D01*
X238953D01*
Y1131600D01*
D02*
G37*
G36*
X290657Y1100300D02*
X290180Y1100204D01*
X289435Y1099707D01*
X288938Y1098963D01*
X288843Y1098485D01*
X290657D01*
Y1100300D01*
D02*
G37*
G36*
X291458D02*
Y1098485D01*
X293272D01*
X293177Y1098963D01*
X292680Y1099707D01*
X291935Y1100204D01*
X291458Y1100300D01*
D02*
G37*
G36*
X234600Y1131600D02*
X231047D01*
Y1128047D01*
X234600D01*
Y1131600D01*
D02*
G37*
G36*
X268400Y1170939D02*
Y1169124D01*
X270215D01*
X270120Y1169602D01*
X269622Y1170347D01*
X268878Y1170844D01*
X268400Y1170939D01*
D02*
G37*
G36*
X266059Y1218618D02*
X262506D01*
Y1215065D01*
X266059D01*
Y1218618D01*
D02*
G37*
G36*
X321706Y1218600D02*
X321074Y1218516D01*
X320113Y1218118D01*
X319287Y1217484D01*
X318654Y1216659D01*
X318255Y1215697D01*
X318172Y1215065D01*
X321706D01*
Y1218600D01*
D02*
G37*
G36*
X322506D02*
Y1215065D01*
X326041D01*
X325957Y1215697D01*
X325559Y1216659D01*
X324925Y1217484D01*
X324100Y1218118D01*
X323138Y1218516D01*
X322506Y1218600D01*
D02*
G37*
G36*
X261706Y1218618D02*
X258154D01*
Y1215065D01*
X261706D01*
Y1218618D01*
D02*
G37*
G36*
X266059Y1214265D02*
X262506D01*
Y1210713D01*
X266059D01*
Y1214265D01*
D02*
G37*
G36*
X321706D02*
X318172D01*
X318255Y1213634D01*
X318654Y1212672D01*
X319287Y1211846D01*
X320113Y1211213D01*
X321074Y1210814D01*
X321706Y1210731D01*
Y1214265D01*
D02*
G37*
G36*
X326041D02*
X322506D01*
Y1210731D01*
X323138Y1210814D01*
X324100Y1211213D01*
X324925Y1211846D01*
X325559Y1212672D01*
X325957Y1213634D01*
X326041Y1214265D01*
D02*
G37*
G36*
X231405Y1218744D02*
X229591D01*
X229686Y1218266D01*
X230183Y1217522D01*
X230928Y1217025D01*
X231405Y1216930D01*
Y1218744D01*
D02*
G37*
G36*
X232206Y1221359D02*
Y1219544D01*
X234020D01*
X233925Y1220022D01*
X233428Y1220767D01*
X232683Y1221264D01*
X232206Y1221359D01*
D02*
G37*
G36*
X240264D02*
X239786Y1221264D01*
X239041Y1220767D01*
X238544Y1220022D01*
X238449Y1219544D01*
X240264D01*
Y1221359D01*
D02*
G37*
G36*
X241064D02*
Y1219544D01*
X242878D01*
X242783Y1220022D01*
X242286Y1220767D01*
X241542Y1221264D01*
X241064Y1221359D01*
D02*
G37*
G36*
X231405D02*
X230928Y1221264D01*
X230183Y1220767D01*
X229686Y1220022D01*
X229591Y1219544D01*
X231405D01*
Y1221359D01*
D02*
G37*
G36*
X234020Y1218744D02*
X232206D01*
Y1216930D01*
X232683Y1217025D01*
X233428Y1217522D01*
X233925Y1218266D01*
X234020Y1218744D01*
D02*
G37*
G36*
X240264D02*
X238449D01*
X238544Y1218266D01*
X239041Y1217522D01*
X239786Y1217025D01*
X240264Y1216930D01*
Y1218744D01*
D02*
G37*
G36*
X242878D02*
X241064D01*
Y1216930D01*
X241542Y1217025D01*
X242286Y1217522D01*
X242783Y1218266D01*
X242878Y1218744D01*
D02*
G37*
G36*
X298622Y1194195D02*
X297201Y1194055D01*
X295834Y1193640D01*
X294575Y1192967D01*
X293471Y1192061D01*
X292565Y1190957D01*
X291892Y1189697D01*
X291477Y1188331D01*
X291337Y1186909D01*
X291477Y1185488D01*
X291892Y1184122D01*
X292565Y1182862D01*
X293471Y1181758D01*
X294575Y1180852D01*
X295834Y1180179D01*
X297201Y1179764D01*
X298622Y1179624D01*
X300043Y1179764D01*
X301410Y1180179D01*
X302669Y1180852D01*
X303773Y1181758D01*
X304679Y1182862D01*
X305353Y1184122D01*
X305767Y1185488D01*
X305907Y1186909D01*
X305767Y1188331D01*
X305353Y1189697D01*
X304679Y1190957D01*
X303773Y1192061D01*
X302669Y1192967D01*
X301410Y1193640D01*
X300043Y1194055D01*
X298622Y1194195D01*
D02*
G37*
G36*
X345669Y1196841D02*
X344637Y1196705D01*
X343676Y1196307D01*
X342850Y1195673D01*
X342217Y1194848D01*
X341818Y1193886D01*
X341682Y1192854D01*
X341818Y1191823D01*
X342217Y1190861D01*
X342850Y1190035D01*
X343676Y1189402D01*
X344637Y1189003D01*
X345669Y1188867D01*
X346701Y1189003D01*
X347663Y1189402D01*
X348488Y1190035D01*
X349122Y1190861D01*
X349520Y1191823D01*
X349656Y1192854D01*
X349520Y1193886D01*
X349122Y1194848D01*
X348488Y1195673D01*
X347663Y1196307D01*
X346701Y1196705D01*
X345669Y1196841D01*
D02*
G37*
G36*
X345269Y1202454D02*
X341717D01*
Y1198902D01*
X345269D01*
Y1202454D01*
D02*
G37*
G36*
X281587Y1178543D02*
Y1176728D01*
X283401D01*
X283306Y1177206D01*
X282809Y1177950D01*
X282065Y1178448D01*
X281587Y1178543D01*
D02*
G37*
G36*
X280787Y1175928D02*
X278972D01*
X279067Y1175450D01*
X279564Y1174706D01*
X280309Y1174209D01*
X280787Y1174114D01*
Y1175928D01*
D02*
G37*
G36*
X283401D02*
X281587D01*
Y1174114D01*
X282065Y1174209D01*
X282809Y1174706D01*
X283306Y1175450D01*
X283401Y1175928D01*
D02*
G37*
G36*
X280787Y1178543D02*
X280309Y1178448D01*
X279564Y1177950D01*
X279067Y1177206D01*
X278972Y1176728D01*
X280787D01*
Y1178543D01*
D02*
G37*
G36*
X349622Y1202454D02*
X346069D01*
Y1198902D01*
X349622D01*
Y1202454D01*
D02*
G37*
G36*
X292106Y1218652D02*
X291074Y1218516D01*
X290113Y1218118D01*
X289287Y1217484D01*
X288654Y1216659D01*
X288255Y1215697D01*
X288119Y1214665D01*
X288255Y1213634D01*
X288654Y1212672D01*
X289287Y1211846D01*
X290113Y1211213D01*
X291074Y1210814D01*
X292106Y1210678D01*
X293138Y1210814D01*
X294100Y1211213D01*
X294925Y1211846D01*
X295559Y1212672D01*
X295957Y1213634D01*
X296093Y1214665D01*
X295957Y1215697D01*
X295559Y1216659D01*
X294925Y1217484D01*
X294100Y1218118D01*
X293138Y1218516D01*
X292106Y1218652D01*
D02*
G37*
G36*
X302106D02*
X301074Y1218516D01*
X300113Y1218118D01*
X299287Y1217484D01*
X298654Y1216659D01*
X298255Y1215697D01*
X298119Y1214665D01*
X298255Y1213634D01*
X298654Y1212672D01*
X299287Y1211846D01*
X300113Y1211213D01*
X301074Y1210814D01*
X302106Y1210678D01*
X303138Y1210814D01*
X304100Y1211213D01*
X304925Y1211846D01*
X305559Y1212672D01*
X305957Y1213634D01*
X306093Y1214665D01*
X305957Y1215697D01*
X305559Y1216659D01*
X304925Y1217484D01*
X304100Y1218118D01*
X303138Y1218516D01*
X302106Y1218652D01*
D02*
G37*
G36*
X261706Y1214265D02*
X258154D01*
Y1210713D01*
X261706D01*
Y1214265D01*
D02*
G37*
G36*
X282106Y1218652D02*
X281074Y1218516D01*
X280113Y1218118D01*
X279287Y1217484D01*
X278654Y1216659D01*
X278255Y1215697D01*
X278119Y1214665D01*
X278255Y1213634D01*
X278654Y1212672D01*
X279287Y1211846D01*
X280113Y1211213D01*
X281074Y1210814D01*
X282106Y1210678D01*
X283138Y1210814D01*
X284100Y1211213D01*
X284925Y1211846D01*
X285559Y1212672D01*
X285957Y1213634D01*
X286093Y1214665D01*
X285957Y1215697D01*
X285559Y1216659D01*
X284925Y1217484D01*
X284100Y1218118D01*
X283138Y1218516D01*
X282106Y1218652D01*
D02*
G37*
G36*
X345269Y1206807D02*
X341717D01*
Y1203254D01*
X345269D01*
Y1206807D01*
D02*
G37*
G36*
X349622D02*
X346069D01*
Y1203254D01*
X349622D01*
Y1206807D01*
D02*
G37*
G36*
X272106Y1218652D02*
X271074Y1218516D01*
X270113Y1218118D01*
X269287Y1217484D01*
X268654Y1216659D01*
X268255Y1215697D01*
X268119Y1214665D01*
X268255Y1213634D01*
X268654Y1212672D01*
X269287Y1211846D01*
X270113Y1211213D01*
X271074Y1210814D01*
X272106Y1210678D01*
X273138Y1210814D01*
X274100Y1211213D01*
X274925Y1211846D01*
X275559Y1212672D01*
X275957Y1213634D01*
X276093Y1214665D01*
X275957Y1215697D01*
X275559Y1216659D01*
X274925Y1217484D01*
X274100Y1218118D01*
X273138Y1218516D01*
X272106Y1218652D01*
D02*
G37*
G36*
X317920Y902805D02*
Y900991D01*
X319734D01*
X319639Y901468D01*
X319142Y902213D01*
X318398Y902710D01*
X317920Y902805D01*
D02*
G37*
G36*
X322336D02*
X321858Y902710D01*
X321114Y902213D01*
X320617Y901468D01*
X320522Y900991D01*
X322336D01*
Y902805D01*
D02*
G37*
G36*
X323136D02*
Y900991D01*
X324951D01*
X324856Y901468D01*
X324358Y902213D01*
X323614Y902710D01*
X323136Y902805D01*
D02*
G37*
G36*
X317120D02*
X316642Y902710D01*
X315897Y902213D01*
X315400Y901468D01*
X315305Y900991D01*
X317120D01*
Y902805D01*
D02*
G37*
G36*
X319734Y900191D02*
X317920D01*
Y898376D01*
X318398Y898471D01*
X319142Y898968D01*
X319639Y899713D01*
X319734Y900191D01*
D02*
G37*
G36*
X322336D02*
X320522D01*
X320617Y899713D01*
X321114Y898968D01*
X321858Y898471D01*
X322336Y898376D01*
Y900191D01*
D02*
G37*
G36*
X324951D02*
X323136D01*
Y898376D01*
X323614Y898471D01*
X324358Y898968D01*
X324856Y899713D01*
X324951Y900191D01*
D02*
G37*
G36*
X301569Y903931D02*
X299754D01*
X299849Y903453D01*
X300346Y902709D01*
X301091Y902211D01*
X301569Y902116D01*
Y903931D01*
D02*
G37*
G36*
X277756Y948137D02*
X276261Y947940D01*
X274869Y947364D01*
X273673Y946446D01*
X272756Y945250D01*
X272179Y943858D01*
X271982Y942363D01*
X272179Y940869D01*
X272756Y939476D01*
X273673Y938281D01*
X274869Y937363D01*
X276261Y936786D01*
X276511Y936753D01*
X276603Y936059D01*
X275860Y935752D01*
X274993Y935087D01*
X274328Y934220D01*
X273910Y933210D01*
X273767Y932127D01*
X273910Y931044D01*
X274328Y930034D01*
X274993Y929168D01*
X275860Y928502D01*
X276870Y928084D01*
X277244Y928035D01*
X277370Y927346D01*
X276419Y926838D01*
X275517Y926098D01*
X274777Y925196D01*
X274227Y924168D01*
X273889Y923052D01*
X273775Y921891D01*
X273889Y920730D01*
X274227Y919614D01*
X274777Y918585D01*
X275517Y917684D01*
X276419Y916944D01*
X277448Y916394D01*
X278564Y916055D01*
X279724Y915941D01*
X280885Y916055D01*
X282001Y916394D01*
X283030Y916944D01*
X283932Y917684D01*
X284672Y918585D01*
X285221Y919614D01*
X285560Y920730D01*
X285674Y921891D01*
X285560Y923052D01*
X285221Y924168D01*
X284672Y925196D01*
X283932Y926098D01*
X283030Y926838D01*
X282001Y927388D01*
X280885Y927726D01*
X280127Y927801D01*
X280024Y928494D01*
X280046Y928502D01*
X280912Y929168D01*
X281577Y930034D01*
X281996Y931044D01*
X282138Y932127D01*
X281996Y933210D01*
X281577Y934220D01*
X280912Y935087D01*
X280046Y935752D01*
X279348Y936040D01*
X279250Y936786D01*
X280643Y937363D01*
X281839Y938281D01*
X282756Y939476D01*
X283333Y940869D01*
X283530Y942363D01*
X283333Y943858D01*
X282756Y945250D01*
X281839Y946446D01*
X280643Y947364D01*
X279250Y947940D01*
X277756Y948137D01*
D02*
G37*
G36*
X322244D02*
X320750Y947940D01*
X319357Y947364D01*
X318161Y946446D01*
X317244Y945250D01*
X316667Y943858D01*
X316470Y942363D01*
X316667Y940869D01*
X317244Y939476D01*
X318161Y938281D01*
X319357Y937363D01*
X320750Y936786D01*
X320652Y936040D01*
X319954Y935752D01*
X319088Y935087D01*
X318423Y934220D01*
X318004Y933210D01*
X317862Y932127D01*
X318004Y931044D01*
X318423Y930034D01*
X319088Y929168D01*
X319954Y928502D01*
X319976Y928494D01*
X319873Y927801D01*
X319115Y927726D01*
X317999Y927388D01*
X316970Y926838D01*
X316068Y926098D01*
X315328Y925196D01*
X314779Y924168D01*
X314440Y923052D01*
X314326Y921891D01*
X314440Y920730D01*
X314779Y919614D01*
X315328Y918585D01*
X316068Y917684D01*
X316970Y916944D01*
X317999Y916394D01*
X319115Y916055D01*
X320276Y915941D01*
X321436Y916055D01*
X322552Y916394D01*
X323581Y916944D01*
X324483Y917684D01*
X325223Y918585D01*
X325773Y919614D01*
X326111Y920730D01*
X326225Y921891D01*
X326111Y923052D01*
X325773Y924168D01*
X325223Y925196D01*
X324483Y926098D01*
X323581Y926838D01*
X322630Y927346D01*
X322756Y928035D01*
X323130Y928084D01*
X324140Y928502D01*
X325007Y929168D01*
X325672Y930034D01*
X326090Y931044D01*
X326233Y932127D01*
X326090Y933210D01*
X325672Y934220D01*
X325007Y935087D01*
X324140Y935752D01*
X323397Y936059D01*
X323489Y936753D01*
X323739Y936786D01*
X325131Y937363D01*
X326327Y938281D01*
X327244Y939476D01*
X327821Y940869D01*
X328018Y942363D01*
X327821Y943858D01*
X327244Y945250D01*
X326327Y946446D01*
X325131Y947364D01*
X323739Y947940D01*
X322244Y948137D01*
D02*
G37*
G36*
X290657Y953332D02*
X288843D01*
X288938Y952854D01*
X289435Y952110D01*
X290180Y951613D01*
X290657Y951518D01*
Y953332D01*
D02*
G37*
G36*
X301575Y928377D02*
X300697Y928202D01*
X299953Y927705D01*
X299455Y926961D01*
X299281Y926083D01*
X299455Y925205D01*
X299953Y924461D01*
X300523Y924079D01*
Y912807D01*
X300499Y912788D01*
X300059Y912214D01*
X299781Y911545D01*
X299687Y910827D01*
X299781Y910109D01*
X300059Y909440D01*
X300499Y908866D01*
X301074Y908425D01*
X301743Y908148D01*
X302461Y908053D01*
X303179Y908148D01*
X303848Y908425D01*
X304422Y908866D01*
X304863Y909440D01*
X305140Y910109D01*
X305234Y910827D01*
X305140Y911545D01*
X304863Y912214D01*
X304422Y912788D01*
X304398Y912807D01*
Y925197D01*
X304250Y925938D01*
X303831Y926567D01*
X303764Y926611D01*
X303694Y926961D01*
X303197Y927705D01*
X302453Y928202D01*
X301575Y928377D01*
D02*
G37*
G36*
X304183Y903931D02*
X302368D01*
Y902116D01*
X302846Y902211D01*
X303591Y902709D01*
X304088Y903453D01*
X304183Y903931D01*
D02*
G37*
G36*
X301569Y906545D02*
X301091Y906450D01*
X300346Y905953D01*
X299849Y905209D01*
X299754Y904731D01*
X301569D01*
Y906545D01*
D02*
G37*
G36*
X302368D02*
Y904731D01*
X304183D01*
X304088Y905209D01*
X303591Y905953D01*
X302846Y906450D01*
X302368Y906545D01*
D02*
G37*
G36*
X303888Y829423D02*
X302073D01*
Y827608D01*
X302551Y827703D01*
X303295Y828201D01*
X303793Y828945D01*
X303888Y829423D01*
D02*
G37*
G36*
X301273Y832037D02*
X300795Y831942D01*
X300051Y831445D01*
X299554Y830701D01*
X299459Y830223D01*
X301273D01*
Y832037D01*
D02*
G37*
G36*
X302073D02*
Y830223D01*
X303888D01*
X303793Y830701D01*
X303295Y831445D01*
X302551Y831942D01*
X302073Y832037D01*
D02*
G37*
G36*
X301273Y829423D02*
X299459D01*
X299554Y828945D01*
X300051Y828201D01*
X300795Y827703D01*
X301273Y827608D01*
Y829423D01*
D02*
G37*
G36*
X317920Y828199D02*
Y826384D01*
X319734D01*
X319639Y826862D01*
X319142Y827606D01*
X318398Y828104D01*
X317920Y828199D01*
D02*
G37*
G36*
X322336D02*
X321858Y828104D01*
X321114Y827606D01*
X320617Y826862D01*
X320522Y826384D01*
X322336D01*
Y828199D01*
D02*
G37*
G36*
X323136D02*
Y826384D01*
X324951D01*
X324856Y826862D01*
X324358Y827606D01*
X323614Y828104D01*
X323136Y828199D01*
D02*
G37*
G36*
X301476Y853869D02*
X300599Y853694D01*
X299854Y853197D01*
X299357Y852453D01*
X299182Y851575D01*
X299357Y850697D01*
X299854Y849953D01*
X300425Y849571D01*
Y838299D01*
X300401Y838280D01*
X299960Y837706D01*
X299683Y837037D01*
X299588Y836319D01*
X299683Y835601D01*
X299960Y834932D01*
X300401Y834358D01*
X300975Y833917D01*
X301644Y833640D01*
X302362Y833545D01*
X303080Y833640D01*
X303749Y833917D01*
X304324Y834358D01*
X304764Y834932D01*
X305042Y835601D01*
X305136Y836319D01*
X305042Y837037D01*
X304764Y837706D01*
X304324Y838280D01*
X304299Y838299D01*
Y850689D01*
X304152Y851430D01*
X303732Y852059D01*
X303665Y852103D01*
X303596Y852453D01*
X303099Y853197D01*
X302354Y853694D01*
X301476Y853869D01*
D02*
G37*
G36*
X290657Y881260D02*
X290180Y881165D01*
X289435Y880668D01*
X288938Y879924D01*
X288843Y879446D01*
X290657D01*
Y881260D01*
D02*
G37*
G36*
X291458D02*
Y879446D01*
X293272D01*
X293177Y879924D01*
X292680Y880668D01*
X291935Y881165D01*
X291458Y881260D01*
D02*
G37*
G36*
X317120Y900191D02*
X315305D01*
X315400Y899713D01*
X315897Y898968D01*
X316642Y898471D01*
X317120Y898376D01*
Y900191D01*
D02*
G37*
G36*
X293272Y878646D02*
X291458D01*
Y876831D01*
X291935Y876926D01*
X292680Y877423D01*
X293177Y878168D01*
X293272Y878646D01*
D02*
G37*
G36*
X277756Y873451D02*
X276261Y873254D01*
X274869Y872677D01*
X273673Y871760D01*
X272756Y870564D01*
X272179Y869171D01*
X271982Y867677D01*
X272179Y866183D01*
X272756Y864790D01*
X273673Y863594D01*
X274869Y862677D01*
X276261Y862100D01*
X276511Y862067D01*
X276603Y861373D01*
X275860Y861065D01*
X274993Y860400D01*
X274328Y859533D01*
X273910Y858524D01*
X273767Y857441D01*
X273910Y856357D01*
X274328Y855348D01*
X274993Y854481D01*
X275860Y853816D01*
X276870Y853398D01*
X277244Y853349D01*
X277370Y852660D01*
X276419Y852152D01*
X275517Y851412D01*
X274777Y850510D01*
X274227Y849481D01*
X273889Y848365D01*
X273775Y847204D01*
X273889Y846044D01*
X274227Y844928D01*
X274777Y843899D01*
X275517Y842997D01*
X276419Y842257D01*
X277448Y841708D01*
X278564Y841369D01*
X279724Y841255D01*
X280885Y841369D01*
X282001Y841708D01*
X283030Y842257D01*
X283932Y842997D01*
X284672Y843899D01*
X285221Y844928D01*
X285560Y846044D01*
X285674Y847204D01*
X285560Y848365D01*
X285221Y849481D01*
X284672Y850510D01*
X283932Y851412D01*
X283030Y852152D01*
X282001Y852701D01*
X280885Y853040D01*
X280127Y853115D01*
X280024Y853807D01*
X280046Y853816D01*
X280912Y854481D01*
X281577Y855348D01*
X281996Y856357D01*
X282138Y857441D01*
X281996Y858524D01*
X281577Y859533D01*
X280912Y860400D01*
X280046Y861065D01*
X279348Y861354D01*
X279250Y862100D01*
X280643Y862677D01*
X281839Y863594D01*
X282756Y864790D01*
X283333Y866183D01*
X283530Y867677D01*
X283333Y869171D01*
X282756Y870564D01*
X281839Y871760D01*
X280643Y872677D01*
X279250Y873254D01*
X277756Y873451D01*
D02*
G37*
G36*
X322244D02*
X320750Y873254D01*
X319357Y872677D01*
X318161Y871760D01*
X317244Y870564D01*
X316667Y869171D01*
X316470Y867677D01*
X316667Y866183D01*
X317244Y864790D01*
X318161Y863594D01*
X319357Y862677D01*
X320750Y862100D01*
X320652Y861354D01*
X319954Y861065D01*
X319088Y860400D01*
X318423Y859533D01*
X318004Y858524D01*
X317862Y857441D01*
X318004Y856357D01*
X318423Y855348D01*
X319088Y854481D01*
X319954Y853816D01*
X319976Y853807D01*
X319873Y853115D01*
X319115Y853040D01*
X317999Y852701D01*
X316970Y852152D01*
X316068Y851412D01*
X315328Y850510D01*
X314779Y849481D01*
X314440Y848365D01*
X314326Y847204D01*
X314440Y846044D01*
X314779Y844928D01*
X315328Y843899D01*
X316068Y842997D01*
X316970Y842257D01*
X317999Y841708D01*
X319115Y841369D01*
X320276Y841255D01*
X321436Y841369D01*
X322552Y841708D01*
X323581Y842257D01*
X324483Y842997D01*
X325223Y843899D01*
X325773Y844928D01*
X326111Y846044D01*
X326225Y847204D01*
X326111Y848365D01*
X325773Y849481D01*
X325223Y850510D01*
X324483Y851412D01*
X323581Y852152D01*
X322630Y852660D01*
X322756Y853349D01*
X323130Y853398D01*
X324140Y853816D01*
X325007Y854481D01*
X325672Y855348D01*
X326090Y856357D01*
X326233Y857441D01*
X326090Y858524D01*
X325672Y859533D01*
X325007Y860400D01*
X324140Y861065D01*
X323397Y861373D01*
X323489Y862067D01*
X323739Y862100D01*
X325131Y862677D01*
X326327Y863594D01*
X327244Y864790D01*
X327821Y866183D01*
X328018Y867677D01*
X327821Y869171D01*
X327244Y870564D01*
X326327Y871760D01*
X325131Y872677D01*
X323739Y873254D01*
X322244Y873451D01*
D02*
G37*
G36*
X290657Y878646D02*
X288843D01*
X288938Y878168D01*
X289435Y877423D01*
X290180Y876926D01*
X290657Y876831D01*
Y878646D01*
D02*
G37*
G36*
X293272Y953332D02*
X291458D01*
Y951518D01*
X291935Y951613D01*
X292680Y952110D01*
X293177Y952854D01*
X293272Y953332D01*
D02*
G37*
G36*
X290657Y1025613D02*
X290180Y1025518D01*
X289435Y1025021D01*
X288938Y1024277D01*
X288843Y1023799D01*
X290657D01*
Y1025613D01*
D02*
G37*
G36*
X291458D02*
Y1023799D01*
X293272D01*
X293177Y1024277D01*
X292680Y1025021D01*
X291935Y1025518D01*
X291458Y1025613D01*
D02*
G37*
G36*
X317120Y1044580D02*
X315305D01*
X315400Y1044102D01*
X315897Y1043358D01*
X316642Y1042861D01*
X317120Y1042766D01*
Y1044580D01*
D02*
G37*
G36*
X293272Y1022999D02*
X291458D01*
Y1021184D01*
X291935Y1021279D01*
X292680Y1021776D01*
X293177Y1022521D01*
X293272Y1022999D01*
D02*
G37*
G36*
X277756Y1017804D02*
X276261Y1017607D01*
X274869Y1017030D01*
X273673Y1016113D01*
X272756Y1014917D01*
X272179Y1013524D01*
X271982Y1012030D01*
X272179Y1010536D01*
X272756Y1009143D01*
X273673Y1007947D01*
X274869Y1007030D01*
X276261Y1006453D01*
X276511Y1006420D01*
X276603Y1005726D01*
X275860Y1005418D01*
X274993Y1004753D01*
X274328Y1003886D01*
X273910Y1002877D01*
X273767Y1001794D01*
X273910Y1000710D01*
X274328Y999701D01*
X274993Y998834D01*
X275860Y998169D01*
X276870Y997751D01*
X277244Y997702D01*
X277370Y997013D01*
X276419Y996505D01*
X275517Y995765D01*
X274777Y994863D01*
X274227Y993834D01*
X273889Y992718D01*
X273775Y991558D01*
X273889Y990397D01*
X274227Y989281D01*
X274777Y988252D01*
X275517Y987350D01*
X276419Y986610D01*
X277448Y986061D01*
X278564Y985722D01*
X279724Y985608D01*
X280885Y985722D01*
X282001Y986061D01*
X283030Y986610D01*
X283932Y987350D01*
X284672Y988252D01*
X285221Y989281D01*
X285560Y990397D01*
X285674Y991558D01*
X285560Y992718D01*
X285221Y993834D01*
X284672Y994863D01*
X283932Y995765D01*
X283030Y996505D01*
X282001Y997054D01*
X280885Y997393D01*
X280127Y997468D01*
X280024Y998160D01*
X280046Y998169D01*
X280912Y998834D01*
X281577Y999701D01*
X281996Y1000710D01*
X282138Y1001794D01*
X281996Y1002877D01*
X281577Y1003886D01*
X280912Y1004753D01*
X280046Y1005418D01*
X279348Y1005707D01*
X279250Y1006453D01*
X280643Y1007030D01*
X281839Y1007947D01*
X282756Y1009143D01*
X283333Y1010536D01*
X283530Y1012030D01*
X283333Y1013524D01*
X282756Y1014917D01*
X281839Y1016113D01*
X280643Y1017030D01*
X279250Y1017607D01*
X277756Y1017804D01*
D02*
G37*
G36*
X322244D02*
X320750Y1017607D01*
X319357Y1017030D01*
X318161Y1016113D01*
X317244Y1014917D01*
X316667Y1013524D01*
X316470Y1012030D01*
X316667Y1010536D01*
X317244Y1009143D01*
X318161Y1007947D01*
X319357Y1007030D01*
X320750Y1006453D01*
X320652Y1005707D01*
X319954Y1005418D01*
X319088Y1004753D01*
X318423Y1003886D01*
X318004Y1002877D01*
X317862Y1001794D01*
X318004Y1000710D01*
X318423Y999701D01*
X319088Y998834D01*
X319954Y998169D01*
X319976Y998160D01*
X319873Y997468D01*
X319115Y997393D01*
X317999Y997054D01*
X316970Y996505D01*
X316068Y995765D01*
X315328Y994863D01*
X314779Y993834D01*
X314440Y992718D01*
X314326Y991558D01*
X314440Y990397D01*
X314779Y989281D01*
X315328Y988252D01*
X316068Y987350D01*
X316970Y986610D01*
X317999Y986061D01*
X319115Y985722D01*
X320276Y985608D01*
X321436Y985722D01*
X322552Y986061D01*
X323581Y986610D01*
X324483Y987350D01*
X325223Y988252D01*
X325773Y989281D01*
X326111Y990397D01*
X326225Y991558D01*
X326111Y992718D01*
X325773Y993834D01*
X325223Y994863D01*
X324483Y995765D01*
X323581Y996505D01*
X322630Y997013D01*
X322756Y997702D01*
X323130Y997751D01*
X324140Y998169D01*
X325007Y998834D01*
X325672Y999701D01*
X326090Y1000710D01*
X326233Y1001794D01*
X326090Y1002877D01*
X325672Y1003886D01*
X325007Y1004753D01*
X324140Y1005418D01*
X323397Y1005726D01*
X323489Y1006420D01*
X323739Y1006453D01*
X325131Y1007030D01*
X326327Y1007947D01*
X327244Y1009143D01*
X327821Y1010536D01*
X328018Y1012030D01*
X327821Y1013524D01*
X327244Y1014917D01*
X326327Y1016113D01*
X325131Y1017030D01*
X323739Y1017607D01*
X322244Y1017804D01*
D02*
G37*
G36*
X290657Y1022999D02*
X288843D01*
X288938Y1022521D01*
X289435Y1021776D01*
X290180Y1021279D01*
X290657Y1021184D01*
Y1022999D01*
D02*
G37*
G36*
X319734Y1044580D02*
X317920D01*
Y1042766D01*
X318398Y1042861D01*
X319142Y1043358D01*
X319639Y1044102D01*
X319734Y1044580D01*
D02*
G37*
G36*
X322336Y1047195D02*
X321858Y1047100D01*
X321114Y1046603D01*
X320617Y1045858D01*
X320522Y1045380D01*
X322336D01*
Y1047195D01*
D02*
G37*
G36*
X323136D02*
Y1045380D01*
X324951D01*
X324856Y1045858D01*
X324358Y1046603D01*
X323614Y1047100D01*
X323136Y1047195D01*
D02*
G37*
G36*
X301175Y1048714D02*
X299360D01*
X299455Y1048236D01*
X299953Y1047492D01*
X300697Y1046995D01*
X301175Y1046900D01*
Y1048714D01*
D02*
G37*
G36*
X317920Y1047195D02*
Y1045380D01*
X319734D01*
X319639Y1045858D01*
X319142Y1046603D01*
X318398Y1047100D01*
X317920Y1047195D01*
D02*
G37*
G36*
X322336Y1044580D02*
X320522D01*
X320617Y1044102D01*
X321114Y1043358D01*
X321858Y1042861D01*
X322336Y1042766D01*
Y1044580D01*
D02*
G37*
G36*
X324951D02*
X323136D01*
Y1042766D01*
X323614Y1042861D01*
X324358Y1043358D01*
X324856Y1044102D01*
X324951Y1044580D01*
D02*
G37*
G36*
X317120Y1047195D02*
X316642Y1047100D01*
X315897Y1046603D01*
X315400Y1045858D01*
X315305Y1045380D01*
X317120D01*
Y1047195D01*
D02*
G37*
G36*
X322336Y969876D02*
X320522D01*
X320617Y969398D01*
X321114Y968653D01*
X321858Y968156D01*
X322336Y968061D01*
Y969876D01*
D02*
G37*
G36*
X324951D02*
X323136D01*
Y968061D01*
X323614Y968156D01*
X324358Y968653D01*
X324856Y969398D01*
X324951Y969876D01*
D02*
G37*
G36*
X317120Y972490D02*
X316642Y972395D01*
X315898Y971898D01*
X315400Y971154D01*
X315305Y970676D01*
X317120D01*
Y972490D01*
D02*
G37*
G36*
X319734Y969876D02*
X317920D01*
Y968061D01*
X318398Y968156D01*
X319142Y968653D01*
X319639Y969398D01*
X319734Y969876D01*
D02*
G37*
G36*
X290657Y955947D02*
X290180Y955851D01*
X289435Y955354D01*
X288938Y954610D01*
X288843Y954132D01*
X290657D01*
Y955947D01*
D02*
G37*
G36*
X291458D02*
Y954132D01*
X293272D01*
X293177Y954610D01*
X292680Y955354D01*
X291935Y955851D01*
X291458Y955947D01*
D02*
G37*
G36*
X317120Y969876D02*
X315305D01*
X315400Y969398D01*
X315898Y968653D01*
X316642Y968156D01*
X317120Y968061D01*
Y969876D01*
D02*
G37*
G36*
X317920Y972490D02*
Y970676D01*
X319734D01*
X319639Y971154D01*
X319142Y971898D01*
X318398Y972395D01*
X317920Y972490D01*
D02*
G37*
G36*
X301569Y976427D02*
X301091Y976332D01*
X300346Y975835D01*
X299849Y975091D01*
X299754Y974613D01*
X301569D01*
Y976427D01*
D02*
G37*
G36*
X302368D02*
Y974613D01*
X304183D01*
X304088Y975091D01*
X303591Y975835D01*
X302846Y976332D01*
X302368Y976427D01*
D02*
G37*
G36*
X301575Y997865D02*
X300697Y997690D01*
X299953Y997193D01*
X299455Y996449D01*
X299281Y995571D01*
X299455Y994693D01*
X299953Y993949D01*
X300523Y993567D01*
Y982492D01*
X300499Y982473D01*
X300059Y981899D01*
X299781Y981230D01*
X299687Y980512D01*
X299781Y979794D01*
X300059Y979125D01*
X300499Y978551D01*
X301074Y978110D01*
X301743Y977833D01*
X302461Y977738D01*
X303179Y977833D01*
X303848Y978110D01*
X304422Y978551D01*
X304863Y979125D01*
X305140Y979794D01*
X305234Y980512D01*
X305140Y981230D01*
X304863Y981899D01*
X304422Y982473D01*
X304398Y982492D01*
Y994685D01*
X304250Y995426D01*
X303831Y996055D01*
X303764Y996099D01*
X303694Y996449D01*
X303197Y997193D01*
X302453Y997690D01*
X301575Y997865D01*
D02*
G37*
G36*
X304183Y973813D02*
X302368D01*
Y971998D01*
X302846Y972093D01*
X303591Y972590D01*
X304088Y973335D01*
X304183Y973813D01*
D02*
G37*
G36*
X322336Y972490D02*
X321858Y972395D01*
X321114Y971898D01*
X320617Y971154D01*
X320522Y970676D01*
X322336D01*
Y972490D01*
D02*
G37*
G36*
X323136D02*
Y970676D01*
X324951D01*
X324856Y971154D01*
X324358Y971898D01*
X323614Y972395D01*
X323136Y972490D01*
D02*
G37*
G36*
X301569Y973813D02*
X299754D01*
X299849Y973335D01*
X300346Y972590D01*
X301091Y972093D01*
X301569Y971998D01*
Y973813D01*
D02*
G37*
%LPD*%
D18*
X250394Y1182972D02*
X251575D01*
X243996Y1176575D02*
X250394Y1182972D01*
X231299Y1172146D02*
X232677Y1170768D01*
X243590D01*
X312008Y1214567D02*
X312106Y1214665D01*
X245000Y1152000D02*
X250203Y1157203D01*
X243590Y1170768D02*
X250203Y1164155D01*
Y1157203D02*
Y1164155D01*
X243996Y1170768D02*
Y1176575D01*
X312008Y1175492D02*
Y1214567D01*
Y1175492D02*
X335500Y1152000D01*
D19*
X287205Y393701D02*
X297638Y404134D01*
X300886D01*
D20*
X301575Y1055315D02*
X301772Y1055512D01*
X302854Y1127166D02*
X311417D01*
X355000Y1162000D02*
Y1162913D01*
X332008Y1185905D02*
X355000Y1162913D01*
X332008Y1185905D02*
Y1214567D01*
X332106Y1214665D01*
X342953Y1140158D02*
X343543Y1139567D01*
X251870Y1139665D02*
X324213D01*
X324220Y1139673D01*
X343043D01*
X347146Y1139567D02*
X348819Y1141240D01*
X343543Y1139567D02*
X347146D01*
X249535Y1142000D02*
X251870Y1139665D01*
X245000Y1131803D02*
X355000D01*
X302756Y1127067D02*
X302854Y1127166D01*
X248135Y1135728D02*
X347267D01*
X361863Y1142000D02*
X365000D01*
X347267Y1135728D02*
X348686Y1137147D01*
X357010D02*
X361863Y1142000D01*
X348686Y1137147D02*
X357010D01*
X247010Y1136853D02*
X248135Y1135728D01*
X243284Y1136853D02*
X247010D01*
X238137Y1142000D02*
X243284Y1136853D01*
X235000Y1142000D02*
X238137D01*
X348819Y1141240D02*
X354240D01*
X355000Y1142000D01*
X245000D02*
X249535D01*
X256791Y1127362D02*
X266535D01*
X335500Y1152000D02*
X355000D01*
X235000D02*
X236000D01*
X301393Y474985D02*
Y476893D01*
Y474985D02*
X302264Y474114D01*
Y462697D02*
Y474114D01*
X302362Y537303D02*
Y550534D01*
Y611909D02*
Y625886D01*
X302461Y761614D02*
Y775591D01*
X302362Y836319D02*
Y850689D01*
X302461Y910827D02*
Y925197D01*
Y980512D02*
Y994685D01*
X302264Y1055315D02*
Y1070669D01*
D21*
X302461Y686811D02*
Y700295D01*
X301476Y701279D02*
X302461Y700295D01*
D22*
X235000Y1162000D02*
D03*
X245000Y1132000D02*
D03*
Y1142000D02*
D03*
X235000D02*
D03*
X245000Y1152000D02*
D03*
X235000D02*
D03*
X245000Y1162000D02*
D03*
X355000D02*
D03*
X365000D02*
D03*
X355000Y1152000D02*
D03*
X365000D02*
D03*
X355000Y1142000D02*
D03*
X365000D02*
D03*
X355000Y1132000D02*
D03*
X345669Y1192854D02*
D03*
X272106Y1214665D02*
D03*
X282106D02*
D03*
X292106D02*
D03*
X302106D02*
D03*
X312106D02*
D03*
X322106D02*
D03*
X332106D02*
D03*
D23*
X235000Y1132000D02*
D03*
X365000D02*
D03*
X345669Y1202854D02*
D03*
D24*
X300000Y381299D02*
D03*
X300098Y819685D02*
D03*
X298622Y1186909D02*
D03*
D25*
X262106Y1214665D02*
D03*
D26*
X277953Y708068D02*
D03*
X322047D02*
D03*
Y633382D02*
D03*
X277953D02*
D03*
Y558696D02*
D03*
X322047D02*
D03*
Y484009D02*
D03*
X277953D02*
D03*
Y782755D02*
D03*
X322047D02*
D03*
Y857441D02*
D03*
X277953D02*
D03*
Y932127D02*
D03*
X322047D02*
D03*
Y1001794D02*
D03*
X277953D02*
D03*
Y1076480D02*
D03*
X322047D02*
D03*
Y409323D02*
D03*
X277953D02*
D03*
D27*
X311417Y1127166D02*
D03*
X251575Y1182972D02*
D03*
X231299Y1172146D02*
D03*
X343043Y1139673D02*
D03*
X302756Y1127067D02*
D03*
X288583Y1135728D02*
D03*
X256791Y1127362D02*
D03*
X266535D02*
D03*
X324213Y1139665D02*
D03*
D28*
X287205Y393701D02*
D03*
X300886Y404134D02*
D03*
X301393Y476893D02*
D03*
Y551503D02*
D03*
X301378Y626870D02*
D03*
X301476Y701279D02*
D03*
X301279Y776772D02*
D03*
X301476Y851575D02*
D03*
X301575Y926083D02*
D03*
X301575Y995571D02*
D03*
X301772Y1071161D02*
D03*
X291057Y1098085D02*
D03*
X291142Y430610D02*
D03*
X268000Y1168724D02*
D03*
X291057Y953732D02*
D03*
Y505614D02*
D03*
Y580300D02*
D03*
Y654987D02*
D03*
Y729673D02*
D03*
X291142Y801968D02*
D03*
X291057Y879046D02*
D03*
Y1023399D02*
D03*
X281496Y383858D02*
D03*
X322736Y378347D02*
D03*
X317520D02*
D03*
X322736Y452559D02*
D03*
X317520D02*
D03*
X322736Y527165D02*
D03*
X317520D02*
D03*
X322736Y601870D02*
D03*
X317520D02*
D03*
X322736Y676575D02*
D03*
X317520D02*
D03*
X322736Y751280D02*
D03*
X317520D02*
D03*
X322736Y825984D02*
D03*
X317520D02*
D03*
X322736Y900591D02*
D03*
X317520D02*
D03*
X322736Y970276D02*
D03*
X317520D02*
D03*
X322736Y1044980D02*
D03*
X281187Y1176328D02*
D03*
X240664Y1219144D02*
D03*
X231805D02*
D03*
X317520Y1044980D02*
D03*
X301575Y1049114D02*
D03*
X301969Y974213D02*
D03*
Y904331D02*
D03*
X301673Y829823D02*
D03*
X301870Y754823D02*
D03*
X302165Y680610D02*
D03*
X301673Y605413D02*
D03*
X302067Y530709D02*
D03*
X301969Y456102D02*
D03*
D29*
X302264Y462697D02*
D03*
X302362Y537303D02*
D03*
Y611909D02*
D03*
X302461Y686811D02*
D03*
Y761614D02*
D03*
X302362Y836319D02*
D03*
X302461Y910827D02*
D03*
Y980512D02*
D03*
X302264Y1055315D02*
D03*
D30*
X277756Y718304D02*
D03*
X322244D02*
D03*
Y643618D02*
D03*
X277756D02*
D03*
Y568932D02*
D03*
X322244D02*
D03*
Y494245D02*
D03*
X277756D02*
D03*
Y792991D02*
D03*
X322244D02*
D03*
Y867677D02*
D03*
X277756D02*
D03*
Y942363D02*
D03*
X322244D02*
D03*
Y1012030D02*
D03*
X277756D02*
D03*
Y1086716D02*
D03*
X322244D02*
D03*
Y419559D02*
D03*
X277756D02*
D03*
D31*
X279724Y697832D02*
D03*
X320276D02*
D03*
Y623145D02*
D03*
X279724D02*
D03*
Y548459D02*
D03*
X320276D02*
D03*
Y473773D02*
D03*
X279724D02*
D03*
Y772518D02*
D03*
X320276D02*
D03*
Y847204D02*
D03*
X279724D02*
D03*
Y921891D02*
D03*
X320276D02*
D03*
Y991558D02*
D03*
X279724D02*
D03*
Y1066244D02*
D03*
X320276D02*
D03*
Y399087D02*
D03*
X279724D02*
D03*
D32*
X256102Y1152067D02*
X343406D01*
D33*
X245000Y1152000D02*
X355000D01*
M02*
