%FSLAX25Y25*%
%MOIN*%
G70*
G01*
G75*
G04 Layer_Color=8421504*
%ADD10R,0.03543X0.02756*%
%ADD11R,0.03150X0.03150*%
%ADD12R,0.03543X0.03150*%
%ADD13R,0.02756X0.03543*%
%ADD14R,0.03543X0.03543*%
%ADD15R,0.03150X0.03543*%
%ADD16R,0.08661X0.02756*%
%ADD17R,0.01969X0.07874*%
%ADD18C,0.02500*%
%ADD19C,0.01600*%
%ADD20C,0.01800*%
%ADD21C,0.01500*%
%ADD22C,0.05906*%
%ADD23R,0.05906X0.05906*%
%ADD24C,0.12500*%
%ADD25R,0.05906X0.05906*%
%ADD26C,0.06100*%
%ADD27C,0.04000*%
%ADD28C,0.02500*%
%ADD29C,0.03500*%
%ADD30C,0.09449*%
%ADD31C,0.09843*%
%ADD32C,0.18000*%
%ADD33C,0.12000*%
%ADD34C,0.00787*%
%ADD35C,0.00800*%
%ADD36C,0.01000*%
D10*
X249409Y1187992D02*
D03*
Y1193898D02*
D03*
X338500Y1163547D02*
D03*
X262000Y1169953D02*
D03*
X240649Y1187992D02*
D03*
Y1193898D02*
D03*
X231890Y1187992D02*
D03*
Y1193898D02*
D03*
X270374Y440846D02*
D03*
Y446752D02*
D03*
X297047Y452658D02*
D03*
Y446752D02*
D03*
Y527264D02*
D03*
Y521358D02*
D03*
X296949Y601968D02*
D03*
Y596063D02*
D03*
X297047Y676673D02*
D03*
Y670768D02*
D03*
Y751378D02*
D03*
Y745472D02*
D03*
X311221Y803642D02*
D03*
Y809547D02*
D03*
X297047Y894783D02*
D03*
Y900689D02*
D03*
Y964468D02*
D03*
Y970374D02*
D03*
Y1039173D02*
D03*
Y1045079D02*
D03*
X315748Y1099508D02*
D03*
Y1105413D02*
D03*
D11*
X249410Y1208563D02*
D03*
Y1214862D02*
D03*
X231890Y1208563D02*
D03*
Y1214862D02*
D03*
X240649Y1208563D02*
D03*
Y1214862D02*
D03*
D12*
X297047Y537401D02*
D03*
Y531890D02*
D03*
X297047Y756004D02*
D03*
Y761516D02*
D03*
X322736Y1049705D02*
D03*
Y1055217D02*
D03*
X317520Y1055217D02*
D03*
Y1049705D02*
D03*
X297047Y1055217D02*
D03*
Y1049705D02*
D03*
X322736Y980512D02*
D03*
Y975000D02*
D03*
X317520Y980512D02*
D03*
Y975000D02*
D03*
X297047Y975000D02*
D03*
Y980512D02*
D03*
X322736Y910827D02*
D03*
Y905315D02*
D03*
X317520Y910827D02*
D03*
Y905315D02*
D03*
X297047Y905315D02*
D03*
Y910827D02*
D03*
Y830709D02*
D03*
Y836220D02*
D03*
X317520Y836220D02*
D03*
Y830709D02*
D03*
X322736Y836220D02*
D03*
Y830709D02*
D03*
X317520Y761516D02*
D03*
Y756004D02*
D03*
X322736Y761516D02*
D03*
Y756004D02*
D03*
X317520Y681299D02*
D03*
Y686811D02*
D03*
X322736Y681299D02*
D03*
Y686811D02*
D03*
X297047Y686811D02*
D03*
Y681299D02*
D03*
X322736Y606595D02*
D03*
Y612106D02*
D03*
X296949Y612106D02*
D03*
Y606594D02*
D03*
X317520Y606595D02*
D03*
Y612106D02*
D03*
X322736Y531890D02*
D03*
Y537402D02*
D03*
X317520Y531890D02*
D03*
Y537402D02*
D03*
X322736Y457283D02*
D03*
Y462795D02*
D03*
X317520Y457283D02*
D03*
Y462795D02*
D03*
X297047Y462795D02*
D03*
Y457283D02*
D03*
X322736Y383071D02*
D03*
Y388583D02*
D03*
X317520Y383071D02*
D03*
Y388583D02*
D03*
D13*
X332500Y1169500D02*
D03*
X268000Y1164000D02*
D03*
D14*
X338500Y1169500D02*
D03*
X262000Y1164000D02*
D03*
D15*
X287008Y388484D02*
D03*
X281496D02*
D03*
D16*
X266535Y1184547D02*
D03*
X281102D02*
D03*
D17*
X308858Y694682D02*
D03*
X304921D02*
D03*
X300984D02*
D03*
X297047D02*
D03*
X293110Y694682D02*
D03*
X306890Y721454D02*
D03*
X302953D02*
D03*
X299016D02*
D03*
X295079D02*
D03*
X291142D02*
D03*
Y646768D02*
D03*
X295079D02*
D03*
X299016D02*
D03*
X302953D02*
D03*
X306890D02*
D03*
X293110Y619996D02*
D03*
X297047Y619996D02*
D03*
X300984D02*
D03*
X304921D02*
D03*
X308858D02*
D03*
Y545310D02*
D03*
X304921D02*
D03*
X300984D02*
D03*
X297047D02*
D03*
X293110Y545310D02*
D03*
X306890Y572081D02*
D03*
X302953D02*
D03*
X299016D02*
D03*
X295079D02*
D03*
X291142D02*
D03*
Y497395D02*
D03*
X295079D02*
D03*
X299016D02*
D03*
X302953D02*
D03*
X306890D02*
D03*
X293110Y470623D02*
D03*
X297047Y470623D02*
D03*
X300984D02*
D03*
X304921D02*
D03*
X308858D02*
D03*
Y769369D02*
D03*
X304921D02*
D03*
X300984D02*
D03*
X297047D02*
D03*
X293110Y769369D02*
D03*
X306890Y796140D02*
D03*
X302953D02*
D03*
X299016D02*
D03*
X295079D02*
D03*
X291142D02*
D03*
Y870827D02*
D03*
X295079D02*
D03*
X299016D02*
D03*
X302953D02*
D03*
X306890D02*
D03*
X293110Y844055D02*
D03*
X297047Y844055D02*
D03*
X300984D02*
D03*
X304921D02*
D03*
X308858D02*
D03*
Y918741D02*
D03*
X304921D02*
D03*
X300984D02*
D03*
X297047D02*
D03*
X293110Y918741D02*
D03*
X306890Y945513D02*
D03*
X302953D02*
D03*
X299016D02*
D03*
X295079D02*
D03*
X291142D02*
D03*
Y1015180D02*
D03*
X295079D02*
D03*
X299016D02*
D03*
X302953D02*
D03*
X306890D02*
D03*
X293110Y988408D02*
D03*
X297047Y988408D02*
D03*
X300984D02*
D03*
X304921D02*
D03*
X308858D02*
D03*
Y1063094D02*
D03*
X304921D02*
D03*
X300984D02*
D03*
X297047D02*
D03*
X293110Y1063094D02*
D03*
X306890Y1089866D02*
D03*
X302953D02*
D03*
X299016D02*
D03*
X295079D02*
D03*
X291142D02*
D03*
Y422709D02*
D03*
X295079D02*
D03*
X299016D02*
D03*
X302953D02*
D03*
X306890D02*
D03*
X293110Y395937D02*
D03*
X297047Y395937D02*
D03*
X300984D02*
D03*
X304921D02*
D03*
X308858D02*
D03*
M02*
