%FSLAX25Y25*%
%MOIN*%
G70*
G01*
G75*
G04 Layer_Color=8388736*
%ADD10R,0.03543X0.02756*%
%ADD11R,0.03150X0.03150*%
%ADD12R,0.03543X0.03150*%
%ADD13R,0.02756X0.03543*%
%ADD14R,0.03543X0.03543*%
%ADD15R,0.03150X0.03543*%
%ADD16R,0.08661X0.02756*%
%ADD17R,0.01969X0.07874*%
%ADD18C,0.02500*%
%ADD19C,0.01600*%
%ADD20C,0.01800*%
%ADD21C,0.01500*%
%ADD22C,0.05906*%
%ADD23R,0.05906X0.05906*%
%ADD24C,0.12500*%
%ADD25R,0.05906X0.05906*%
%ADD26C,0.06100*%
%ADD27C,0.04000*%
%ADD28C,0.02500*%
%ADD29C,0.03500*%
%ADD30C,0.09449*%
%ADD31C,0.09843*%
%ADD32C,0.18000*%
%ADD33C,0.12000*%
%ADD34C,0.00787*%
%ADD35C,0.00800*%
%ADD36C,0.01000*%
%ADD37R,0.04143X0.03356*%
%ADD38R,0.03750X0.03750*%
%ADD39R,0.04143X0.03750*%
%ADD40R,0.03356X0.04143*%
%ADD41R,0.04143X0.04143*%
%ADD42R,0.03750X0.04143*%
%ADD43R,0.09261X0.03356*%
%ADD44R,0.02569X0.08474*%
%ADD45C,0.06506*%
%ADD46R,0.06506X0.06506*%
%ADD47C,0.13100*%
%ADD48R,0.06506X0.06506*%
%ADD49C,0.06700*%
%ADD50C,0.03100*%
%ADD51C,0.04100*%
%ADD52C,0.10049*%
%ADD53C,0.10443*%
D37*
X249409Y1187992D02*
D03*
Y1193898D02*
D03*
X338500Y1163547D02*
D03*
X262000Y1169953D02*
D03*
X240649Y1187992D02*
D03*
Y1193898D02*
D03*
X231890Y1187992D02*
D03*
Y1193898D02*
D03*
X270374Y440846D02*
D03*
Y446752D02*
D03*
X297047Y452658D02*
D03*
Y446752D02*
D03*
Y527264D02*
D03*
Y521358D02*
D03*
X296949Y601968D02*
D03*
Y596063D02*
D03*
X297047Y676673D02*
D03*
Y670768D02*
D03*
Y751378D02*
D03*
Y745472D02*
D03*
X311221Y803642D02*
D03*
Y809547D02*
D03*
X297047Y894783D02*
D03*
Y900689D02*
D03*
Y964468D02*
D03*
Y970374D02*
D03*
Y1039173D02*
D03*
Y1045079D02*
D03*
X315748Y1099508D02*
D03*
Y1105413D02*
D03*
D38*
X249410Y1208563D02*
D03*
Y1214862D02*
D03*
X231890Y1208563D02*
D03*
Y1214862D02*
D03*
X240649Y1208563D02*
D03*
Y1214862D02*
D03*
D39*
X297047Y537401D02*
D03*
Y531890D02*
D03*
X297047Y756004D02*
D03*
Y761516D02*
D03*
X322736Y1049705D02*
D03*
Y1055217D02*
D03*
X317520Y1055217D02*
D03*
Y1049705D02*
D03*
X297047Y1055217D02*
D03*
Y1049705D02*
D03*
X322736Y980512D02*
D03*
Y975000D02*
D03*
X317520Y980512D02*
D03*
Y975000D02*
D03*
X297047Y975000D02*
D03*
Y980512D02*
D03*
X322736Y910827D02*
D03*
Y905315D02*
D03*
X317520Y910827D02*
D03*
Y905315D02*
D03*
X297047Y905315D02*
D03*
Y910827D02*
D03*
Y830709D02*
D03*
Y836220D02*
D03*
X317520Y836220D02*
D03*
Y830709D02*
D03*
X322736Y836220D02*
D03*
Y830709D02*
D03*
X317520Y761516D02*
D03*
Y756004D02*
D03*
X322736Y761516D02*
D03*
Y756004D02*
D03*
X317520Y681299D02*
D03*
Y686811D02*
D03*
X322736Y681299D02*
D03*
Y686811D02*
D03*
X297047Y686811D02*
D03*
Y681299D02*
D03*
X322736Y606595D02*
D03*
Y612106D02*
D03*
X296949Y612106D02*
D03*
Y606594D02*
D03*
X317520Y606595D02*
D03*
Y612106D02*
D03*
X322736Y531890D02*
D03*
Y537402D02*
D03*
X317520Y531890D02*
D03*
Y537402D02*
D03*
X322736Y457283D02*
D03*
Y462795D02*
D03*
X317520Y457283D02*
D03*
Y462795D02*
D03*
X297047Y462795D02*
D03*
Y457283D02*
D03*
X322736Y383071D02*
D03*
Y388583D02*
D03*
X317520Y383071D02*
D03*
Y388583D02*
D03*
D40*
X332500Y1169500D02*
D03*
X268000Y1164000D02*
D03*
D41*
X338500Y1169500D02*
D03*
X262000Y1164000D02*
D03*
D42*
X287008Y388484D02*
D03*
X281496D02*
D03*
D43*
X266535Y1184547D02*
D03*
X281102D02*
D03*
D44*
X308858Y694682D02*
D03*
X304921D02*
D03*
X300984D02*
D03*
X297047D02*
D03*
X293110Y694682D02*
D03*
X306890Y721454D02*
D03*
X302953D02*
D03*
X299016D02*
D03*
X295079D02*
D03*
X291142D02*
D03*
Y646768D02*
D03*
X295079D02*
D03*
X299016D02*
D03*
X302953D02*
D03*
X306890D02*
D03*
X293110Y619996D02*
D03*
X297047Y619996D02*
D03*
X300984D02*
D03*
X304921D02*
D03*
X308858D02*
D03*
Y545310D02*
D03*
X304921D02*
D03*
X300984D02*
D03*
X297047D02*
D03*
X293110Y545310D02*
D03*
X306890Y572081D02*
D03*
X302953D02*
D03*
X299016D02*
D03*
X295079D02*
D03*
X291142D02*
D03*
Y497395D02*
D03*
X295079D02*
D03*
X299016D02*
D03*
X302953D02*
D03*
X306890D02*
D03*
X293110Y470623D02*
D03*
X297047Y470623D02*
D03*
X300984D02*
D03*
X304921D02*
D03*
X308858D02*
D03*
Y769369D02*
D03*
X304921D02*
D03*
X300984D02*
D03*
X297047D02*
D03*
X293110Y769369D02*
D03*
X306890Y796140D02*
D03*
X302953D02*
D03*
X299016D02*
D03*
X295079D02*
D03*
X291142D02*
D03*
Y870827D02*
D03*
X295079D02*
D03*
X299016D02*
D03*
X302953D02*
D03*
X306890D02*
D03*
X293110Y844055D02*
D03*
X297047Y844055D02*
D03*
X300984D02*
D03*
X304921D02*
D03*
X308858D02*
D03*
Y918741D02*
D03*
X304921D02*
D03*
X300984D02*
D03*
X297047D02*
D03*
X293110Y918741D02*
D03*
X306890Y945513D02*
D03*
X302953D02*
D03*
X299016D02*
D03*
X295079D02*
D03*
X291142D02*
D03*
Y1015180D02*
D03*
X295079D02*
D03*
X299016D02*
D03*
X302953D02*
D03*
X306890D02*
D03*
X293110Y988408D02*
D03*
X297047Y988408D02*
D03*
X300984D02*
D03*
X304921D02*
D03*
X308858D02*
D03*
Y1063094D02*
D03*
X304921D02*
D03*
X300984D02*
D03*
X297047D02*
D03*
X293110Y1063094D02*
D03*
X306890Y1089866D02*
D03*
X302953D02*
D03*
X299016D02*
D03*
X295079D02*
D03*
X291142D02*
D03*
Y422709D02*
D03*
X295079D02*
D03*
X299016D02*
D03*
X302953D02*
D03*
X306890D02*
D03*
X293110Y395937D02*
D03*
X297047Y395937D02*
D03*
X300984D02*
D03*
X304921D02*
D03*
X308858D02*
D03*
D45*
X235000Y1162000D02*
D03*
X245000Y1132000D02*
D03*
Y1142000D02*
D03*
X235000D02*
D03*
X245000Y1152000D02*
D03*
X235000D02*
D03*
X245000Y1162000D02*
D03*
X355000D02*
D03*
X365000D02*
D03*
X355000Y1152000D02*
D03*
X365000D02*
D03*
X355000Y1142000D02*
D03*
X365000D02*
D03*
X355000Y1132000D02*
D03*
X345669Y1192854D02*
D03*
X272106Y1214665D02*
D03*
X282106D02*
D03*
X292106D02*
D03*
X302106D02*
D03*
X312106D02*
D03*
X322106D02*
D03*
X332106D02*
D03*
D46*
X235000Y1132000D02*
D03*
X365000D02*
D03*
X345669Y1202854D02*
D03*
D47*
X300000Y381299D02*
D03*
X300098Y819685D02*
D03*
X298622Y1186909D02*
D03*
D48*
X262106Y1214665D02*
D03*
D49*
X277953Y708068D02*
D03*
X322047D02*
D03*
Y633382D02*
D03*
X277953D02*
D03*
Y558696D02*
D03*
X322047D02*
D03*
Y484009D02*
D03*
X277953D02*
D03*
Y782755D02*
D03*
X322047D02*
D03*
Y857441D02*
D03*
X277953D02*
D03*
Y932127D02*
D03*
X322047D02*
D03*
Y1001794D02*
D03*
X277953D02*
D03*
Y1076480D02*
D03*
X322047D02*
D03*
Y409323D02*
D03*
X277953D02*
D03*
D50*
X287205Y393701D02*
D03*
D51*
X302264Y462697D02*
D03*
X302362Y537303D02*
D03*
Y611909D02*
D03*
X302461Y686811D02*
D03*
Y761614D02*
D03*
X302362Y836319D02*
D03*
X302461Y910827D02*
D03*
Y980512D02*
D03*
X302264Y1055315D02*
D03*
D52*
X277756Y718304D02*
D03*
X322244D02*
D03*
Y643618D02*
D03*
X277756D02*
D03*
Y568932D02*
D03*
X322244D02*
D03*
Y494245D02*
D03*
X277756D02*
D03*
Y792991D02*
D03*
X322244D02*
D03*
Y867677D02*
D03*
X277756D02*
D03*
Y942363D02*
D03*
X322244D02*
D03*
Y1012030D02*
D03*
X277756D02*
D03*
Y1086716D02*
D03*
X322244D02*
D03*
Y419559D02*
D03*
X277756D02*
D03*
D53*
X279724Y697832D02*
D03*
X320276D02*
D03*
Y623145D02*
D03*
X279724D02*
D03*
Y548459D02*
D03*
X320276D02*
D03*
Y473773D02*
D03*
X279724D02*
D03*
Y772518D02*
D03*
X320276D02*
D03*
Y847204D02*
D03*
X279724D02*
D03*
Y921891D02*
D03*
X320276D02*
D03*
Y991558D02*
D03*
X279724D02*
D03*
Y1066244D02*
D03*
X320276D02*
D03*
Y399087D02*
D03*
X279724D02*
D03*
M02*
