%FSLAX25Y25*%
%MOIN*%
G70*
G01*
G75*
G04 Layer_Physical_Order=1*
G04 Layer_Color=255*
%ADD10R,0.07874X0.01969*%
%ADD11C,0.01200*%
%ADD12C,0.04200*%
%ADD13R,0.04200X0.04200*%
%ADD14R,0.05906X0.05906*%
%ADD15C,0.05906*%
%ADD16R,0.05906X0.05906*%
%ADD17C,0.05000*%
%ADD18C,0.06299*%
%ADD19C,0.09449*%
%ADD20C,0.09843*%
D10*
X303386Y388858D02*
D03*
Y384921D02*
D03*
Y380984D02*
D03*
Y377047D02*
D03*
X303386Y373110D02*
D03*
X276614Y386890D02*
D03*
Y382953D02*
D03*
Y379016D02*
D03*
Y375079D02*
D03*
Y371142D02*
D03*
D11*
X254000Y314000D02*
X258500Y309500D01*
X210500Y314000D02*
X254000D01*
X209500Y315000D02*
X210500Y314000D01*
X287500Y324500D02*
X310500Y347500D01*
X245195Y324500D02*
X287500D01*
X240195Y319500D02*
X245195Y324500D01*
X284000Y330000D02*
X312000Y358000D01*
X214500Y330000D02*
X284000D01*
X209500Y325000D02*
X214500Y330000D01*
X209500Y375000D02*
X260500D01*
X268453Y382953D01*
X245000Y355000D02*
X269016Y379016D01*
X209500Y355000D02*
X245000D01*
X249000Y411500D02*
X301169D01*
X209500Y395000D02*
X262000D01*
X270110Y386890D01*
X301169Y411500D02*
X309000Y403669D01*
Y382500D02*
Y403669D01*
X307484Y380984D02*
X309000Y382500D01*
X303386Y380984D02*
X307484D01*
X244000Y410603D02*
Y411500D01*
X239000D02*
X242500Y408000D01*
X268500D01*
X269000Y407500D01*
X310000Y408500D02*
X312500Y406000D01*
Y375500D02*
Y406000D01*
X310110Y373110D02*
X312500Y375500D01*
X303386Y373110D02*
X310110D01*
X270110Y386890D02*
X276614D01*
X268453Y382953D02*
X276614D01*
X269016Y379016D02*
X276614D01*
X258659Y345000D02*
Y345030D01*
X272079Y375079D02*
X276614D01*
X209500Y335000D02*
X210000Y334500D01*
X246750Y350000D02*
X247000D01*
X272079Y375079D01*
X210000Y334500D02*
X231500D01*
X209500Y345000D02*
X258659D01*
X231500Y334500D02*
X237000Y340000D01*
X209500Y385000D02*
X244500D01*
X224500Y400500D02*
X245500D01*
X265000Y400000D02*
X275926Y389074D01*
X254500Y400000D02*
X265000D01*
X258659Y345030D02*
X290677Y377047D01*
X303386D01*
X275926Y389074D02*
X281048D01*
X285822Y384300D01*
X302765D01*
X303386Y384921D01*
X209500Y405000D02*
X266267D01*
X277113Y394154D01*
X298090D01*
X238500Y319500D02*
X240195D01*
X292000Y388500D02*
X303028D01*
X298090Y394154D02*
X303386Y388858D01*
X268000Y362000D02*
Y362527D01*
X276614Y371142D01*
X312000Y358000D02*
Y364496D01*
X303386Y373110D02*
X312000Y364496D01*
D12*
X224000Y411500D02*
D03*
X229000D02*
D03*
X234000D02*
D03*
X239000D02*
D03*
X244000D02*
D03*
D13*
X249000D02*
D03*
D14*
X209500Y315000D02*
D03*
D15*
Y325000D02*
D03*
Y345000D02*
D03*
Y355000D02*
D03*
Y365000D02*
D03*
Y375000D02*
D03*
Y385000D02*
D03*
Y395000D02*
D03*
Y405000D02*
D03*
Y335000D02*
D03*
X228500Y309500D02*
D03*
X258500Y319500D02*
D03*
X248500D02*
D03*
Y309500D02*
D03*
X238500Y319500D02*
D03*
Y309500D02*
D03*
X228500Y319500D02*
D03*
D16*
X258500Y309500D02*
D03*
D17*
X269000Y407500D02*
D03*
X310000Y408500D02*
D03*
X246750Y350000D02*
D03*
X237125Y340000D02*
D03*
X244500Y385000D02*
D03*
X224500Y400500D02*
D03*
X245500D02*
D03*
X262000Y395000D02*
D03*
X254500Y400000D02*
D03*
X310500Y347500D02*
D03*
X292000Y388500D02*
D03*
X268000Y362000D02*
D03*
D18*
X290000Y402047D02*
D03*
Y357953D02*
D03*
D19*
X279764Y357756D02*
D03*
Y402244D02*
D03*
D20*
X300236Y359724D02*
D03*
Y400276D02*
D03*
M02*
