M48
;Layer_Color=9474304
;FILE_FORMAT=2:5
INCH,LZ
;TYPE=PLATED
T1F00S00C0.02500
T2F00S00C0.02800
T3F00S00C0.03543
T4F00S00C0.04000
T5F00S00C0.06299
T6F00S00C0.07874
T7F00S00C0.08268
%
T01
X0224Y04115
X0229
X0234
X0239
X0244
X0249
T02
X0237125Y034
X024675Y035
X0268Y0362
X0262Y0395
X02545Y04
X02455Y04005
X02445Y0385
X02245Y04005
X0269Y04075
X031Y04085
X0292Y03885
X03105Y03475
T03
X02095Y0315
Y0325
Y0335
Y0345
Y0355
Y0365
Y0375
Y0385
Y0395
Y0405
T04
X02285Y03095
X02385
X02485
X02585
Y03195
X02485
X02385
X02285
T05
X029Y0357953
Y0402047
T06
X0279764Y0357756
Y0402244
T07
X0300236Y0359724
Y0400276
M30
