%FSLAX25Y25*%
%MOIN*%
G70*
G01*
G75*
G04 Layer_Physical_Order=2*
G04 Layer_Color=16711680*
%ADD10R,0.07874X0.01969*%
%ADD11C,0.01200*%
%ADD12C,0.04200*%
%ADD13R,0.04200X0.04200*%
%ADD14R,0.05906X0.05906*%
%ADD15C,0.05906*%
%ADD16R,0.05906X0.05906*%
%ADD17C,0.05000*%
%ADD18C,0.06299*%
%ADD19C,0.09449*%
%ADD20C,0.09843*%
D11*
X217000Y387500D02*
X224500Y395000D01*
X217000Y376627D02*
Y387500D01*
X209500Y369127D02*
X217000Y376627D01*
X224500Y395000D02*
Y400500D01*
X221000Y385500D02*
X228200Y392700D01*
X221000Y325000D02*
Y385500D01*
X211000Y315000D02*
X221000Y325000D01*
X228200Y392700D02*
Y410700D01*
X269000Y407500D02*
X269669Y408169D01*
X309668D02*
X310000Y408500D01*
X269669Y408169D02*
X309668D01*
X209500Y375000D02*
Y379127D01*
X213653Y383280D01*
Y401153D01*
X224000Y411500D01*
X209500Y365000D02*
Y369127D01*
X245500Y400500D02*
X249000Y404000D01*
Y411500D01*
X248500Y309500D02*
Y311364D01*
X254253Y317117D01*
X262000Y340737D02*
Y395000D01*
X254253Y317117D02*
Y332990D01*
X248500Y319500D02*
X252000Y323000D01*
Y377500D01*
X244500Y385000D02*
X252000Y377500D01*
X254253Y332990D02*
X262000Y340737D01*
X306358Y351642D02*
X310500Y347500D01*
X306358Y351642D02*
Y365846D01*
X292000Y380203D02*
X306358Y365846D01*
X292000Y380203D02*
Y388500D01*
X258500Y309500D02*
X268000Y319000D01*
Y362000D01*
X228200Y410700D02*
X229000Y411500D01*
X234000D02*
X237125Y408375D01*
Y340000D02*
Y340125D01*
Y408375D01*
X237000Y340000D02*
X237125Y340125D01*
X246875Y349875D01*
X244500Y385000D02*
X254500Y395000D01*
Y400000D01*
X209500Y315000D02*
X211000D01*
D12*
X224000Y411500D02*
D03*
X229000D02*
D03*
X234000D02*
D03*
X239000D02*
D03*
X244000D02*
D03*
D13*
X249000D02*
D03*
D14*
X209500Y315000D02*
D03*
D15*
Y325000D02*
D03*
Y345000D02*
D03*
Y355000D02*
D03*
Y365000D02*
D03*
Y375000D02*
D03*
Y385000D02*
D03*
Y395000D02*
D03*
Y405000D02*
D03*
Y335000D02*
D03*
X228500Y309500D02*
D03*
X258500Y319500D02*
D03*
X248500D02*
D03*
Y309500D02*
D03*
X238500Y319500D02*
D03*
Y309500D02*
D03*
X228500Y319500D02*
D03*
D16*
X258500Y309500D02*
D03*
D17*
X269000Y407500D02*
D03*
X310000Y408500D02*
D03*
X246750Y350000D02*
D03*
X237125Y340000D02*
D03*
X244500Y385000D02*
D03*
X224500Y400500D02*
D03*
X245500D02*
D03*
X262000Y395000D02*
D03*
X254500Y400000D02*
D03*
X310500Y347500D02*
D03*
X292000Y388500D02*
D03*
X268000Y362000D02*
D03*
D18*
X290000Y402047D02*
D03*
Y357953D02*
D03*
D19*
X279764Y357756D02*
D03*
Y402244D02*
D03*
D20*
X300236Y359724D02*
D03*
Y400276D02*
D03*
M02*
