%FSLAX25Y25*%
%MOIN*%
G70*
G01*
G75*
G04 Layer_Color=32896*
%ADD10O,0.02559X0.00984*%
%ADD11O,0.00984X0.02559*%
%ADD12R,0.13780X0.13780*%
%ADD13R,0.00984X0.02150*%
%ADD14R,0.02150X0.00984*%
%ADD15C,0.02953*%
%ADD16R,0.04331X0.05118*%
%ADD17R,0.03740X0.03543*%
%ADD18R,0.03543X0.03150*%
%ADD19R,0.03543X0.03740*%
%ADD20R,0.03150X0.03543*%
%ADD21O,0.02362X0.07284*%
%ADD22R,0.01378X0.03937*%
%ADD23O,0.03465X0.01102*%
%ADD24O,0.01102X0.03465*%
%ADD25R,0.20866X0.20866*%
%ADD26C,0.04700*%
%ADD27C,0.01000*%
%ADD28C,0.00600*%
%ADD29C,0.01640*%
%ADD30C,0.01200*%
%ADD31C,0.00800*%
%ADD32C,0.02000*%
%ADD33C,0.01100*%
%ADD34C,0.01500*%
%ADD35O,0.09843X0.10827*%
%ADD36C,0.12500*%
%ADD37C,0.10000*%
%ADD38C,0.02200*%
%ADD39C,0.02598*%
%ADD40C,0.05000*%
%ADD41C,0.09200*%
%ADD42C,0.06000*%
%ADD43C,0.14900*%
%ADD44C,0.12400*%
%ADD45C,0.03200*%
%ADD46C,0.04600*%
%ADD47R,0.03490X0.23475*%
%ADD48R,0.02800X0.02500*%
%ADD49R,0.02700X0.04700*%
%ADD50R,0.04600X0.05300*%
%ADD51R,0.05500X0.02400*%
%ADD52R,0.02400X0.05200*%
%ADD53R,0.05400X0.02500*%
%ADD54R,0.14173X0.14173*%
%ADD55C,0.09487*%
%ADD56C,0.03699*%
%ADD57C,0.05200*%
%ADD58R,0.05906X0.07480*%
%ADD59R,0.01181X0.06299*%
%ADD60O,0.01181X0.03150*%
%ADD61O,0.01181X0.04724*%
%ADD62O,0.03150X0.01181*%
%ADD63R,0.08661X0.12598*%
%ADD64O,0.08268X0.02362*%
%ADD65R,0.05118X0.03150*%
%ADD66R,0.11811X0.08268*%
%ADD67R,0.08268X0.03937*%
%ADD68R,0.03347X0.03543*%
%ADD69R,0.01772X0.01969*%
%ADD70C,0.02500*%
%ADD71C,0.00984*%
%ADD72C,0.02362*%
%ADD73C,0.00787*%
%ADD74O,0.02159X0.00584*%
%ADD75O,0.00584X0.02159*%
%ADD76R,0.09843X0.09843*%
%ADD77R,0.00684X0.01850*%
%ADD78R,0.01850X0.00684*%
%ADD79R,0.04131X0.04918*%
%ADD80R,0.03540X0.03343*%
%ADD81R,0.03343X0.02950*%
%ADD82R,0.03343X0.03540*%
%ADD83R,0.02950X0.03343*%
%ADD84O,0.02162X0.07084*%
%ADD85R,0.01178X0.03737*%
%ADD86O,0.03065X0.00702*%
%ADD87O,0.00702X0.03065*%
%ADD88R,0.10866X0.10866*%
%ADD89O,0.02959X0.01384*%
%ADD90O,0.01384X0.02959*%
%ADD91R,0.14379X0.14379*%
%ADD92R,0.01384X0.02550*%
%ADD93R,0.02550X0.01384*%
%ADD94R,0.04931X0.05718*%
%ADD95R,0.04340X0.04143*%
%ADD96R,0.04143X0.03750*%
%ADD97R,0.04143X0.04340*%
%ADD98R,0.03750X0.04143*%
%ADD99O,0.02962X0.07883*%
%ADD100R,0.01978X0.04537*%
%ADD101O,0.03865X0.01502*%
%ADD102O,0.01502X0.03865*%
%ADD103R,0.21466X0.21466*%
%ADD104C,0.09900*%
%ADD105O,0.10443X0.11427*%
%ADD106R,0.06506X0.08080*%
%ADD107R,0.01378X0.06496*%
%ADD108O,0.01381X0.03350*%
%ADD109O,0.01381X0.04924*%
%ADD110O,0.03350X0.01381*%
%ADD111R,0.08861X0.12798*%
%ADD112O,0.08868X0.02962*%
%ADD113R,0.05718X0.03750*%
%ADD114R,0.12411X0.08868*%
%ADD115R,0.08868X0.04537*%
%ADD116R,0.03947X0.04143*%
%ADD117R,0.02372X0.02569*%
%ADD118R,0.05706X0.07280*%
%ADD119R,0.00981X0.06099*%
%ADD120O,0.00781X0.02750*%
%ADD121O,0.00781X0.04324*%
%ADD122O,0.02750X0.00781*%
%ADD123R,0.04724X0.08661*%
%ADD124O,0.08068X0.02162*%
%ADD125R,0.04918X0.02950*%
%ADD126R,0.11611X0.08068*%
%ADD127R,0.08068X0.03737*%
%ADD128R,0.03147X0.03343*%
%ADD129R,0.01572X0.01769*%
%ADD130C,0.01181*%
G36*
X82500Y166245D02*
X81650D01*
Y165952D01*
Y165918D01*
X81652Y165888D01*
Y165866D01*
X81655Y165846D01*
X81658Y165832D01*
Y165821D01*
X81661Y165816D01*
Y165813D01*
X81674Y165769D01*
X81683Y165749D01*
X81691Y165733D01*
X81700Y165716D01*
X81705Y165705D01*
X81708Y165700D01*
X81711Y165697D01*
X81727Y165674D01*
X81747Y165652D01*
X81788Y165611D01*
X81808Y165591D01*
X81824Y165578D01*
X81835Y165569D01*
X81838Y165567D01*
X81877Y165539D01*
X81918Y165508D01*
X81963Y165478D01*
X82004Y165447D01*
X82043Y165422D01*
X82073Y165403D01*
X82085Y165395D01*
X82093Y165389D01*
X82098Y165384D01*
X82101D01*
X82500Y165132D01*
Y164816D01*
X81979Y165146D01*
X81924Y165184D01*
X81874Y165220D01*
X81832Y165256D01*
X81794Y165287D01*
X81766Y165314D01*
X81744Y165337D01*
X81730Y165350D01*
X81724Y165356D01*
X81708Y165378D01*
X81688Y165403D01*
X81658Y165453D01*
X81647Y165475D01*
X81636Y165492D01*
X81630Y165503D01*
X81627Y165508D01*
X81619Y165459D01*
X81611Y165411D01*
X81597Y165370D01*
X81586Y165328D01*
X81572Y165292D01*
X81555Y165259D01*
X81542Y165229D01*
X81528Y165201D01*
X81511Y165179D01*
X81497Y165156D01*
X81486Y165140D01*
X81475Y165126D01*
X81467Y165115D01*
X81458Y165107D01*
X81456Y165104D01*
X81453Y165101D01*
X81425Y165079D01*
X81397Y165057D01*
X81339Y165024D01*
X81281Y165001D01*
X81226Y164985D01*
X81179Y164974D01*
X81159Y164971D01*
X81140D01*
X81126Y164968D01*
X81107D01*
X81049Y164971D01*
X80996Y164979D01*
X80946Y164993D01*
X80905Y165007D01*
X80869Y165024D01*
X80841Y165035D01*
X80824Y165046D01*
X80821Y165049D01*
X80819D01*
X80774Y165082D01*
X80735Y165115D01*
X80702Y165151D01*
X80677Y165184D01*
X80658Y165215D01*
X80647Y165240D01*
X80639Y165256D01*
X80636Y165259D01*
Y165262D01*
X80628Y165287D01*
X80619Y165317D01*
X80605Y165378D01*
X80597Y165445D01*
X80589Y165506D01*
X80586Y165564D01*
Y165589D01*
X80583Y165611D01*
Y165627D01*
Y165641D01*
Y165650D01*
Y165652D01*
Y166500D01*
X82500D01*
Y166245D01*
D02*
G37*
G36*
X81267Y164445D02*
X81248Y164403D01*
X81229Y164362D01*
X81209Y164323D01*
X81193Y164289D01*
X81179Y164262D01*
X81168Y164245D01*
X81165Y164242D01*
Y164240D01*
X81134Y164190D01*
X81104Y164146D01*
X81076Y164107D01*
X81051Y164076D01*
X81032Y164049D01*
X81015Y164032D01*
X81004Y164018D01*
X81001Y164015D01*
X82500D01*
Y163780D01*
X80575D01*
Y163932D01*
X80622Y163960D01*
X80666Y163990D01*
X80711Y164026D01*
X80749Y164060D01*
X80783Y164093D01*
X80810Y164118D01*
X80819Y164129D01*
X80827Y164137D01*
X80830Y164140D01*
X80832Y164143D01*
X80879Y164201D01*
X80924Y164259D01*
X80963Y164314D01*
X80993Y164370D01*
X81021Y164417D01*
X81032Y164436D01*
X81040Y164453D01*
X81049Y164467D01*
X81051Y164478D01*
X81057Y164483D01*
Y164486D01*
X81284D01*
X81267Y164445D01*
D02*
G37*
G36*
X93652Y163473D02*
X93744Y163468D01*
X93827Y163459D01*
X93904Y163445D01*
X93976Y163432D01*
X94040Y163415D01*
X94098Y163398D01*
X94148Y163382D01*
X94192Y163365D01*
X94231Y163346D01*
X94265Y163332D01*
X94289Y163318D01*
X94312Y163304D01*
X94326Y163296D01*
X94334Y163290D01*
X94337Y163288D01*
X94370Y163257D01*
X94400Y163224D01*
X94428Y163188D01*
X94450Y163152D01*
X94469Y163116D01*
X94486Y163080D01*
X94497Y163044D01*
X94508Y163011D01*
X94517Y162977D01*
X94522Y162947D01*
X94528Y162919D01*
X94530Y162897D01*
X94533Y162878D01*
Y162861D01*
Y162853D01*
Y162850D01*
X94528Y162775D01*
X94517Y162706D01*
X94497Y162648D01*
X94478Y162598D01*
X94459Y162556D01*
X94447Y162542D01*
X94439Y162529D01*
X94433Y162518D01*
X94428Y162509D01*
X94422Y162506D01*
Y162504D01*
X94375Y162454D01*
X94326Y162412D01*
X94270Y162376D01*
X94220Y162349D01*
X94173Y162326D01*
X94154Y162315D01*
X94134Y162310D01*
X94121Y162304D01*
X94109Y162299D01*
X94104Y162296D01*
X94101D01*
X94060Y162282D01*
X94018Y162271D01*
X93929Y162254D01*
X93838Y162241D01*
X93749Y162232D01*
X93711Y162230D01*
X93674Y162227D01*
X93641D01*
X93611Y162224D01*
X93503D01*
X93453Y162227D01*
X93409D01*
X93364Y162230D01*
X93326Y162235D01*
X93287Y162238D01*
X93253Y162241D01*
X93223Y162246D01*
X93195Y162249D01*
X93170Y162254D01*
X93151Y162257D01*
X93134Y162260D01*
X93120Y162263D01*
X93112Y162266D01*
X93107Y162268D01*
X93104D01*
X93043Y162285D01*
X92988Y162304D01*
X92940Y162326D01*
X92899Y162343D01*
X92863Y162363D01*
X92838Y162373D01*
X92824Y162385D01*
X92819Y162387D01*
X92777Y162418D01*
X92741Y162448D01*
X92711Y162482D01*
X92683Y162512D01*
X92664Y162540D01*
X92650Y162562D01*
X92641Y162576D01*
X92639Y162578D01*
Y162581D01*
X92616Y162626D01*
X92602Y162673D01*
X92592Y162717D01*
X92583Y162759D01*
X92578Y162795D01*
X92575Y162825D01*
Y162836D01*
Y162844D01*
Y162847D01*
Y162850D01*
X92580Y162925D01*
X92592Y162994D01*
X92611Y163052D01*
X92630Y163102D01*
X92652Y163144D01*
X92661Y163160D01*
X92672Y163174D01*
X92677Y163185D01*
X92683Y163194D01*
X92688Y163196D01*
Y163199D01*
X92733Y163249D01*
X92785Y163290D01*
X92838Y163326D01*
X92888Y163354D01*
X92935Y163376D01*
X92954Y163387D01*
X92974Y163393D01*
X92988Y163398D01*
X92999Y163404D01*
X93004Y163407D01*
X93007D01*
X93049Y163418D01*
X93090Y163429D01*
X93182Y163445D01*
X93273Y163459D01*
X93359Y163468D01*
X93400Y163470D01*
X93436Y163473D01*
X93470D01*
X93500Y163476D01*
X93555D01*
X93652Y163473D01*
D02*
G37*
G36*
X94500Y166545D02*
X93650D01*
Y166252D01*
Y166218D01*
X93652Y166188D01*
Y166166D01*
X93655Y166146D01*
X93658Y166132D01*
Y166121D01*
X93661Y166116D01*
Y166113D01*
X93674Y166069D01*
X93683Y166049D01*
X93691Y166033D01*
X93700Y166016D01*
X93705Y166005D01*
X93708Y165999D01*
X93711Y165997D01*
X93727Y165974D01*
X93747Y165952D01*
X93788Y165911D01*
X93808Y165891D01*
X93824Y165878D01*
X93835Y165869D01*
X93838Y165866D01*
X93877Y165839D01*
X93918Y165808D01*
X93963Y165778D01*
X94004Y165747D01*
X94043Y165723D01*
X94073Y165703D01*
X94085Y165695D01*
X94093Y165689D01*
X94098Y165684D01*
X94101D01*
X94500Y165432D01*
Y165116D01*
X93979Y165445D01*
X93924Y165484D01*
X93874Y165520D01*
X93832Y165556D01*
X93794Y165587D01*
X93766Y165614D01*
X93744Y165637D01*
X93730Y165650D01*
X93724Y165656D01*
X93708Y165678D01*
X93688Y165703D01*
X93658Y165753D01*
X93647Y165775D01*
X93636Y165792D01*
X93630Y165803D01*
X93627Y165808D01*
X93619Y165759D01*
X93611Y165711D01*
X93597Y165670D01*
X93586Y165628D01*
X93572Y165592D01*
X93555Y165559D01*
X93542Y165529D01*
X93528Y165501D01*
X93511Y165479D01*
X93497Y165456D01*
X93486Y165440D01*
X93475Y165426D01*
X93467Y165415D01*
X93458Y165407D01*
X93456Y165404D01*
X93453Y165401D01*
X93425Y165379D01*
X93397Y165357D01*
X93339Y165324D01*
X93281Y165301D01*
X93226Y165285D01*
X93179Y165274D01*
X93159Y165271D01*
X93140D01*
X93126Y165268D01*
X93107D01*
X93049Y165271D01*
X92996Y165279D01*
X92946Y165293D01*
X92905Y165307D01*
X92869Y165324D01*
X92841Y165335D01*
X92824Y165346D01*
X92821Y165348D01*
X92819D01*
X92774Y165382D01*
X92735Y165415D01*
X92702Y165451D01*
X92677Y165484D01*
X92658Y165515D01*
X92647Y165540D01*
X92639Y165556D01*
X92636Y165559D01*
Y165562D01*
X92628Y165587D01*
X92619Y165617D01*
X92605Y165678D01*
X92597Y165745D01*
X92589Y165806D01*
X92586Y165864D01*
Y165889D01*
X92583Y165911D01*
Y165927D01*
Y165941D01*
Y165950D01*
Y165952D01*
Y166800D01*
X94500D01*
Y166545D01*
D02*
G37*
G36*
X93267Y164745D02*
X93248Y164703D01*
X93229Y164662D01*
X93209Y164623D01*
X93193Y164590D01*
X93179Y164562D01*
X93168Y164545D01*
X93165Y164542D01*
Y164540D01*
X93134Y164490D01*
X93104Y164445D01*
X93076Y164407D01*
X93051Y164376D01*
X93032Y164349D01*
X93015Y164332D01*
X93004Y164318D01*
X93001Y164315D01*
X94500D01*
Y164080D01*
X92575D01*
Y164232D01*
X92622Y164260D01*
X92666Y164290D01*
X92711Y164326D01*
X92749Y164360D01*
X92783Y164393D01*
X92810Y164418D01*
X92819Y164429D01*
X92827Y164437D01*
X92830Y164440D01*
X92832Y164443D01*
X92879Y164501D01*
X92924Y164559D01*
X92963Y164614D01*
X92993Y164670D01*
X93021Y164717D01*
X93032Y164736D01*
X93040Y164753D01*
X93049Y164767D01*
X93051Y164778D01*
X93057Y164783D01*
Y164786D01*
X93284D01*
X93267Y164745D01*
D02*
G37*
G36*
X100282Y38878D02*
X100313Y38834D01*
X100349Y38789D01*
X100382Y38751D01*
X100415Y38717D01*
X100440Y38690D01*
X100451Y38681D01*
X100460Y38673D01*
X100462Y38670D01*
X100465Y38668D01*
X100523Y38620D01*
X100582Y38576D01*
X100637Y38537D01*
X100692Y38507D01*
X100739Y38479D01*
X100759Y38468D01*
X100775Y38460D01*
X100789Y38451D01*
X100800Y38449D01*
X100806Y38443D01*
X100809D01*
Y38216D01*
X100767Y38233D01*
X100725Y38252D01*
X100684Y38271D01*
X100645Y38291D01*
X100612Y38307D01*
X100584Y38321D01*
X100568Y38332D01*
X100565Y38335D01*
X100562D01*
X100512Y38366D01*
X100468Y38396D01*
X100429Y38424D01*
X100399Y38449D01*
X100371Y38468D01*
X100354Y38485D01*
X100340Y38496D01*
X100338Y38499D01*
Y37000D01*
X100102D01*
Y38925D01*
X100255D01*
X100282Y38878D01*
D02*
G37*
G36*
X102088Y38945D02*
X102177Y38931D01*
X102255Y38914D01*
X102291Y38903D01*
X102324Y38892D01*
X102354Y38881D01*
X102382Y38870D01*
X102404Y38861D01*
X102426Y38853D01*
X102440Y38845D01*
X102451Y38839D01*
X102460Y38837D01*
X102462Y38834D01*
X102537Y38787D01*
X102601Y38731D01*
X102656Y38676D01*
X102703Y38620D01*
X102739Y38571D01*
X102753Y38548D01*
X102764Y38529D01*
X102775Y38515D01*
X102781Y38504D01*
X102784Y38496D01*
X102786Y38493D01*
X102825Y38407D01*
X102853Y38318D01*
X102872Y38230D01*
X102886Y38149D01*
X102892Y38113D01*
X102894Y38078D01*
X102897Y38050D01*
Y38022D01*
X102900Y38003D01*
Y37986D01*
Y37975D01*
Y37972D01*
X102894Y37873D01*
X102883Y37776D01*
X102869Y37690D01*
X102858Y37648D01*
X102850Y37612D01*
X102842Y37579D01*
X102831Y37549D01*
X102822Y37521D01*
X102817Y37499D01*
X102809Y37482D01*
X102806Y37468D01*
X102800Y37460D01*
Y37457D01*
X102759Y37374D01*
X102712Y37299D01*
X102662Y37235D01*
X102637Y37211D01*
X102615Y37186D01*
X102593Y37163D01*
X102570Y37144D01*
X102551Y37127D01*
X102534Y37116D01*
X102523Y37105D01*
X102512Y37097D01*
X102507Y37094D01*
X102504Y37091D01*
X102465Y37069D01*
X102426Y37050D01*
X102343Y37019D01*
X102260Y36997D01*
X102180Y36983D01*
X102141Y36978D01*
X102108Y36972D01*
X102077Y36970D01*
X102052D01*
X102030Y36967D01*
X102000D01*
X101944Y36970D01*
X101892Y36975D01*
X101842Y36981D01*
X101795Y36992D01*
X101751Y37005D01*
X101709Y37019D01*
X101670Y37033D01*
X101634Y37050D01*
X101604Y37064D01*
X101573Y37078D01*
X101551Y37091D01*
X101529Y37105D01*
X101515Y37116D01*
X101501Y37122D01*
X101496Y37127D01*
X101493Y37130D01*
X101454Y37163D01*
X101421Y37197D01*
X101390Y37235D01*
X101360Y37274D01*
X101310Y37352D01*
X101271Y37429D01*
X101255Y37465D01*
X101241Y37499D01*
X101230Y37529D01*
X101221Y37554D01*
X101213Y37576D01*
X101207Y37593D01*
X101205Y37604D01*
Y37607D01*
X101460Y37670D01*
X101471Y37626D01*
X101485Y37584D01*
X101498Y37546D01*
X101512Y37510D01*
X101529Y37476D01*
X101546Y37449D01*
X101565Y37421D01*
X101582Y37396D01*
X101595Y37374D01*
X101612Y37357D01*
X101626Y37341D01*
X101637Y37327D01*
X101648Y37319D01*
X101656Y37310D01*
X101659Y37308D01*
X101662Y37305D01*
X101690Y37282D01*
X101720Y37266D01*
X101781Y37235D01*
X101839Y37213D01*
X101897Y37199D01*
X101947Y37188D01*
X101967Y37186D01*
X101986D01*
X102003Y37183D01*
X102022D01*
X102086Y37186D01*
X102147Y37197D01*
X102202Y37211D01*
X102252Y37227D01*
X102291Y37244D01*
X102307Y37252D01*
X102321Y37258D01*
X102332Y37263D01*
X102340Y37269D01*
X102346Y37271D01*
X102349D01*
X102401Y37310D01*
X102446Y37352D01*
X102485Y37399D01*
X102515Y37443D01*
X102540Y37482D01*
X102557Y37515D01*
X102562Y37529D01*
X102568Y37537D01*
X102570Y37543D01*
Y37546D01*
X102593Y37618D01*
X102609Y37690D01*
X102623Y37762D01*
X102631Y37828D01*
X102634Y37859D01*
X102637Y37886D01*
Y37911D01*
X102640Y37931D01*
Y37947D01*
Y37961D01*
Y37969D01*
Y37972D01*
X102637Y38044D01*
X102631Y38111D01*
X102620Y38172D01*
X102609Y38227D01*
X102601Y38274D01*
X102595Y38294D01*
X102590Y38310D01*
X102587Y38324D01*
X102584Y38332D01*
X102581Y38338D01*
Y38341D01*
X102554Y38404D01*
X102523Y38463D01*
X102490Y38510D01*
X102454Y38551D01*
X102424Y38584D01*
X102399Y38607D01*
X102379Y38620D01*
X102376Y38626D01*
X102374D01*
X102315Y38662D01*
X102252Y38690D01*
X102191Y38709D01*
X102133Y38720D01*
X102080Y38728D01*
X102058Y38731D01*
X102039D01*
X102025Y38734D01*
X102003D01*
X101933Y38731D01*
X101870Y38720D01*
X101817Y38704D01*
X101770Y38687D01*
X101734Y38668D01*
X101706Y38654D01*
X101690Y38643D01*
X101684Y38637D01*
X101640Y38596D01*
X101598Y38548D01*
X101565Y38499D01*
X101537Y38449D01*
X101515Y38404D01*
X101507Y38382D01*
X101501Y38366D01*
X101496Y38352D01*
X101490Y38341D01*
X101487Y38335D01*
Y38332D01*
X101238Y38390D01*
X101255Y38440D01*
X101271Y38485D01*
X101293Y38526D01*
X101313Y38568D01*
X101335Y38604D01*
X101360Y38637D01*
X101382Y38670D01*
X101404Y38698D01*
X101426Y38720D01*
X101446Y38742D01*
X101465Y38762D01*
X101479Y38776D01*
X101493Y38789D01*
X101504Y38798D01*
X101509Y38800D01*
X101512Y38803D01*
X101551Y38828D01*
X101590Y38853D01*
X101629Y38873D01*
X101670Y38889D01*
X101753Y38914D01*
X101828Y38931D01*
X101864Y38939D01*
X101894Y38942D01*
X101925Y38945D01*
X101950Y38947D01*
X101969Y38950D01*
X101997D01*
X102088Y38945D01*
D02*
G37*
G36*
X28140Y15635D02*
X28600D01*
Y15400D01*
X28140D01*
Y15139D01*
X27924D01*
Y15400D01*
X26683D01*
Y15591D01*
X27924Y16469D01*
X28140D01*
Y15635D01*
D02*
G37*
G36*
X82500Y161938D02*
X82273D01*
Y162882D01*
X82226Y162849D01*
X82206Y162832D01*
X82187Y162819D01*
X82170Y162805D01*
X82159Y162794D01*
X82151Y162785D01*
X82148Y162783D01*
X82134Y162769D01*
X82121Y162752D01*
X82085Y162713D01*
X82043Y162669D01*
X82001Y162622D01*
X81965Y162578D01*
X81949Y162558D01*
X81932Y162542D01*
X81921Y162528D01*
X81913Y162517D01*
X81907Y162511D01*
X81904Y162508D01*
X81866Y162464D01*
X81830Y162420D01*
X81794Y162381D01*
X81763Y162345D01*
X81733Y162312D01*
X81705Y162284D01*
X81680Y162256D01*
X81658Y162234D01*
X81636Y162212D01*
X81619Y162195D01*
X81605Y162182D01*
X81591Y162168D01*
X81575Y162154D01*
X81569Y162148D01*
X81522Y162109D01*
X81481Y162076D01*
X81439Y162049D01*
X81406Y162026D01*
X81375Y162010D01*
X81353Y161999D01*
X81339Y161993D01*
X81334Y161990D01*
X81292Y161974D01*
X81251Y161963D01*
X81212Y161952D01*
X81179Y161946D01*
X81148Y161943D01*
X81126Y161941D01*
X81107D01*
X81065Y161943D01*
X81026Y161949D01*
X80988Y161954D01*
X80954Y161966D01*
X80888Y161993D01*
X80835Y162021D01*
X80810Y162038D01*
X80791Y162051D01*
X80771Y162065D01*
X80758Y162079D01*
X80747Y162090D01*
X80735Y162096D01*
X80733Y162101D01*
X80730Y162104D01*
X80702Y162135D01*
X80677Y162168D01*
X80658Y162204D01*
X80641Y162240D01*
X80614Y162312D01*
X80594Y162384D01*
X80589Y162414D01*
X80583Y162445D01*
X80580Y162472D01*
X80578Y162495D01*
X80575Y162514D01*
Y162531D01*
Y162539D01*
Y162542D01*
X80578Y162592D01*
X80580Y162639D01*
X80589Y162683D01*
X80597Y162724D01*
X80608Y162763D01*
X80619Y162799D01*
X80633Y162832D01*
X80647Y162863D01*
X80661Y162891D01*
X80675Y162913D01*
X80686Y162932D01*
X80697Y162949D01*
X80705Y162963D01*
X80713Y162971D01*
X80716Y162977D01*
X80719Y162979D01*
X80747Y163007D01*
X80777Y163032D01*
X80810Y163057D01*
X80844Y163076D01*
X80910Y163110D01*
X80976Y163132D01*
X81007Y163140D01*
X81037Y163148D01*
X81062Y163154D01*
X81085Y163159D01*
X81104Y163162D01*
X81118D01*
X81126Y163165D01*
X81129D01*
X81154Y162924D01*
X81090Y162918D01*
X81035Y162907D01*
X80985Y162891D01*
X80946Y162871D01*
X80913Y162855D01*
X80891Y162838D01*
X80877Y162827D01*
X80871Y162821D01*
X80838Y162780D01*
X80813Y162736D01*
X80794Y162689D01*
X80783Y162647D01*
X80774Y162608D01*
X80771Y162575D01*
X80769Y162564D01*
Y162556D01*
Y162550D01*
Y162547D01*
X80771Y162489D01*
X80783Y162436D01*
X80799Y162392D01*
X80816Y162353D01*
X80835Y162323D01*
X80849Y162303D01*
X80860Y162290D01*
X80866Y162284D01*
X80905Y162251D01*
X80943Y162226D01*
X80982Y162206D01*
X81021Y162195D01*
X81051Y162187D01*
X81079Y162184D01*
X81096Y162182D01*
X81101D01*
X81151Y162187D01*
X81204Y162198D01*
X81251Y162218D01*
X81295Y162237D01*
X81331Y162259D01*
X81362Y162278D01*
X81373Y162284D01*
X81381Y162290D01*
X81384Y162295D01*
X81387D01*
X81417Y162317D01*
X81447Y162345D01*
X81481Y162375D01*
X81514Y162409D01*
X81580Y162478D01*
X81647Y162547D01*
X81677Y162583D01*
X81705Y162614D01*
X81730Y162644D01*
X81752Y162669D01*
X81769Y162689D01*
X81783Y162705D01*
X81791Y162716D01*
X81794Y162719D01*
X81852Y162788D01*
X81907Y162852D01*
X81957Y162905D01*
X81999Y162946D01*
X82035Y162982D01*
X82060Y163007D01*
X82076Y163021D01*
X82079Y163026D01*
X82082D01*
X82129Y163065D01*
X82173Y163096D01*
X82218Y163123D01*
X82256Y163145D01*
X82289Y163162D01*
X82314Y163173D01*
X82331Y163179D01*
X82334Y163181D01*
X82337D01*
X82367Y163193D01*
X82395Y163198D01*
X82422Y163204D01*
X82447Y163207D01*
X82469Y163209D01*
X82500D01*
Y161938D01*
D02*
G37*
G36*
X27727Y18294D02*
X27824Y18283D01*
X27910Y18270D01*
X27952Y18258D01*
X27988Y18250D01*
X28021Y18242D01*
X28051Y18231D01*
X28079Y18222D01*
X28101Y18217D01*
X28118Y18209D01*
X28132Y18206D01*
X28140Y18200D01*
X28143D01*
X28226Y18159D01*
X28301Y18112D01*
X28365Y18062D01*
X28389Y18037D01*
X28414Y18015D01*
X28437Y17992D01*
X28456Y17970D01*
X28473Y17951D01*
X28484Y17934D01*
X28495Y17923D01*
X28503Y17912D01*
X28506Y17907D01*
X28509Y17904D01*
X28531Y17865D01*
X28550Y17826D01*
X28581Y17743D01*
X28603Y17660D01*
X28617Y17580D01*
X28622Y17541D01*
X28628Y17508D01*
X28631Y17477D01*
Y17452D01*
X28633Y17430D01*
Y17414D01*
Y17402D01*
Y17400D01*
X28631Y17344D01*
X28625Y17292D01*
X28619Y17242D01*
X28608Y17195D01*
X28594Y17151D01*
X28581Y17109D01*
X28567Y17070D01*
X28550Y17034D01*
X28536Y17004D01*
X28522Y16973D01*
X28509Y16951D01*
X28495Y16929D01*
X28484Y16915D01*
X28478Y16901D01*
X28473Y16896D01*
X28470Y16893D01*
X28437Y16854D01*
X28403Y16821D01*
X28365Y16790D01*
X28326Y16760D01*
X28248Y16710D01*
X28171Y16671D01*
X28135Y16655D01*
X28101Y16641D01*
X28071Y16630D01*
X28046Y16621D01*
X28024Y16613D01*
X28007Y16608D01*
X27996Y16605D01*
X27993D01*
X27930Y16860D01*
X27974Y16871D01*
X28016Y16884D01*
X28054Y16898D01*
X28090Y16912D01*
X28124Y16929D01*
X28151Y16946D01*
X28179Y16965D01*
X28204Y16982D01*
X28226Y16995D01*
X28243Y17012D01*
X28259Y17026D01*
X28273Y17037D01*
X28282Y17048D01*
X28290Y17056D01*
X28293Y17059D01*
X28295Y17062D01*
X28317Y17089D01*
X28334Y17120D01*
X28365Y17181D01*
X28387Y17239D01*
X28401Y17297D01*
X28412Y17347D01*
X28414Y17367D01*
Y17386D01*
X28417Y17402D01*
Y17414D01*
Y17419D01*
Y17422D01*
X28414Y17486D01*
X28403Y17547D01*
X28389Y17602D01*
X28373Y17652D01*
X28356Y17691D01*
X28348Y17707D01*
X28342Y17721D01*
X28337Y17732D01*
X28331Y17740D01*
X28328Y17746D01*
Y17749D01*
X28290Y17801D01*
X28248Y17846D01*
X28201Y17885D01*
X28157Y17915D01*
X28118Y17940D01*
X28085Y17956D01*
X28071Y17962D01*
X28063Y17968D01*
X28057Y17970D01*
X28054D01*
X27982Y17992D01*
X27910Y18009D01*
X27838Y18023D01*
X27772Y18031D01*
X27741Y18034D01*
X27714Y18037D01*
X27689D01*
X27669Y18040D01*
X27628D01*
X27556Y18037D01*
X27489Y18031D01*
X27428Y18020D01*
X27373Y18009D01*
X27326Y18001D01*
X27306Y17995D01*
X27290Y17990D01*
X27276Y17987D01*
X27268Y17984D01*
X27262Y17981D01*
X27259D01*
X27196Y17954D01*
X27137Y17923D01*
X27090Y17890D01*
X27049Y17854D01*
X27016Y17824D01*
X26993Y17799D01*
X26980Y17779D01*
X26974Y17776D01*
Y17774D01*
X26938Y17716D01*
X26910Y17652D01*
X26891Y17591D01*
X26880Y17533D01*
X26871Y17480D01*
X26869Y17458D01*
Y17438D01*
X26866Y17425D01*
Y17414D01*
Y17405D01*
Y17402D01*
X26869Y17333D01*
X26880Y17270D01*
X26896Y17217D01*
X26913Y17170D01*
X26932Y17134D01*
X26946Y17106D01*
X26957Y17089D01*
X26963Y17084D01*
X27005Y17040D01*
X27052Y16998D01*
X27101Y16965D01*
X27151Y16937D01*
X27196Y16915D01*
X27218Y16907D01*
X27234Y16901D01*
X27248Y16896D01*
X27259Y16890D01*
X27265Y16887D01*
X27268D01*
X27209Y16638D01*
X27160Y16655D01*
X27115Y16671D01*
X27074Y16693D01*
X27032Y16713D01*
X26996Y16735D01*
X26963Y16760D01*
X26930Y16782D01*
X26902Y16804D01*
X26880Y16826D01*
X26858Y16846D01*
X26838Y16865D01*
X26824Y16879D01*
X26811Y16893D01*
X26802Y16904D01*
X26799Y16909D01*
X26797Y16912D01*
X26772Y16951D01*
X26747Y16990D01*
X26728Y17029D01*
X26711Y17070D01*
X26686Y17153D01*
X26669Y17228D01*
X26661Y17264D01*
X26658Y17294D01*
X26656Y17325D01*
X26653Y17350D01*
X26650Y17369D01*
Y17383D01*
Y17394D01*
Y17397D01*
X26656Y17488D01*
X26669Y17577D01*
X26686Y17655D01*
X26697Y17691D01*
X26708Y17724D01*
X26719Y17754D01*
X26730Y17782D01*
X26739Y17804D01*
X26747Y17826D01*
X26755Y17840D01*
X26761Y17851D01*
X26763Y17860D01*
X26766Y17862D01*
X26813Y17937D01*
X26869Y18001D01*
X26924Y18056D01*
X26980Y18103D01*
X27029Y18139D01*
X27052Y18153D01*
X27071Y18164D01*
X27085Y18175D01*
X27096Y18181D01*
X27104Y18184D01*
X27107Y18186D01*
X27193Y18225D01*
X27281Y18253D01*
X27370Y18272D01*
X27450Y18286D01*
X27487Y18292D01*
X27523Y18294D01*
X27550Y18297D01*
X27578D01*
X27597Y18300D01*
X27628D01*
X27727Y18294D01*
D02*
G37*
G36*
X99655Y44620D02*
X99730Y44606D01*
X99794Y44584D01*
X99849Y44561D01*
X99874Y44548D01*
X99893Y44537D01*
X99913Y44525D01*
X99927Y44514D01*
X99938Y44506D01*
X99946Y44500D01*
X99952Y44498D01*
X99954Y44495D01*
X100007Y44442D01*
X100049Y44384D01*
X100082Y44323D01*
X100110Y44262D01*
X100126Y44210D01*
X100135Y44188D01*
X100140Y44168D01*
X100143Y44151D01*
X100145Y44140D01*
X100148Y44132D01*
Y44129D01*
X99913Y44088D01*
X99902Y44149D01*
X99885Y44201D01*
X99866Y44246D01*
X99846Y44282D01*
X99827Y44309D01*
X99810Y44329D01*
X99799Y44343D01*
X99796Y44345D01*
X99761Y44373D01*
X99722Y44395D01*
X99686Y44409D01*
X99650Y44420D01*
X99616Y44426D01*
X99591Y44431D01*
X99569D01*
X99519Y44429D01*
X99475Y44417D01*
X99436Y44404D01*
X99403Y44390D01*
X99378Y44373D01*
X99359Y44359D01*
X99345Y44348D01*
X99342Y44345D01*
X99312Y44312D01*
X99290Y44276D01*
X99276Y44240D01*
X99265Y44207D01*
X99259Y44176D01*
X99254Y44154D01*
Y44138D01*
Y44135D01*
Y44132D01*
Y44102D01*
X99259Y44074D01*
X99273Y44027D01*
X99292Y43985D01*
X99314Y43949D01*
X99337Y43924D01*
X99356Y43905D01*
X99370Y43894D01*
X99373Y43891D01*
X99375D01*
X99423Y43866D01*
X99467Y43847D01*
X99514Y43833D01*
X99555Y43825D01*
X99591Y43819D01*
X99622Y43813D01*
X99658D01*
X99669Y43816D01*
X99683D01*
X99711Y43609D01*
X99675Y43617D01*
X99641Y43622D01*
X99614Y43628D01*
X99589Y43631D01*
X99569Y43633D01*
X99544D01*
X99486Y43628D01*
X99434Y43617D01*
X99387Y43600D01*
X99348Y43581D01*
X99317Y43562D01*
X99295Y43545D01*
X99281Y43534D01*
X99276Y43528D01*
X99240Y43487D01*
X99212Y43442D01*
X99193Y43398D01*
X99182Y43354D01*
X99173Y43318D01*
X99171Y43287D01*
X99168Y43276D01*
Y43268D01*
Y43262D01*
Y43260D01*
X99173Y43199D01*
X99187Y43143D01*
X99204Y43096D01*
X99226Y43055D01*
X99248Y43021D01*
X99265Y42996D01*
X99278Y42980D01*
X99284Y42974D01*
X99328Y42935D01*
X99375Y42908D01*
X99423Y42888D01*
X99467Y42875D01*
X99506Y42866D01*
X99536Y42863D01*
X99547Y42861D01*
X99564D01*
X99614Y42863D01*
X99661Y42875D01*
X99702Y42888D01*
X99736Y42905D01*
X99763Y42919D01*
X99785Y42933D01*
X99796Y42944D01*
X99802Y42946D01*
X99835Y42985D01*
X99863Y43030D01*
X99888Y43077D01*
X99907Y43127D01*
X99921Y43168D01*
X99927Y43187D01*
X99929Y43204D01*
X99932Y43218D01*
X99935Y43229D01*
X99938Y43235D01*
Y43237D01*
X100173Y43207D01*
X100168Y43163D01*
X100159Y43121D01*
X100135Y43044D01*
X100104Y42977D01*
X100087Y42949D01*
X100071Y42922D01*
X100054Y42897D01*
X100038Y42877D01*
X100024Y42858D01*
X100010Y42844D01*
X100002Y42833D01*
X99993Y42825D01*
X99988Y42819D01*
X99985Y42816D01*
X99952Y42791D01*
X99918Y42766D01*
X99885Y42747D01*
X99849Y42731D01*
X99780Y42703D01*
X99713Y42686D01*
X99683Y42681D01*
X99655Y42675D01*
X99630Y42672D01*
X99608Y42669D01*
X99591Y42667D01*
X99567D01*
X99514Y42669D01*
X99467Y42675D01*
X99420Y42683D01*
X99375Y42695D01*
X99334Y42708D01*
X99298Y42722D01*
X99262Y42739D01*
X99231Y42755D01*
X99201Y42769D01*
X99176Y42786D01*
X99154Y42800D01*
X99137Y42814D01*
X99123Y42825D01*
X99112Y42833D01*
X99107Y42838D01*
X99104Y42841D01*
X99071Y42875D01*
X99043Y42911D01*
X99018Y42946D01*
X98996Y42983D01*
X98979Y43016D01*
X98963Y43052D01*
X98941Y43118D01*
X98935Y43149D01*
X98930Y43176D01*
X98924Y43201D01*
X98921Y43224D01*
X98918Y43240D01*
Y43254D01*
Y43262D01*
Y43265D01*
X98921Y43332D01*
X98932Y43393D01*
X98949Y43445D01*
X98966Y43489D01*
X98982Y43525D01*
X98999Y43553D01*
X99010Y43570D01*
X99013Y43575D01*
X99051Y43617D01*
X99093Y43653D01*
X99137Y43681D01*
X99182Y43703D01*
X99220Y43719D01*
X99251Y43730D01*
X99262Y43733D01*
X99270Y43736D01*
X99276Y43739D01*
X99278D01*
X99231Y43764D01*
X99193Y43789D01*
X99159Y43816D01*
X99132Y43841D01*
X99110Y43863D01*
X99093Y43883D01*
X99085Y43894D01*
X99082Y43899D01*
X99060Y43938D01*
X99043Y43977D01*
X99029Y44016D01*
X99021Y44052D01*
X99015Y44082D01*
X99013Y44104D01*
Y44121D01*
Y44126D01*
X99015Y44174D01*
X99024Y44221D01*
X99035Y44262D01*
X99049Y44298D01*
X99063Y44329D01*
X99073Y44354D01*
X99082Y44368D01*
X99085Y44373D01*
X99112Y44415D01*
X99146Y44451D01*
X99179Y44481D01*
X99212Y44509D01*
X99240Y44528D01*
X99265Y44545D01*
X99281Y44553D01*
X99284Y44556D01*
X99287D01*
X99337Y44578D01*
X99387Y44595D01*
X99436Y44609D01*
X99481Y44617D01*
X99517Y44622D01*
X99547Y44625D01*
X99616D01*
X99655Y44620D01*
D02*
G37*
G36*
X100960Y44578D02*
X100990Y44534D01*
X101026Y44489D01*
X101060Y44451D01*
X101093Y44417D01*
X101118Y44390D01*
X101129Y44381D01*
X101137Y44373D01*
X101140Y44370D01*
X101143Y44368D01*
X101201Y44320D01*
X101259Y44276D01*
X101314Y44237D01*
X101370Y44207D01*
X101417Y44179D01*
X101436Y44168D01*
X101453Y44160D01*
X101467Y44151D01*
X101478Y44149D01*
X101483Y44143D01*
X101486D01*
Y43916D01*
X101445Y43933D01*
X101403Y43952D01*
X101362Y43971D01*
X101323Y43991D01*
X101289Y44007D01*
X101262Y44021D01*
X101245Y44032D01*
X101242Y44035D01*
X101240D01*
X101190Y44066D01*
X101146Y44096D01*
X101107Y44124D01*
X101076Y44149D01*
X101049Y44168D01*
X101032Y44185D01*
X101018Y44196D01*
X101015Y44199D01*
Y42700D01*
X100780D01*
Y44625D01*
X100932D01*
X100960Y44578D01*
D02*
G37*
G36*
X39300Y1000D02*
X39045D01*
Y1850D01*
X38718D01*
X38688Y1848D01*
X38666D01*
X38646Y1845D01*
X38632Y1842D01*
X38621D01*
X38616Y1839D01*
X38613D01*
X38569Y1825D01*
X38549Y1817D01*
X38533Y1809D01*
X38516Y1801D01*
X38505Y1795D01*
X38500Y1792D01*
X38497Y1790D01*
X38475Y1773D01*
X38452Y1753D01*
X38411Y1712D01*
X38391Y1692D01*
X38378Y1676D01*
X38369Y1665D01*
X38366Y1662D01*
X38339Y1623D01*
X38308Y1582D01*
X38278Y1537D01*
X38247Y1496D01*
X38223Y1457D01*
X38203Y1427D01*
X38195Y1416D01*
X38189Y1407D01*
X38184Y1402D01*
Y1399D01*
X37932Y1000D01*
X37616D01*
X37946Y1521D01*
X37984Y1576D01*
X38020Y1626D01*
X38056Y1668D01*
X38087Y1706D01*
X38114Y1734D01*
X38137Y1756D01*
X38151Y1770D01*
X38156Y1776D01*
X38178Y1792D01*
X38203Y1812D01*
X38253Y1842D01*
X38275Y1853D01*
X38292Y1864D01*
X38303Y1870D01*
X38308Y1873D01*
X38258Y1881D01*
X38211Y1889D01*
X38170Y1903D01*
X38128Y1914D01*
X38092Y1928D01*
X38059Y1945D01*
X38029Y1958D01*
X38001Y1972D01*
X37979Y1989D01*
X37957Y2003D01*
X37940Y2014D01*
X37926Y2025D01*
X37915Y2033D01*
X37907Y2042D01*
X37904Y2044D01*
X37901Y2047D01*
X37879Y2075D01*
X37857Y2103D01*
X37824Y2161D01*
X37801Y2219D01*
X37785Y2274D01*
X37774Y2321D01*
X37771Y2341D01*
Y2360D01*
X37768Y2374D01*
Y2385D01*
Y2390D01*
Y2393D01*
X37771Y2451D01*
X37779Y2504D01*
X37793Y2554D01*
X37807Y2596D01*
X37824Y2631D01*
X37835Y2659D01*
X37846Y2676D01*
X37848Y2679D01*
Y2681D01*
X37882Y2726D01*
X37915Y2764D01*
X37951Y2798D01*
X37984Y2823D01*
X38015Y2842D01*
X38040Y2853D01*
X38056Y2861D01*
X38059Y2864D01*
X38062D01*
X38087Y2873D01*
X38117Y2881D01*
X38178Y2895D01*
X38245Y2903D01*
X38306Y2911D01*
X38364Y2914D01*
X38389D01*
X38411Y2917D01*
X39300D01*
Y1000D01*
D02*
G37*
G36*
X36760Y2878D02*
X36790Y2834D01*
X36826Y2789D01*
X36860Y2751D01*
X36893Y2717D01*
X36918Y2690D01*
X36929Y2681D01*
X36937Y2673D01*
X36940Y2670D01*
X36943Y2668D01*
X37001Y2620D01*
X37059Y2576D01*
X37115Y2537D01*
X37170Y2507D01*
X37217Y2479D01*
X37236Y2468D01*
X37253Y2460D01*
X37267Y2451D01*
X37278Y2449D01*
X37283Y2443D01*
X37286D01*
Y2216D01*
X37245Y2233D01*
X37203Y2252D01*
X37162Y2271D01*
X37123Y2291D01*
X37089Y2307D01*
X37062Y2321D01*
X37045Y2332D01*
X37042Y2335D01*
X37040D01*
X36990Y2366D01*
X36946Y2396D01*
X36907Y2424D01*
X36876Y2449D01*
X36849Y2468D01*
X36832Y2485D01*
X36818Y2496D01*
X36815Y2499D01*
Y1000D01*
X36580D01*
Y2925D01*
X36732D01*
X36760Y2878D01*
D02*
G37*
G36*
X35934Y1906D02*
X35713Y1875D01*
X35693Y1906D01*
X35669Y1931D01*
X35646Y1956D01*
X35624Y1975D01*
X35602Y1989D01*
X35585Y2003D01*
X35574Y2008D01*
X35572Y2011D01*
X35536Y2028D01*
X35500Y2042D01*
X35466Y2050D01*
X35433Y2058D01*
X35405Y2061D01*
X35383Y2064D01*
X35331D01*
X35297Y2058D01*
X35239Y2044D01*
X35189Y2025D01*
X35145Y2005D01*
X35112Y1983D01*
X35087Y1964D01*
X35073Y1950D01*
X35067Y1947D01*
Y1945D01*
X35029Y1898D01*
X35001Y1848D01*
X34982Y1795D01*
X34968Y1742D01*
X34959Y1698D01*
X34957Y1679D01*
Y1662D01*
X34954Y1648D01*
Y1637D01*
Y1632D01*
Y1629D01*
Y1590D01*
X34959Y1554D01*
X34973Y1485D01*
X34993Y1427D01*
X35012Y1379D01*
X35034Y1341D01*
X35054Y1310D01*
X35062Y1302D01*
X35067Y1294D01*
X35070Y1291D01*
X35073Y1288D01*
X35095Y1266D01*
X35117Y1247D01*
X35167Y1213D01*
X35214Y1191D01*
X35261Y1177D01*
X35300Y1166D01*
X35333Y1163D01*
X35344Y1161D01*
X35361D01*
X35414Y1163D01*
X35461Y1175D01*
X35502Y1188D01*
X35536Y1205D01*
X35566Y1222D01*
X35588Y1235D01*
X35599Y1247D01*
X35605Y1249D01*
X35638Y1288D01*
X35666Y1330D01*
X35688Y1377D01*
X35704Y1418D01*
X35716Y1460D01*
X35724Y1490D01*
X35727Y1504D01*
X35730Y1512D01*
Y1518D01*
Y1521D01*
X35976Y1501D01*
X35971Y1457D01*
X35962Y1416D01*
X35937Y1338D01*
X35907Y1271D01*
X35890Y1241D01*
X35873Y1216D01*
X35860Y1191D01*
X35843Y1169D01*
X35829Y1152D01*
X35815Y1139D01*
X35804Y1127D01*
X35799Y1116D01*
X35793Y1114D01*
X35790Y1111D01*
X35757Y1086D01*
X35724Y1064D01*
X35688Y1044D01*
X35652Y1028D01*
X35583Y1003D01*
X35513Y986D01*
X35483Y978D01*
X35452Y975D01*
X35427Y972D01*
X35405Y970D01*
X35386Y967D01*
X35361D01*
X35303Y970D01*
X35247Y978D01*
X35195Y989D01*
X35148Y1003D01*
X35103Y1022D01*
X35062Y1041D01*
X35023Y1061D01*
X34990Y1083D01*
X34959Y1105D01*
X34932Y1125D01*
X34910Y1147D01*
X34890Y1163D01*
X34876Y1177D01*
X34865Y1188D01*
X34860Y1197D01*
X34857Y1199D01*
X34829Y1235D01*
X34807Y1274D01*
X34785Y1310D01*
X34768Y1349D01*
X34741Y1424D01*
X34724Y1496D01*
X34718Y1526D01*
X34713Y1557D01*
X34710Y1582D01*
X34707Y1604D01*
X34705Y1623D01*
Y1637D01*
Y1645D01*
Y1648D01*
X34707Y1698D01*
X34713Y1745D01*
X34721Y1792D01*
X34732Y1834D01*
X34746Y1873D01*
X34760Y1911D01*
X34777Y1945D01*
X34790Y1975D01*
X34807Y2003D01*
X34824Y2028D01*
X34837Y2047D01*
X34851Y2066D01*
X34863Y2080D01*
X34871Y2089D01*
X34876Y2094D01*
X34879Y2097D01*
X34912Y2127D01*
X34946Y2155D01*
X34982Y2177D01*
X35018Y2197D01*
X35054Y2216D01*
X35090Y2230D01*
X35156Y2249D01*
X35186Y2258D01*
X35214Y2263D01*
X35239Y2266D01*
X35261Y2269D01*
X35278Y2271D01*
X35339D01*
X35372Y2266D01*
X35439Y2252D01*
X35500Y2233D01*
X35555Y2211D01*
X35599Y2188D01*
X35619Y2177D01*
X35635Y2169D01*
X35649Y2161D01*
X35658Y2155D01*
X35663Y2152D01*
X35666Y2149D01*
X35563Y2668D01*
X34796D01*
Y2892D01*
X35749D01*
X35934Y1906D01*
D02*
G37*
G36*
X96757Y182378D02*
X96788Y182334D01*
X96824Y182289D01*
X96857Y182251D01*
X96890Y182217D01*
X96915Y182190D01*
X96926Y182181D01*
X96934Y182173D01*
X96937Y182170D01*
X96940Y182167D01*
X96998Y182121D01*
X97056Y182076D01*
X97112Y182037D01*
X97167Y182007D01*
X97214Y181979D01*
X97234Y181968D01*
X97250Y181960D01*
X97264Y181951D01*
X97275Y181949D01*
X97281Y181943D01*
X97283D01*
Y181716D01*
X97242Y181733D01*
X97200Y181752D01*
X97159Y181771D01*
X97120Y181791D01*
X97087Y181807D01*
X97059Y181821D01*
X97042Y181832D01*
X97040Y181835D01*
X97037D01*
X96987Y181866D01*
X96943Y181896D01*
X96904Y181924D01*
X96873Y181949D01*
X96846Y181968D01*
X96829Y181985D01*
X96815Y181996D01*
X96812Y181999D01*
Y180500D01*
X96577D01*
Y182425D01*
X96729D01*
X96757Y182378D01*
D02*
G37*
G36*
X99300Y180500D02*
X98610D01*
X98547Y180503D01*
X98488Y180506D01*
X98436Y180511D01*
X98391Y180517D01*
X98353Y180522D01*
X98325Y180525D01*
X98317Y180528D01*
X98308Y180531D01*
X98303D01*
X98253Y180544D01*
X98209Y180561D01*
X98170Y180575D01*
X98137Y180591D01*
X98109Y180605D01*
X98089Y180616D01*
X98078Y180625D01*
X98073Y180627D01*
X98037Y180652D01*
X98006Y180683D01*
X97976Y180710D01*
X97951Y180738D01*
X97929Y180763D01*
X97912Y180782D01*
X97901Y180796D01*
X97898Y180802D01*
X97871Y180846D01*
X97843Y180893D01*
X97821Y180938D01*
X97804Y180982D01*
X97788Y181021D01*
X97777Y181051D01*
X97774Y181062D01*
X97771Y181071D01*
X97768Y181076D01*
Y181079D01*
X97752Y181145D01*
X97738Y181212D01*
X97729Y181276D01*
X97721Y181336D01*
X97718Y181389D01*
Y181411D01*
X97716Y181431D01*
Y181445D01*
Y181458D01*
Y181464D01*
Y181467D01*
X97718Y181561D01*
X97727Y181647D01*
X97741Y181724D01*
X97746Y181760D01*
X97754Y181791D01*
X97763Y181821D01*
X97768Y181846D01*
X97774Y181868D01*
X97782Y181888D01*
X97785Y181904D01*
X97790Y181915D01*
X97793Y181921D01*
Y181924D01*
X97824Y181996D01*
X97860Y182060D01*
X97898Y182115D01*
X97934Y182162D01*
X97968Y182201D01*
X97995Y182229D01*
X98006Y182237D01*
X98015Y182245D01*
X98018Y182248D01*
X98020Y182251D01*
X98065Y182287D01*
X98112Y182314D01*
X98159Y182339D01*
X98203Y182359D01*
X98242Y182372D01*
X98272Y182381D01*
X98283Y182386D01*
X98292D01*
X98297Y182389D01*
X98300D01*
X98347Y182397D01*
X98403Y182406D01*
X98458Y182411D01*
X98513Y182414D01*
X98563Y182417D01*
X99300D01*
Y180500D01*
D02*
G37*
G36*
X38000Y27109D02*
Y27053D01*
X37997Y27001D01*
X37995Y26951D01*
X37989Y26904D01*
X37983Y26862D01*
X37978Y26823D01*
X37969Y26787D01*
X37964Y26754D01*
X37958Y26724D01*
X37950Y26699D01*
X37945Y26677D01*
X37939Y26660D01*
X37933Y26646D01*
X37931Y26635D01*
X37928Y26630D01*
Y26627D01*
X37898Y26566D01*
X37859Y26511D01*
X37820Y26466D01*
X37778Y26427D01*
X37742Y26397D01*
X37712Y26375D01*
X37701Y26369D01*
X37692Y26364D01*
X37687Y26358D01*
X37684D01*
X37615Y26328D01*
X37543Y26305D01*
X37468Y26289D01*
X37399Y26278D01*
X37368Y26275D01*
X37338Y26272D01*
X37310Y26270D01*
X37288D01*
X37269Y26267D01*
X37244D01*
X37144Y26272D01*
X37100Y26278D01*
X37058Y26283D01*
X37017Y26292D01*
X36981Y26300D01*
X36947Y26308D01*
X36917Y26319D01*
X36889Y26331D01*
X36867Y26339D01*
X36845Y26347D01*
X36828Y26355D01*
X36814Y26364D01*
X36806Y26366D01*
X36801Y26372D01*
X36798D01*
X36737Y26414D01*
X36687Y26461D01*
X36648Y26505D01*
X36615Y26549D01*
X36590Y26588D01*
X36573Y26618D01*
X36568Y26630D01*
X36562Y26638D01*
X36560Y26643D01*
Y26646D01*
X36549Y26680D01*
X36537Y26715D01*
X36521Y26790D01*
X36510Y26868D01*
X36501Y26943D01*
X36499Y26976D01*
X36496Y27009D01*
Y27037D01*
X36493Y27062D01*
Y27081D01*
Y27095D01*
Y27106D01*
Y27109D01*
Y28217D01*
X36748D01*
Y27109D01*
Y27045D01*
X36753Y26984D01*
X36759Y26932D01*
X36767Y26882D01*
X36776Y26837D01*
X36787Y26796D01*
X36795Y26760D01*
X36806Y26729D01*
X36817Y26704D01*
X36828Y26680D01*
X36839Y26663D01*
X36848Y26646D01*
X36856Y26635D01*
X36862Y26627D01*
X36864Y26624D01*
X36867Y26621D01*
X36892Y26599D01*
X36920Y26580D01*
X36981Y26549D01*
X37044Y26527D01*
X37111Y26513D01*
X37172Y26502D01*
X37197Y26499D01*
X37222D01*
X37238Y26497D01*
X37266D01*
X37324Y26499D01*
X37377Y26508D01*
X37427Y26516D01*
X37465Y26530D01*
X37499Y26541D01*
X37524Y26549D01*
X37537Y26558D01*
X37543Y26560D01*
X37582Y26585D01*
X37615Y26616D01*
X37643Y26646D01*
X37662Y26674D01*
X37679Y26702D01*
X37692Y26721D01*
X37698Y26735D01*
X37701Y26740D01*
X37709Y26765D01*
X37715Y26790D01*
X37726Y26849D01*
X37734Y26909D01*
X37740Y26970D01*
X37742Y27023D01*
Y27048D01*
X37745Y27067D01*
Y27084D01*
Y27098D01*
Y27106D01*
Y27109D01*
Y28217D01*
X38000D01*
Y27109D01*
D02*
G37*
G36*
X103500Y42700D02*
X103245D01*
Y43550D01*
X102918D01*
X102888Y43548D01*
X102866D01*
X102846Y43545D01*
X102832Y43542D01*
X102821D01*
X102816Y43539D01*
X102813D01*
X102769Y43525D01*
X102749Y43517D01*
X102733Y43509D01*
X102716Y43501D01*
X102705Y43495D01*
X102699Y43492D01*
X102697Y43489D01*
X102674Y43473D01*
X102652Y43453D01*
X102611Y43412D01*
X102591Y43393D01*
X102578Y43376D01*
X102569Y43365D01*
X102567Y43362D01*
X102539Y43323D01*
X102508Y43282D01*
X102478Y43237D01*
X102447Y43196D01*
X102422Y43157D01*
X102403Y43127D01*
X102395Y43115D01*
X102389Y43107D01*
X102384Y43102D01*
Y43099D01*
X102132Y42700D01*
X101816D01*
X102146Y43221D01*
X102184Y43276D01*
X102220Y43326D01*
X102256Y43368D01*
X102287Y43406D01*
X102314Y43434D01*
X102337Y43456D01*
X102350Y43470D01*
X102356Y43476D01*
X102378Y43492D01*
X102403Y43512D01*
X102453Y43542D01*
X102475Y43553D01*
X102492Y43564D01*
X102503Y43570D01*
X102508Y43573D01*
X102459Y43581D01*
X102411Y43589D01*
X102370Y43603D01*
X102328Y43614D01*
X102292Y43628D01*
X102259Y43645D01*
X102229Y43658D01*
X102201Y43672D01*
X102179Y43689D01*
X102157Y43703D01*
X102140Y43714D01*
X102126Y43725D01*
X102115Y43733D01*
X102107Y43742D01*
X102104Y43744D01*
X102101Y43747D01*
X102079Y43775D01*
X102057Y43802D01*
X102024Y43861D01*
X102001Y43919D01*
X101985Y43974D01*
X101974Y44021D01*
X101971Y44041D01*
Y44060D01*
X101968Y44074D01*
Y44085D01*
Y44091D01*
Y44093D01*
X101971Y44151D01*
X101979Y44204D01*
X101993Y44254D01*
X102007Y44295D01*
X102024Y44331D01*
X102035Y44359D01*
X102046Y44376D01*
X102049Y44379D01*
Y44381D01*
X102082Y44426D01*
X102115Y44464D01*
X102151Y44498D01*
X102184Y44523D01*
X102215Y44542D01*
X102240Y44553D01*
X102256Y44561D01*
X102259Y44564D01*
X102262D01*
X102287Y44572D01*
X102317Y44581D01*
X102378Y44595D01*
X102445Y44603D01*
X102506Y44611D01*
X102564Y44614D01*
X102589D01*
X102611Y44617D01*
X103500D01*
Y42700D01*
D02*
G37*
G36*
X35460Y28178D02*
X35490Y28134D01*
X35526Y28089D01*
X35560Y28051D01*
X35593Y28017D01*
X35618Y27990D01*
X35629Y27981D01*
X35637Y27973D01*
X35640Y27970D01*
X35643Y27968D01*
X35701Y27920D01*
X35759Y27876D01*
X35814Y27837D01*
X35870Y27807D01*
X35917Y27779D01*
X35936Y27768D01*
X35953Y27760D01*
X35967Y27751D01*
X35978Y27749D01*
X35983Y27743D01*
X35986D01*
Y27516D01*
X35945Y27533D01*
X35903Y27552D01*
X35862Y27571D01*
X35823Y27591D01*
X35789Y27607D01*
X35762Y27621D01*
X35745Y27632D01*
X35743Y27635D01*
X35740D01*
X35690Y27666D01*
X35645Y27696D01*
X35607Y27724D01*
X35576Y27749D01*
X35549Y27768D01*
X35532Y27785D01*
X35518Y27796D01*
X35515Y27799D01*
Y26300D01*
X35280D01*
Y28225D01*
X35432D01*
X35460Y28178D01*
D02*
G37*
G36*
X84814Y12878D02*
X84845Y12834D01*
X84881Y12789D01*
X84914Y12751D01*
X84947Y12717D01*
X84972Y12690D01*
X84983Y12681D01*
X84992Y12673D01*
X84994Y12670D01*
X84997Y12667D01*
X85055Y12620D01*
X85113Y12576D01*
X85169Y12537D01*
X85224Y12507D01*
X85271Y12479D01*
X85291Y12468D01*
X85307Y12460D01*
X85321Y12451D01*
X85332Y12449D01*
X85338Y12443D01*
X85340D01*
Y12216D01*
X85299Y12233D01*
X85257Y12252D01*
X85216Y12271D01*
X85177Y12291D01*
X85144Y12307D01*
X85116Y12321D01*
X85100Y12332D01*
X85097Y12335D01*
X85094D01*
X85044Y12366D01*
X85000Y12396D01*
X84961Y12424D01*
X84930Y12449D01*
X84903Y12468D01*
X84886Y12485D01*
X84872Y12496D01*
X84870Y12499D01*
Y11000D01*
X84634D01*
Y12925D01*
X84786D01*
X84814Y12878D01*
D02*
G37*
G36*
X59713Y138582D02*
X59991Y138258D01*
X60268Y137934D01*
X60638Y137425D01*
X60870Y137008D01*
X61009Y136731D01*
X61055Y136499D01*
Y136314D01*
X61009Y136268D01*
Y136221D01*
X60824Y136129D01*
X60592Y136036D01*
X60407Y135990D01*
X60361Y135944D01*
X60315D01*
X59991Y135851D01*
X59666Y135805D01*
X59342D01*
X59018Y135897D01*
X58833Y135990D01*
X58787Y136129D01*
X58741Y136175D01*
Y136314D01*
Y136499D01*
X58787Y136684D01*
Y136731D01*
X58880Y137101D01*
X59018Y137425D01*
X59065Y137656D01*
X59111Y137703D01*
Y137749D01*
X59250Y138073D01*
X59296Y138304D01*
X59342Y138397D01*
Y138443D01*
X59435Y138906D01*
X59713Y138582D01*
D02*
G37*
G36*
X87626Y138351D02*
X87811Y138212D01*
X87950Y138119D01*
X87996Y138073D01*
X88274Y137749D01*
X88505Y137379D01*
X88644Y137101D01*
X88690Y137008D01*
Y136962D01*
X88875Y136453D01*
X88968Y136036D01*
X89014Y135712D01*
Y135666D01*
Y135620D01*
X88968Y135249D01*
X88829Y135018D01*
X88644Y134879D01*
X88598Y134833D01*
X88366Y134786D01*
X88135D01*
X87950Y134833D01*
X87857D01*
X87672Y134879D01*
X87487D01*
X87394Y134833D01*
X87348D01*
X87163Y134786D01*
X87024D01*
X86931Y134833D01*
X86885D01*
X86746Y134972D01*
X86654Y135157D01*
X86607Y135296D01*
Y135342D01*
Y135897D01*
X86654Y136453D01*
X86700Y136684D01*
X86746Y136869D01*
X86792Y136962D01*
Y137008D01*
X86885Y137332D01*
X87024Y137610D01*
X87070Y137841D01*
X87163Y137980D01*
X87209Y138212D01*
X87255Y138258D01*
X87348Y138351D01*
X87394Y138397D01*
X87487D01*
X87626Y138351D01*
D02*
G37*
G36*
X69434Y147979D02*
X69804Y147562D01*
X70035Y147146D01*
X70128Y147007D01*
X70174Y146868D01*
X70221Y146775D01*
Y146729D01*
X70267Y146359D01*
X70221Y146081D01*
X70174Y145850D01*
X70128Y145803D01*
X69943Y145618D01*
X69665Y145479D01*
X69434Y145433D01*
X69063D01*
X68832Y145479D01*
X68647D01*
X68415Y145572D01*
X68276Y145665D01*
X68138Y145757D01*
X68045Y145803D01*
X67999Y145942D01*
Y145989D01*
X68045Y146266D01*
X68138Y146590D01*
X68415Y147099D01*
X68554Y147331D01*
X68693Y147516D01*
X68786Y147609D01*
X68832Y147655D01*
X69295Y148072D01*
X69434Y147979D01*
D02*
G37*
G36*
X51920Y46322D02*
X51964Y46320D01*
X52041Y46303D01*
X52077Y46292D01*
X52111Y46281D01*
X52141Y46267D01*
X52169Y46253D01*
X52191Y46239D01*
X52213Y46225D01*
X52232Y46214D01*
X52246Y46203D01*
X52257Y46195D01*
X52266Y46187D01*
X52271Y46184D01*
X52274Y46181D01*
X52299Y46153D01*
X52324Y46126D01*
X52343Y46095D01*
X52360Y46065D01*
X52388Y46007D01*
X52404Y45951D01*
X52415Y45904D01*
X52418Y45882D01*
X52421Y45865D01*
X52424Y45849D01*
Y45838D01*
Y45832D01*
Y45829D01*
X52421Y45779D01*
X52413Y45732D01*
X52402Y45691D01*
X52388Y45655D01*
X52377Y45627D01*
X52365Y45605D01*
X52357Y45594D01*
X52354Y45588D01*
X52324Y45555D01*
X52291Y45525D01*
X52255Y45497D01*
X52219Y45475D01*
X52185Y45458D01*
X52161Y45447D01*
X52149Y45441D01*
X52141Y45439D01*
X52138Y45436D01*
X52136D01*
X52199Y45417D01*
X52252Y45392D01*
X52299Y45361D01*
X52338Y45333D01*
X52368Y45306D01*
X52390Y45284D01*
X52402Y45270D01*
X52407Y45267D01*
Y45264D01*
X52438Y45214D01*
X52462Y45162D01*
X52479Y45112D01*
X52490Y45062D01*
X52496Y45018D01*
X52498Y44998D01*
Y44982D01*
X52501Y44971D01*
Y44960D01*
Y44954D01*
Y44951D01*
X52498Y44907D01*
X52493Y44863D01*
X52485Y44821D01*
X52473Y44780D01*
X52446Y44710D01*
X52432Y44677D01*
X52415Y44649D01*
X52399Y44622D01*
X52385Y44599D01*
X52368Y44580D01*
X52357Y44563D01*
X52346Y44550D01*
X52338Y44541D01*
X52332Y44536D01*
X52329Y44533D01*
X52296Y44502D01*
X52260Y44478D01*
X52221Y44455D01*
X52183Y44436D01*
X52147Y44422D01*
X52108Y44408D01*
X52033Y44389D01*
X52000Y44381D01*
X51969Y44375D01*
X51942Y44372D01*
X51917Y44370D01*
X51897Y44367D01*
X51870D01*
X51817Y44370D01*
X51770Y44375D01*
X51723Y44383D01*
X51679Y44392D01*
X51640Y44405D01*
X51601Y44419D01*
X51565Y44433D01*
X51534Y44450D01*
X51507Y44467D01*
X51482Y44480D01*
X51463Y44494D01*
X51443Y44508D01*
X51429Y44516D01*
X51421Y44525D01*
X51415Y44530D01*
X51413Y44533D01*
X51382Y44566D01*
X51354Y44599D01*
X51332Y44633D01*
X51313Y44669D01*
X51293Y44702D01*
X51280Y44738D01*
X51260Y44802D01*
X51252Y44832D01*
X51246Y44860D01*
X51244Y44885D01*
X51241Y44904D01*
X51238Y44921D01*
Y44935D01*
Y44943D01*
Y44946D01*
X51241Y45009D01*
X51252Y45068D01*
X51269Y45120D01*
X51285Y45164D01*
X51302Y45200D01*
X51318Y45228D01*
X51329Y45245D01*
X51332Y45248D01*
Y45250D01*
X51371Y45295D01*
X51413Y45333D01*
X51457Y45364D01*
X51499Y45392D01*
X51537Y45411D01*
X51570Y45425D01*
X51582Y45430D01*
X51590Y45433D01*
X51595Y45436D01*
X51598D01*
X51548Y45458D01*
X51507Y45483D01*
X51471Y45508D01*
X51440Y45533D01*
X51418Y45555D01*
X51402Y45572D01*
X51390Y45583D01*
X51388Y45588D01*
X51363Y45627D01*
X51346Y45666D01*
X51332Y45705D01*
X51324Y45744D01*
X51318Y45774D01*
X51316Y45799D01*
Y45816D01*
Y45818D01*
Y45821D01*
X51318Y45860D01*
X51321Y45896D01*
X51341Y45965D01*
X51366Y46026D01*
X51393Y46079D01*
X51421Y46120D01*
X51435Y46137D01*
X51446Y46153D01*
X51457Y46165D01*
X51465Y46173D01*
X51468Y46176D01*
X51471Y46178D01*
X51501Y46203D01*
X51532Y46228D01*
X51565Y46248D01*
X51598Y46264D01*
X51665Y46289D01*
X51731Y46306D01*
X51759Y46314D01*
X51787Y46317D01*
X51811Y46320D01*
X51834Y46322D01*
X51850Y46325D01*
X51875D01*
X51920Y46322D01*
D02*
G37*
G36*
X77395Y148442D02*
X77442Y148396D01*
X77534Y148349D01*
Y148303D01*
X77812Y148025D01*
X77858Y147887D01*
X77905Y147840D01*
X78044Y147655D01*
X78182Y147470D01*
X78229Y147331D01*
X78275Y147285D01*
X78368Y147099D01*
X78414Y147053D01*
Y147007D01*
X78599Y146683D01*
X78692Y146405D01*
Y146220D01*
Y146081D01*
X78599Y145942D01*
X78553Y145896D01*
X78275Y145850D01*
X78136Y145803D01*
X77534D01*
X77442Y145757D01*
X77395Y145711D01*
X77349Y145665D01*
X77118Y145526D01*
X77071Y145479D01*
X76794D01*
X76748Y145665D01*
Y145711D01*
Y145757D01*
X76794Y146035D01*
Y146127D01*
Y146174D01*
X76840Y146359D01*
Y146544D01*
X76886Y146637D01*
Y146683D01*
X76933Y146914D01*
X76979Y147099D01*
X77025Y147285D01*
Y147331D01*
X77118Y147609D01*
X77164Y147794D01*
X77210Y147933D01*
Y147979D01*
X77257Y148257D01*
X77303Y148396D01*
X77349Y148488D01*
X77395Y148442D01*
D02*
G37*
G36*
X60685Y133444D02*
X60824Y133398D01*
X60870Y133351D01*
X61379Y133074D01*
X61796Y132842D01*
X62166Y132611D01*
X62444Y132426D01*
X62675Y132240D01*
X62814Y132102D01*
X62861Y132055D01*
X62907Y132009D01*
X63277Y131685D01*
X63555Y131407D01*
X63740Y131130D01*
X63786Y131083D01*
Y131037D01*
X64018Y130620D01*
X64203Y130296D01*
X64295Y130065D01*
X64342Y130018D01*
Y129972D01*
X64481Y129556D01*
X64573Y129139D01*
X64619Y128954D01*
X64666Y128769D01*
Y128676D01*
Y128630D01*
X64758Y128074D01*
X64805Y127704D01*
Y127519D01*
Y127426D01*
Y127241D01*
X64851Y127056D01*
Y126547D01*
Y126315D01*
Y126130D01*
Y125991D01*
Y125945D01*
Y125575D01*
X64897Y125297D01*
Y125066D01*
Y124927D01*
Y124834D01*
Y124741D01*
Y124695D01*
Y124371D01*
X64851Y124047D01*
X64805Y123769D01*
X64758Y123723D01*
Y123677D01*
X64666Y123307D01*
X64619Y123029D01*
X64573Y122844D01*
X64527Y122797D01*
X64434Y122520D01*
X64295Y122195D01*
X64203Y121964D01*
X64157Y121918D01*
Y121871D01*
X64064Y121547D01*
X63971Y121316D01*
X63925Y121223D01*
Y121177D01*
X63740Y120714D01*
X63508Y120344D01*
X63277Y120066D01*
X62999Y119881D01*
X62814Y119696D01*
X62629Y119603D01*
X62490Y119557D01*
X62444D01*
X62073Y119511D01*
X61703Y119603D01*
X61379Y119742D01*
X61055Y119881D01*
X60824Y120066D01*
X60638Y120251D01*
X60546Y120344D01*
X60500Y120390D01*
X59805Y121455D01*
X59250Y122566D01*
X58787Y123723D01*
X58509Y124788D01*
X58370Y125297D01*
X58278Y125760D01*
X58185Y126176D01*
X58139Y126547D01*
X58093Y126824D01*
X58046Y127056D01*
Y127195D01*
Y127241D01*
X57954Y128306D01*
X58046Y129000D01*
X58185Y130018D01*
X58417Y130852D01*
X58648Y131546D01*
X58926Y132102D01*
X59157Y132564D01*
X59342Y132842D01*
X59481Y133027D01*
X59528Y133074D01*
X59852Y133305D01*
X60083Y133444D01*
X60268Y133490D01*
X60546D01*
X60685Y133444D01*
D02*
G37*
G36*
X75359Y123492D02*
X75637Y123445D01*
X75683Y123399D01*
X75729D01*
X76285Y123214D01*
X76794Y122936D01*
X77257Y122658D01*
X77719Y122334D01*
X78090Y122057D01*
X78368Y121871D01*
X78553Y121686D01*
X78599Y121640D01*
X78969Y121270D01*
X79293Y120853D01*
X79432Y120668D01*
X79525Y120529D01*
X79617Y120437D01*
Y120390D01*
X79895Y120020D01*
X80219Y119650D01*
X80589Y119279D01*
X80960Y119001D01*
X81330Y118724D01*
X81608Y118539D01*
X81793Y118400D01*
X81839Y118353D01*
X82395Y118029D01*
X82811Y117705D01*
X83135Y117474D01*
X83413Y117289D01*
X83598Y117150D01*
X83691Y117057D01*
X83784Y116965D01*
X84246Y116548D01*
X84709Y116178D01*
X85219Y115900D01*
X85681Y115622D01*
X86052Y115437D01*
X86422Y115298D01*
X86607Y115206D01*
X86700Y115159D01*
X86839D01*
X87024Y115113D01*
X87163Y115067D01*
X87255D01*
X87626Y115021D01*
X87903Y114928D01*
X88089Y114835D01*
X88135Y114789D01*
X88505Y114558D01*
X88737Y114373D01*
X88829Y114234D01*
X88875Y114187D01*
X89014Y113956D01*
X89107Y113724D01*
X89200Y113539D01*
Y113493D01*
X89292Y113261D01*
X89338Y113123D01*
X89385Y113030D01*
Y112984D01*
X89616Y112567D01*
X89801Y112151D01*
X89986Y111780D01*
X90079Y111410D01*
X90172Y111132D01*
X90218Y110854D01*
X90264Y110716D01*
Y110669D01*
X90310Y110345D01*
X90357Y110067D01*
Y109651D01*
X90310Y109420D01*
Y109327D01*
X90172Y109049D01*
X89986Y108771D01*
X89847Y108586D01*
X89755Y108494D01*
X89292Y108123D01*
X88737Y107799D01*
X88227Y107568D01*
X87672Y107336D01*
X87209Y107151D01*
X86839Y107012D01*
X86561Y106966D01*
X86515Y106920D01*
X86468D01*
X85959Y106827D01*
X85450Y106781D01*
X84293D01*
X83089Y107522D01*
X82302Y108031D01*
X81932Y108216D01*
X81654Y108401D01*
X81376Y108494D01*
X81191Y108586D01*
X81099Y108679D01*
X81052D01*
X80543Y108910D01*
X80080Y109142D01*
X79664Y109281D01*
X79293Y109420D01*
X78969Y109466D01*
X78738Y109512D01*
X78599Y109558D01*
X78553D01*
X77858Y109651D01*
X77303D01*
X77118Y109605D01*
X76979D01*
X76886Y109558D01*
X76840D01*
X76285Y109420D01*
X75729Y109188D01*
X75498Y109095D01*
X75313Y109049D01*
X75174Y108957D01*
X75127D01*
X74711Y108771D01*
X74340Y108586D01*
X74016Y108401D01*
X73785Y108216D01*
X73553Y108077D01*
X73415Y107984D01*
X73322Y107938D01*
X73276Y107892D01*
X72628Y107429D01*
X72072Y106920D01*
X71841Y106688D01*
X71656Y106550D01*
X71517Y106411D01*
X71470Y106364D01*
X71146Y106040D01*
X70869Y105763D01*
X70637Y105531D01*
X70452Y105392D01*
X70221Y105161D01*
X70128Y105114D01*
X69711Y104837D01*
X69295Y104605D01*
X68924Y104466D01*
X68647Y104328D01*
X68369Y104281D01*
X68184Y104235D01*
X68091Y104189D01*
X67489D01*
X66980Y104281D01*
X66749Y104374D01*
X66610Y104420D01*
X66517Y104466D01*
X66471D01*
X66101Y104698D01*
X65730Y105022D01*
X65453Y105300D01*
X65221Y105624D01*
X64990Y105901D01*
X64851Y106133D01*
X64805Y106318D01*
X64758Y106364D01*
X64481Y106966D01*
X64342Y107522D01*
X64295Y107753D01*
X64249Y107938D01*
Y108031D01*
Y108077D01*
Y108401D01*
X64295Y108725D01*
X64388Y108957D01*
X64434Y109142D01*
X64573Y109373D01*
X64619Y109466D01*
X64758Y109697D01*
X64943Y109929D01*
X65082Y110114D01*
X65129Y110206D01*
X65360Y110438D01*
X65638Y110669D01*
X65869Y110901D01*
X65916Y110993D01*
X65962D01*
X66425Y111503D01*
X66888Y112012D01*
X67073Y112243D01*
X67165Y112428D01*
X67258Y112521D01*
X67304Y112567D01*
X67582Y112984D01*
X67860Y113400D01*
X68138Y113817D01*
X68369Y114234D01*
X68554Y114558D01*
X68739Y114882D01*
X68832Y115067D01*
X68878Y115113D01*
X69295Y115946D01*
X69665Y116733D01*
X69943Y117428D01*
X70221Y118029D01*
X70406Y118492D01*
X70545Y118863D01*
X70637Y119094D01*
X70683Y119187D01*
X70915Y119788D01*
X71100Y120298D01*
X71239Y120714D01*
X71332Y121038D01*
X71424Y121270D01*
X71470Y121409D01*
X71517Y121501D01*
Y121547D01*
X71702Y121964D01*
X71841Y122288D01*
X71980Y122473D01*
X72026Y122520D01*
X72535Y122936D01*
X72998Y123214D01*
X73137Y123307D01*
X73276Y123399D01*
X73368Y123445D01*
X73415D01*
X73739Y123492D01*
X74063Y123538D01*
X74942D01*
X75359Y123492D01*
D02*
G37*
G36*
X87765Y132333D02*
X88089Y132194D01*
X88412Y131963D01*
X88690Y131778D01*
X88875Y131546D01*
X89061Y131361D01*
X89153Y131222D01*
X89200Y131176D01*
X89385Y130944D01*
X89524Y130805D01*
X89570Y130713D01*
X89616D01*
X89801Y130528D01*
X89940Y130296D01*
X90264Y129833D01*
X90403Y129602D01*
X90496Y129417D01*
X90542Y129278D01*
X90588Y129232D01*
X90866Y128630D01*
X91051Y128028D01*
X91236Y127426D01*
X91329Y126871D01*
X91421Y126362D01*
Y125991D01*
X91468Y125760D01*
Y125714D01*
Y125667D01*
Y124973D01*
X91421Y124279D01*
X91329Y123677D01*
X91236Y123168D01*
X91144Y122705D01*
X91051Y122381D01*
X91005Y122195D01*
X90958Y122103D01*
X90727Y121594D01*
X90496Y121177D01*
X90310Y120899D01*
X90264Y120853D01*
X90218Y120807D01*
X89847Y120483D01*
X89524Y120298D01*
X89292Y120251D01*
X89246Y120205D01*
X88089D01*
X87672Y120298D01*
X87394Y120390D01*
X87209Y120437D01*
X87163Y120483D01*
X86792Y120807D01*
X86422Y121131D01*
X86144Y121547D01*
X85959Y121964D01*
X85774Y122334D01*
X85635Y122612D01*
X85589Y122797D01*
X85543Y122890D01*
X85450Y123399D01*
X85357Y123954D01*
X85311Y124510D01*
X85265Y125019D01*
X85219Y125482D01*
Y125852D01*
Y126084D01*
Y126176D01*
X85265Y127056D01*
X85357Y127843D01*
X85450Y128584D01*
X85589Y129278D01*
X85728Y129833D01*
X85820Y130250D01*
X85867Y130528D01*
X85913Y130620D01*
X86052Y131037D01*
X86237Y131361D01*
X86376Y131592D01*
X86515Y131824D01*
X86607Y131963D01*
X86700Y132055D01*
X86792Y132148D01*
X87024Y132287D01*
X87209Y132333D01*
X87348Y132379D01*
X87394D01*
X87765Y132333D01*
D02*
G37*
G36*
X77395Y143905D02*
X77581Y143859D01*
X77673Y143813D01*
X77719Y143767D01*
X78044Y143581D01*
X78414Y143257D01*
X78738Y142887D01*
X79108Y142517D01*
X79386Y142100D01*
X79617Y141823D01*
X79803Y141591D01*
X79849Y141498D01*
X80451Y140526D01*
X80960Y139601D01*
X81330Y138767D01*
X81608Y138027D01*
X81839Y137425D01*
X81978Y136962D01*
X82025Y136777D01*
X82071Y136638D01*
Y136592D01*
Y136545D01*
X82163Y136036D01*
X82210Y135527D01*
Y135064D01*
X82163Y134648D01*
Y134324D01*
X82117Y134092D01*
X82071Y133907D01*
Y133861D01*
X81886Y133351D01*
X81700Y132888D01*
X81469Y132518D01*
X81284Y132148D01*
X81052Y131870D01*
X80867Y131685D01*
X80775Y131546D01*
X80728Y131500D01*
X80451Y131268D01*
X80219Y131083D01*
X79988Y130944D01*
X79803Y130852D01*
X79479Y130713D01*
X78460D01*
X78182Y130759D01*
X78136Y130805D01*
X78090D01*
X77766Y130944D01*
X77442Y131130D01*
X76979Y131592D01*
X76794Y131824D01*
X76655Y132009D01*
X76609Y132148D01*
X76562Y132194D01*
X76331Y132703D01*
X76146Y133305D01*
X75868Y134509D01*
X75683Y135758D01*
X75590Y137008D01*
X75544Y137564D01*
Y138073D01*
Y138582D01*
Y138999D01*
Y139323D01*
Y139554D01*
Y139739D01*
Y139786D01*
X75637Y140665D01*
X75775Y141452D01*
X75960Y142100D01*
X76146Y142656D01*
X76331Y143072D01*
X76516Y143350D01*
X76609Y143535D01*
X76655Y143581D01*
X76840Y143813D01*
X77025Y143905D01*
X77210Y143952D01*
X77257D01*
X77395Y143905D01*
D02*
G37*
G36*
X69156Y143952D02*
X69480Y143859D01*
X70035Y143581D01*
X70221Y143396D01*
X70406Y143257D01*
X70498Y143165D01*
X70545Y143119D01*
X70683Y142933D01*
X70869Y142702D01*
X71193Y142239D01*
X71332Y142008D01*
X71470Y141869D01*
X71517Y141730D01*
X71563Y141684D01*
X72026Y140989D01*
X72211Y140711D01*
X72350Y140480D01*
X72443Y140295D01*
X72535Y140156D01*
X72581Y140063D01*
Y140017D01*
X72905Y139323D01*
X73137Y138582D01*
X73322Y137841D01*
X73461Y137194D01*
X73507Y136592D01*
X73553Y136129D01*
X73600Y135944D01*
Y135805D01*
Y135758D01*
Y135712D01*
Y134833D01*
X73553Y134000D01*
X73461Y133259D01*
X73368Y132611D01*
X73229Y132055D01*
X73090Y131639D01*
X73044Y131361D01*
X72998Y131315D01*
Y131268D01*
X72859Y130852D01*
X72674Y130481D01*
X72350Y129880D01*
X71980Y129463D01*
X71656Y129139D01*
X71378Y128954D01*
X71146Y128815D01*
X71008Y128769D01*
X70961D01*
X70406Y128676D01*
X69434D01*
X68924Y128769D01*
X68462Y128954D01*
X68276Y129046D01*
X68138Y129139D01*
X68091Y129232D01*
X68045D01*
X67813Y129463D01*
X67628Y129741D01*
X67304Y130250D01*
X67165Y130481D01*
X67119Y130667D01*
X67027Y130805D01*
Y130852D01*
X66703Y132102D01*
X66425Y133259D01*
X66240Y134324D01*
X66147Y135249D01*
X66101Y135666D01*
Y136036D01*
X66054Y136360D01*
Y136638D01*
Y136869D01*
Y137008D01*
Y137101D01*
Y137147D01*
Y137656D01*
X66101Y138166D01*
Y138582D01*
X66147Y138953D01*
X66193Y139601D01*
X66240Y140110D01*
X66286Y140434D01*
X66332Y140665D01*
X66378Y140758D01*
Y140804D01*
X66564Y141360D01*
X66749Y141869D01*
X66934Y142285D01*
X67119Y142656D01*
X67351Y142933D01*
X67536Y143211D01*
X67952Y143581D01*
X68276Y143813D01*
X68554Y143952D01*
X68786Y143998D01*
X68832D01*
X69156Y143952D01*
D02*
G37*
G36*
X21977Y76552D02*
X22083Y76541D01*
X22183Y76518D01*
X22277Y76491D01*
X22360Y76452D01*
X22443Y76419D01*
X22515Y76374D01*
X22582Y76335D01*
X22638Y76296D01*
X22693Y76252D01*
X22738Y76219D01*
X22771Y76185D01*
X22799Y76152D01*
X22821Y76130D01*
X22832Y76119D01*
X22837Y76113D01*
X22909Y76013D01*
X22971Y75897D01*
X23026Y75775D01*
X23076Y75647D01*
X23115Y75514D01*
X23148Y75381D01*
X23176Y75242D01*
X23198Y75114D01*
X23215Y74987D01*
X23226Y74870D01*
X23237Y74765D01*
X23243Y74676D01*
Y74598D01*
X23248Y74543D01*
Y74520D01*
Y74504D01*
Y74498D01*
Y74493D01*
X23243Y74315D01*
X23232Y74149D01*
X23215Y73993D01*
X23187Y73849D01*
X23159Y73721D01*
X23132Y73605D01*
X23098Y73499D01*
X23059Y73405D01*
X23026Y73327D01*
X22993Y73255D01*
X22965Y73199D01*
X22932Y73150D01*
X22909Y73111D01*
X22893Y73089D01*
X22882Y73072D01*
X22876Y73066D01*
X22804Y72989D01*
X22726Y72922D01*
X22649Y72866D01*
X22571Y72816D01*
X22488Y72772D01*
X22410Y72739D01*
X22332Y72711D01*
X22255Y72689D01*
X22188Y72672D01*
X22121Y72656D01*
X22066Y72645D01*
X22016Y72639D01*
X21972D01*
X21944Y72633D01*
X21916D01*
X21789Y72639D01*
X21672Y72661D01*
X21566Y72683D01*
X21472Y72717D01*
X21400Y72744D01*
X21344Y72772D01*
X21322Y72778D01*
X21306Y72789D01*
X21300Y72794D01*
X21294D01*
X21200Y72861D01*
X21111Y72939D01*
X21039Y73016D01*
X20978Y73094D01*
X20928Y73166D01*
X20895Y73222D01*
X20884Y73244D01*
X20873Y73261D01*
X20867Y73266D01*
Y73272D01*
X20812Y73388D01*
X20773Y73510D01*
X20745Y73621D01*
X20728Y73727D01*
X20712Y73816D01*
Y73849D01*
X20706Y73882D01*
Y73910D01*
Y73927D01*
Y73938D01*
Y73943D01*
X20712Y74043D01*
X20723Y74138D01*
X20740Y74232D01*
X20756Y74315D01*
X20784Y74393D01*
X20812Y74471D01*
X20839Y74537D01*
X20873Y74598D01*
X20906Y74654D01*
X20934Y74704D01*
X20962Y74742D01*
X20989Y74781D01*
X21006Y74809D01*
X21023Y74826D01*
X21034Y74837D01*
X21039Y74842D01*
X21100Y74903D01*
X21167Y74959D01*
X21239Y75003D01*
X21306Y75042D01*
X21372Y75081D01*
X21439Y75109D01*
X21566Y75148D01*
X21622Y75164D01*
X21677Y75175D01*
X21722Y75181D01*
X21766Y75186D01*
X21800Y75192D01*
X21844D01*
X21944Y75186D01*
X22038Y75170D01*
X22127Y75153D01*
X22205Y75131D01*
X22271Y75103D01*
X22321Y75086D01*
X22355Y75070D01*
X22360Y75064D01*
X22366D01*
X22454Y75009D01*
X22532Y74948D01*
X22604Y74887D01*
X22660Y74820D01*
X22710Y74765D01*
X22749Y74720D01*
X22771Y74687D01*
X22776Y74681D01*
Y74781D01*
X22771Y74881D01*
X22765Y74970D01*
X22754Y75059D01*
X22749Y75137D01*
X22738Y75209D01*
X22726Y75275D01*
X22710Y75336D01*
X22699Y75392D01*
X22688Y75436D01*
X22676Y75475D01*
X22671Y75508D01*
X22660Y75530D01*
X22654Y75547D01*
X22649Y75558D01*
Y75564D01*
X22593Y75675D01*
X22538Y75775D01*
X22477Y75852D01*
X22421Y75919D01*
X22371Y75975D01*
X22332Y76013D01*
X22305Y76036D01*
X22294Y76041D01*
X22227Y76086D01*
X22160Y76113D01*
X22094Y76135D01*
X22027Y76152D01*
X21977Y76163D01*
X21933Y76169D01*
X21894D01*
X21794Y76158D01*
X21700Y76135D01*
X21622Y76102D01*
X21550Y76069D01*
X21494Y76030D01*
X21455Y75997D01*
X21433Y75975D01*
X21422Y75963D01*
X21383Y75914D01*
X21344Y75852D01*
X21311Y75786D01*
X21289Y75719D01*
X21267Y75658D01*
X21250Y75608D01*
X21245Y75575D01*
X21239Y75569D01*
Y75564D01*
X20767Y75603D01*
X20801Y75758D01*
X20851Y75897D01*
X20906Y76019D01*
X20967Y76119D01*
X21028Y76196D01*
X21050Y76230D01*
X21078Y76258D01*
X21095Y76274D01*
X21111Y76291D01*
X21117Y76296D01*
X21123Y76302D01*
X21178Y76346D01*
X21239Y76385D01*
X21361Y76452D01*
X21483Y76496D01*
X21600Y76524D01*
X21705Y76546D01*
X21750Y76552D01*
X21789D01*
X21822Y76557D01*
X21866D01*
X21977Y76552D01*
D02*
G37*
G36*
X26900Y74321D02*
Y74210D01*
X26895Y74104D01*
X26889Y74004D01*
X26878Y73910D01*
X26867Y73827D01*
X26856Y73749D01*
X26839Y73677D01*
X26828Y73610D01*
X26817Y73549D01*
X26800Y73499D01*
X26789Y73455D01*
X26778Y73422D01*
X26767Y73394D01*
X26761Y73372D01*
X26756Y73361D01*
Y73355D01*
X26695Y73233D01*
X26617Y73122D01*
X26539Y73033D01*
X26456Y72955D01*
X26384Y72894D01*
X26323Y72850D01*
X26301Y72839D01*
X26284Y72828D01*
X26273Y72816D01*
X26267D01*
X26129Y72755D01*
X25984Y72711D01*
X25834Y72678D01*
X25696Y72656D01*
X25635Y72650D01*
X25574Y72645D01*
X25518Y72639D01*
X25474D01*
X25435Y72633D01*
X25385D01*
X25185Y72645D01*
X25096Y72656D01*
X25013Y72667D01*
X24930Y72683D01*
X24858Y72700D01*
X24791Y72717D01*
X24730Y72739D01*
X24674Y72761D01*
X24630Y72778D01*
X24586Y72794D01*
X24552Y72811D01*
X24525Y72828D01*
X24508Y72833D01*
X24497Y72844D01*
X24491D01*
X24369Y72927D01*
X24269Y73022D01*
X24192Y73111D01*
X24125Y73199D01*
X24075Y73277D01*
X24042Y73338D01*
X24031Y73361D01*
X24020Y73377D01*
X24014Y73388D01*
Y73394D01*
X23992Y73460D01*
X23970Y73532D01*
X23936Y73682D01*
X23914Y73838D01*
X23898Y73988D01*
X23892Y74054D01*
X23886Y74121D01*
Y74176D01*
X23881Y74226D01*
Y74265D01*
Y74293D01*
Y74315D01*
Y74321D01*
Y76541D01*
X24391D01*
Y74321D01*
Y74193D01*
X24403Y74071D01*
X24414Y73965D01*
X24430Y73865D01*
X24447Y73777D01*
X24469Y73693D01*
X24486Y73621D01*
X24508Y73560D01*
X24530Y73510D01*
X24552Y73460D01*
X24575Y73427D01*
X24591Y73394D01*
X24608Y73372D01*
X24619Y73355D01*
X24624Y73349D01*
X24630Y73344D01*
X24680Y73299D01*
X24735Y73261D01*
X24858Y73199D01*
X24985Y73155D01*
X25118Y73127D01*
X25240Y73105D01*
X25291Y73100D01*
X25341D01*
X25374Y73094D01*
X25429D01*
X25546Y73100D01*
X25651Y73116D01*
X25751Y73133D01*
X25829Y73161D01*
X25895Y73183D01*
X25945Y73199D01*
X25973Y73216D01*
X25984Y73222D01*
X26062Y73272D01*
X26129Y73333D01*
X26184Y73394D01*
X26223Y73449D01*
X26256Y73505D01*
X26284Y73544D01*
X26295Y73571D01*
X26301Y73582D01*
X26317Y73632D01*
X26328Y73682D01*
X26351Y73799D01*
X26367Y73921D01*
X26378Y74043D01*
X26384Y74149D01*
Y74199D01*
X26389Y74237D01*
Y74271D01*
Y74298D01*
Y74315D01*
Y74321D01*
Y76541D01*
X26900D01*
Y74321D01*
D02*
G37*
G36*
X9894Y996D02*
Y937D01*
X9900Y888D01*
X9902Y846D01*
X9908Y813D01*
X9913Y788D01*
X9916Y768D01*
X9922Y757D01*
Y755D01*
X9933Y727D01*
X9947Y705D01*
X9963Y685D01*
X9977Y666D01*
X9994Y655D01*
X10005Y644D01*
X10013Y638D01*
X10016Y635D01*
X10044Y622D01*
X10071Y611D01*
X10099Y605D01*
X10124Y599D01*
X10149Y597D01*
X10165Y594D01*
X10182D01*
X10226Y597D01*
X10268Y608D01*
X10301Y619D01*
X10332Y635D01*
X10354Y649D01*
X10370Y663D01*
X10381Y672D01*
X10384Y674D01*
X10398Y691D01*
X10409Y710D01*
X10426Y755D01*
X10442Y804D01*
X10451Y854D01*
X10459Y901D01*
Y921D01*
X10462Y937D01*
X10464Y954D01*
Y965D01*
Y971D01*
Y973D01*
X10695Y940D01*
Y888D01*
X10692Y840D01*
X10683Y793D01*
X10678Y752D01*
X10667Y713D01*
X10656Y680D01*
X10645Y647D01*
X10633Y619D01*
X10620Y594D01*
X10609Y572D01*
X10598Y552D01*
X10586Y538D01*
X10578Y527D01*
X10573Y516D01*
X10570Y514D01*
X10567Y511D01*
X10539Y486D01*
X10512Y464D01*
X10481Y444D01*
X10448Y428D01*
X10384Y403D01*
X10323Y386D01*
X10265Y375D01*
X10243Y372D01*
X10221Y369D01*
X10204Y367D01*
X10179D01*
X10118Y369D01*
X10063Y378D01*
X10013Y389D01*
X9969Y403D01*
X9933Y414D01*
X9908Y425D01*
X9891Y433D01*
X9886Y436D01*
X9841Y464D01*
X9803Y497D01*
X9772Y530D01*
X9744Y561D01*
X9725Y591D01*
X9711Y613D01*
X9703Y630D01*
X9700Y633D01*
Y635D01*
X9681Y691D01*
X9664Y749D01*
X9653Y813D01*
X9647Y874D01*
X9642Y926D01*
Y948D01*
X9639Y971D01*
Y987D01*
Y998D01*
Y1007D01*
Y1009D01*
Y2317D01*
X9894D01*
Y996D01*
D02*
G37*
G36*
X86094Y11596D02*
Y11537D01*
X86099Y11488D01*
X86102Y11446D01*
X86108Y11413D01*
X86113Y11388D01*
X86116Y11368D01*
X86122Y11357D01*
Y11355D01*
X86133Y11327D01*
X86147Y11305D01*
X86163Y11285D01*
X86177Y11266D01*
X86194Y11255D01*
X86205Y11244D01*
X86213Y11238D01*
X86216Y11236D01*
X86243Y11222D01*
X86271Y11210D01*
X86299Y11205D01*
X86324Y11199D01*
X86349Y11197D01*
X86365Y11194D01*
X86382D01*
X86426Y11197D01*
X86468Y11208D01*
X86501Y11219D01*
X86532Y11236D01*
X86554Y11249D01*
X86570Y11263D01*
X86581Y11271D01*
X86584Y11274D01*
X86598Y11291D01*
X86609Y11310D01*
X86626Y11355D01*
X86642Y11404D01*
X86651Y11454D01*
X86659Y11501D01*
Y11521D01*
X86662Y11537D01*
X86664Y11554D01*
Y11565D01*
Y11571D01*
Y11573D01*
X86895Y11540D01*
Y11488D01*
X86892Y11440D01*
X86883Y11393D01*
X86878Y11352D01*
X86867Y11313D01*
X86856Y11280D01*
X86845Y11247D01*
X86834Y11219D01*
X86820Y11194D01*
X86809Y11172D01*
X86797Y11152D01*
X86786Y11139D01*
X86778Y11127D01*
X86773Y11116D01*
X86770Y11114D01*
X86767Y11111D01*
X86739Y11086D01*
X86712Y11064D01*
X86681Y11044D01*
X86648Y11028D01*
X86584Y11003D01*
X86523Y10986D01*
X86465Y10975D01*
X86443Y10972D01*
X86421Y10970D01*
X86404Y10967D01*
X86379D01*
X86318Y10970D01*
X86263Y10978D01*
X86213Y10989D01*
X86169Y11003D01*
X86133Y11014D01*
X86108Y11025D01*
X86091Y11033D01*
X86086Y11036D01*
X86041Y11064D01*
X86002Y11097D01*
X85972Y11130D01*
X85944Y11161D01*
X85925Y11191D01*
X85911Y11213D01*
X85903Y11230D01*
X85900Y11233D01*
Y11236D01*
X85881Y11291D01*
X85864Y11349D01*
X85853Y11413D01*
X85847Y11474D01*
X85842Y11526D01*
Y11548D01*
X85839Y11571D01*
Y11587D01*
Y11598D01*
Y11607D01*
Y11609D01*
Y12917D01*
X86094D01*
Y11596D01*
D02*
G37*
G36*
X8736Y2322D02*
X8783Y2320D01*
X8828Y2311D01*
X8869Y2303D01*
X8908Y2292D01*
X8944Y2281D01*
X8977Y2267D01*
X9008Y2253D01*
X9035Y2239D01*
X9057Y2225D01*
X9077Y2214D01*
X9093Y2203D01*
X9107Y2195D01*
X9116Y2187D01*
X9121Y2184D01*
X9124Y2181D01*
X9152Y2153D01*
X9177Y2123D01*
X9201Y2090D01*
X9221Y2056D01*
X9254Y1990D01*
X9276Y1924D01*
X9285Y1893D01*
X9293Y1863D01*
X9298Y1838D01*
X9304Y1815D01*
X9307Y1796D01*
Y1782D01*
X9309Y1774D01*
Y1771D01*
X9069Y1746D01*
X9063Y1810D01*
X9052Y1865D01*
X9035Y1915D01*
X9016Y1954D01*
X8999Y1987D01*
X8983Y2009D01*
X8971Y2023D01*
X8966Y2029D01*
X8924Y2062D01*
X8880Y2087D01*
X8833Y2106D01*
X8792Y2117D01*
X8753Y2126D01*
X8720Y2128D01*
X8708Y2131D01*
X8692D01*
X8634Y2128D01*
X8581Y2117D01*
X8537Y2101D01*
X8498Y2084D01*
X8467Y2065D01*
X8448Y2051D01*
X8434Y2040D01*
X8429Y2034D01*
X8395Y1995D01*
X8370Y1957D01*
X8351Y1918D01*
X8340Y1879D01*
X8332Y1849D01*
X8329Y1821D01*
X8326Y1804D01*
Y1802D01*
Y1799D01*
X8332Y1749D01*
X8343Y1696D01*
X8362Y1649D01*
X8382Y1605D01*
X8404Y1569D01*
X8423Y1539D01*
X8429Y1527D01*
X8434Y1519D01*
X8440Y1516D01*
Y1514D01*
X8462Y1483D01*
X8489Y1453D01*
X8520Y1419D01*
X8553Y1386D01*
X8623Y1320D01*
X8692Y1253D01*
X8728Y1223D01*
X8758Y1195D01*
X8789Y1170D01*
X8814Y1148D01*
X8833Y1131D01*
X8850Y1117D01*
X8861Y1109D01*
X8863Y1106D01*
X8933Y1048D01*
X8997Y993D01*
X9049Y943D01*
X9091Y901D01*
X9127Y865D01*
X9152Y840D01*
X9165Y824D01*
X9171Y821D01*
Y818D01*
X9210Y771D01*
X9240Y727D01*
X9268Y683D01*
X9290Y644D01*
X9307Y611D01*
X9318Y586D01*
X9323Y569D01*
X9326Y566D01*
Y563D01*
X9337Y533D01*
X9343Y505D01*
X9348Y478D01*
X9351Y453D01*
X9354Y430D01*
Y414D01*
Y403D01*
Y400D01*
X8082D01*
Y627D01*
X9027D01*
X8994Y674D01*
X8977Y694D01*
X8963Y713D01*
X8949Y730D01*
X8938Y741D01*
X8930Y749D01*
X8927Y752D01*
X8913Y766D01*
X8897Y779D01*
X8858Y816D01*
X8814Y857D01*
X8766Y899D01*
X8722Y935D01*
X8703Y951D01*
X8686Y968D01*
X8672Y979D01*
X8661Y987D01*
X8656Y993D01*
X8653Y996D01*
X8609Y1034D01*
X8564Y1070D01*
X8525Y1106D01*
X8489Y1137D01*
X8456Y1167D01*
X8429Y1195D01*
X8401Y1220D01*
X8379Y1242D01*
X8357Y1264D01*
X8340Y1281D01*
X8326Y1295D01*
X8312Y1309D01*
X8298Y1325D01*
X8293Y1331D01*
X8254Y1378D01*
X8221Y1419D01*
X8193Y1461D01*
X8171Y1494D01*
X8154Y1525D01*
X8143Y1547D01*
X8138Y1561D01*
X8135Y1566D01*
X8118Y1608D01*
X8107Y1649D01*
X8096Y1688D01*
X8091Y1721D01*
X8088Y1752D01*
X8085Y1774D01*
Y1788D01*
Y1793D01*
X8088Y1835D01*
X8093Y1874D01*
X8099Y1912D01*
X8110Y1946D01*
X8138Y2012D01*
X8165Y2065D01*
X8182Y2090D01*
X8196Y2109D01*
X8210Y2128D01*
X8224Y2142D01*
X8235Y2153D01*
X8240Y2165D01*
X8246Y2167D01*
X8249Y2170D01*
X8279Y2198D01*
X8312Y2223D01*
X8348Y2242D01*
X8384Y2259D01*
X8456Y2286D01*
X8528Y2306D01*
X8559Y2311D01*
X8589Y2317D01*
X8617Y2320D01*
X8639Y2322D01*
X8659Y2325D01*
X8686D01*
X8736Y2322D01*
D02*
G37*
G36*
X53404Y46322D02*
X53451Y46320D01*
X53496Y46311D01*
X53537Y46303D01*
X53576Y46292D01*
X53612Y46281D01*
X53645Y46267D01*
X53676Y46253D01*
X53703Y46239D01*
X53725Y46225D01*
X53745Y46214D01*
X53762Y46203D01*
X53775Y46195D01*
X53784Y46187D01*
X53789Y46184D01*
X53792Y46181D01*
X53820Y46153D01*
X53845Y46123D01*
X53870Y46090D01*
X53889Y46057D01*
X53922Y45990D01*
X53944Y45924D01*
X53953Y45893D01*
X53961Y45863D01*
X53966Y45838D01*
X53972Y45816D01*
X53975Y45796D01*
Y45782D01*
X53978Y45774D01*
Y45771D01*
X53737Y45746D01*
X53731Y45810D01*
X53720Y45865D01*
X53703Y45915D01*
X53684Y45954D01*
X53667Y45987D01*
X53651Y46009D01*
X53640Y46023D01*
X53634Y46029D01*
X53593Y46062D01*
X53548Y46087D01*
X53501Y46106D01*
X53460Y46117D01*
X53421Y46126D01*
X53388Y46128D01*
X53377Y46131D01*
X53360D01*
X53302Y46128D01*
X53249Y46117D01*
X53205Y46101D01*
X53166Y46084D01*
X53136Y46065D01*
X53116Y46051D01*
X53102Y46040D01*
X53097Y46034D01*
X53063Y45996D01*
X53039Y45957D01*
X53019Y45918D01*
X53008Y45879D01*
X53000Y45849D01*
X52997Y45821D01*
X52994Y45804D01*
Y45802D01*
Y45799D01*
X53000Y45749D01*
X53011Y45696D01*
X53030Y45649D01*
X53050Y45605D01*
X53072Y45569D01*
X53091Y45538D01*
X53097Y45527D01*
X53102Y45519D01*
X53108Y45516D01*
Y45513D01*
X53130Y45483D01*
X53158Y45453D01*
X53188Y45419D01*
X53221Y45386D01*
X53291Y45320D01*
X53360Y45253D01*
X53396Y45223D01*
X53426Y45195D01*
X53457Y45170D01*
X53482Y45148D01*
X53501Y45131D01*
X53518Y45117D01*
X53529Y45109D01*
X53532Y45106D01*
X53601Y45048D01*
X53665Y44993D01*
X53717Y44943D01*
X53759Y44901D01*
X53795Y44865D01*
X53820Y44840D01*
X53834Y44824D01*
X53839Y44821D01*
Y44818D01*
X53878Y44771D01*
X53908Y44727D01*
X53936Y44682D01*
X53958Y44644D01*
X53975Y44611D01*
X53986Y44586D01*
X53992Y44569D01*
X53994Y44566D01*
Y44563D01*
X54005Y44533D01*
X54011Y44505D01*
X54016Y44478D01*
X54019Y44453D01*
X54022Y44431D01*
Y44414D01*
Y44403D01*
Y44400D01*
X52750D01*
Y44627D01*
X53695D01*
X53662Y44674D01*
X53645Y44694D01*
X53631Y44713D01*
X53618Y44730D01*
X53606Y44741D01*
X53598Y44749D01*
X53595Y44752D01*
X53582Y44766D01*
X53565Y44780D01*
X53526Y44815D01*
X53482Y44857D01*
X53435Y44899D01*
X53390Y44935D01*
X53371Y44951D01*
X53354Y44968D01*
X53341Y44979D01*
X53329Y44987D01*
X53324Y44993D01*
X53321Y44995D01*
X53277Y45034D01*
X53233Y45070D01*
X53194Y45106D01*
X53158Y45137D01*
X53124Y45167D01*
X53097Y45195D01*
X53069Y45220D01*
X53047Y45242D01*
X53025Y45264D01*
X53008Y45281D01*
X52994Y45295D01*
X52980Y45309D01*
X52967Y45325D01*
X52961Y45331D01*
X52922Y45378D01*
X52889Y45419D01*
X52861Y45461D01*
X52839Y45494D01*
X52823Y45525D01*
X52811Y45547D01*
X52806Y45561D01*
X52803Y45566D01*
X52786Y45608D01*
X52775Y45649D01*
X52764Y45688D01*
X52759Y45721D01*
X52756Y45752D01*
X52753Y45774D01*
Y45788D01*
Y45793D01*
X52756Y45835D01*
X52762Y45874D01*
X52767Y45912D01*
X52778Y45946D01*
X52806Y46012D01*
X52834Y46065D01*
X52850Y46090D01*
X52864Y46109D01*
X52878Y46128D01*
X52892Y46142D01*
X52903Y46153D01*
X52908Y46165D01*
X52914Y46167D01*
X52917Y46170D01*
X52947Y46198D01*
X52980Y46223D01*
X53016Y46242D01*
X53052Y46259D01*
X53124Y46286D01*
X53197Y46306D01*
X53227Y46311D01*
X53257Y46317D01*
X53285Y46320D01*
X53307Y46322D01*
X53327Y46325D01*
X53354D01*
X53404Y46322D01*
D02*
G37*
G36*
X55088Y46345D02*
X55177Y46331D01*
X55255Y46314D01*
X55291Y46303D01*
X55324Y46292D01*
X55354Y46281D01*
X55382Y46270D01*
X55404Y46261D01*
X55426Y46253D01*
X55440Y46245D01*
X55451Y46239D01*
X55460Y46237D01*
X55462Y46234D01*
X55537Y46187D01*
X55601Y46131D01*
X55656Y46076D01*
X55703Y46020D01*
X55739Y45971D01*
X55753Y45948D01*
X55764Y45929D01*
X55775Y45915D01*
X55781Y45904D01*
X55784Y45896D01*
X55786Y45893D01*
X55825Y45807D01*
X55853Y45719D01*
X55872Y45630D01*
X55886Y45549D01*
X55892Y45513D01*
X55895Y45478D01*
X55897Y45450D01*
Y45422D01*
X55900Y45403D01*
Y45386D01*
Y45375D01*
Y45372D01*
X55895Y45273D01*
X55883Y45176D01*
X55870Y45090D01*
X55858Y45048D01*
X55850Y45012D01*
X55842Y44979D01*
X55831Y44949D01*
X55822Y44921D01*
X55817Y44899D01*
X55809Y44882D01*
X55806Y44868D01*
X55800Y44860D01*
Y44857D01*
X55759Y44774D01*
X55712Y44699D01*
X55662Y44635D01*
X55637Y44611D01*
X55615Y44586D01*
X55593Y44563D01*
X55570Y44544D01*
X55551Y44527D01*
X55534Y44516D01*
X55523Y44505D01*
X55512Y44497D01*
X55507Y44494D01*
X55504Y44491D01*
X55465Y44469D01*
X55426Y44450D01*
X55343Y44419D01*
X55260Y44397D01*
X55180Y44383D01*
X55141Y44378D01*
X55108Y44372D01*
X55077Y44370D01*
X55052D01*
X55030Y44367D01*
X55000D01*
X54944Y44370D01*
X54892Y44375D01*
X54842Y44381D01*
X54795Y44392D01*
X54751Y44405D01*
X54709Y44419D01*
X54670Y44433D01*
X54634Y44450D01*
X54604Y44464D01*
X54573Y44478D01*
X54551Y44491D01*
X54529Y44505D01*
X54515Y44516D01*
X54501Y44522D01*
X54496Y44527D01*
X54493Y44530D01*
X54454Y44563D01*
X54421Y44597D01*
X54390Y44635D01*
X54360Y44674D01*
X54310Y44752D01*
X54271Y44829D01*
X54255Y44865D01*
X54241Y44899D01*
X54230Y44929D01*
X54221Y44954D01*
X54213Y44976D01*
X54207Y44993D01*
X54205Y45004D01*
Y45007D01*
X54460Y45070D01*
X54471Y45026D01*
X54484Y44984D01*
X54498Y44946D01*
X54512Y44910D01*
X54529Y44876D01*
X54545Y44849D01*
X54565Y44821D01*
X54581Y44796D01*
X54595Y44774D01*
X54612Y44757D01*
X54626Y44741D01*
X54637Y44727D01*
X54648Y44719D01*
X54656Y44710D01*
X54659Y44708D01*
X54662Y44705D01*
X54690Y44682D01*
X54720Y44666D01*
X54781Y44635D01*
X54839Y44613D01*
X54897Y44599D01*
X54947Y44588D01*
X54966Y44586D01*
X54986D01*
X55002Y44583D01*
X55022D01*
X55086Y44586D01*
X55147Y44597D01*
X55202Y44611D01*
X55252Y44627D01*
X55291Y44644D01*
X55307Y44652D01*
X55321Y44658D01*
X55332Y44663D01*
X55340Y44669D01*
X55346Y44671D01*
X55349D01*
X55401Y44710D01*
X55446Y44752D01*
X55484Y44799D01*
X55515Y44843D01*
X55540Y44882D01*
X55556Y44915D01*
X55562Y44929D01*
X55568Y44937D01*
X55570Y44943D01*
Y44946D01*
X55593Y45018D01*
X55609Y45090D01*
X55623Y45162D01*
X55631Y45228D01*
X55634Y45259D01*
X55637Y45286D01*
Y45311D01*
X55640Y45331D01*
Y45347D01*
Y45361D01*
Y45369D01*
Y45372D01*
X55637Y45444D01*
X55631Y45511D01*
X55620Y45572D01*
X55609Y45627D01*
X55601Y45674D01*
X55595Y45694D01*
X55590Y45710D01*
X55587Y45724D01*
X55584Y45732D01*
X55581Y45738D01*
Y45741D01*
X55554Y45804D01*
X55523Y45863D01*
X55490Y45910D01*
X55454Y45951D01*
X55424Y45984D01*
X55399Y46007D01*
X55379Y46020D01*
X55376Y46026D01*
X55374D01*
X55316Y46062D01*
X55252Y46090D01*
X55191Y46109D01*
X55133Y46120D01*
X55080Y46128D01*
X55058Y46131D01*
X55038D01*
X55025Y46134D01*
X55002D01*
X54933Y46131D01*
X54870Y46120D01*
X54817Y46104D01*
X54770Y46087D01*
X54734Y46068D01*
X54706Y46054D01*
X54690Y46043D01*
X54684Y46037D01*
X54640Y45996D01*
X54598Y45948D01*
X54565Y45899D01*
X54537Y45849D01*
X54515Y45804D01*
X54507Y45782D01*
X54501Y45766D01*
X54496Y45752D01*
X54490Y45741D01*
X54487Y45735D01*
Y45732D01*
X54238Y45790D01*
X54255Y45840D01*
X54271Y45885D01*
X54293Y45926D01*
X54313Y45968D01*
X54335Y46004D01*
X54360Y46037D01*
X54382Y46070D01*
X54404Y46098D01*
X54426Y46120D01*
X54446Y46142D01*
X54465Y46162D01*
X54479Y46176D01*
X54493Y46189D01*
X54504Y46198D01*
X54510Y46200D01*
X54512Y46203D01*
X54551Y46228D01*
X54590Y46253D01*
X54629Y46273D01*
X54670Y46289D01*
X54753Y46314D01*
X54828Y46331D01*
X54864Y46339D01*
X54895Y46342D01*
X54925Y46345D01*
X54950Y46347D01*
X54969Y46350D01*
X54997D01*
X55088Y46345D01*
D02*
G37*
G36*
X61482Y43165D02*
X60543D01*
X60609Y43084D01*
X60673Y42999D01*
X60728Y42915D01*
X60781Y42835D01*
X60803Y42799D01*
X60823Y42766D01*
X60842Y42735D01*
X60856Y42711D01*
X60867Y42688D01*
X60875Y42674D01*
X60881Y42663D01*
X60883Y42661D01*
X60939Y42550D01*
X60989Y42439D01*
X61030Y42334D01*
X61047Y42287D01*
X61063Y42240D01*
X61080Y42198D01*
X61091Y42159D01*
X61102Y42126D01*
X61111Y42098D01*
X61119Y42073D01*
X61124Y42057D01*
X61127Y42046D01*
Y42043D01*
X61155Y41929D01*
X61166Y41874D01*
X61174Y41824D01*
X61183Y41777D01*
X61191Y41730D01*
X61197Y41691D01*
X61202Y41652D01*
X61205Y41619D01*
X61208Y41589D01*
X61210Y41561D01*
Y41539D01*
X61213Y41522D01*
Y41511D01*
Y41503D01*
Y41500D01*
X60972D01*
X60964Y41605D01*
X60950Y41702D01*
X60936Y41791D01*
X60928Y41832D01*
X60919Y41871D01*
X60914Y41904D01*
X60906Y41935D01*
X60900Y41963D01*
X60895Y41985D01*
X60889Y42001D01*
X60886Y42015D01*
X60883Y42024D01*
Y42026D01*
X60842Y42154D01*
X60798Y42273D01*
X60776Y42331D01*
X60753Y42386D01*
X60728Y42436D01*
X60706Y42486D01*
X60687Y42530D01*
X60667Y42569D01*
X60651Y42603D01*
X60637Y42633D01*
X60623Y42658D01*
X60615Y42674D01*
X60609Y42686D01*
X60606Y42688D01*
X60573Y42746D01*
X60540Y42805D01*
X60507Y42857D01*
X60474Y42907D01*
X60443Y42952D01*
X60413Y42996D01*
X60382Y43035D01*
X60357Y43068D01*
X60332Y43101D01*
X60310Y43129D01*
X60288Y43151D01*
X60271Y43170D01*
X60260Y43187D01*
X60249Y43198D01*
X60244Y43204D01*
X60241Y43206D01*
Y43392D01*
X61482D01*
Y43165D01*
D02*
G37*
G36*
X62404Y43422D02*
X62451Y43420D01*
X62496Y43411D01*
X62537Y43403D01*
X62576Y43392D01*
X62612Y43381D01*
X62645Y43367D01*
X62676Y43353D01*
X62703Y43339D01*
X62726Y43325D01*
X62745Y43314D01*
X62762Y43303D01*
X62775Y43295D01*
X62784Y43287D01*
X62789Y43284D01*
X62792Y43281D01*
X62820Y43253D01*
X62845Y43223D01*
X62870Y43190D01*
X62889Y43156D01*
X62922Y43090D01*
X62944Y43023D01*
X62953Y42993D01*
X62961Y42963D01*
X62967Y42938D01*
X62972Y42915D01*
X62975Y42896D01*
Y42882D01*
X62978Y42874D01*
Y42871D01*
X62737Y42846D01*
X62731Y42910D01*
X62720Y42965D01*
X62703Y43015D01*
X62684Y43054D01*
X62667Y43087D01*
X62651Y43109D01*
X62640Y43123D01*
X62634Y43129D01*
X62593Y43162D01*
X62548Y43187D01*
X62501Y43206D01*
X62460Y43217D01*
X62421Y43226D01*
X62388Y43229D01*
X62376Y43231D01*
X62360D01*
X62302Y43229D01*
X62249Y43217D01*
X62205Y43201D01*
X62166Y43184D01*
X62135Y43165D01*
X62116Y43151D01*
X62102Y43140D01*
X62097Y43134D01*
X62063Y43095D01*
X62039Y43057D01*
X62019Y43018D01*
X62008Y42979D01*
X62000Y42949D01*
X61997Y42921D01*
X61994Y42904D01*
Y42902D01*
Y42899D01*
X62000Y42849D01*
X62011Y42796D01*
X62030Y42749D01*
X62050Y42705D01*
X62072Y42669D01*
X62091Y42638D01*
X62097Y42627D01*
X62102Y42619D01*
X62108Y42616D01*
Y42614D01*
X62130Y42583D01*
X62158Y42553D01*
X62188Y42519D01*
X62221Y42486D01*
X62291Y42420D01*
X62360Y42353D01*
X62396Y42323D01*
X62426Y42295D01*
X62457Y42270D01*
X62482Y42248D01*
X62501Y42231D01*
X62518Y42217D01*
X62529Y42209D01*
X62532Y42206D01*
X62601Y42148D01*
X62665Y42093D01*
X62717Y42043D01*
X62759Y42001D01*
X62795Y41965D01*
X62820Y41940D01*
X62834Y41924D01*
X62839Y41921D01*
Y41918D01*
X62878Y41871D01*
X62908Y41827D01*
X62936Y41783D01*
X62958Y41744D01*
X62975Y41710D01*
X62986Y41686D01*
X62991Y41669D01*
X62994Y41666D01*
Y41663D01*
X63005Y41633D01*
X63011Y41605D01*
X63016Y41578D01*
X63019Y41553D01*
X63022Y41530D01*
Y41514D01*
Y41503D01*
Y41500D01*
X61751D01*
Y41727D01*
X62695D01*
X62662Y41774D01*
X62645Y41794D01*
X62631Y41813D01*
X62617Y41830D01*
X62606Y41841D01*
X62598Y41849D01*
X62595Y41852D01*
X62581Y41866D01*
X62565Y41879D01*
X62526Y41916D01*
X62482Y41957D01*
X62435Y41999D01*
X62390Y42035D01*
X62371Y42051D01*
X62354Y42068D01*
X62340Y42079D01*
X62329Y42087D01*
X62324Y42093D01*
X62321Y42096D01*
X62277Y42134D01*
X62233Y42170D01*
X62194Y42206D01*
X62158Y42237D01*
X62125Y42267D01*
X62097Y42295D01*
X62069Y42320D01*
X62047Y42342D01*
X62025Y42364D01*
X62008Y42381D01*
X61994Y42395D01*
X61980Y42409D01*
X61967Y42425D01*
X61961Y42431D01*
X61922Y42478D01*
X61889Y42519D01*
X61861Y42561D01*
X61839Y42594D01*
X61822Y42625D01*
X61812Y42647D01*
X61806Y42661D01*
X61803Y42666D01*
X61787Y42708D01*
X61775Y42749D01*
X61764Y42788D01*
X61759Y42821D01*
X61756Y42852D01*
X61753Y42874D01*
Y42888D01*
Y42893D01*
X61756Y42935D01*
X61762Y42974D01*
X61767Y43012D01*
X61778Y43046D01*
X61806Y43112D01*
X61834Y43165D01*
X61850Y43190D01*
X61864Y43209D01*
X61878Y43229D01*
X61892Y43242D01*
X61903Y43253D01*
X61908Y43264D01*
X61914Y43267D01*
X61917Y43270D01*
X61947Y43298D01*
X61980Y43323D01*
X62016Y43342D01*
X62052Y43359D01*
X62125Y43386D01*
X62196Y43406D01*
X62227Y43411D01*
X62257Y43417D01*
X62285Y43420D01*
X62307Y43422D01*
X62327Y43425D01*
X62354D01*
X62404Y43422D01*
D02*
G37*
G36*
X64088Y43444D02*
X64177Y43431D01*
X64255Y43414D01*
X64291Y43403D01*
X64324Y43392D01*
X64354Y43381D01*
X64382Y43370D01*
X64404Y43361D01*
X64426Y43353D01*
X64440Y43345D01*
X64451Y43339D01*
X64460Y43336D01*
X64462Y43334D01*
X64537Y43287D01*
X64601Y43231D01*
X64656Y43176D01*
X64703Y43120D01*
X64739Y43071D01*
X64753Y43048D01*
X64764Y43029D01*
X64775Y43015D01*
X64781Y43004D01*
X64784Y42996D01*
X64786Y42993D01*
X64825Y42907D01*
X64853Y42818D01*
X64872Y42730D01*
X64886Y42649D01*
X64892Y42614D01*
X64894Y42577D01*
X64897Y42550D01*
Y42522D01*
X64900Y42503D01*
Y42486D01*
Y42475D01*
Y42472D01*
X64894Y42373D01*
X64883Y42276D01*
X64869Y42190D01*
X64859Y42148D01*
X64850Y42112D01*
X64842Y42079D01*
X64831Y42048D01*
X64822Y42021D01*
X64817Y41999D01*
X64809Y41982D01*
X64806Y41968D01*
X64800Y41960D01*
Y41957D01*
X64759Y41874D01*
X64712Y41799D01*
X64662Y41735D01*
X64637Y41710D01*
X64615Y41686D01*
X64592Y41663D01*
X64570Y41644D01*
X64551Y41627D01*
X64534Y41616D01*
X64523Y41605D01*
X64512Y41597D01*
X64507Y41594D01*
X64504Y41591D01*
X64465Y41569D01*
X64426Y41550D01*
X64343Y41519D01*
X64260Y41497D01*
X64180Y41483D01*
X64141Y41478D01*
X64108Y41472D01*
X64077Y41469D01*
X64052D01*
X64030Y41467D01*
X64000D01*
X63944Y41469D01*
X63892Y41475D01*
X63842Y41481D01*
X63795Y41492D01*
X63750Y41506D01*
X63709Y41519D01*
X63670Y41533D01*
X63634Y41550D01*
X63604Y41564D01*
X63573Y41578D01*
X63551Y41591D01*
X63529Y41605D01*
X63515Y41616D01*
X63501Y41622D01*
X63496Y41627D01*
X63493Y41630D01*
X63454Y41663D01*
X63421Y41697D01*
X63390Y41735D01*
X63360Y41774D01*
X63310Y41852D01*
X63271Y41929D01*
X63255Y41965D01*
X63241Y41999D01*
X63230Y42029D01*
X63221Y42054D01*
X63213Y42076D01*
X63208Y42093D01*
X63205Y42104D01*
Y42107D01*
X63460Y42170D01*
X63471Y42126D01*
X63485Y42085D01*
X63498Y42046D01*
X63512Y42010D01*
X63529Y41976D01*
X63546Y41949D01*
X63565Y41921D01*
X63582Y41896D01*
X63595Y41874D01*
X63612Y41857D01*
X63626Y41841D01*
X63637Y41827D01*
X63648Y41818D01*
X63656Y41810D01*
X63659Y41807D01*
X63662Y41805D01*
X63690Y41783D01*
X63720Y41766D01*
X63781Y41735D01*
X63839Y41713D01*
X63897Y41699D01*
X63947Y41688D01*
X63967Y41686D01*
X63986D01*
X64003Y41683D01*
X64022D01*
X64086Y41686D01*
X64147Y41697D01*
X64202Y41710D01*
X64252Y41727D01*
X64291Y41744D01*
X64307Y41752D01*
X64321Y41758D01*
X64332Y41763D01*
X64341Y41769D01*
X64346Y41772D01*
X64349D01*
X64401Y41810D01*
X64446Y41852D01*
X64485Y41899D01*
X64515Y41943D01*
X64540Y41982D01*
X64556Y42015D01*
X64562Y42029D01*
X64568Y42037D01*
X64570Y42043D01*
Y42046D01*
X64592Y42118D01*
X64609Y42190D01*
X64623Y42262D01*
X64631Y42328D01*
X64634Y42359D01*
X64637Y42386D01*
Y42411D01*
X64640Y42431D01*
Y42447D01*
Y42461D01*
Y42469D01*
Y42472D01*
X64637Y42544D01*
X64631Y42611D01*
X64620Y42672D01*
X64609Y42727D01*
X64601Y42774D01*
X64595Y42794D01*
X64590Y42810D01*
X64587Y42824D01*
X64584Y42832D01*
X64581Y42838D01*
Y42841D01*
X64554Y42904D01*
X64523Y42963D01*
X64490Y43010D01*
X64454Y43051D01*
X64424Y43084D01*
X64399Y43107D01*
X64379Y43120D01*
X64376Y43126D01*
X64374D01*
X64315Y43162D01*
X64252Y43190D01*
X64191Y43209D01*
X64133Y43220D01*
X64080Y43229D01*
X64058Y43231D01*
X64038D01*
X64025Y43234D01*
X64003D01*
X63933Y43231D01*
X63870Y43220D01*
X63817Y43204D01*
X63770Y43187D01*
X63734Y43167D01*
X63706Y43154D01*
X63690Y43143D01*
X63684Y43137D01*
X63640Y43095D01*
X63598Y43048D01*
X63565Y42999D01*
X63537Y42949D01*
X63515Y42904D01*
X63507Y42882D01*
X63501Y42866D01*
X63496Y42852D01*
X63490Y42841D01*
X63487Y42835D01*
Y42832D01*
X63238Y42891D01*
X63255Y42940D01*
X63271Y42985D01*
X63293Y43026D01*
X63313Y43068D01*
X63335Y43104D01*
X63360Y43137D01*
X63382Y43170D01*
X63404Y43198D01*
X63426Y43220D01*
X63446Y43242D01*
X63465Y43262D01*
X63479Y43276D01*
X63493Y43289D01*
X63504Y43298D01*
X63510Y43301D01*
X63512Y43303D01*
X63551Y43328D01*
X63590Y43353D01*
X63629Y43372D01*
X63670Y43389D01*
X63753Y43414D01*
X63828Y43431D01*
X63864Y43439D01*
X63894Y43442D01*
X63925Y43444D01*
X63950Y43447D01*
X63969Y43450D01*
X63997D01*
X64088Y43444D01*
D02*
G37*
G36*
X74304Y33822D02*
X74351Y33820D01*
X74396Y33811D01*
X74437Y33803D01*
X74476Y33792D01*
X74512Y33781D01*
X74545Y33767D01*
X74576Y33753D01*
X74603Y33739D01*
X74625Y33725D01*
X74645Y33714D01*
X74662Y33703D01*
X74675Y33695D01*
X74684Y33687D01*
X74689Y33684D01*
X74692Y33681D01*
X74720Y33653D01*
X74745Y33623D01*
X74770Y33590D01*
X74789Y33557D01*
X74822Y33490D01*
X74844Y33424D01*
X74853Y33393D01*
X74861Y33363D01*
X74866Y33338D01*
X74872Y33316D01*
X74875Y33296D01*
Y33282D01*
X74878Y33274D01*
Y33271D01*
X74637Y33246D01*
X74631Y33310D01*
X74620Y33365D01*
X74603Y33415D01*
X74584Y33454D01*
X74567Y33487D01*
X74551Y33509D01*
X74540Y33523D01*
X74534Y33529D01*
X74493Y33562D01*
X74448Y33587D01*
X74401Y33606D01*
X74360Y33617D01*
X74321Y33626D01*
X74288Y33628D01*
X74277Y33631D01*
X74260D01*
X74202Y33628D01*
X74149Y33617D01*
X74105Y33601D01*
X74066Y33584D01*
X74036Y33565D01*
X74016Y33551D01*
X74002Y33540D01*
X73997Y33534D01*
X73963Y33496D01*
X73939Y33457D01*
X73919Y33418D01*
X73908Y33379D01*
X73900Y33349D01*
X73897Y33321D01*
X73894Y33304D01*
Y33302D01*
Y33299D01*
X73900Y33249D01*
X73911Y33196D01*
X73930Y33149D01*
X73950Y33105D01*
X73972Y33069D01*
X73991Y33038D01*
X73997Y33027D01*
X74002Y33019D01*
X74008Y33016D01*
Y33013D01*
X74030Y32983D01*
X74058Y32953D01*
X74088Y32919D01*
X74121Y32886D01*
X74191Y32820D01*
X74260Y32753D01*
X74296Y32723D01*
X74326Y32695D01*
X74357Y32670D01*
X74382Y32648D01*
X74401Y32631D01*
X74418Y32617D01*
X74429Y32609D01*
X74432Y32606D01*
X74501Y32548D01*
X74565Y32493D01*
X74617Y32443D01*
X74659Y32401D01*
X74695Y32365D01*
X74720Y32340D01*
X74734Y32324D01*
X74739Y32321D01*
Y32318D01*
X74778Y32271D01*
X74808Y32227D01*
X74836Y32182D01*
X74858Y32144D01*
X74875Y32111D01*
X74886Y32086D01*
X74892Y32069D01*
X74894Y32066D01*
Y32063D01*
X74905Y32033D01*
X74911Y32005D01*
X74916Y31978D01*
X74919Y31953D01*
X74922Y31931D01*
Y31914D01*
Y31903D01*
Y31900D01*
X73650D01*
Y32127D01*
X74595D01*
X74562Y32174D01*
X74545Y32194D01*
X74531Y32213D01*
X74518Y32230D01*
X74506Y32241D01*
X74498Y32249D01*
X74495Y32252D01*
X74481Y32266D01*
X74465Y32280D01*
X74426Y32315D01*
X74382Y32357D01*
X74335Y32399D01*
X74290Y32435D01*
X74271Y32451D01*
X74254Y32468D01*
X74240Y32479D01*
X74229Y32487D01*
X74224Y32493D01*
X74221Y32495D01*
X74177Y32534D01*
X74133Y32570D01*
X74094Y32606D01*
X74058Y32637D01*
X74024Y32667D01*
X73997Y32695D01*
X73969Y32720D01*
X73947Y32742D01*
X73925Y32764D01*
X73908Y32781D01*
X73894Y32795D01*
X73880Y32809D01*
X73867Y32825D01*
X73861Y32831D01*
X73822Y32878D01*
X73789Y32919D01*
X73761Y32961D01*
X73739Y32994D01*
X73722Y33025D01*
X73712Y33047D01*
X73706Y33061D01*
X73703Y33066D01*
X73686Y33108D01*
X73675Y33149D01*
X73664Y33188D01*
X73659Y33221D01*
X73656Y33252D01*
X73653Y33274D01*
Y33288D01*
Y33293D01*
X73656Y33335D01*
X73662Y33374D01*
X73667Y33412D01*
X73678Y33446D01*
X73706Y33512D01*
X73734Y33565D01*
X73750Y33590D01*
X73764Y33609D01*
X73778Y33628D01*
X73792Y33642D01*
X73803Y33653D01*
X73808Y33665D01*
X73814Y33667D01*
X73817Y33670D01*
X73847Y33698D01*
X73880Y33723D01*
X73916Y33742D01*
X73952Y33759D01*
X74024Y33786D01*
X74097Y33806D01*
X74127Y33811D01*
X74157Y33817D01*
X74185Y33820D01*
X74207Y33822D01*
X74227Y33825D01*
X74254D01*
X74304Y33822D01*
D02*
G37*
G36*
X75988Y33845D02*
X76077Y33831D01*
X76155Y33814D01*
X76191Y33803D01*
X76224Y33792D01*
X76254Y33781D01*
X76282Y33770D01*
X76304Y33761D01*
X76326Y33753D01*
X76340Y33745D01*
X76351Y33739D01*
X76360Y33737D01*
X76362Y33734D01*
X76437Y33687D01*
X76501Y33631D01*
X76556Y33576D01*
X76603Y33520D01*
X76639Y33471D01*
X76653Y33448D01*
X76664Y33429D01*
X76675Y33415D01*
X76681Y33404D01*
X76684Y33396D01*
X76686Y33393D01*
X76725Y33307D01*
X76753Y33219D01*
X76772Y33130D01*
X76786Y33049D01*
X76792Y33013D01*
X76794Y32978D01*
X76797Y32950D01*
Y32922D01*
X76800Y32903D01*
Y32886D01*
Y32875D01*
Y32872D01*
X76794Y32773D01*
X76783Y32676D01*
X76770Y32590D01*
X76758Y32548D01*
X76750Y32512D01*
X76742Y32479D01*
X76731Y32449D01*
X76722Y32421D01*
X76717Y32399D01*
X76709Y32382D01*
X76706Y32368D01*
X76700Y32360D01*
Y32357D01*
X76659Y32274D01*
X76612Y32199D01*
X76562Y32135D01*
X76537Y32111D01*
X76515Y32086D01*
X76493Y32063D01*
X76470Y32044D01*
X76451Y32027D01*
X76434Y32016D01*
X76423Y32005D01*
X76412Y31997D01*
X76407Y31994D01*
X76404Y31991D01*
X76365Y31969D01*
X76326Y31950D01*
X76243Y31919D01*
X76160Y31897D01*
X76080Y31883D01*
X76041Y31878D01*
X76008Y31872D01*
X75977Y31870D01*
X75952D01*
X75930Y31867D01*
X75900D01*
X75844Y31870D01*
X75792Y31875D01*
X75742Y31881D01*
X75695Y31892D01*
X75651Y31905D01*
X75609Y31919D01*
X75570Y31933D01*
X75534Y31950D01*
X75504Y31964D01*
X75473Y31978D01*
X75451Y31991D01*
X75429Y32005D01*
X75415Y32016D01*
X75401Y32022D01*
X75396Y32027D01*
X75393Y32030D01*
X75354Y32063D01*
X75321Y32097D01*
X75290Y32135D01*
X75260Y32174D01*
X75210Y32252D01*
X75171Y32329D01*
X75155Y32365D01*
X75141Y32399D01*
X75130Y32429D01*
X75121Y32454D01*
X75113Y32476D01*
X75108Y32493D01*
X75105Y32504D01*
Y32507D01*
X75360Y32570D01*
X75371Y32526D01*
X75384Y32484D01*
X75398Y32446D01*
X75412Y32410D01*
X75429Y32376D01*
X75445Y32349D01*
X75465Y32321D01*
X75481Y32296D01*
X75495Y32274D01*
X75512Y32257D01*
X75526Y32241D01*
X75537Y32227D01*
X75548Y32219D01*
X75556Y32210D01*
X75559Y32208D01*
X75562Y32205D01*
X75590Y32182D01*
X75620Y32166D01*
X75681Y32135D01*
X75739Y32113D01*
X75797Y32099D01*
X75847Y32088D01*
X75867Y32086D01*
X75886D01*
X75902Y32083D01*
X75922D01*
X75986Y32086D01*
X76047Y32097D01*
X76102Y32111D01*
X76152Y32127D01*
X76191Y32144D01*
X76207Y32152D01*
X76221Y32158D01*
X76232Y32163D01*
X76240Y32169D01*
X76246Y32171D01*
X76249D01*
X76301Y32210D01*
X76346Y32252D01*
X76385Y32299D01*
X76415Y32343D01*
X76440Y32382D01*
X76456Y32415D01*
X76462Y32429D01*
X76468Y32437D01*
X76470Y32443D01*
Y32446D01*
X76493Y32518D01*
X76509Y32590D01*
X76523Y32662D01*
X76531Y32728D01*
X76534Y32759D01*
X76537Y32786D01*
Y32811D01*
X76540Y32831D01*
Y32847D01*
Y32861D01*
Y32869D01*
Y32872D01*
X76537Y32944D01*
X76531Y33011D01*
X76520Y33072D01*
X76509Y33127D01*
X76501Y33174D01*
X76495Y33194D01*
X76490Y33210D01*
X76487Y33224D01*
X76484Y33232D01*
X76481Y33238D01*
Y33241D01*
X76454Y33304D01*
X76423Y33363D01*
X76390Y33410D01*
X76354Y33451D01*
X76324Y33484D01*
X76299Y33507D01*
X76279Y33520D01*
X76276Y33526D01*
X76274D01*
X76215Y33562D01*
X76152Y33590D01*
X76091Y33609D01*
X76033Y33620D01*
X75980Y33628D01*
X75958Y33631D01*
X75938D01*
X75925Y33634D01*
X75902D01*
X75833Y33631D01*
X75770Y33620D01*
X75717Y33604D01*
X75670Y33587D01*
X75634Y33568D01*
X75606Y33554D01*
X75590Y33543D01*
X75584Y33537D01*
X75540Y33496D01*
X75498Y33448D01*
X75465Y33399D01*
X75437Y33349D01*
X75415Y33304D01*
X75407Y33282D01*
X75401Y33266D01*
X75396Y33252D01*
X75390Y33241D01*
X75387Y33235D01*
Y33232D01*
X75138Y33290D01*
X75155Y33340D01*
X75171Y33385D01*
X75193Y33426D01*
X75213Y33468D01*
X75235Y33504D01*
X75260Y33537D01*
X75282Y33570D01*
X75304Y33598D01*
X75326Y33620D01*
X75346Y33642D01*
X75365Y33662D01*
X75379Y33676D01*
X75393Y33689D01*
X75404Y33698D01*
X75410Y33700D01*
X75412Y33703D01*
X75451Y33728D01*
X75490Y33753D01*
X75529Y33773D01*
X75570Y33789D01*
X75653Y33814D01*
X75728Y33831D01*
X75764Y33839D01*
X75795Y33842D01*
X75825Y33845D01*
X75850Y33847D01*
X75869Y33850D01*
X75897D01*
X75988Y33845D01*
D02*
G37*
G36*
X17300Y6345D02*
X16450D01*
Y6052D01*
Y6018D01*
X16452Y5988D01*
Y5966D01*
X16455Y5946D01*
X16458Y5932D01*
Y5921D01*
X16461Y5916D01*
Y5913D01*
X16475Y5869D01*
X16483Y5849D01*
X16491Y5833D01*
X16499Y5816D01*
X16505Y5805D01*
X16508Y5799D01*
X16511Y5797D01*
X16527Y5774D01*
X16547Y5752D01*
X16588Y5711D01*
X16608Y5691D01*
X16624Y5678D01*
X16635Y5669D01*
X16638Y5666D01*
X16677Y5639D01*
X16718Y5608D01*
X16763Y5578D01*
X16804Y5547D01*
X16843Y5522D01*
X16873Y5503D01*
X16884Y5495D01*
X16893Y5489D01*
X16898Y5484D01*
X16901D01*
X17300Y5232D01*
Y4916D01*
X16779Y5246D01*
X16724Y5284D01*
X16674Y5320D01*
X16632Y5356D01*
X16594Y5387D01*
X16566Y5414D01*
X16544Y5437D01*
X16530Y5451D01*
X16524Y5456D01*
X16508Y5478D01*
X16488Y5503D01*
X16458Y5553D01*
X16447Y5575D01*
X16436Y5592D01*
X16430Y5603D01*
X16427Y5608D01*
X16419Y5559D01*
X16411Y5511D01*
X16397Y5470D01*
X16386Y5428D01*
X16372Y5392D01*
X16355Y5359D01*
X16342Y5329D01*
X16328Y5301D01*
X16311Y5279D01*
X16297Y5257D01*
X16286Y5240D01*
X16275Y5226D01*
X16267Y5215D01*
X16259Y5207D01*
X16256Y5204D01*
X16253Y5201D01*
X16225Y5179D01*
X16197Y5157D01*
X16139Y5124D01*
X16081Y5101D01*
X16026Y5085D01*
X15979Y5074D01*
X15959Y5071D01*
X15940D01*
X15926Y5068D01*
X15907D01*
X15848Y5071D01*
X15796Y5079D01*
X15746Y5093D01*
X15705Y5107D01*
X15668Y5124D01*
X15641Y5135D01*
X15624Y5146D01*
X15621Y5148D01*
X15619D01*
X15574Y5182D01*
X15536Y5215D01*
X15502Y5251D01*
X15477Y5284D01*
X15458Y5315D01*
X15447Y5340D01*
X15439Y5356D01*
X15436Y5359D01*
Y5362D01*
X15428Y5387D01*
X15419Y5417D01*
X15405Y5478D01*
X15397Y5545D01*
X15389Y5606D01*
X15386Y5664D01*
Y5689D01*
X15383Y5711D01*
Y5728D01*
Y5741D01*
Y5750D01*
Y5752D01*
Y6600D01*
X17300D01*
Y6345D01*
D02*
G37*
G36*
X16494Y4775D02*
X16577Y4769D01*
X16655Y4761D01*
X16727Y4747D01*
X16790Y4733D01*
X16849Y4719D01*
X16901Y4703D01*
X16948Y4683D01*
X16987Y4667D01*
X17023Y4650D01*
X17051Y4636D01*
X17076Y4619D01*
X17095Y4608D01*
X17106Y4600D01*
X17114Y4594D01*
X17117Y4592D01*
X17156Y4556D01*
X17189Y4517D01*
X17217Y4478D01*
X17242Y4439D01*
X17264Y4398D01*
X17281Y4359D01*
X17294Y4320D01*
X17305Y4281D01*
X17314Y4248D01*
X17322Y4215D01*
X17328Y4187D01*
X17331Y4162D01*
Y4140D01*
X17333Y4126D01*
Y4115D01*
Y4112D01*
X17331Y4049D01*
X17319Y3991D01*
X17308Y3938D01*
X17292Y3891D01*
X17278Y3855D01*
X17264Y3827D01*
X17261Y3816D01*
X17256Y3808D01*
X17253Y3805D01*
Y3802D01*
X17220Y3755D01*
X17181Y3711D01*
X17142Y3675D01*
X17103Y3644D01*
X17067Y3619D01*
X17040Y3603D01*
X17029Y3597D01*
X17020Y3592D01*
X17018Y3589D01*
X17015D01*
X16957Y3561D01*
X16896Y3542D01*
X16840Y3528D01*
X16788Y3520D01*
X16743Y3511D01*
X16727D01*
X16710Y3509D01*
X16680D01*
X16630Y3511D01*
X16583Y3517D01*
X16535Y3525D01*
X16494Y3534D01*
X16455Y3548D01*
X16416Y3561D01*
X16383Y3575D01*
X16353Y3592D01*
X16325Y3608D01*
X16300Y3622D01*
X16281Y3636D01*
X16261Y3650D01*
X16247Y3658D01*
X16239Y3667D01*
X16233Y3672D01*
X16231Y3675D01*
X16200Y3705D01*
X16173Y3739D01*
X16150Y3775D01*
X16131Y3808D01*
X16112Y3841D01*
X16098Y3874D01*
X16078Y3938D01*
X16070Y3966D01*
X16065Y3993D01*
X16062Y4016D01*
X16059Y4038D01*
X16056Y4054D01*
Y4065D01*
Y4074D01*
Y4076D01*
X16059Y4126D01*
X16067Y4174D01*
X16076Y4218D01*
X16087Y4257D01*
X16101Y4290D01*
X16109Y4315D01*
X16117Y4331D01*
X16120Y4334D01*
Y4337D01*
X16148Y4381D01*
X16178Y4420D01*
X16209Y4456D01*
X16242Y4484D01*
X16270Y4509D01*
X16292Y4528D01*
X16308Y4539D01*
X16311Y4542D01*
X16261D01*
X16211Y4539D01*
X16167Y4536D01*
X16123Y4531D01*
X16084Y4528D01*
X16048Y4522D01*
X16015Y4517D01*
X15984Y4509D01*
X15957Y4503D01*
X15934Y4498D01*
X15915Y4492D01*
X15898Y4489D01*
X15887Y4484D01*
X15879Y4481D01*
X15873Y4478D01*
X15871D01*
X15815Y4451D01*
X15765Y4423D01*
X15727Y4392D01*
X15693Y4365D01*
X15666Y4340D01*
X15646Y4320D01*
X15635Y4306D01*
X15632Y4301D01*
X15610Y4268D01*
X15596Y4234D01*
X15585Y4201D01*
X15577Y4168D01*
X15572Y4143D01*
X15569Y4121D01*
Y4107D01*
Y4101D01*
X15574Y4052D01*
X15585Y4005D01*
X15602Y3966D01*
X15619Y3930D01*
X15638Y3902D01*
X15655Y3883D01*
X15666Y3872D01*
X15671Y3866D01*
X15696Y3847D01*
X15727Y3827D01*
X15760Y3811D01*
X15793Y3799D01*
X15824Y3788D01*
X15848Y3780D01*
X15865Y3777D01*
X15868Y3775D01*
X15871D01*
X15851Y3539D01*
X15774Y3556D01*
X15705Y3581D01*
X15643Y3608D01*
X15594Y3639D01*
X15555Y3669D01*
X15538Y3680D01*
X15524Y3694D01*
X15516Y3703D01*
X15508Y3711D01*
X15505Y3714D01*
X15502Y3716D01*
X15480Y3744D01*
X15461Y3775D01*
X15428Y3836D01*
X15405Y3897D01*
X15392Y3955D01*
X15380Y4007D01*
X15378Y4029D01*
Y4049D01*
X15375Y4065D01*
Y4076D01*
Y4085D01*
Y4088D01*
X15378Y4143D01*
X15383Y4196D01*
X15394Y4245D01*
X15408Y4293D01*
X15428Y4334D01*
X15444Y4376D01*
X15466Y4412D01*
X15486Y4445D01*
X15505Y4473D01*
X15527Y4500D01*
X15544Y4522D01*
X15560Y4539D01*
X15577Y4553D01*
X15588Y4564D01*
X15594Y4570D01*
X15596Y4572D01*
X15646Y4608D01*
X15705Y4639D01*
X15765Y4667D01*
X15829Y4691D01*
X15896Y4711D01*
X15962Y4727D01*
X16031Y4741D01*
X16095Y4752D01*
X16159Y4761D01*
X16217Y4766D01*
X16270Y4772D01*
X16314Y4775D01*
X16353D01*
X16380Y4777D01*
X16405D01*
X16494Y4775D01*
D02*
G37*
G36*
X14511Y37522D02*
X14558Y37520D01*
X14603Y37511D01*
X14644Y37503D01*
X14683Y37492D01*
X14719Y37481D01*
X14752Y37467D01*
X14783Y37453D01*
X14810Y37439D01*
X14832Y37425D01*
X14852Y37414D01*
X14868Y37403D01*
X14882Y37395D01*
X14891Y37387D01*
X14896Y37384D01*
X14899Y37381D01*
X14927Y37353D01*
X14952Y37323D01*
X14976Y37290D01*
X14996Y37257D01*
X15029Y37190D01*
X15051Y37124D01*
X15060Y37093D01*
X15068Y37063D01*
X15073Y37038D01*
X15079Y37016D01*
X15082Y36996D01*
Y36982D01*
X15085Y36974D01*
Y36971D01*
X14843Y36946D01*
X14838Y37010D01*
X14827Y37065D01*
X14810Y37115D01*
X14791Y37154D01*
X14774Y37187D01*
X14758Y37209D01*
X14747Y37223D01*
X14741Y37229D01*
X14699Y37262D01*
X14655Y37287D01*
X14608Y37306D01*
X14567Y37317D01*
X14528Y37326D01*
X14494Y37328D01*
X14483Y37331D01*
X14467D01*
X14409Y37328D01*
X14356Y37317D01*
X14312Y37301D01*
X14273Y37284D01*
X14242Y37265D01*
X14223Y37251D01*
X14209Y37240D01*
X14204Y37234D01*
X14170Y37196D01*
X14145Y37157D01*
X14126Y37118D01*
X14115Y37079D01*
X14107Y37049D01*
X14104Y37021D01*
X14101Y37004D01*
Y37002D01*
Y36999D01*
X14107Y36949D01*
X14118Y36896D01*
X14137Y36849D01*
X14157Y36805D01*
X14179Y36769D01*
X14198Y36738D01*
X14204Y36727D01*
X14209Y36719D01*
X14215Y36716D01*
Y36713D01*
X14237Y36683D01*
X14265Y36653D01*
X14295Y36619D01*
X14328Y36586D01*
X14398Y36520D01*
X14467Y36453D01*
X14503Y36423D01*
X14533Y36395D01*
X14564Y36370D01*
X14589Y36348D01*
X14608Y36331D01*
X14625Y36317D01*
X14636Y36309D01*
X14639Y36306D01*
X14708Y36248D01*
X14772Y36193D01*
X14824Y36143D01*
X14866Y36101D01*
X14902Y36065D01*
X14927Y36040D01*
X14941Y36024D01*
X14946Y36021D01*
Y36018D01*
X14985Y35971D01*
X15015Y35927D01*
X15043Y35882D01*
X15065Y35844D01*
X15082Y35811D01*
X15093Y35786D01*
X15098Y35769D01*
X15101Y35766D01*
Y35763D01*
X15112Y35733D01*
X15118Y35705D01*
X15123Y35678D01*
X15126Y35653D01*
X15129Y35631D01*
Y35614D01*
Y35603D01*
Y35600D01*
X13857D01*
Y35827D01*
X14802D01*
X14769Y35874D01*
X14752Y35894D01*
X14738Y35913D01*
X14724Y35930D01*
X14713Y35941D01*
X14705Y35949D01*
X14702Y35952D01*
X14688Y35966D01*
X14672Y35980D01*
X14633Y36015D01*
X14589Y36057D01*
X14542Y36099D01*
X14497Y36135D01*
X14478Y36151D01*
X14461Y36168D01*
X14447Y36179D01*
X14436Y36187D01*
X14431Y36193D01*
X14428Y36195D01*
X14384Y36234D01*
X14339Y36270D01*
X14301Y36306D01*
X14265Y36337D01*
X14231Y36367D01*
X14204Y36395D01*
X14176Y36420D01*
X14154Y36442D01*
X14132Y36464D01*
X14115Y36481D01*
X14101Y36495D01*
X14087Y36509D01*
X14074Y36525D01*
X14068Y36531D01*
X14029Y36578D01*
X13996Y36619D01*
X13968Y36661D01*
X13946Y36694D01*
X13929Y36725D01*
X13918Y36747D01*
X13913Y36761D01*
X13910Y36766D01*
X13893Y36808D01*
X13882Y36849D01*
X13871Y36888D01*
X13866Y36921D01*
X13863Y36952D01*
X13860Y36974D01*
Y36988D01*
Y36993D01*
X13863Y37035D01*
X13869Y37074D01*
X13874Y37112D01*
X13885Y37146D01*
X13913Y37212D01*
X13940Y37265D01*
X13957Y37290D01*
X13971Y37309D01*
X13985Y37328D01*
X13999Y37342D01*
X14010Y37353D01*
X14015Y37365D01*
X14021Y37367D01*
X14024Y37370D01*
X14054Y37398D01*
X14087Y37423D01*
X14123Y37442D01*
X14159Y37459D01*
X14231Y37486D01*
X14303Y37506D01*
X14334Y37511D01*
X14364Y37517D01*
X14392Y37520D01*
X14414Y37522D01*
X14434Y37525D01*
X14461D01*
X14511Y37522D01*
D02*
G37*
G36*
X58237Y22780D02*
X58279Y22772D01*
X58356Y22747D01*
X58423Y22717D01*
X58451Y22700D01*
X58478Y22683D01*
X58503Y22667D01*
X58523Y22650D01*
X58542Y22636D01*
X58556Y22623D01*
X58567Y22614D01*
X58575Y22606D01*
X58581Y22600D01*
X58584Y22598D01*
X58609Y22564D01*
X58634Y22531D01*
X58653Y22498D01*
X58670Y22462D01*
X58697Y22393D01*
X58714Y22326D01*
X58719Y22296D01*
X58725Y22268D01*
X58728Y22243D01*
X58731Y22221D01*
X58733Y22204D01*
Y22190D01*
Y22182D01*
Y22179D01*
X58731Y22127D01*
X58725Y22080D01*
X58717Y22032D01*
X58706Y21988D01*
X58692Y21947D01*
X58678Y21911D01*
X58661Y21875D01*
X58645Y21844D01*
X58631Y21814D01*
X58614Y21789D01*
X58600Y21767D01*
X58586Y21750D01*
X58575Y21736D01*
X58567Y21725D01*
X58561Y21720D01*
X58559Y21717D01*
X58526Y21684D01*
X58490Y21656D01*
X58454Y21631D01*
X58417Y21609D01*
X58384Y21592D01*
X58348Y21575D01*
X58282Y21553D01*
X58251Y21548D01*
X58224Y21542D01*
X58199Y21537D01*
X58176Y21534D01*
X58160Y21531D01*
X58135D01*
X58068Y21534D01*
X58008Y21545D01*
X57955Y21562D01*
X57911Y21578D01*
X57875Y21595D01*
X57847Y21611D01*
X57830Y21622D01*
X57825Y21625D01*
X57783Y21664D01*
X57747Y21706D01*
X57719Y21750D01*
X57697Y21794D01*
X57681Y21833D01*
X57670Y21863D01*
X57667Y21875D01*
X57664Y21883D01*
X57661Y21889D01*
Y21891D01*
X57636Y21844D01*
X57611Y21805D01*
X57584Y21772D01*
X57559Y21744D01*
X57537Y21722D01*
X57517Y21706D01*
X57506Y21697D01*
X57501Y21695D01*
X57462Y21672D01*
X57423Y21656D01*
X57384Y21642D01*
X57348Y21634D01*
X57318Y21628D01*
X57296Y21625D01*
X57274D01*
X57226Y21628D01*
X57179Y21636D01*
X57138Y21647D01*
X57102Y21661D01*
X57071Y21675D01*
X57046Y21686D01*
X57033Y21695D01*
X57027Y21697D01*
X56985Y21725D01*
X56949Y21758D01*
X56919Y21791D01*
X56891Y21825D01*
X56872Y21852D01*
X56855Y21877D01*
X56847Y21894D01*
X56844Y21897D01*
Y21900D01*
X56822Y21949D01*
X56805Y21999D01*
X56792Y22049D01*
X56783Y22093D01*
X56778Y22129D01*
X56775Y22160D01*
Y22171D01*
Y22179D01*
Y22185D01*
Y22188D01*
Y22229D01*
X56780Y22268D01*
X56794Y22343D01*
X56816Y22406D01*
X56839Y22462D01*
X56852Y22487D01*
X56863Y22506D01*
X56875Y22526D01*
X56886Y22539D01*
X56894Y22550D01*
X56899Y22559D01*
X56902Y22564D01*
X56905Y22567D01*
X56958Y22620D01*
X57016Y22661D01*
X57077Y22694D01*
X57138Y22722D01*
X57190Y22739D01*
X57213Y22747D01*
X57232Y22753D01*
X57249Y22756D01*
X57260Y22758D01*
X57268Y22761D01*
X57271D01*
X57312Y22526D01*
X57251Y22514D01*
X57199Y22498D01*
X57154Y22479D01*
X57118Y22459D01*
X57091Y22440D01*
X57071Y22423D01*
X57057Y22412D01*
X57055Y22409D01*
X57027Y22373D01*
X57005Y22334D01*
X56991Y22298D01*
X56980Y22262D01*
X56974Y22229D01*
X56969Y22204D01*
Y22188D01*
Y22185D01*
Y22182D01*
X56972Y22132D01*
X56983Y22088D01*
X56997Y22049D01*
X57010Y22016D01*
X57027Y21991D01*
X57041Y21971D01*
X57052Y21958D01*
X57055Y21955D01*
X57088Y21925D01*
X57124Y21902D01*
X57160Y21889D01*
X57193Y21877D01*
X57224Y21872D01*
X57246Y21866D01*
X57298D01*
X57326Y21872D01*
X57373Y21886D01*
X57415Y21905D01*
X57451Y21927D01*
X57476Y21949D01*
X57495Y21969D01*
X57506Y21983D01*
X57509Y21985D01*
Y21988D01*
X57534Y22035D01*
X57553Y22080D01*
X57567Y22127D01*
X57575Y22168D01*
X57581Y22204D01*
X57586Y22235D01*
Y22246D01*
Y22254D01*
Y22257D01*
Y22260D01*
Y22271D01*
X57584Y22282D01*
Y22293D01*
Y22296D01*
X57791Y22323D01*
X57783Y22287D01*
X57778Y22254D01*
X57772Y22226D01*
X57769Y22201D01*
X57766Y22182D01*
Y22168D01*
Y22160D01*
Y22157D01*
X57772Y22099D01*
X57783Y22046D01*
X57800Y21999D01*
X57819Y21960D01*
X57838Y21930D01*
X57855Y21908D01*
X57866Y21894D01*
X57872Y21889D01*
X57913Y21852D01*
X57958Y21825D01*
X58002Y21805D01*
X58046Y21794D01*
X58082Y21786D01*
X58113Y21783D01*
X58124Y21780D01*
X58140D01*
X58201Y21786D01*
X58257Y21800D01*
X58304Y21816D01*
X58345Y21839D01*
X58379Y21861D01*
X58404Y21877D01*
X58420Y21891D01*
X58426Y21897D01*
X58464Y21941D01*
X58492Y21988D01*
X58512Y22035D01*
X58526Y22080D01*
X58534Y22118D01*
X58537Y22149D01*
X58539Y22160D01*
Y22168D01*
Y22174D01*
Y22176D01*
X58537Y22226D01*
X58526Y22274D01*
X58512Y22315D01*
X58495Y22348D01*
X58481Y22376D01*
X58467Y22398D01*
X58456Y22409D01*
X58454Y22415D01*
X58415Y22448D01*
X58370Y22476D01*
X58323Y22501D01*
X58273Y22520D01*
X58232Y22534D01*
X58213Y22539D01*
X58196Y22542D01*
X58182Y22545D01*
X58171Y22548D01*
X58165Y22550D01*
X58163D01*
X58193Y22786D01*
X58237Y22780D01*
D02*
G37*
G36*
X57467Y21077D02*
X57448Y21035D01*
X57429Y20994D01*
X57409Y20955D01*
X57393Y20922D01*
X57379Y20894D01*
X57368Y20877D01*
X57365Y20875D01*
Y20872D01*
X57334Y20822D01*
X57304Y20778D01*
X57276Y20739D01*
X57251Y20708D01*
X57232Y20681D01*
X57215Y20664D01*
X57204Y20650D01*
X57201Y20648D01*
X58700D01*
Y20412D01*
X56775D01*
Y20564D01*
X56822Y20592D01*
X56866Y20623D01*
X56911Y20659D01*
X56949Y20692D01*
X56983Y20725D01*
X57010Y20750D01*
X57019Y20761D01*
X57027Y20769D01*
X57030Y20772D01*
X57033Y20775D01*
X57079Y20833D01*
X57124Y20891D01*
X57163Y20947D01*
X57193Y21002D01*
X57221Y21049D01*
X57232Y21068D01*
X57240Y21085D01*
X57249Y21099D01*
X57251Y21110D01*
X57257Y21116D01*
Y21118D01*
X57484D01*
X57467Y21077D01*
D02*
G37*
G36*
X16500Y35600D02*
X15301D01*
Y35827D01*
X16245D01*
Y37517D01*
X16500D01*
Y35600D01*
D02*
G37*
G36*
X57827Y24694D02*
X57924Y24683D01*
X58010Y24669D01*
X58052Y24658D01*
X58088Y24650D01*
X58121Y24642D01*
X58152Y24631D01*
X58179Y24622D01*
X58201Y24617D01*
X58218Y24609D01*
X58232Y24606D01*
X58240Y24600D01*
X58243D01*
X58326Y24559D01*
X58401Y24512D01*
X58464Y24462D01*
X58490Y24437D01*
X58514Y24415D01*
X58537Y24393D01*
X58556Y24370D01*
X58573Y24351D01*
X58584Y24334D01*
X58595Y24323D01*
X58603Y24312D01*
X58606Y24307D01*
X58609Y24304D01*
X58631Y24265D01*
X58650Y24226D01*
X58681Y24143D01*
X58703Y24060D01*
X58717Y23980D01*
X58722Y23941D01*
X58728Y23908D01*
X58731Y23877D01*
Y23852D01*
X58733Y23830D01*
Y23814D01*
Y23802D01*
Y23800D01*
X58731Y23744D01*
X58725Y23692D01*
X58719Y23642D01*
X58708Y23595D01*
X58694Y23550D01*
X58681Y23509D01*
X58667Y23470D01*
X58650Y23434D01*
X58636Y23404D01*
X58622Y23373D01*
X58609Y23351D01*
X58595Y23329D01*
X58584Y23315D01*
X58578Y23301D01*
X58573Y23296D01*
X58570Y23293D01*
X58537Y23254D01*
X58503Y23221D01*
X58464Y23190D01*
X58426Y23160D01*
X58348Y23110D01*
X58271Y23071D01*
X58235Y23055D01*
X58201Y23041D01*
X58171Y23030D01*
X58146Y23021D01*
X58124Y23013D01*
X58107Y23008D01*
X58096Y23005D01*
X58093D01*
X58030Y23260D01*
X58074Y23271D01*
X58116Y23284D01*
X58154Y23298D01*
X58190Y23312D01*
X58224Y23329D01*
X58251Y23346D01*
X58279Y23365D01*
X58304Y23381D01*
X58326Y23395D01*
X58343Y23412D01*
X58359Y23426D01*
X58373Y23437D01*
X58381Y23448D01*
X58390Y23456D01*
X58393Y23459D01*
X58395Y23462D01*
X58417Y23490D01*
X58434Y23520D01*
X58464Y23581D01*
X58487Y23639D01*
X58501Y23697D01*
X58512Y23747D01*
X58514Y23766D01*
Y23786D01*
X58517Y23802D01*
Y23814D01*
Y23819D01*
Y23822D01*
X58514Y23886D01*
X58503Y23947D01*
X58490Y24002D01*
X58473Y24052D01*
X58456Y24091D01*
X58448Y24107D01*
X58442Y24121D01*
X58437Y24132D01*
X58431Y24140D01*
X58429Y24146D01*
Y24149D01*
X58390Y24201D01*
X58348Y24246D01*
X58301Y24284D01*
X58257Y24315D01*
X58218Y24340D01*
X58185Y24356D01*
X58171Y24362D01*
X58163Y24368D01*
X58157Y24370D01*
X58154D01*
X58082Y24393D01*
X58010Y24409D01*
X57938Y24423D01*
X57872Y24431D01*
X57841Y24434D01*
X57814Y24437D01*
X57789D01*
X57769Y24440D01*
X57728D01*
X57656Y24437D01*
X57589Y24431D01*
X57528Y24420D01*
X57473Y24409D01*
X57426Y24401D01*
X57406Y24395D01*
X57390Y24390D01*
X57376Y24387D01*
X57368Y24384D01*
X57362Y24382D01*
X57359D01*
X57296Y24354D01*
X57237Y24323D01*
X57190Y24290D01*
X57149Y24254D01*
X57116Y24224D01*
X57093Y24199D01*
X57079Y24179D01*
X57074Y24177D01*
Y24174D01*
X57038Y24115D01*
X57010Y24052D01*
X56991Y23991D01*
X56980Y23933D01*
X56972Y23880D01*
X56969Y23858D01*
Y23839D01*
X56966Y23825D01*
Y23814D01*
Y23805D01*
Y23802D01*
X56969Y23733D01*
X56980Y23670D01*
X56997Y23617D01*
X57013Y23570D01*
X57033Y23534D01*
X57046Y23506D01*
X57057Y23490D01*
X57063Y23484D01*
X57104Y23440D01*
X57152Y23398D01*
X57201Y23365D01*
X57251Y23337D01*
X57296Y23315D01*
X57318Y23307D01*
X57334Y23301D01*
X57348Y23296D01*
X57359Y23290D01*
X57365Y23287D01*
X57368D01*
X57310Y23038D01*
X57260Y23055D01*
X57215Y23071D01*
X57174Y23093D01*
X57132Y23113D01*
X57096Y23135D01*
X57063Y23160D01*
X57030Y23182D01*
X57002Y23204D01*
X56980Y23226D01*
X56958Y23246D01*
X56938Y23265D01*
X56924Y23279D01*
X56911Y23293D01*
X56902Y23304D01*
X56899Y23310D01*
X56897Y23312D01*
X56872Y23351D01*
X56847Y23390D01*
X56827Y23429D01*
X56811Y23470D01*
X56786Y23553D01*
X56769Y23628D01*
X56761Y23664D01*
X56758Y23695D01*
X56756Y23725D01*
X56753Y23750D01*
X56750Y23769D01*
Y23783D01*
Y23794D01*
Y23797D01*
X56756Y23888D01*
X56769Y23977D01*
X56786Y24055D01*
X56797Y24091D01*
X56808Y24124D01*
X56819Y24154D01*
X56830Y24182D01*
X56839Y24204D01*
X56847Y24226D01*
X56855Y24240D01*
X56861Y24251D01*
X56863Y24260D01*
X56866Y24262D01*
X56913Y24337D01*
X56969Y24401D01*
X57024Y24456D01*
X57079Y24503D01*
X57129Y24539D01*
X57152Y24553D01*
X57171Y24564D01*
X57185Y24575D01*
X57196Y24581D01*
X57204Y24584D01*
X57207Y24586D01*
X57293Y24625D01*
X57381Y24653D01*
X57470Y24672D01*
X57551Y24686D01*
X57586Y24692D01*
X57622Y24694D01*
X57650Y24697D01*
X57678D01*
X57697Y24700D01*
X57728D01*
X57827Y24694D01*
D02*
G37*
G36*
X80250Y44665D02*
X79311D01*
X79377Y44584D01*
X79441Y44499D01*
X79496Y44416D01*
X79549Y44335D01*
X79571Y44299D01*
X79590Y44266D01*
X79610Y44235D01*
X79624Y44210D01*
X79635Y44188D01*
X79643Y44175D01*
X79649Y44163D01*
X79651Y44161D01*
X79707Y44050D01*
X79757Y43939D01*
X79798Y43834D01*
X79815Y43787D01*
X79831Y43740D01*
X79848Y43698D01*
X79859Y43659D01*
X79870Y43626D01*
X79878Y43598D01*
X79887Y43573D01*
X79892Y43557D01*
X79895Y43546D01*
Y43543D01*
X79923Y43429D01*
X79934Y43374D01*
X79942Y43324D01*
X79950Y43277D01*
X79959Y43230D01*
X79964Y43191D01*
X79970Y43152D01*
X79973Y43119D01*
X79975Y43089D01*
X79978Y43061D01*
Y43039D01*
X79981Y43022D01*
Y43011D01*
Y43003D01*
Y43000D01*
X79740D01*
X79732Y43105D01*
X79718Y43202D01*
X79704Y43291D01*
X79696Y43332D01*
X79687Y43371D01*
X79682Y43404D01*
X79673Y43435D01*
X79668Y43463D01*
X79662Y43485D01*
X79657Y43501D01*
X79654Y43515D01*
X79651Y43523D01*
Y43526D01*
X79610Y43654D01*
X79565Y43773D01*
X79543Y43831D01*
X79521Y43886D01*
X79496Y43936D01*
X79474Y43986D01*
X79455Y44030D01*
X79435Y44069D01*
X79419Y44102D01*
X79405Y44133D01*
X79391Y44158D01*
X79383Y44175D01*
X79377Y44186D01*
X79374Y44188D01*
X79341Y44247D01*
X79308Y44305D01*
X79275Y44357D01*
X79241Y44407D01*
X79211Y44451D01*
X79180Y44496D01*
X79150Y44535D01*
X79125Y44568D01*
X79100Y44601D01*
X79078Y44629D01*
X79056Y44651D01*
X79039Y44670D01*
X79028Y44687D01*
X79017Y44698D01*
X79011Y44704D01*
X79009Y44706D01*
Y44892D01*
X80250D01*
Y44665D01*
D02*
G37*
G36*
X63594Y21184D02*
X63677Y21179D01*
X63755Y21170D01*
X63827Y21157D01*
X63890Y21143D01*
X63949Y21129D01*
X64001Y21112D01*
X64048Y21093D01*
X64087Y21076D01*
X64123Y21060D01*
X64151Y21046D01*
X64176Y21029D01*
X64195Y21018D01*
X64206Y21010D01*
X64214Y21004D01*
X64217Y21001D01*
X64256Y20966D01*
X64289Y20927D01*
X64317Y20888D01*
X64342Y20849D01*
X64364Y20808D01*
X64381Y20769D01*
X64394Y20730D01*
X64406Y20691D01*
X64414Y20658D01*
X64422Y20625D01*
X64428Y20597D01*
X64430Y20572D01*
Y20550D01*
X64433Y20536D01*
Y20525D01*
Y20522D01*
X64430Y20459D01*
X64419Y20400D01*
X64408Y20348D01*
X64392Y20301D01*
X64378Y20265D01*
X64364Y20237D01*
X64361Y20226D01*
X64356Y20218D01*
X64353Y20215D01*
Y20212D01*
X64320Y20165D01*
X64281Y20121D01*
X64242Y20085D01*
X64203Y20054D01*
X64167Y20029D01*
X64140Y20013D01*
X64129Y20007D01*
X64120Y20001D01*
X64117Y19999D01*
X64115D01*
X64056Y19971D01*
X63996Y19952D01*
X63940Y19938D01*
X63888Y19929D01*
X63843Y19921D01*
X63827D01*
X63810Y19918D01*
X63779D01*
X63730Y19921D01*
X63683Y19927D01*
X63635Y19935D01*
X63594Y19943D01*
X63555Y19957D01*
X63516Y19971D01*
X63483Y19985D01*
X63453Y20001D01*
X63425Y20018D01*
X63400Y20032D01*
X63381Y20046D01*
X63361Y20060D01*
X63347Y20068D01*
X63339Y20076D01*
X63334Y20082D01*
X63331Y20085D01*
X63300Y20115D01*
X63273Y20148D01*
X63250Y20184D01*
X63231Y20218D01*
X63212Y20251D01*
X63198Y20284D01*
X63178Y20348D01*
X63170Y20376D01*
X63165Y20403D01*
X63162Y20425D01*
X63159Y20448D01*
X63156Y20464D01*
Y20475D01*
Y20483D01*
Y20486D01*
X63159Y20536D01*
X63167Y20583D01*
X63176Y20628D01*
X63187Y20666D01*
X63201Y20700D01*
X63209Y20725D01*
X63217Y20741D01*
X63220Y20744D01*
Y20747D01*
X63248Y20791D01*
X63278Y20830D01*
X63309Y20866D01*
X63342Y20893D01*
X63370Y20918D01*
X63392Y20938D01*
X63408Y20949D01*
X63411Y20952D01*
X63361D01*
X63311Y20949D01*
X63267Y20946D01*
X63223Y20941D01*
X63184Y20938D01*
X63148Y20932D01*
X63115Y20927D01*
X63084Y20918D01*
X63057Y20913D01*
X63034Y20907D01*
X63015Y20902D01*
X62998Y20899D01*
X62987Y20893D01*
X62979Y20891D01*
X62973Y20888D01*
X62971D01*
X62915Y20860D01*
X62865Y20832D01*
X62827Y20802D01*
X62793Y20774D01*
X62766Y20749D01*
X62746Y20730D01*
X62735Y20716D01*
X62732Y20711D01*
X62710Y20677D01*
X62696Y20644D01*
X62685Y20611D01*
X62677Y20578D01*
X62672Y20553D01*
X62669Y20531D01*
Y20517D01*
Y20511D01*
X62674Y20461D01*
X62685Y20414D01*
X62702Y20376D01*
X62719Y20339D01*
X62738Y20312D01*
X62755Y20292D01*
X62766Y20281D01*
X62771Y20276D01*
X62796Y20256D01*
X62827Y20237D01*
X62860Y20220D01*
X62893Y20209D01*
X62924Y20198D01*
X62949Y20190D01*
X62965Y20187D01*
X62968Y20184D01*
X62971D01*
X62951Y19949D01*
X62874Y19965D01*
X62805Y19990D01*
X62744Y20018D01*
X62694Y20049D01*
X62655Y20079D01*
X62638Y20090D01*
X62624Y20104D01*
X62616Y20112D01*
X62608Y20121D01*
X62605Y20123D01*
X62602Y20126D01*
X62580Y20154D01*
X62561Y20184D01*
X62528Y20245D01*
X62505Y20306D01*
X62492Y20364D01*
X62480Y20417D01*
X62478Y20439D01*
Y20459D01*
X62475Y20475D01*
Y20486D01*
Y20495D01*
Y20497D01*
X62478Y20553D01*
X62483Y20605D01*
X62494Y20655D01*
X62508Y20702D01*
X62528Y20744D01*
X62544Y20785D01*
X62566Y20821D01*
X62586Y20855D01*
X62605Y20882D01*
X62627Y20910D01*
X62644Y20932D01*
X62660Y20949D01*
X62677Y20963D01*
X62688Y20974D01*
X62694Y20979D01*
X62696Y20982D01*
X62746Y21018D01*
X62805Y21049D01*
X62865Y21076D01*
X62929Y21101D01*
X62996Y21121D01*
X63062Y21137D01*
X63131Y21151D01*
X63195Y21162D01*
X63259Y21170D01*
X63317Y21176D01*
X63370Y21181D01*
X63414Y21184D01*
X63453D01*
X63480Y21187D01*
X63505D01*
X63594Y21184D01*
D02*
G37*
G36*
X87700Y166245D02*
X86850D01*
Y165952D01*
Y165918D01*
X86852Y165888D01*
Y165866D01*
X86855Y165846D01*
X86858Y165832D01*
Y165821D01*
X86861Y165816D01*
Y165813D01*
X86875Y165769D01*
X86883Y165749D01*
X86891Y165733D01*
X86900Y165716D01*
X86905Y165705D01*
X86908Y165700D01*
X86911Y165697D01*
X86927Y165674D01*
X86947Y165652D01*
X86988Y165611D01*
X87007Y165591D01*
X87024Y165578D01*
X87035Y165569D01*
X87038Y165567D01*
X87077Y165539D01*
X87118Y165508D01*
X87163Y165478D01*
X87204Y165447D01*
X87243Y165422D01*
X87273Y165403D01*
X87284Y165395D01*
X87293Y165389D01*
X87298Y165384D01*
X87301D01*
X87700Y165132D01*
Y164816D01*
X87179Y165146D01*
X87124Y165184D01*
X87074Y165220D01*
X87032Y165256D01*
X86994Y165287D01*
X86966Y165314D01*
X86944Y165337D01*
X86930Y165350D01*
X86924Y165356D01*
X86908Y165378D01*
X86888Y165403D01*
X86858Y165453D01*
X86847Y165475D01*
X86836Y165492D01*
X86830Y165503D01*
X86827Y165508D01*
X86819Y165459D01*
X86811Y165411D01*
X86797Y165370D01*
X86786Y165328D01*
X86772Y165292D01*
X86755Y165259D01*
X86742Y165229D01*
X86728Y165201D01*
X86711Y165179D01*
X86697Y165156D01*
X86686Y165140D01*
X86675Y165126D01*
X86667Y165115D01*
X86659Y165107D01*
X86656Y165104D01*
X86653Y165101D01*
X86625Y165079D01*
X86598Y165057D01*
X86539Y165024D01*
X86481Y165001D01*
X86426Y164985D01*
X86379Y164974D01*
X86359Y164971D01*
X86340D01*
X86326Y164968D01*
X86307D01*
X86248Y164971D01*
X86196Y164979D01*
X86146Y164993D01*
X86105Y165007D01*
X86068Y165024D01*
X86041Y165035D01*
X86024Y165046D01*
X86021Y165049D01*
X86019D01*
X85974Y165082D01*
X85935Y165115D01*
X85902Y165151D01*
X85877Y165184D01*
X85858Y165215D01*
X85847Y165240D01*
X85839Y165256D01*
X85836Y165259D01*
Y165262D01*
X85827Y165287D01*
X85819Y165317D01*
X85805Y165378D01*
X85797Y165445D01*
X85789Y165506D01*
X85786Y165564D01*
Y165589D01*
X85783Y165611D01*
Y165627D01*
Y165641D01*
Y165650D01*
Y165652D01*
Y166500D01*
X87700D01*
Y166245D01*
D02*
G37*
G36*
X64400Y24245D02*
X63550D01*
Y23952D01*
Y23918D01*
X63552Y23888D01*
Y23866D01*
X63555Y23846D01*
X63558Y23832D01*
Y23821D01*
X63561Y23816D01*
Y23813D01*
X63574Y23769D01*
X63583Y23749D01*
X63591Y23733D01*
X63599Y23716D01*
X63605Y23705D01*
X63608Y23699D01*
X63611Y23697D01*
X63627Y23674D01*
X63647Y23652D01*
X63688Y23611D01*
X63708Y23591D01*
X63724Y23578D01*
X63735Y23569D01*
X63738Y23566D01*
X63777Y23539D01*
X63818Y23508D01*
X63863Y23478D01*
X63904Y23447D01*
X63943Y23423D01*
X63973Y23403D01*
X63985Y23395D01*
X63993Y23389D01*
X63998Y23384D01*
X64001D01*
X64400Y23132D01*
Y22816D01*
X63879Y23145D01*
X63824Y23184D01*
X63774Y23220D01*
X63732Y23256D01*
X63694Y23287D01*
X63666Y23314D01*
X63644Y23337D01*
X63630Y23350D01*
X63624Y23356D01*
X63608Y23378D01*
X63588Y23403D01*
X63558Y23453D01*
X63547Y23475D01*
X63536Y23492D01*
X63530Y23503D01*
X63527Y23508D01*
X63519Y23459D01*
X63511Y23411D01*
X63497Y23370D01*
X63486Y23328D01*
X63472Y23292D01*
X63455Y23259D01*
X63442Y23229D01*
X63428Y23201D01*
X63411Y23179D01*
X63397Y23156D01*
X63386Y23140D01*
X63375Y23126D01*
X63367Y23115D01*
X63358Y23107D01*
X63356Y23104D01*
X63353Y23101D01*
X63325Y23079D01*
X63297Y23057D01*
X63239Y23024D01*
X63181Y23001D01*
X63126Y22985D01*
X63079Y22974D01*
X63059Y22971D01*
X63040D01*
X63026Y22968D01*
X63007D01*
X62949Y22971D01*
X62896Y22979D01*
X62846Y22993D01*
X62805Y23007D01*
X62769Y23024D01*
X62741Y23035D01*
X62724Y23046D01*
X62721Y23049D01*
X62719D01*
X62674Y23082D01*
X62635Y23115D01*
X62602Y23151D01*
X62577Y23184D01*
X62558Y23215D01*
X62547Y23240D01*
X62539Y23256D01*
X62536Y23259D01*
Y23262D01*
X62528Y23287D01*
X62519Y23317D01*
X62505Y23378D01*
X62497Y23445D01*
X62489Y23506D01*
X62486Y23564D01*
Y23589D01*
X62483Y23611D01*
Y23627D01*
Y23641D01*
Y23650D01*
Y23652D01*
Y24500D01*
X64400D01*
Y24245D01*
D02*
G37*
G36*
X63167Y22445D02*
X63148Y22403D01*
X63129Y22362D01*
X63109Y22323D01*
X63093Y22289D01*
X63079Y22262D01*
X63068Y22245D01*
X63065Y22242D01*
Y22240D01*
X63034Y22190D01*
X63004Y22145D01*
X62976Y22107D01*
X62951Y22076D01*
X62932Y22049D01*
X62915Y22032D01*
X62904Y22018D01*
X62901Y22015D01*
X64400D01*
Y21780D01*
X62475D01*
Y21932D01*
X62522Y21960D01*
X62566Y21990D01*
X62611Y22026D01*
X62649Y22060D01*
X62683Y22093D01*
X62710Y22118D01*
X62719Y22129D01*
X62727Y22137D01*
X62730Y22140D01*
X62732Y22143D01*
X62779Y22201D01*
X62824Y22259D01*
X62863Y22314D01*
X62893Y22370D01*
X62921Y22417D01*
X62932Y22436D01*
X62940Y22453D01*
X62949Y22467D01*
X62951Y22478D01*
X62957Y22483D01*
Y22486D01*
X63184D01*
X63167Y22445D01*
D02*
G37*
G36*
X86467Y164445D02*
X86448Y164403D01*
X86429Y164362D01*
X86409Y164323D01*
X86393Y164289D01*
X86379Y164262D01*
X86368Y164245D01*
X86365Y164242D01*
Y164240D01*
X86334Y164190D01*
X86304Y164146D01*
X86276Y164107D01*
X86251Y164076D01*
X86232Y164049D01*
X86215Y164032D01*
X86204Y164018D01*
X86201Y164015D01*
X87700D01*
Y163780D01*
X85775D01*
Y163932D01*
X85822Y163960D01*
X85866Y163990D01*
X85911Y164026D01*
X85949Y164060D01*
X85983Y164093D01*
X86010Y164118D01*
X86019Y164129D01*
X86027Y164137D01*
X86030Y164140D01*
X86032Y164143D01*
X86080Y164201D01*
X86124Y164259D01*
X86163Y164314D01*
X86193Y164370D01*
X86221Y164417D01*
X86232Y164436D01*
X86240Y164453D01*
X86248Y164467D01*
X86251Y164478D01*
X86257Y164483D01*
Y164486D01*
X86484D01*
X86467Y164445D01*
D02*
G37*
G36*
X79587Y39822D02*
X79632Y39820D01*
X79709Y39803D01*
X79745Y39792D01*
X79778Y39781D01*
X79809Y39767D01*
X79837Y39753D01*
X79859Y39739D01*
X79881Y39725D01*
X79900Y39714D01*
X79914Y39703D01*
X79925Y39695D01*
X79934Y39687D01*
X79939Y39684D01*
X79942Y39681D01*
X79967Y39653D01*
X79992Y39626D01*
X80011Y39595D01*
X80028Y39565D01*
X80055Y39507D01*
X80072Y39451D01*
X80083Y39404D01*
X80086Y39382D01*
X80089Y39365D01*
X80092Y39349D01*
Y39338D01*
Y39332D01*
Y39329D01*
X80089Y39279D01*
X80080Y39232D01*
X80069Y39191D01*
X80055Y39155D01*
X80044Y39127D01*
X80033Y39105D01*
X80025Y39094D01*
X80022Y39088D01*
X79992Y39055D01*
X79958Y39025D01*
X79922Y38997D01*
X79887Y38975D01*
X79853Y38958D01*
X79828Y38947D01*
X79817Y38941D01*
X79809Y38939D01*
X79806Y38936D01*
X79803D01*
X79867Y38917D01*
X79920Y38892D01*
X79967Y38861D01*
X80006Y38833D01*
X80036Y38806D01*
X80058Y38784D01*
X80069Y38770D01*
X80075Y38767D01*
Y38764D01*
X80105Y38714D01*
X80130Y38662D01*
X80147Y38612D01*
X80158Y38562D01*
X80164Y38518D01*
X80166Y38498D01*
Y38482D01*
X80169Y38471D01*
Y38460D01*
Y38454D01*
Y38451D01*
X80166Y38407D01*
X80161Y38363D01*
X80152Y38321D01*
X80141Y38280D01*
X80114Y38210D01*
X80100Y38177D01*
X80083Y38149D01*
X80067Y38122D01*
X80053Y38099D01*
X80036Y38080D01*
X80025Y38063D01*
X80014Y38050D01*
X80006Y38041D01*
X80000Y38036D01*
X79997Y38033D01*
X79964Y38002D01*
X79928Y37978D01*
X79889Y37955D01*
X79851Y37936D01*
X79814Y37922D01*
X79776Y37908D01*
X79701Y37889D01*
X79668Y37881D01*
X79637Y37875D01*
X79610Y37872D01*
X79585Y37870D01*
X79565Y37867D01*
X79537D01*
X79485Y37870D01*
X79438Y37875D01*
X79391Y37883D01*
X79346Y37892D01*
X79308Y37905D01*
X79269Y37919D01*
X79233Y37933D01*
X79202Y37950D01*
X79175Y37966D01*
X79150Y37980D01*
X79130Y37994D01*
X79111Y38008D01*
X79097Y38016D01*
X79089Y38025D01*
X79083Y38030D01*
X79080Y38033D01*
X79050Y38066D01*
X79022Y38099D01*
X79000Y38133D01*
X78981Y38169D01*
X78961Y38202D01*
X78948Y38238D01*
X78928Y38302D01*
X78920Y38332D01*
X78914Y38360D01*
X78912Y38385D01*
X78909Y38404D01*
X78906Y38421D01*
Y38435D01*
Y38443D01*
Y38446D01*
X78909Y38509D01*
X78920Y38568D01*
X78936Y38620D01*
X78953Y38664D01*
X78970Y38701D01*
X78986Y38728D01*
X78997Y38745D01*
X79000Y38748D01*
Y38750D01*
X79039Y38795D01*
X79080Y38833D01*
X79125Y38864D01*
X79166Y38892D01*
X79205Y38911D01*
X79238Y38925D01*
X79249Y38930D01*
X79258Y38933D01*
X79263Y38936D01*
X79266D01*
X79216Y38958D01*
X79175Y38983D01*
X79139Y39008D01*
X79108Y39033D01*
X79086Y39055D01*
X79069Y39072D01*
X79058Y39083D01*
X79056Y39088D01*
X79031Y39127D01*
X79014Y39166D01*
X79000Y39205D01*
X78992Y39244D01*
X78986Y39274D01*
X78983Y39299D01*
Y39316D01*
Y39318D01*
Y39321D01*
X78986Y39360D01*
X78989Y39396D01*
X79008Y39465D01*
X79033Y39526D01*
X79061Y39579D01*
X79089Y39620D01*
X79103Y39637D01*
X79114Y39653D01*
X79125Y39665D01*
X79133Y39673D01*
X79136Y39676D01*
X79139Y39678D01*
X79169Y39703D01*
X79199Y39728D01*
X79233Y39748D01*
X79266Y39764D01*
X79333Y39789D01*
X79399Y39806D01*
X79427Y39814D01*
X79454Y39817D01*
X79479Y39820D01*
X79501Y39822D01*
X79518Y39825D01*
X79543D01*
X79587Y39822D01*
D02*
G37*
G36*
X82100Y43000D02*
X81845D01*
Y43850D01*
X81518D01*
X81488Y43848D01*
X81466D01*
X81446Y43845D01*
X81432Y43842D01*
X81421D01*
X81416Y43839D01*
X81413D01*
X81369Y43826D01*
X81349Y43817D01*
X81333Y43809D01*
X81316Y43801D01*
X81305Y43795D01*
X81300Y43792D01*
X81297Y43789D01*
X81274Y43773D01*
X81252Y43753D01*
X81211Y43712D01*
X81191Y43692D01*
X81178Y43676D01*
X81169Y43665D01*
X81166Y43662D01*
X81139Y43623D01*
X81108Y43582D01*
X81078Y43537D01*
X81047Y43496D01*
X81023Y43457D01*
X81003Y43427D01*
X80995Y43415D01*
X80989Y43407D01*
X80984Y43402D01*
Y43399D01*
X80732Y43000D01*
X80416D01*
X80746Y43521D01*
X80784Y43576D01*
X80820Y43626D01*
X80856Y43668D01*
X80887Y43706D01*
X80914Y43734D01*
X80937Y43756D01*
X80950Y43770D01*
X80956Y43776D01*
X80978Y43792D01*
X81003Y43812D01*
X81053Y43842D01*
X81075Y43853D01*
X81092Y43864D01*
X81103Y43870D01*
X81108Y43873D01*
X81059Y43881D01*
X81011Y43889D01*
X80970Y43903D01*
X80928Y43914D01*
X80892Y43928D01*
X80859Y43945D01*
X80829Y43958D01*
X80801Y43972D01*
X80779Y43989D01*
X80757Y44003D01*
X80740Y44014D01*
X80726Y44025D01*
X80715Y44033D01*
X80707Y44041D01*
X80704Y44044D01*
X80701Y44047D01*
X80679Y44075D01*
X80657Y44102D01*
X80624Y44161D01*
X80601Y44219D01*
X80585Y44274D01*
X80574Y44321D01*
X80571Y44341D01*
Y44360D01*
X80568Y44374D01*
Y44385D01*
Y44390D01*
Y44393D01*
X80571Y44451D01*
X80579Y44504D01*
X80593Y44554D01*
X80607Y44596D01*
X80624Y44631D01*
X80635Y44659D01*
X80646Y44676D01*
X80648Y44679D01*
Y44681D01*
X80682Y44726D01*
X80715Y44765D01*
X80751Y44798D01*
X80784Y44823D01*
X80815Y44842D01*
X80840Y44853D01*
X80856Y44861D01*
X80859Y44864D01*
X80862D01*
X80887Y44872D01*
X80917Y44881D01*
X80978Y44895D01*
X81045Y44903D01*
X81106Y44911D01*
X81164Y44914D01*
X81189D01*
X81211Y44917D01*
X82100D01*
Y43000D01*
D02*
G37*
G36*
X86467Y162954D02*
X86448Y162913D01*
X86429Y162871D01*
X86409Y162832D01*
X86393Y162799D01*
X86379Y162772D01*
X86368Y162755D01*
X86365Y162752D01*
Y162749D01*
X86334Y162700D01*
X86304Y162655D01*
X86276Y162617D01*
X86251Y162586D01*
X86232Y162558D01*
X86215Y162542D01*
X86204Y162528D01*
X86201Y162525D01*
X87700D01*
Y162290D01*
X85775D01*
Y162442D01*
X85822Y162470D01*
X85866Y162500D01*
X85911Y162536D01*
X85949Y162569D01*
X85983Y162603D01*
X86010Y162627D01*
X86019Y162639D01*
X86027Y162647D01*
X86030Y162650D01*
X86032Y162653D01*
X86080Y162711D01*
X86124Y162769D01*
X86163Y162824D01*
X86193Y162880D01*
X86221Y162927D01*
X86232Y162946D01*
X86240Y162963D01*
X86248Y162977D01*
X86251Y162988D01*
X86257Y162993D01*
Y162996D01*
X86484D01*
X86467Y162954D01*
D02*
G37*
G36*
X82000Y37900D02*
X81745D01*
Y38750D01*
X81418D01*
X81388Y38748D01*
X81366D01*
X81346Y38745D01*
X81332Y38742D01*
X81321D01*
X81316Y38739D01*
X81313D01*
X81269Y38726D01*
X81249Y38717D01*
X81233Y38709D01*
X81216Y38701D01*
X81205Y38695D01*
X81200Y38692D01*
X81197Y38689D01*
X81174Y38673D01*
X81152Y38653D01*
X81111Y38612D01*
X81091Y38592D01*
X81078Y38576D01*
X81069Y38565D01*
X81067Y38562D01*
X81039Y38523D01*
X81008Y38482D01*
X80978Y38437D01*
X80947Y38396D01*
X80923Y38357D01*
X80903Y38327D01*
X80895Y38315D01*
X80889Y38307D01*
X80884Y38302D01*
Y38299D01*
X80632Y37900D01*
X80316D01*
X80646Y38421D01*
X80684Y38476D01*
X80720Y38526D01*
X80756Y38568D01*
X80787Y38606D01*
X80814Y38634D01*
X80837Y38656D01*
X80850Y38670D01*
X80856Y38676D01*
X80878Y38692D01*
X80903Y38712D01*
X80953Y38742D01*
X80975Y38753D01*
X80992Y38764D01*
X81003Y38770D01*
X81008Y38773D01*
X80958Y38781D01*
X80911Y38789D01*
X80870Y38803D01*
X80828Y38814D01*
X80792Y38828D01*
X80759Y38845D01*
X80729Y38858D01*
X80701Y38872D01*
X80679Y38889D01*
X80657Y38903D01*
X80640Y38914D01*
X80626Y38925D01*
X80615Y38933D01*
X80607Y38941D01*
X80604Y38944D01*
X80601Y38947D01*
X80579Y38975D01*
X80557Y39002D01*
X80524Y39061D01*
X80501Y39119D01*
X80485Y39174D01*
X80474Y39221D01*
X80471Y39241D01*
Y39260D01*
X80468Y39274D01*
Y39285D01*
Y39290D01*
Y39293D01*
X80471Y39351D01*
X80479Y39404D01*
X80493Y39454D01*
X80507Y39496D01*
X80524Y39531D01*
X80535Y39559D01*
X80546Y39576D01*
X80549Y39579D01*
Y39581D01*
X80582Y39626D01*
X80615Y39665D01*
X80651Y39698D01*
X80684Y39723D01*
X80715Y39742D01*
X80740Y39753D01*
X80756Y39761D01*
X80759Y39764D01*
X80762D01*
X80787Y39772D01*
X80817Y39781D01*
X80878Y39795D01*
X80945Y39803D01*
X81006Y39811D01*
X81064Y39814D01*
X81089D01*
X81111Y39817D01*
X82000D01*
Y37900D01*
D02*
G37*
G36*
X37300Y35401D02*
X37073D01*
Y36345D01*
X35383D01*
Y36600D01*
X37300D01*
Y35401D01*
D02*
G37*
G36*
X17788Y33345D02*
X17877Y33331D01*
X17955Y33314D01*
X17991Y33303D01*
X18024Y33292D01*
X18054Y33281D01*
X18082Y33270D01*
X18104Y33261D01*
X18126Y33253D01*
X18140Y33245D01*
X18151Y33239D01*
X18160Y33237D01*
X18162Y33234D01*
X18237Y33187D01*
X18301Y33131D01*
X18356Y33076D01*
X18403Y33020D01*
X18439Y32971D01*
X18453Y32948D01*
X18464Y32929D01*
X18475Y32915D01*
X18481Y32904D01*
X18484Y32896D01*
X18486Y32893D01*
X18525Y32807D01*
X18553Y32719D01*
X18572Y32630D01*
X18586Y32550D01*
X18592Y32513D01*
X18595Y32478D01*
X18597Y32450D01*
Y32422D01*
X18600Y32403D01*
Y32386D01*
Y32375D01*
Y32372D01*
X18595Y32273D01*
X18583Y32176D01*
X18570Y32090D01*
X18558Y32048D01*
X18550Y32012D01*
X18542Y31979D01*
X18531Y31949D01*
X18522Y31921D01*
X18517Y31899D01*
X18509Y31882D01*
X18506Y31868D01*
X18500Y31860D01*
Y31857D01*
X18459Y31774D01*
X18412Y31699D01*
X18362Y31635D01*
X18337Y31611D01*
X18315Y31586D01*
X18293Y31563D01*
X18270Y31544D01*
X18251Y31527D01*
X18234Y31516D01*
X18223Y31505D01*
X18212Y31497D01*
X18207Y31494D01*
X18204Y31491D01*
X18165Y31469D01*
X18126Y31450D01*
X18043Y31419D01*
X17960Y31397D01*
X17880Y31383D01*
X17841Y31378D01*
X17808Y31372D01*
X17777Y31370D01*
X17752D01*
X17730Y31367D01*
X17700D01*
X17644Y31370D01*
X17592Y31375D01*
X17542Y31381D01*
X17495Y31392D01*
X17450Y31405D01*
X17409Y31419D01*
X17370Y31433D01*
X17334Y31450D01*
X17304Y31464D01*
X17273Y31478D01*
X17251Y31491D01*
X17229Y31505D01*
X17215Y31516D01*
X17201Y31522D01*
X17196Y31527D01*
X17193Y31530D01*
X17154Y31563D01*
X17121Y31597D01*
X17090Y31635D01*
X17060Y31674D01*
X17010Y31752D01*
X16971Y31829D01*
X16955Y31865D01*
X16941Y31899D01*
X16930Y31929D01*
X16921Y31954D01*
X16913Y31976D01*
X16907Y31993D01*
X16905Y32004D01*
Y32007D01*
X17160Y32070D01*
X17171Y32026D01*
X17185Y31984D01*
X17198Y31946D01*
X17212Y31910D01*
X17229Y31876D01*
X17245Y31849D01*
X17265Y31821D01*
X17281Y31796D01*
X17295Y31774D01*
X17312Y31757D01*
X17326Y31741D01*
X17337Y31727D01*
X17348Y31719D01*
X17356Y31710D01*
X17359Y31708D01*
X17362Y31705D01*
X17390Y31683D01*
X17420Y31666D01*
X17481Y31635D01*
X17539Y31613D01*
X17597Y31599D01*
X17647Y31588D01*
X17666Y31586D01*
X17686D01*
X17703Y31583D01*
X17722D01*
X17786Y31586D01*
X17847Y31597D01*
X17902Y31611D01*
X17952Y31627D01*
X17991Y31644D01*
X18007Y31652D01*
X18021Y31658D01*
X18032Y31663D01*
X18041Y31669D01*
X18046Y31672D01*
X18049D01*
X18101Y31710D01*
X18146Y31752D01*
X18184Y31799D01*
X18215Y31843D01*
X18240Y31882D01*
X18257Y31915D01*
X18262Y31929D01*
X18268Y31937D01*
X18270Y31943D01*
Y31946D01*
X18293Y32018D01*
X18309Y32090D01*
X18323Y32162D01*
X18331Y32228D01*
X18334Y32259D01*
X18337Y32286D01*
Y32311D01*
X18340Y32331D01*
Y32347D01*
Y32361D01*
Y32370D01*
Y32372D01*
X18337Y32444D01*
X18331Y32511D01*
X18320Y32572D01*
X18309Y32627D01*
X18301Y32674D01*
X18295Y32694D01*
X18290Y32710D01*
X18287Y32724D01*
X18284Y32732D01*
X18282Y32738D01*
Y32741D01*
X18254Y32804D01*
X18223Y32863D01*
X18190Y32910D01*
X18154Y32951D01*
X18124Y32984D01*
X18099Y33007D01*
X18079Y33020D01*
X18077Y33026D01*
X18074D01*
X18015Y33062D01*
X17952Y33090D01*
X17891Y33109D01*
X17833Y33120D01*
X17780Y33128D01*
X17758Y33131D01*
X17739D01*
X17725Y33134D01*
X17703D01*
X17633Y33131D01*
X17570Y33120D01*
X17517Y33104D01*
X17470Y33087D01*
X17434Y33068D01*
X17406Y33054D01*
X17390Y33043D01*
X17384Y33037D01*
X17340Y32996D01*
X17298Y32948D01*
X17265Y32899D01*
X17237Y32849D01*
X17215Y32804D01*
X17207Y32782D01*
X17201Y32766D01*
X17196Y32752D01*
X17190Y32741D01*
X17187Y32735D01*
Y32732D01*
X16938Y32790D01*
X16955Y32840D01*
X16971Y32885D01*
X16993Y32926D01*
X17013Y32968D01*
X17035Y33004D01*
X17060Y33037D01*
X17082Y33070D01*
X17104Y33098D01*
X17126Y33120D01*
X17146Y33142D01*
X17165Y33162D01*
X17179Y33176D01*
X17193Y33189D01*
X17204Y33198D01*
X17210Y33200D01*
X17212Y33203D01*
X17251Y33228D01*
X17290Y33253D01*
X17329Y33272D01*
X17370Y33289D01*
X17453Y33314D01*
X17528Y33331D01*
X17564Y33339D01*
X17594Y33342D01*
X17625Y33345D01*
X17650Y33347D01*
X17669Y33350D01*
X17697D01*
X17788Y33345D01*
D02*
G37*
G36*
X16168Y33320D02*
X16243Y33306D01*
X16306Y33284D01*
X16362Y33261D01*
X16387Y33248D01*
X16406Y33237D01*
X16426Y33225D01*
X16439Y33214D01*
X16451Y33206D01*
X16459Y33200D01*
X16464Y33198D01*
X16467Y33195D01*
X16520Y33142D01*
X16561Y33084D01*
X16594Y33023D01*
X16622Y32962D01*
X16639Y32910D01*
X16647Y32888D01*
X16653Y32868D01*
X16656Y32851D01*
X16658Y32840D01*
X16661Y32832D01*
Y32829D01*
X16426Y32788D01*
X16414Y32849D01*
X16398Y32901D01*
X16378Y32946D01*
X16359Y32982D01*
X16340Y33009D01*
X16323Y33029D01*
X16312Y33043D01*
X16309Y33045D01*
X16273Y33073D01*
X16234Y33095D01*
X16198Y33109D01*
X16162Y33120D01*
X16129Y33126D01*
X16104Y33131D01*
X16082D01*
X16032Y33128D01*
X15988Y33117D01*
X15949Y33104D01*
X15916Y33090D01*
X15891Y33073D01*
X15871Y33059D01*
X15858Y33048D01*
X15855Y33045D01*
X15824Y33012D01*
X15802Y32976D01*
X15789Y32940D01*
X15777Y32907D01*
X15772Y32876D01*
X15766Y32854D01*
Y32838D01*
Y32835D01*
Y32832D01*
Y32802D01*
X15772Y32774D01*
X15786Y32727D01*
X15805Y32685D01*
X15827Y32649D01*
X15849Y32624D01*
X15869Y32605D01*
X15883Y32594D01*
X15885Y32591D01*
X15888D01*
X15935Y32566D01*
X15980Y32547D01*
X16027Y32533D01*
X16068Y32525D01*
X16104Y32519D01*
X16135Y32513D01*
X16171D01*
X16182Y32516D01*
X16196D01*
X16223Y32309D01*
X16187Y32317D01*
X16154Y32322D01*
X16126Y32328D01*
X16102Y32331D01*
X16082Y32333D01*
X16057D01*
X15999Y32328D01*
X15946Y32317D01*
X15899Y32300D01*
X15860Y32281D01*
X15830Y32261D01*
X15808Y32245D01*
X15794Y32234D01*
X15789Y32228D01*
X15752Y32187D01*
X15725Y32142D01*
X15705Y32098D01*
X15694Y32054D01*
X15686Y32018D01*
X15683Y31987D01*
X15680Y31976D01*
Y31968D01*
Y31962D01*
Y31960D01*
X15686Y31899D01*
X15700Y31843D01*
X15716Y31796D01*
X15739Y31755D01*
X15761Y31721D01*
X15777Y31696D01*
X15791Y31680D01*
X15797Y31674D01*
X15841Y31635D01*
X15888Y31608D01*
X15935Y31588D01*
X15980Y31574D01*
X16018Y31566D01*
X16049Y31563D01*
X16060Y31561D01*
X16077D01*
X16126Y31563D01*
X16173Y31574D01*
X16215Y31588D01*
X16248Y31605D01*
X16276Y31619D01*
X16298Y31633D01*
X16309Y31644D01*
X16315Y31646D01*
X16348Y31685D01*
X16376Y31730D01*
X16401Y31777D01*
X16420Y31827D01*
X16434Y31868D01*
X16439Y31888D01*
X16442Y31904D01*
X16445Y31918D01*
X16448Y31929D01*
X16451Y31935D01*
Y31937D01*
X16686Y31907D01*
X16680Y31863D01*
X16672Y31821D01*
X16647Y31743D01*
X16617Y31677D01*
X16600Y31649D01*
X16583Y31622D01*
X16567Y31597D01*
X16550Y31577D01*
X16536Y31558D01*
X16522Y31544D01*
X16514Y31533D01*
X16506Y31525D01*
X16500Y31519D01*
X16498Y31516D01*
X16464Y31491D01*
X16431Y31466D01*
X16398Y31447D01*
X16362Y31431D01*
X16293Y31403D01*
X16226Y31386D01*
X16196Y31381D01*
X16168Y31375D01*
X16143Y31372D01*
X16121Y31370D01*
X16104Y31367D01*
X16079D01*
X16027Y31370D01*
X15980Y31375D01*
X15933Y31383D01*
X15888Y31394D01*
X15847Y31408D01*
X15811Y31422D01*
X15775Y31439D01*
X15744Y31455D01*
X15714Y31469D01*
X15689Y31486D01*
X15667Y31500D01*
X15650Y31514D01*
X15636Y31525D01*
X15625Y31533D01*
X15619Y31539D01*
X15617Y31541D01*
X15584Y31574D01*
X15556Y31611D01*
X15531Y31646D01*
X15509Y31683D01*
X15492Y31716D01*
X15475Y31752D01*
X15453Y31818D01*
X15448Y31849D01*
X15442Y31876D01*
X15437Y31901D01*
X15434Y31923D01*
X15431Y31940D01*
Y31954D01*
Y31962D01*
Y31965D01*
X15434Y32032D01*
X15445Y32092D01*
X15462Y32145D01*
X15478Y32189D01*
X15495Y32225D01*
X15511Y32253D01*
X15522Y32270D01*
X15525Y32275D01*
X15564Y32317D01*
X15606Y32353D01*
X15650Y32381D01*
X15694Y32403D01*
X15733Y32419D01*
X15764Y32430D01*
X15775Y32433D01*
X15783Y32436D01*
X15789Y32439D01*
X15791D01*
X15744Y32464D01*
X15705Y32489D01*
X15672Y32516D01*
X15644Y32541D01*
X15622Y32563D01*
X15606Y32583D01*
X15597Y32594D01*
X15595Y32599D01*
X15572Y32638D01*
X15556Y32677D01*
X15542Y32716D01*
X15534Y32752D01*
X15528Y32782D01*
X15525Y32804D01*
Y32821D01*
Y32827D01*
X15528Y32874D01*
X15536Y32921D01*
X15548Y32962D01*
X15561Y32998D01*
X15575Y33029D01*
X15586Y33054D01*
X15595Y33068D01*
X15597Y33073D01*
X15625Y33115D01*
X15658Y33151D01*
X15691Y33181D01*
X15725Y33209D01*
X15752Y33228D01*
X15777Y33245D01*
X15794Y33253D01*
X15797Y33256D01*
X15800D01*
X15849Y33278D01*
X15899Y33295D01*
X15949Y33309D01*
X15993Y33317D01*
X16029Y33322D01*
X16060Y33325D01*
X16129D01*
X16168Y33320D01*
D02*
G37*
G36*
X36067Y34974D02*
X36048Y34933D01*
X36029Y34891D01*
X36009Y34852D01*
X35993Y34819D01*
X35979Y34791D01*
X35968Y34775D01*
X35965Y34772D01*
Y34769D01*
X35934Y34719D01*
X35904Y34675D01*
X35876Y34636D01*
X35851Y34606D01*
X35832Y34578D01*
X35815Y34561D01*
X35804Y34547D01*
X35801Y34545D01*
X37300D01*
Y34309D01*
X35375D01*
Y34462D01*
X35422Y34489D01*
X35466Y34520D01*
X35511Y34556D01*
X35549Y34589D01*
X35583Y34622D01*
X35610Y34647D01*
X35619Y34658D01*
X35627Y34666D01*
X35630Y34669D01*
X35633Y34672D01*
X35680Y34730D01*
X35724Y34788D01*
X35763Y34844D01*
X35793Y34899D01*
X35821Y34946D01*
X35832Y34966D01*
X35840Y34982D01*
X35849Y34996D01*
X35851Y35007D01*
X35857Y35013D01*
Y35016D01*
X36084D01*
X36067Y34974D01*
D02*
G37*
G36*
X53040Y20523D02*
X53500D01*
Y20287D01*
X53040D01*
Y20027D01*
X52824D01*
Y20287D01*
X51583D01*
Y20478D01*
X52824Y21356D01*
X53040D01*
Y20523D01*
D02*
G37*
G36*
X52267Y22545D02*
X52248Y22503D01*
X52229Y22462D01*
X52209Y22423D01*
X52193Y22389D01*
X52179Y22362D01*
X52168Y22345D01*
X52165Y22342D01*
Y22340D01*
X52134Y22290D01*
X52104Y22245D01*
X52076Y22207D01*
X52051Y22176D01*
X52032Y22149D01*
X52015Y22132D01*
X52004Y22118D01*
X52001Y22115D01*
X53500D01*
Y21880D01*
X51575D01*
Y22032D01*
X51622Y22060D01*
X51666Y22090D01*
X51711Y22126D01*
X51749Y22160D01*
X51783Y22193D01*
X51810Y22218D01*
X51819Y22229D01*
X51827Y22237D01*
X51830Y22240D01*
X51832Y22243D01*
X51880Y22301D01*
X51924Y22359D01*
X51963Y22414D01*
X51993Y22470D01*
X52021Y22517D01*
X52032Y22536D01*
X52040Y22553D01*
X52048Y22567D01*
X52051Y22578D01*
X52057Y22583D01*
Y22586D01*
X52284D01*
X52267Y22545D01*
D02*
G37*
G36*
X53500Y24345D02*
X52650D01*
Y24051D01*
Y24018D01*
X52652Y23988D01*
Y23966D01*
X52655Y23946D01*
X52658Y23932D01*
Y23921D01*
X52661Y23916D01*
Y23913D01*
X52675Y23869D01*
X52683Y23849D01*
X52691Y23833D01*
X52700Y23816D01*
X52705Y23805D01*
X52708Y23799D01*
X52711Y23797D01*
X52727Y23775D01*
X52747Y23752D01*
X52788Y23711D01*
X52807Y23691D01*
X52824Y23678D01*
X52835Y23669D01*
X52838Y23666D01*
X52877Y23639D01*
X52918Y23608D01*
X52963Y23578D01*
X53004Y23547D01*
X53043Y23523D01*
X53073Y23503D01*
X53084Y23495D01*
X53093Y23489D01*
X53098Y23484D01*
X53101D01*
X53500Y23232D01*
Y22916D01*
X52979Y23246D01*
X52924Y23284D01*
X52874Y23320D01*
X52832Y23356D01*
X52794Y23387D01*
X52766Y23414D01*
X52744Y23437D01*
X52730Y23450D01*
X52724Y23456D01*
X52708Y23478D01*
X52688Y23503D01*
X52658Y23553D01*
X52647Y23575D01*
X52636Y23592D01*
X52630Y23603D01*
X52627Y23608D01*
X52619Y23559D01*
X52611Y23511D01*
X52597Y23470D01*
X52586Y23428D01*
X52572Y23392D01*
X52555Y23359D01*
X52542Y23329D01*
X52528Y23301D01*
X52511Y23279D01*
X52497Y23257D01*
X52486Y23240D01*
X52475Y23226D01*
X52467Y23215D01*
X52459Y23207D01*
X52456Y23204D01*
X52453Y23201D01*
X52425Y23179D01*
X52398Y23157D01*
X52339Y23124D01*
X52281Y23101D01*
X52226Y23085D01*
X52179Y23074D01*
X52159Y23071D01*
X52140D01*
X52126Y23068D01*
X52107D01*
X52048Y23071D01*
X51996Y23079D01*
X51946Y23093D01*
X51904Y23107D01*
X51868Y23124D01*
X51841Y23135D01*
X51824Y23146D01*
X51821Y23148D01*
X51819D01*
X51774Y23182D01*
X51736Y23215D01*
X51702Y23251D01*
X51677Y23284D01*
X51658Y23315D01*
X51647Y23340D01*
X51639Y23356D01*
X51636Y23359D01*
Y23362D01*
X51627Y23387D01*
X51619Y23417D01*
X51605Y23478D01*
X51597Y23545D01*
X51589Y23606D01*
X51586Y23664D01*
Y23689D01*
X51583Y23711D01*
Y23727D01*
Y23741D01*
Y23750D01*
Y23752D01*
Y24600D01*
X53500D01*
Y24345D01*
D02*
G37*
G36*
X46470Y39040D02*
X46426Y39029D01*
X46385Y39015D01*
X46346Y39002D01*
X46310Y38988D01*
X46276Y38971D01*
X46249Y38954D01*
X46221Y38935D01*
X46196Y38919D01*
X46174Y38905D01*
X46157Y38888D01*
X46141Y38874D01*
X46127Y38863D01*
X46119Y38852D01*
X46110Y38844D01*
X46108Y38841D01*
X46105Y38838D01*
X46082Y38811D01*
X46066Y38780D01*
X46035Y38719D01*
X46013Y38661D01*
X45999Y38603D01*
X45988Y38553D01*
X45986Y38533D01*
Y38514D01*
X45983Y38497D01*
Y38486D01*
Y38481D01*
Y38478D01*
X45986Y38414D01*
X45997Y38353D01*
X46011Y38298D01*
X46027Y38248D01*
X46044Y38209D01*
X46052Y38193D01*
X46058Y38179D01*
X46063Y38168D01*
X46069Y38159D01*
X46071Y38154D01*
Y38151D01*
X46110Y38099D01*
X46152Y38054D01*
X46199Y38015D01*
X46243Y37985D01*
X46282Y37960D01*
X46315Y37944D01*
X46329Y37938D01*
X46337Y37932D01*
X46343Y37930D01*
X46346D01*
X46418Y37907D01*
X46490Y37891D01*
X46562Y37877D01*
X46628Y37869D01*
X46659Y37866D01*
X46686Y37863D01*
X46711D01*
X46731Y37860D01*
X46772D01*
X46844Y37863D01*
X46911Y37869D01*
X46972Y37880D01*
X47027Y37891D01*
X47074Y37899D01*
X47094Y37905D01*
X47110Y37910D01*
X47124Y37913D01*
X47132Y37916D01*
X47138Y37918D01*
X47141D01*
X47204Y37946D01*
X47263Y37977D01*
X47310Y38010D01*
X47351Y38046D01*
X47384Y38076D01*
X47407Y38101D01*
X47420Y38121D01*
X47426Y38124D01*
Y38126D01*
X47462Y38184D01*
X47490Y38248D01*
X47509Y38309D01*
X47520Y38367D01*
X47528Y38420D01*
X47531Y38442D01*
Y38462D01*
X47534Y38475D01*
Y38486D01*
Y38495D01*
Y38497D01*
X47531Y38567D01*
X47520Y38630D01*
X47504Y38683D01*
X47487Y38730D01*
X47467Y38766D01*
X47454Y38794D01*
X47443Y38811D01*
X47437Y38816D01*
X47396Y38860D01*
X47348Y38902D01*
X47299Y38935D01*
X47249Y38963D01*
X47204Y38985D01*
X47182Y38993D01*
X47166Y38999D01*
X47152Y39004D01*
X47141Y39010D01*
X47135Y39013D01*
X47132D01*
X47190Y39262D01*
X47240Y39245D01*
X47285Y39229D01*
X47326Y39207D01*
X47368Y39187D01*
X47404Y39165D01*
X47437Y39140D01*
X47470Y39118D01*
X47498Y39096D01*
X47520Y39074D01*
X47542Y39054D01*
X47562Y39035D01*
X47576Y39021D01*
X47589Y39007D01*
X47598Y38996D01*
X47600Y38991D01*
X47603Y38988D01*
X47628Y38949D01*
X47653Y38910D01*
X47673Y38871D01*
X47689Y38830D01*
X47714Y38747D01*
X47731Y38672D01*
X47739Y38636D01*
X47742Y38605D01*
X47745Y38575D01*
X47747Y38550D01*
X47750Y38531D01*
Y38517D01*
Y38506D01*
Y38503D01*
X47745Y38412D01*
X47731Y38323D01*
X47714Y38245D01*
X47703Y38209D01*
X47692Y38176D01*
X47681Y38146D01*
X47670Y38118D01*
X47661Y38096D01*
X47653Y38074D01*
X47645Y38060D01*
X47639Y38049D01*
X47637Y38040D01*
X47634Y38038D01*
X47587Y37963D01*
X47531Y37899D01*
X47476Y37844D01*
X47420Y37797D01*
X47371Y37761D01*
X47348Y37747D01*
X47329Y37736D01*
X47315Y37725D01*
X47304Y37719D01*
X47296Y37716D01*
X47293Y37714D01*
X47207Y37675D01*
X47118Y37647D01*
X47030Y37628D01*
X46949Y37614D01*
X46913Y37608D01*
X46878Y37606D01*
X46850Y37603D01*
X46822D01*
X46803Y37600D01*
X46772D01*
X46673Y37606D01*
X46576Y37617D01*
X46490Y37631D01*
X46448Y37642D01*
X46412Y37650D01*
X46379Y37658D01*
X46349Y37669D01*
X46321Y37678D01*
X46299Y37683D01*
X46282Y37691D01*
X46268Y37694D01*
X46260Y37700D01*
X46257D01*
X46174Y37741D01*
X46099Y37788D01*
X46035Y37838D01*
X46011Y37863D01*
X45986Y37885D01*
X45963Y37907D01*
X45944Y37930D01*
X45927Y37949D01*
X45916Y37966D01*
X45905Y37977D01*
X45897Y37988D01*
X45894Y37993D01*
X45891Y37996D01*
X45869Y38035D01*
X45850Y38074D01*
X45819Y38157D01*
X45797Y38240D01*
X45783Y38320D01*
X45778Y38359D01*
X45772Y38392D01*
X45770Y38423D01*
Y38448D01*
X45767Y38470D01*
Y38486D01*
Y38497D01*
Y38500D01*
X45770Y38556D01*
X45775Y38608D01*
X45781Y38658D01*
X45792Y38705D01*
X45805Y38750D01*
X45819Y38791D01*
X45833Y38830D01*
X45850Y38866D01*
X45864Y38896D01*
X45878Y38927D01*
X45891Y38949D01*
X45905Y38971D01*
X45916Y38985D01*
X45922Y38999D01*
X45927Y39004D01*
X45930Y39007D01*
X45963Y39046D01*
X45997Y39079D01*
X46035Y39110D01*
X46074Y39140D01*
X46152Y39190D01*
X46229Y39229D01*
X46265Y39245D01*
X46299Y39259D01*
X46329Y39270D01*
X46354Y39279D01*
X46376Y39287D01*
X46393Y39292D01*
X46404Y39295D01*
X46407D01*
X46470Y39040D01*
D02*
G37*
G36*
X46432Y40766D02*
X46492Y40755D01*
X46545Y40738D01*
X46589Y40722D01*
X46626Y40705D01*
X46653Y40688D01*
X46670Y40677D01*
X46675Y40675D01*
X46717Y40636D01*
X46753Y40594D01*
X46781Y40550D01*
X46803Y40506D01*
X46819Y40467D01*
X46830Y40437D01*
X46833Y40425D01*
X46836Y40417D01*
X46839Y40411D01*
Y40409D01*
X46864Y40456D01*
X46889Y40495D01*
X46916Y40528D01*
X46941Y40556D01*
X46963Y40578D01*
X46983Y40594D01*
X46994Y40603D01*
X46999Y40606D01*
X47038Y40628D01*
X47077Y40644D01*
X47116Y40658D01*
X47152Y40666D01*
X47182Y40672D01*
X47204Y40675D01*
X47227D01*
X47274Y40672D01*
X47321Y40664D01*
X47362Y40652D01*
X47398Y40639D01*
X47429Y40625D01*
X47454Y40614D01*
X47467Y40606D01*
X47473Y40603D01*
X47515Y40575D01*
X47551Y40542D01*
X47581Y40508D01*
X47609Y40475D01*
X47628Y40448D01*
X47645Y40423D01*
X47653Y40406D01*
X47656Y40403D01*
Y40400D01*
X47678Y40351D01*
X47695Y40301D01*
X47708Y40251D01*
X47717Y40207D01*
X47722Y40171D01*
X47725Y40140D01*
Y40129D01*
Y40121D01*
Y40115D01*
Y40112D01*
Y40071D01*
X47720Y40032D01*
X47706Y39957D01*
X47684Y39894D01*
X47661Y39838D01*
X47648Y39813D01*
X47637Y39794D01*
X47625Y39775D01*
X47614Y39761D01*
X47606Y39750D01*
X47600Y39741D01*
X47598Y39736D01*
X47595Y39733D01*
X47542Y39680D01*
X47484Y39639D01*
X47423Y39606D01*
X47362Y39578D01*
X47310Y39561D01*
X47287Y39553D01*
X47268Y39547D01*
X47251Y39544D01*
X47240Y39542D01*
X47232Y39539D01*
X47229D01*
X47188Y39775D01*
X47249Y39786D01*
X47301Y39802D01*
X47346Y39821D01*
X47382Y39841D01*
X47409Y39860D01*
X47429Y39877D01*
X47443Y39888D01*
X47445Y39891D01*
X47473Y39927D01*
X47495Y39966D01*
X47509Y40002D01*
X47520Y40038D01*
X47526Y40071D01*
X47531Y40096D01*
Y40112D01*
Y40115D01*
Y40118D01*
X47528Y40168D01*
X47517Y40212D01*
X47504Y40251D01*
X47490Y40284D01*
X47473Y40309D01*
X47459Y40328D01*
X47448Y40342D01*
X47445Y40345D01*
X47412Y40376D01*
X47376Y40398D01*
X47340Y40411D01*
X47307Y40423D01*
X47276Y40428D01*
X47254Y40434D01*
X47202D01*
X47174Y40428D01*
X47127Y40414D01*
X47085Y40395D01*
X47049Y40373D01*
X47024Y40351D01*
X47005Y40331D01*
X46994Y40317D01*
X46991Y40315D01*
Y40312D01*
X46966Y40265D01*
X46947Y40220D01*
X46933Y40173D01*
X46925Y40132D01*
X46919Y40096D01*
X46913Y40065D01*
Y40054D01*
Y40046D01*
Y40043D01*
Y40040D01*
Y40029D01*
X46916Y40018D01*
Y40007D01*
Y40004D01*
X46709Y39977D01*
X46717Y40013D01*
X46722Y40046D01*
X46728Y40074D01*
X46731Y40099D01*
X46733Y40118D01*
Y40132D01*
Y40140D01*
Y40143D01*
X46728Y40201D01*
X46717Y40254D01*
X46700Y40301D01*
X46681Y40339D01*
X46661Y40370D01*
X46645Y40392D01*
X46634Y40406D01*
X46628Y40411D01*
X46587Y40448D01*
X46542Y40475D01*
X46498Y40495D01*
X46454Y40506D01*
X46418Y40514D01*
X46387Y40517D01*
X46376Y40520D01*
X46360D01*
X46299Y40514D01*
X46243Y40500D01*
X46196Y40484D01*
X46155Y40461D01*
X46121Y40439D01*
X46096Y40423D01*
X46080Y40409D01*
X46074Y40403D01*
X46035Y40359D01*
X46008Y40312D01*
X45988Y40265D01*
X45974Y40220D01*
X45966Y40182D01*
X45963Y40151D01*
X45961Y40140D01*
Y40132D01*
Y40126D01*
Y40124D01*
X45963Y40074D01*
X45974Y40027D01*
X45988Y39985D01*
X46005Y39952D01*
X46019Y39924D01*
X46033Y39902D01*
X46044Y39891D01*
X46047Y39885D01*
X46085Y39852D01*
X46130Y39824D01*
X46177Y39799D01*
X46227Y39780D01*
X46268Y39766D01*
X46288Y39761D01*
X46304Y39758D01*
X46318Y39755D01*
X46329Y39752D01*
X46335Y39750D01*
X46337D01*
X46307Y39514D01*
X46263Y39520D01*
X46221Y39528D01*
X46143Y39553D01*
X46077Y39583D01*
X46049Y39600D01*
X46022Y39617D01*
X45997Y39633D01*
X45977Y39650D01*
X45958Y39664D01*
X45944Y39678D01*
X45933Y39686D01*
X45925Y39694D01*
X45919Y39700D01*
X45916Y39702D01*
X45891Y39736D01*
X45867Y39769D01*
X45847Y39802D01*
X45831Y39838D01*
X45803Y39907D01*
X45786Y39974D01*
X45781Y40004D01*
X45775Y40032D01*
X45772Y40057D01*
X45770Y40079D01*
X45767Y40096D01*
Y40110D01*
Y40118D01*
Y40121D01*
X45770Y40173D01*
X45775Y40220D01*
X45783Y40268D01*
X45794Y40312D01*
X45808Y40353D01*
X45822Y40389D01*
X45839Y40425D01*
X45855Y40456D01*
X45869Y40486D01*
X45886Y40511D01*
X45900Y40533D01*
X45914Y40550D01*
X45925Y40564D01*
X45933Y40575D01*
X45939Y40580D01*
X45941Y40583D01*
X45974Y40617D01*
X46011Y40644D01*
X46047Y40669D01*
X46082Y40691D01*
X46116Y40708D01*
X46152Y40725D01*
X46218Y40747D01*
X46249Y40752D01*
X46276Y40758D01*
X46301Y40763D01*
X46323Y40766D01*
X46340Y40769D01*
X46365D01*
X46432Y40766D01*
D02*
G37*
G36*
X46847Y42251D02*
X46891D01*
X46936Y42248D01*
X46975Y42243D01*
X47013Y42240D01*
X47047Y42237D01*
X47077Y42231D01*
X47105Y42229D01*
X47130Y42223D01*
X47149Y42220D01*
X47166Y42218D01*
X47179Y42215D01*
X47188Y42212D01*
X47193Y42209D01*
X47196D01*
X47257Y42193D01*
X47312Y42173D01*
X47359Y42151D01*
X47401Y42134D01*
X47437Y42115D01*
X47462Y42104D01*
X47476Y42093D01*
X47481Y42090D01*
X47523Y42060D01*
X47559Y42029D01*
X47589Y41996D01*
X47617Y41965D01*
X47637Y41938D01*
X47650Y41916D01*
X47659Y41902D01*
X47661Y41899D01*
Y41896D01*
X47684Y41852D01*
X47697Y41805D01*
X47708Y41761D01*
X47717Y41719D01*
X47722Y41683D01*
X47725Y41653D01*
Y41641D01*
Y41633D01*
Y41630D01*
Y41628D01*
X47720Y41553D01*
X47708Y41484D01*
X47689Y41425D01*
X47670Y41375D01*
X47648Y41334D01*
X47639Y41317D01*
X47628Y41304D01*
X47623Y41292D01*
X47617Y41284D01*
X47612Y41281D01*
Y41279D01*
X47567Y41229D01*
X47515Y41187D01*
X47462Y41151D01*
X47412Y41123D01*
X47365Y41101D01*
X47346Y41090D01*
X47326Y41085D01*
X47312Y41079D01*
X47301Y41074D01*
X47296Y41071D01*
X47293D01*
X47251Y41060D01*
X47210Y41049D01*
X47118Y41032D01*
X47027Y41018D01*
X46941Y41010D01*
X46900Y41007D01*
X46864Y41004D01*
X46830D01*
X46800Y41002D01*
X46745D01*
X46648Y41004D01*
X46556Y41010D01*
X46473Y41018D01*
X46395Y41032D01*
X46323Y41046D01*
X46260Y41063D01*
X46202Y41079D01*
X46152Y41096D01*
X46108Y41112D01*
X46069Y41132D01*
X46035Y41146D01*
X46011Y41159D01*
X45988Y41173D01*
X45974Y41182D01*
X45966Y41187D01*
X45963Y41190D01*
X45930Y41220D01*
X45900Y41254D01*
X45872Y41290D01*
X45850Y41326D01*
X45831Y41362D01*
X45814Y41398D01*
X45803Y41434D01*
X45792Y41467D01*
X45783Y41500D01*
X45778Y41531D01*
X45772Y41558D01*
X45770Y41581D01*
X45767Y41600D01*
Y41616D01*
Y41625D01*
Y41628D01*
X45772Y41702D01*
X45783Y41772D01*
X45803Y41830D01*
X45822Y41880D01*
X45842Y41921D01*
X45853Y41935D01*
X45861Y41949D01*
X45867Y41960D01*
X45872Y41968D01*
X45878Y41971D01*
Y41974D01*
X45925Y42024D01*
X45974Y42065D01*
X46030Y42101D01*
X46080Y42129D01*
X46127Y42151D01*
X46146Y42162D01*
X46166Y42168D01*
X46180Y42173D01*
X46191Y42179D01*
X46196Y42182D01*
X46199D01*
X46240Y42195D01*
X46282Y42206D01*
X46371Y42223D01*
X46462Y42237D01*
X46551Y42245D01*
X46589Y42248D01*
X46626Y42251D01*
X46659D01*
X46689Y42254D01*
X46797D01*
X46847Y42251D01*
D02*
G37*
%LPC*%
G36*
X86631Y166245D02*
X85997D01*
Y165641D01*
X85999Y165567D01*
X86010Y165503D01*
X86024Y165447D01*
X86041Y165406D01*
X86057Y165370D01*
X86071Y165348D01*
X86082Y165334D01*
X86085Y165328D01*
X86121Y165295D01*
X86157Y165270D01*
X86196Y165253D01*
X86229Y165240D01*
X86262Y165234D01*
X86287Y165231D01*
X86304Y165229D01*
X86309D01*
X86343Y165231D01*
X86376Y165237D01*
X86404Y165245D01*
X86429Y165253D01*
X86451Y165265D01*
X86467Y165273D01*
X86478Y165278D01*
X86481Y165281D01*
X86509Y165301D01*
X86534Y165325D01*
X86553Y165350D01*
X86570Y165375D01*
X86581Y165398D01*
X86589Y165414D01*
X86595Y165425D01*
X86598Y165431D01*
X86609Y165470D01*
X86617Y165514D01*
X86623Y165558D01*
X86625Y165603D01*
X86628Y165641D01*
X86631Y165674D01*
Y165686D01*
Y165694D01*
Y165700D01*
Y165702D01*
Y166245D01*
D02*
G37*
G36*
X46789Y42013D02*
X46659D01*
X46581Y42007D01*
X46512Y42002D01*
X46445Y41996D01*
X46390Y41988D01*
X46337Y41977D01*
X46293Y41965D01*
X46251Y41957D01*
X46218Y41946D01*
X46191Y41935D01*
X46166Y41927D01*
X46146Y41916D01*
X46132Y41910D01*
X46124Y41905D01*
X46119Y41899D01*
X46116D01*
X46088Y41877D01*
X46066Y41855D01*
X46044Y41833D01*
X46027Y41810D01*
X45999Y41763D01*
X45980Y41722D01*
X45969Y41683D01*
X45963Y41655D01*
X45961Y41644D01*
Y41636D01*
Y41630D01*
Y41628D01*
X45963Y41597D01*
X45966Y41569D01*
X45986Y41517D01*
X46011Y41470D01*
X46038Y41428D01*
X46066Y41398D01*
X46091Y41373D01*
X46110Y41359D01*
X46113Y41353D01*
X46116D01*
X46149Y41334D01*
X46188Y41317D01*
X46232Y41301D01*
X46279Y41290D01*
X46329Y41279D01*
X46382Y41270D01*
X46490Y41256D01*
X46540Y41251D01*
X46587Y41248D01*
X46631Y41245D01*
X46667D01*
X46700Y41243D01*
X46745D01*
X46830Y41245D01*
X46908Y41248D01*
X46980Y41254D01*
X47047Y41262D01*
X47105Y41270D01*
X47157Y41281D01*
X47204Y41292D01*
X47246Y41304D01*
X47282Y41315D01*
X47312Y41323D01*
X47337Y41334D01*
X47359Y41342D01*
X47373Y41351D01*
X47384Y41356D01*
X47390Y41362D01*
X47393D01*
X47418Y41381D01*
X47440Y41400D01*
X47456Y41423D01*
X47473Y41445D01*
X47498Y41489D01*
X47515Y41531D01*
X47523Y41567D01*
X47528Y41597D01*
X47531Y41608D01*
Y41616D01*
Y41622D01*
Y41625D01*
X47528Y41655D01*
X47526Y41686D01*
X47517Y41714D01*
X47506Y41738D01*
X47481Y41785D01*
X47454Y41827D01*
X47423Y41857D01*
X47398Y41882D01*
X47387Y41891D01*
X47379Y41896D01*
X47376Y41902D01*
X47373D01*
X47340Y41921D01*
X47301Y41938D01*
X47257Y41954D01*
X47210Y41965D01*
X47160Y41977D01*
X47107Y41985D01*
X47002Y41999D01*
X46949Y42004D01*
X46902Y42007D01*
X46858Y42010D01*
X46822D01*
X46789Y42013D01*
D02*
G37*
G36*
X79560Y39631D02*
X79537D01*
X79490Y39628D01*
X79446Y39617D01*
X79410Y39604D01*
X79377Y39587D01*
X79352Y39570D01*
X79333Y39557D01*
X79319Y39545D01*
X79316Y39543D01*
X79285Y39507D01*
X79263Y39471D01*
X79247Y39435D01*
X79236Y39401D01*
X79230Y39371D01*
X79224Y39346D01*
Y39329D01*
Y39327D01*
Y39324D01*
X79227Y39279D01*
X79238Y39238D01*
X79252Y39202D01*
X79269Y39171D01*
X79285Y39147D01*
X79299Y39130D01*
X79310Y39116D01*
X79313Y39113D01*
X79346Y39086D01*
X79385Y39063D01*
X79421Y39050D01*
X79457Y39039D01*
X79490Y39033D01*
X79515Y39030D01*
X79532Y39027D01*
X79537D01*
X79587Y39030D01*
X79632Y39041D01*
X79670Y39055D01*
X79704Y39072D01*
X79729Y39086D01*
X79748Y39099D01*
X79762Y39110D01*
X79765Y39113D01*
X79792Y39147D01*
X79814Y39185D01*
X79828Y39221D01*
X79839Y39257D01*
X79845Y39288D01*
X79848Y39313D01*
X79851Y39329D01*
Y39332D01*
Y39335D01*
X79848Y39379D01*
X79837Y39418D01*
X79823Y39454D01*
X79806Y39484D01*
X79792Y39509D01*
X79778Y39529D01*
X79767Y39540D01*
X79765Y39543D01*
X79729Y39573D01*
X79693Y39595D01*
X79654Y39609D01*
X79618Y39620D01*
X79585Y39626D01*
X79560Y39631D01*
D02*
G37*
G36*
X52431Y24345D02*
X51797D01*
Y23741D01*
X51799Y23666D01*
X51810Y23603D01*
X51824Y23547D01*
X51841Y23506D01*
X51857Y23470D01*
X51871Y23448D01*
X51882Y23434D01*
X51885Y23428D01*
X51921Y23395D01*
X51957Y23370D01*
X51996Y23354D01*
X52029Y23340D01*
X52062Y23334D01*
X52087Y23331D01*
X52104Y23329D01*
X52109D01*
X52143Y23331D01*
X52176Y23337D01*
X52204Y23345D01*
X52229Y23354D01*
X52251Y23365D01*
X52267Y23373D01*
X52278Y23378D01*
X52281Y23381D01*
X52309Y23401D01*
X52334Y23426D01*
X52353Y23450D01*
X52370Y23475D01*
X52381Y23497D01*
X52389Y23514D01*
X52395Y23525D01*
X52398Y23531D01*
X52409Y23570D01*
X52417Y23614D01*
X52422Y23658D01*
X52425Y23702D01*
X52428Y23741D01*
X52431Y23775D01*
Y23786D01*
Y23794D01*
Y23799D01*
Y23802D01*
Y24345D01*
D02*
G37*
G36*
X93600Y163235D02*
X93555D01*
X93470Y163232D01*
X93392Y163230D01*
X93320Y163224D01*
X93253Y163216D01*
X93195Y163207D01*
X93143Y163196D01*
X93096Y163185D01*
X93054Y163174D01*
X93018Y163163D01*
X92988Y163155D01*
X92963Y163144D01*
X92940Y163135D01*
X92927Y163127D01*
X92916Y163121D01*
X92910Y163116D01*
X92907D01*
X92882Y163096D01*
X92860Y163077D01*
X92844Y163055D01*
X92827Y163033D01*
X92802Y162988D01*
X92785Y162947D01*
X92777Y162911D01*
X92772Y162880D01*
X92769Y162869D01*
Y162861D01*
Y162856D01*
Y162853D01*
X92772Y162822D01*
X92774Y162792D01*
X92783Y162764D01*
X92794Y162739D01*
X92819Y162692D01*
X92846Y162651D01*
X92877Y162620D01*
X92902Y162595D01*
X92913Y162587D01*
X92921Y162581D01*
X92924Y162576D01*
X92927D01*
X92960Y162556D01*
X92999Y162540D01*
X93043Y162523D01*
X93090Y162512D01*
X93140Y162501D01*
X93193Y162493D01*
X93298Y162479D01*
X93350Y162473D01*
X93397Y162470D01*
X93442Y162468D01*
X93478D01*
X93511Y162465D01*
X93641D01*
X93719Y162470D01*
X93788Y162476D01*
X93855Y162482D01*
X93910Y162490D01*
X93963Y162501D01*
X94007Y162512D01*
X94049Y162520D01*
X94082Y162531D01*
X94109Y162542D01*
X94134Y162551D01*
X94154Y162562D01*
X94168Y162567D01*
X94176Y162573D01*
X94181Y162578D01*
X94184D01*
X94212Y162601D01*
X94234Y162623D01*
X94256Y162645D01*
X94273Y162667D01*
X94301Y162714D01*
X94320Y162756D01*
X94331Y162795D01*
X94337Y162822D01*
X94339Y162833D01*
Y162842D01*
Y162847D01*
Y162850D01*
X94337Y162880D01*
X94334Y162908D01*
X94314Y162961D01*
X94289Y163008D01*
X94262Y163049D01*
X94234Y163080D01*
X94209Y163105D01*
X94190Y163119D01*
X94187Y163124D01*
X94184D01*
X94151Y163144D01*
X94112Y163160D01*
X94068Y163177D01*
X94021Y163188D01*
X93971Y163199D01*
X93918Y163207D01*
X93810Y163221D01*
X93760Y163227D01*
X93713Y163230D01*
X93669Y163232D01*
X93633D01*
X93600Y163235D01*
D02*
G37*
G36*
X81431Y166245D02*
X80796D01*
Y165641D01*
X80799Y165567D01*
X80810Y165503D01*
X80824Y165447D01*
X80841Y165406D01*
X80857Y165370D01*
X80871Y165348D01*
X80882Y165334D01*
X80885Y165328D01*
X80921Y165295D01*
X80957Y165270D01*
X80996Y165253D01*
X81029Y165240D01*
X81062Y165234D01*
X81087Y165231D01*
X81104Y165229D01*
X81109D01*
X81143Y165231D01*
X81176Y165237D01*
X81204Y165245D01*
X81229Y165253D01*
X81251Y165265D01*
X81267Y165273D01*
X81278Y165278D01*
X81281Y165281D01*
X81309Y165301D01*
X81334Y165325D01*
X81353Y165350D01*
X81370Y165375D01*
X81381Y165398D01*
X81389Y165414D01*
X81395Y165425D01*
X81397Y165431D01*
X81409Y165470D01*
X81417Y165514D01*
X81423Y165558D01*
X81425Y165603D01*
X81428Y165641D01*
X81431Y165674D01*
Y165686D01*
Y165694D01*
Y165700D01*
Y165702D01*
Y166245D01*
D02*
G37*
G36*
X79895Y118770D02*
X76192D01*
Y116594D01*
X76886D01*
Y113678D01*
X74711D01*
Y116594D01*
X75451D01*
Y118770D01*
X71794D01*
Y116594D01*
X72489D01*
Y114326D01*
Y112937D01*
X73970Y111456D01*
X77627D01*
X79154Y112937D01*
Y116594D01*
X79895D01*
Y118770D01*
D02*
G37*
G36*
X63331Y24245D02*
X62696D01*
Y23641D01*
X62699Y23566D01*
X62710Y23503D01*
X62724Y23447D01*
X62741Y23406D01*
X62757Y23370D01*
X62771Y23348D01*
X62782Y23334D01*
X62785Y23328D01*
X62821Y23295D01*
X62857Y23270D01*
X62896Y23254D01*
X62929Y23240D01*
X62962Y23234D01*
X62987Y23231D01*
X63004Y23229D01*
X63010D01*
X63043Y23231D01*
X63076Y23237D01*
X63104Y23245D01*
X63129Y23254D01*
X63151Y23265D01*
X63167Y23273D01*
X63178Y23278D01*
X63181Y23281D01*
X63209Y23301D01*
X63234Y23325D01*
X63253Y23350D01*
X63270Y23375D01*
X63281Y23397D01*
X63289Y23414D01*
X63295Y23425D01*
X63297Y23431D01*
X63309Y23470D01*
X63317Y23514D01*
X63323Y23558D01*
X63325Y23603D01*
X63328Y23641D01*
X63331Y23674D01*
Y23686D01*
Y23694D01*
Y23699D01*
Y23702D01*
Y24245D01*
D02*
G37*
G36*
X39045Y2703D02*
X38441D01*
X38366Y2701D01*
X38303Y2690D01*
X38247Y2676D01*
X38206Y2659D01*
X38170Y2643D01*
X38148Y2629D01*
X38134Y2618D01*
X38128Y2615D01*
X38095Y2579D01*
X38070Y2543D01*
X38054Y2504D01*
X38040Y2471D01*
X38034Y2438D01*
X38031Y2413D01*
X38029Y2396D01*
Y2393D01*
Y2390D01*
X38031Y2357D01*
X38037Y2324D01*
X38045Y2296D01*
X38054Y2271D01*
X38065Y2249D01*
X38073Y2233D01*
X38078Y2222D01*
X38081Y2219D01*
X38101Y2191D01*
X38126Y2166D01*
X38151Y2147D01*
X38175Y2130D01*
X38197Y2119D01*
X38214Y2111D01*
X38225Y2105D01*
X38231Y2103D01*
X38270Y2091D01*
X38314Y2083D01*
X38358Y2077D01*
X38403Y2075D01*
X38441Y2072D01*
X38475Y2069D01*
X39045D01*
Y2703D01*
D02*
G37*
G36*
X63799Y20916D02*
X63779D01*
X63713Y20910D01*
X63655Y20899D01*
X63602Y20880D01*
X63561Y20860D01*
X63525Y20841D01*
X63500Y20821D01*
X63486Y20810D01*
X63480Y20805D01*
X63442Y20761D01*
X63414Y20716D01*
X63392Y20669D01*
X63378Y20628D01*
X63370Y20589D01*
X63367Y20561D01*
X63364Y20550D01*
Y20542D01*
Y20536D01*
Y20533D01*
X63370Y20475D01*
X63383Y20423D01*
X63400Y20378D01*
X63422Y20339D01*
X63444Y20309D01*
X63461Y20287D01*
X63475Y20273D01*
X63480Y20267D01*
X63527Y20231D01*
X63577Y20204D01*
X63630Y20184D01*
X63680Y20173D01*
X63724Y20165D01*
X63744Y20162D01*
X63760D01*
X63774Y20159D01*
X63793D01*
X63868Y20165D01*
X63932Y20176D01*
X63987Y20193D01*
X64034Y20212D01*
X64070Y20234D01*
X64098Y20251D01*
X64115Y20262D01*
X64117Y20267D01*
X64120D01*
X64142Y20287D01*
X64159Y20309D01*
X64189Y20353D01*
X64209Y20398D01*
X64226Y20436D01*
X64234Y20472D01*
X64237Y20500D01*
X64239Y20511D01*
Y20519D01*
Y20522D01*
Y20525D01*
X64237Y20564D01*
X64231Y20600D01*
X64220Y20633D01*
X64209Y20661D01*
X64201Y20686D01*
X64189Y20705D01*
X64184Y20716D01*
X64181Y20722D01*
X64156Y20755D01*
X64131Y20783D01*
X64101Y20808D01*
X64076Y20827D01*
X64051Y20844D01*
X64032Y20855D01*
X64018Y20863D01*
X64012Y20866D01*
X63971Y20882D01*
X63929Y20893D01*
X63890Y20904D01*
X63854Y20910D01*
X63824Y20913D01*
X63799Y20916D01*
D02*
G37*
G36*
X52824Y21126D02*
X51965Y20523D01*
X52824D01*
Y21126D01*
D02*
G37*
G36*
X51895Y45336D02*
X51878D01*
X51817Y45331D01*
X51762Y45320D01*
X51712Y45300D01*
X51670Y45281D01*
X51637Y45259D01*
X51612Y45239D01*
X51598Y45228D01*
X51593Y45223D01*
X51554Y45178D01*
X51526Y45131D01*
X51507Y45084D01*
X51493Y45043D01*
X51485Y45001D01*
X51482Y44971D01*
X51479Y44960D01*
Y44951D01*
Y44946D01*
Y44943D01*
X51485Y44885D01*
X51496Y44829D01*
X51515Y44782D01*
X51534Y44743D01*
X51554Y44713D01*
X51573Y44688D01*
X51584Y44674D01*
X51590Y44669D01*
X51634Y44633D01*
X51679Y44605D01*
X51726Y44588D01*
X51770Y44574D01*
X51809Y44566D01*
X51842Y44563D01*
X51853Y44561D01*
X51870D01*
X51908Y44563D01*
X51947Y44569D01*
X51983Y44577D01*
X52014Y44586D01*
X52039Y44594D01*
X52058Y44602D01*
X52069Y44608D01*
X52075Y44611D01*
X52108Y44633D01*
X52136Y44655D01*
X52161Y44680D01*
X52180Y44705D01*
X52197Y44724D01*
X52208Y44741D01*
X52213Y44755D01*
X52216Y44757D01*
X52230Y44793D01*
X52241Y44827D01*
X52249Y44860D01*
X52255Y44890D01*
X52257Y44915D01*
X52260Y44935D01*
Y44946D01*
Y44951D01*
X52255Y45009D01*
X52244Y45062D01*
X52227Y45109D01*
X52205Y45151D01*
X52185Y45181D01*
X52169Y45206D01*
X52158Y45220D01*
X52152Y45226D01*
X52111Y45261D01*
X52064Y45289D01*
X52019Y45309D01*
X51975Y45322D01*
X51936Y45331D01*
X51906Y45333D01*
X51895Y45336D01*
D02*
G37*
G36*
X16231Y6345D02*
X15596D01*
Y5741D01*
X15599Y5666D01*
X15610Y5603D01*
X15624Y5547D01*
X15641Y5506D01*
X15657Y5470D01*
X15671Y5448D01*
X15682Y5434D01*
X15685Y5428D01*
X15721Y5395D01*
X15757Y5370D01*
X15796Y5353D01*
X15829Y5340D01*
X15862Y5334D01*
X15887Y5331D01*
X15904Y5329D01*
X15910D01*
X15943Y5331D01*
X15976Y5337D01*
X16004Y5345D01*
X16029Y5353D01*
X16051Y5365D01*
X16067Y5373D01*
X16078Y5378D01*
X16081Y5381D01*
X16109Y5401D01*
X16134Y5426D01*
X16153Y5451D01*
X16170Y5475D01*
X16181Y5497D01*
X16189Y5514D01*
X16195Y5525D01*
X16197Y5531D01*
X16209Y5570D01*
X16217Y5614D01*
X16222Y5658D01*
X16225Y5703D01*
X16228Y5741D01*
X16231Y5774D01*
Y5786D01*
Y5794D01*
Y5799D01*
Y5802D01*
Y6345D01*
D02*
G37*
G36*
X27924Y16239D02*
X27065Y15635D01*
X27924D01*
Y16239D01*
D02*
G37*
G36*
X93431Y166545D02*
X92796D01*
Y165941D01*
X92799Y165866D01*
X92810Y165803D01*
X92824Y165747D01*
X92841Y165706D01*
X92857Y165670D01*
X92871Y165648D01*
X92882Y165634D01*
X92885Y165628D01*
X92921Y165595D01*
X92957Y165570D01*
X92996Y165553D01*
X93029Y165540D01*
X93062Y165534D01*
X93087Y165531D01*
X93104Y165529D01*
X93110D01*
X93143Y165531D01*
X93176Y165537D01*
X93204Y165545D01*
X93229Y165553D01*
X93251Y165565D01*
X93267Y165573D01*
X93278Y165578D01*
X93281Y165581D01*
X93309Y165601D01*
X93334Y165626D01*
X93353Y165650D01*
X93370Y165675D01*
X93381Y165698D01*
X93389Y165714D01*
X93395Y165725D01*
X93397Y165731D01*
X93409Y165770D01*
X93417Y165814D01*
X93423Y165858D01*
X93425Y165902D01*
X93428Y165941D01*
X93431Y165974D01*
Y165986D01*
Y165994D01*
Y165999D01*
Y166002D01*
Y166545D01*
D02*
G37*
G36*
X99045Y182190D02*
X98602D01*
X98566Y182187D01*
X98530D01*
X98497Y182184D01*
X98441Y182176D01*
X98397Y182170D01*
X98361Y182162D01*
X98336Y182154D01*
X98322Y182151D01*
X98317Y182148D01*
X98267Y182123D01*
X98220Y182093D01*
X98178Y182057D01*
X98142Y182021D01*
X98114Y181988D01*
X98092Y181960D01*
X98087Y181949D01*
X98081Y181940D01*
X98076Y181935D01*
Y181932D01*
X98059Y181902D01*
X98042Y181866D01*
X98018Y181794D01*
X98001Y181716D01*
X97987Y181641D01*
X97984Y181608D01*
X97982Y181575D01*
X97979Y181547D01*
Y181522D01*
X97976Y181500D01*
Y181486D01*
Y181475D01*
Y181472D01*
X97979Y181395D01*
X97984Y181323D01*
X97993Y181259D01*
X98001Y181204D01*
X98006Y181181D01*
X98012Y181162D01*
X98018Y181143D01*
X98020Y181129D01*
X98023Y181118D01*
X98026Y181109D01*
X98029Y181104D01*
Y181101D01*
X98048Y181049D01*
X98070Y181001D01*
X98095Y180960D01*
X98117Y180924D01*
X98137Y180896D01*
X98153Y180877D01*
X98164Y180866D01*
X98167Y180860D01*
X98195Y180838D01*
X98223Y180819D01*
X98250Y180802D01*
X98278Y180785D01*
X98303Y180774D01*
X98322Y180766D01*
X98336Y180763D01*
X98342Y180760D01*
X98383Y180749D01*
X98433Y180741D01*
X98483Y180735D01*
X98530Y180733D01*
X98571Y180730D01*
X98591Y180727D01*
X99045D01*
Y182190D01*
D02*
G37*
G36*
X16699Y4506D02*
X16680D01*
X16613Y4500D01*
X16555Y4489D01*
X16502Y4470D01*
X16461Y4451D01*
X16425Y4431D01*
X16400Y4412D01*
X16386Y4401D01*
X16380Y4395D01*
X16342Y4351D01*
X16314Y4306D01*
X16292Y4259D01*
X16278Y4218D01*
X16270Y4179D01*
X16267Y4151D01*
X16264Y4140D01*
Y4132D01*
Y4126D01*
Y4124D01*
X16270Y4065D01*
X16283Y4013D01*
X16300Y3968D01*
X16322Y3930D01*
X16344Y3899D01*
X16361Y3877D01*
X16375Y3863D01*
X16380Y3858D01*
X16427Y3822D01*
X16477Y3794D01*
X16530Y3775D01*
X16580Y3763D01*
X16624Y3755D01*
X16644Y3752D01*
X16660D01*
X16674Y3750D01*
X16693D01*
X16768Y3755D01*
X16832Y3766D01*
X16887Y3783D01*
X16934Y3802D01*
X16970Y3824D01*
X16998Y3841D01*
X17015Y3852D01*
X17018Y3858D01*
X17020D01*
X17042Y3877D01*
X17059Y3899D01*
X17089Y3944D01*
X17109Y3988D01*
X17126Y4027D01*
X17134Y4063D01*
X17137Y4090D01*
X17139Y4101D01*
Y4110D01*
Y4112D01*
Y4115D01*
X17137Y4154D01*
X17131Y4190D01*
X17120Y4223D01*
X17109Y4251D01*
X17101Y4276D01*
X17089Y4295D01*
X17084Y4306D01*
X17081Y4312D01*
X17056Y4345D01*
X17031Y4373D01*
X17001Y4398D01*
X16976Y4417D01*
X16951Y4434D01*
X16932Y4445D01*
X16918Y4453D01*
X16912Y4456D01*
X16871Y4473D01*
X16829Y4484D01*
X16790Y4495D01*
X16754Y4500D01*
X16724Y4503D01*
X16699Y4506D01*
D02*
G37*
G36*
X21972Y74776D02*
X21938D01*
X21822Y74765D01*
X21716Y74737D01*
X21628Y74704D01*
X21550Y74659D01*
X21489Y74615D01*
X21444Y74581D01*
X21417Y74554D01*
X21406Y74543D01*
X21333Y74448D01*
X21278Y74348D01*
X21239Y74243D01*
X21217Y74143D01*
X21200Y74054D01*
X21195Y74015D01*
Y73982D01*
X21189Y73954D01*
Y73932D01*
Y73921D01*
Y73915D01*
X21200Y73766D01*
X21222Y73638D01*
X21256Y73527D01*
X21294Y73433D01*
X21339Y73361D01*
X21372Y73305D01*
X21394Y73272D01*
X21406Y73266D01*
Y73261D01*
X21444Y73216D01*
X21489Y73183D01*
X21577Y73122D01*
X21666Y73083D01*
X21744Y73050D01*
X21816Y73033D01*
X21872Y73027D01*
X21894Y73022D01*
X21922D01*
X21999Y73027D01*
X22072Y73039D01*
X22138Y73061D01*
X22194Y73083D01*
X22243Y73100D01*
X22282Y73122D01*
X22305Y73133D01*
X22316Y73138D01*
X22382Y73188D01*
X22438Y73238D01*
X22488Y73299D01*
X22527Y73349D01*
X22560Y73399D01*
X22582Y73438D01*
X22599Y73466D01*
X22604Y73477D01*
X22638Y73560D01*
X22660Y73643D01*
X22682Y73721D01*
X22693Y73793D01*
X22699Y73854D01*
X22704Y73904D01*
Y73932D01*
Y73943D01*
X22693Y74076D01*
X22671Y74193D01*
X22632Y74298D01*
X22593Y74382D01*
X22554Y74454D01*
X22515Y74504D01*
X22493Y74532D01*
X22482Y74543D01*
X22393Y74620D01*
X22305Y74676D01*
X22210Y74720D01*
X22127Y74748D01*
X22049Y74765D01*
X21994Y74770D01*
X21972Y74776D01*
D02*
G37*
G36*
X51892Y46131D02*
X51870D01*
X51823Y46128D01*
X51778Y46117D01*
X51742Y46104D01*
X51709Y46087D01*
X51684Y46070D01*
X51665Y46057D01*
X51651Y46045D01*
X51648Y46043D01*
X51618Y46007D01*
X51595Y45971D01*
X51579Y45935D01*
X51568Y45901D01*
X51562Y45871D01*
X51557Y45846D01*
Y45829D01*
Y45827D01*
Y45824D01*
X51559Y45779D01*
X51570Y45738D01*
X51584Y45702D01*
X51601Y45671D01*
X51618Y45647D01*
X51631Y45630D01*
X51643Y45616D01*
X51645Y45613D01*
X51679Y45586D01*
X51717Y45563D01*
X51753Y45549D01*
X51789Y45538D01*
X51823Y45533D01*
X51847Y45530D01*
X51864Y45527D01*
X51870D01*
X51920Y45530D01*
X51964Y45541D01*
X52003Y45555D01*
X52036Y45572D01*
X52061Y45586D01*
X52080Y45599D01*
X52094Y45610D01*
X52097Y45613D01*
X52125Y45647D01*
X52147Y45685D01*
X52161Y45721D01*
X52172Y45757D01*
X52177Y45788D01*
X52180Y45813D01*
X52183Y45829D01*
Y45832D01*
Y45835D01*
X52180Y45879D01*
X52169Y45918D01*
X52155Y45954D01*
X52138Y45984D01*
X52125Y46009D01*
X52111Y46029D01*
X52100Y46040D01*
X52097Y46043D01*
X52061Y46073D01*
X52025Y46095D01*
X51986Y46109D01*
X51950Y46120D01*
X51917Y46126D01*
X51892Y46131D01*
D02*
G37*
G36*
X81745Y39604D02*
X81141D01*
X81067Y39601D01*
X81003Y39590D01*
X80947Y39576D01*
X80906Y39559D01*
X80870Y39543D01*
X80848Y39529D01*
X80834Y39518D01*
X80828Y39515D01*
X80795Y39479D01*
X80770Y39443D01*
X80753Y39404D01*
X80740Y39371D01*
X80734Y39338D01*
X80731Y39313D01*
X80729Y39296D01*
Y39293D01*
Y39290D01*
X80731Y39257D01*
X80737Y39224D01*
X80745Y39196D01*
X80753Y39171D01*
X80765Y39149D01*
X80773Y39133D01*
X80778Y39122D01*
X80781Y39119D01*
X80801Y39091D01*
X80826Y39066D01*
X80850Y39047D01*
X80875Y39030D01*
X80897Y39019D01*
X80914Y39011D01*
X80925Y39005D01*
X80931Y39002D01*
X80970Y38991D01*
X81014Y38983D01*
X81058Y38978D01*
X81103Y38975D01*
X81141Y38972D01*
X81174Y38969D01*
X81745D01*
Y39604D01*
D02*
G37*
G36*
X79562Y38836D02*
X79546D01*
X79485Y38831D01*
X79429Y38820D01*
X79380Y38800D01*
X79338Y38781D01*
X79305Y38759D01*
X79280Y38739D01*
X79266Y38728D01*
X79260Y38723D01*
X79222Y38678D01*
X79194Y38631D01*
X79175Y38584D01*
X79161Y38543D01*
X79152Y38501D01*
X79150Y38471D01*
X79147Y38460D01*
Y38451D01*
Y38446D01*
Y38443D01*
X79152Y38385D01*
X79163Y38329D01*
X79183Y38282D01*
X79202Y38243D01*
X79222Y38213D01*
X79241Y38188D01*
X79252Y38174D01*
X79258Y38169D01*
X79302Y38133D01*
X79346Y38105D01*
X79393Y38088D01*
X79438Y38074D01*
X79476Y38066D01*
X79510Y38063D01*
X79521Y38061D01*
X79537D01*
X79576Y38063D01*
X79615Y38069D01*
X79651Y38077D01*
X79681Y38086D01*
X79706Y38094D01*
X79726Y38102D01*
X79737Y38108D01*
X79742Y38111D01*
X79776Y38133D01*
X79803Y38155D01*
X79828Y38180D01*
X79848Y38205D01*
X79864Y38224D01*
X79875Y38241D01*
X79881Y38255D01*
X79884Y38257D01*
X79898Y38293D01*
X79909Y38327D01*
X79917Y38360D01*
X79922Y38390D01*
X79925Y38415D01*
X79928Y38435D01*
Y38446D01*
Y38451D01*
X79922Y38509D01*
X79911Y38562D01*
X79895Y38609D01*
X79873Y38651D01*
X79853Y38681D01*
X79837Y38706D01*
X79826Y38720D01*
X79820Y38726D01*
X79778Y38761D01*
X79731Y38789D01*
X79687Y38809D01*
X79643Y38822D01*
X79604Y38831D01*
X79574Y38833D01*
X79562Y38836D01*
D02*
G37*
G36*
X81845Y44704D02*
X81241D01*
X81166Y44701D01*
X81103Y44690D01*
X81047Y44676D01*
X81006Y44659D01*
X80970Y44643D01*
X80948Y44629D01*
X80934Y44618D01*
X80928Y44615D01*
X80895Y44579D01*
X80870Y44543D01*
X80853Y44504D01*
X80840Y44471D01*
X80834Y44438D01*
X80831Y44413D01*
X80829Y44396D01*
Y44393D01*
Y44390D01*
X80831Y44357D01*
X80837Y44324D01*
X80845Y44296D01*
X80853Y44271D01*
X80865Y44249D01*
X80873Y44233D01*
X80878Y44222D01*
X80881Y44219D01*
X80901Y44191D01*
X80926Y44166D01*
X80950Y44147D01*
X80975Y44130D01*
X80998Y44119D01*
X81014Y44111D01*
X81025Y44105D01*
X81031Y44102D01*
X81070Y44091D01*
X81114Y44083D01*
X81158Y44078D01*
X81203Y44075D01*
X81241Y44072D01*
X81274Y44069D01*
X81845D01*
Y44704D01*
D02*
G37*
G36*
X103245Y44404D02*
X102641D01*
X102567Y44401D01*
X102503Y44390D01*
X102447Y44376D01*
X102406Y44359D01*
X102370Y44343D01*
X102348Y44329D01*
X102334Y44318D01*
X102328Y44315D01*
X102295Y44279D01*
X102270Y44243D01*
X102253Y44204D01*
X102240Y44171D01*
X102234Y44138D01*
X102231Y44113D01*
X102229Y44096D01*
Y44093D01*
Y44091D01*
X102231Y44057D01*
X102237Y44024D01*
X102245Y43996D01*
X102253Y43971D01*
X102265Y43949D01*
X102273Y43933D01*
X102278Y43922D01*
X102281Y43919D01*
X102301Y43891D01*
X102325Y43866D01*
X102350Y43847D01*
X102375Y43830D01*
X102398Y43819D01*
X102414Y43811D01*
X102425Y43805D01*
X102431Y43802D01*
X102470Y43791D01*
X102514Y43783D01*
X102558Y43777D01*
X102603Y43775D01*
X102641Y43772D01*
X102674Y43769D01*
X103245D01*
Y44404D01*
D02*
G37*
%LPD*%
D27*
X73400Y42000D02*
Y45000D01*
X73500Y37200D02*
Y40200D01*
X61900Y31300D02*
X64900D01*
X18800Y4900D02*
X21800D01*
X85300Y172500D02*
X88300D01*
X50700Y31400D02*
X53700D01*
X1487Y13610D02*
Y27390D01*
X17727Y12134D02*
Y13610D01*
X16743Y11150D02*
X17727Y12134D01*
X15266Y11150D02*
X16743D01*
X17727Y27390D02*
Y28866D01*
X16743Y29850D02*
X17727Y28866D01*
X14774Y29850D02*
X16743D01*
X80100Y172400D02*
X83100D01*
X92100Y172500D02*
X95100D01*
X94000Y42200D02*
Y45200D01*
X29100Y1000D02*
Y4000D01*
D31*
X83579Y184240D02*
X93421D01*
D71*
X44105Y26320D02*
G03*
X44105Y26320I-492J0D01*
G01*
X6583Y44653D02*
G03*
X6583Y44653I-492J0D01*
G01*
D72*
X16918Y48847D02*
G03*
X16918Y48847I-1181J0D01*
G01*
D73*
X31409Y24253D02*
X32590D01*
X31409D02*
Y25041D01*
Y4962D02*
Y5750D01*
X32590D01*
X44794D02*
X45976D01*
Y4962D02*
Y5750D01*
Y24253D02*
Y25041D01*
X44794Y24253D02*
X45976D01*
X53806Y41122D02*
X54594D01*
X53806Y43878D02*
X54594D01*
X71378Y29106D02*
Y29894D01*
X68622Y29106D02*
Y29894D01*
X59178Y31006D02*
Y31794D01*
X56422Y31006D02*
Y31794D01*
X45622Y31206D02*
Y31994D01*
X48378Y31206D02*
Y31994D01*
X53106Y50578D02*
X53894D01*
X53106Y47822D02*
X53894D01*
X11800Y44909D02*
Y96091D01*
X36800Y44909D02*
Y96091D01*
X11800Y44909D02*
X36800D01*
X11800Y96091D02*
X36800D01*
X26560Y33725D02*
Y36875D01*
X34040Y33725D02*
Y36875D01*
X93906Y39178D02*
X94694D01*
X93906Y36422D02*
X94694D01*
X22422Y15706D02*
Y16494D01*
X25178Y15706D02*
Y16494D01*
X23278Y36006D02*
Y36794D01*
X20522Y36006D02*
Y36794D01*
D130*
X65418Y781D02*
X105182D01*
M02*
