%FSLAX25Y25*%
%MOIN*%
G70*
G01*
G75*
G04 Layer_Physical_Order=1*
G04 Layer_Color=255*
%ADD10O,0.02559X0.00984*%
%ADD11O,0.00984X0.02559*%
%ADD12R,0.13780X0.13780*%
%ADD13R,0.00984X0.02150*%
%ADD14R,0.02150X0.00984*%
%ADD15C,0.02953*%
%ADD16R,0.04331X0.05118*%
%ADD17R,0.03740X0.03543*%
%ADD18R,0.03543X0.03150*%
%ADD19R,0.03543X0.03740*%
%ADD20R,0.03150X0.03543*%
%ADD21O,0.02362X0.07284*%
%ADD22R,0.01378X0.03937*%
%ADD23O,0.03465X0.01102*%
%ADD24O,0.01102X0.03465*%
%ADD25R,0.20866X0.20866*%
%ADD26C,0.04700*%
%ADD27C,0.01000*%
%ADD28C,0.00600*%
%ADD29C,0.01640*%
%ADD30C,0.01200*%
%ADD31C,0.00800*%
%ADD32C,0.02000*%
%ADD33C,0.01100*%
%ADD34C,0.01500*%
%ADD35O,0.09843X0.10827*%
%ADD36C,0.12500*%
%ADD37C,0.10000*%
%ADD38C,0.02200*%
%ADD39C,0.02598*%
%ADD40C,0.05000*%
G36*
X68181Y118672D02*
X68181D01*
Y113928D01*
X68181D01*
Y113572D01*
X68081Y113472D01*
X68081D01*
Y108728D01*
X69005D01*
X69045Y108670D01*
X69249Y108287D01*
X68899Y107763D01*
X68767Y107100D01*
X68899Y106437D01*
X69085Y106159D01*
X68849Y105718D01*
X67000D01*
X66707Y105659D01*
X66649Y105648D01*
X66351Y105449D01*
X65451Y104549D01*
X65252Y104251D01*
X65182Y103900D01*
Y94861D01*
X65139Y94818D01*
X63578D01*
X63226Y94748D01*
X62929Y94549D01*
X60351Y91971D01*
X60152Y91674D01*
X60082Y91322D01*
Y86080D01*
X58980Y84977D01*
X58518Y85169D01*
Y87800D01*
X58448Y88151D01*
X58249Y88449D01*
X55549Y91149D01*
X55251Y91348D01*
X54900Y91418D01*
X38831D01*
X38626Y91726D01*
X38063Y92101D01*
X37400Y92233D01*
X36737Y92101D01*
X36174Y91726D01*
X35799Y91163D01*
X35667Y90500D01*
X35799Y89837D01*
X35689Y89571D01*
X35337Y89501D01*
X34774Y89126D01*
X34399Y88563D01*
X34267Y87900D01*
X34399Y87237D01*
X34774Y86674D01*
X35337Y86299D01*
X36000Y86167D01*
X36663Y86299D01*
X36852Y86425D01*
X38226Y85051D01*
X38524Y84852D01*
X38875Y84782D01*
X51720D01*
X52885Y83618D01*
Y80108D01*
X52885Y80108D01*
X52885D01*
X52955Y79757D01*
X53153Y79459D01*
X58262Y74351D01*
X58262D01*
X58262Y74351D01*
X58262Y74351D01*
Y74351D01*
X58412Y74251D01*
Y73751D01*
X58235Y73633D01*
X57901Y73299D01*
X52672D01*
Y74751D01*
X49900D01*
Y75151D01*
X49500D01*
Y78021D01*
X47128D01*
Y78021D01*
X46920D01*
X46872Y78070D01*
Y78070D01*
X44500D01*
Y75200D01*
X44100D01*
Y74800D01*
X41328D01*
Y73723D01*
X40866Y73531D01*
X39061Y75337D01*
X39133Y75700D01*
X39001Y76363D01*
X38626Y76926D01*
X38063Y77301D01*
X37400Y77433D01*
X36737Y77301D01*
X36559Y77182D01*
X36118Y77418D01*
Y80800D01*
X36048Y81151D01*
X35849Y81449D01*
X33018Y84280D01*
Y100525D01*
X40808Y108315D01*
X41007Y108613D01*
X41077Y108964D01*
Y115423D01*
X41373Y115481D01*
X41648Y115665D01*
X41847Y115559D01*
X41969Y115074D01*
X41805Y114829D01*
X41689Y114246D01*
Y113859D01*
X43210D01*
Y113459D01*
X43610D01*
Y110909D01*
X43682Y110850D01*
Y107600D01*
X43752Y107249D01*
X43951Y106951D01*
X44839Y106063D01*
X44767Y105700D01*
X44899Y105037D01*
X45274Y104474D01*
X45837Y104099D01*
X46500Y103967D01*
X47163Y104099D01*
X47726Y104474D01*
X47950Y104810D01*
X48428Y104665D01*
Y103049D01*
X50800D01*
Y105519D01*
X48428D01*
X48428Y105519D01*
Y105519D01*
X48343Y105536D01*
X48233Y105700D01*
D01*
X48101Y106363D01*
X47726Y106926D01*
X47458Y107105D01*
X47555Y107595D01*
X47811Y107646D01*
X48373Y108022D01*
X48828Y107717D01*
Y106281D01*
X53572D01*
Y106281D01*
X53572D01*
X53572Y106281D01*
X53828D01*
Y106281D01*
X58572D01*
Y107246D01*
X59013Y107482D01*
X59437Y107199D01*
X60100Y107067D01*
X60763Y107199D01*
X61326Y107574D01*
X61701Y108137D01*
X61739Y108328D01*
X64049D01*
Y111100D01*
X64449D01*
Y111500D01*
X67319D01*
Y113872D01*
X67019D01*
Y113928D01*
X67019D01*
Y118672D01*
D01*
Y118672D01*
X67030Y118682D01*
X68181D01*
Y118672D01*
D02*
G37*
G36*
X56076Y88026D02*
X55840Y87586D01*
X55600Y87633D01*
X54937Y87501D01*
X54374Y87126D01*
X53999Y86563D01*
X53867Y85900D01*
X53309Y85789D01*
X52749Y86349D01*
X52451Y86548D01*
X52100Y86618D01*
X39255D01*
X37674Y88199D01*
X37601Y88563D01*
X37711Y88829D01*
X38063Y88899D01*
X38626Y89274D01*
X38831Y89582D01*
X54520D01*
X56076Y88026D01*
D02*
G37*
G36*
X104328Y81679D02*
X104769D01*
Y79810D01*
X104767Y79800D01*
X104869Y79287D01*
Y77821D01*
X104028D01*
Y76983D01*
X102972D01*
Y77821D01*
X98228D01*
Y74638D01*
X96843Y73253D01*
X96457Y73570D01*
X96501Y73637D01*
X96633Y74300D01*
X96501Y74963D01*
X96126Y75526D01*
X95563Y75901D01*
X94900Y76033D01*
X94237Y75901D01*
X93674Y75526D01*
X93299Y74963D01*
X93167Y74300D01*
X93169Y74288D01*
X92852Y73902D01*
X91473D01*
X91238Y74343D01*
X91345Y74504D01*
X91434Y74953D01*
X91345Y75402D01*
X91310Y75455D01*
X91379Y75803D01*
X91379Y75803D01*
X91379D01*
X91722Y76316D01*
X91763Y76521D01*
X89079D01*
Y77321D01*
X91763D01*
X91722Y77526D01*
X91688Y77577D01*
X91783Y77807D01*
X92163Y78061D01*
X92163Y78061D01*
X92163Y78061D01*
X97179Y83076D01*
X98828D01*
Y81679D01*
X103572D01*
Y83076D01*
X104328D01*
Y81679D01*
D02*
G37*
G36*
X107300Y93121D02*
X107100D01*
Y90251D01*
Y87381D01*
X107300D01*
Y86619D01*
X104328D01*
Y85421D01*
X103572D01*
Y86619D01*
X98828D01*
Y85421D01*
X96693D01*
X96245Y85332D01*
X95864Y85078D01*
X92212Y81426D01*
X91714Y81475D01*
X91379Y81977D01*
Y81977D01*
X91379D01*
X91310Y82325D01*
X91345Y82378D01*
X91434Y82827D01*
X91345Y83276D01*
X91091Y83657D01*
X90710Y83911D01*
X90261Y84000D01*
X90031D01*
X90010Y88474D01*
X90363Y88828D01*
X91019D01*
Y93572D01*
X89986D01*
X89982Y94346D01*
X90335Y94700D01*
X107300D01*
Y93121D01*
D02*
G37*
G36*
X55478Y165288D02*
X59841Y164713D01*
X64137Y163761D01*
X63838Y162538D01*
X63372Y161232D01*
X59328Y162129D01*
X55221Y162670D01*
X51082Y162850D01*
X46943Y162670D01*
X42836Y162129D01*
X38792Y161232D01*
X34841Y159987D01*
X31013Y158401D01*
X27339Y156489D01*
X23845Y154263D01*
X20558Y151741D01*
X17504Y148942D01*
X14705Y145888D01*
X12184Y142601D01*
X9958Y139107D01*
X8045Y135433D01*
X6459Y131606D01*
X5214Y127655D01*
X4586Y126219D01*
X4389Y126317D01*
X2617Y126809D01*
X2420Y127006D01*
X2359Y128093D01*
X3682Y132290D01*
X5366Y136355D01*
X7398Y140259D01*
X9763Y143970D01*
X12441Y147461D01*
X15414Y150706D01*
X18659Y153678D01*
X22150Y156357D01*
X25861Y158722D01*
X29764Y160754D01*
X33830Y162437D01*
X38027Y163761D01*
X42323Y164713D01*
X46686Y165288D01*
X51082Y165480D01*
X55478Y165288D01*
D02*
G37*
G36*
X106800Y66379D02*
X107300D01*
Y56744D01*
X107029Y56500D01*
Y56500D01*
X107029Y56500D01*
X102972D01*
Y60719D01*
X98228D01*
X98228Y60719D01*
Y60719D01*
X97908Y60586D01*
X95871Y62624D01*
X96107Y63065D01*
X96600Y62967D01*
X97263Y63099D01*
X97387Y63182D01*
X97828Y62946D01*
Y61481D01*
X100200D01*
Y64056D01*
X100600D01*
Y64456D01*
X103372D01*
Y66379D01*
X103628D01*
Y66379D01*
X106000D01*
Y69249D01*
X106800D01*
Y66379D01*
D02*
G37*
G36*
X55838Y151383D02*
X59542Y150833D01*
X63175Y149924D01*
X66702Y148662D01*
X69075Y147539D01*
X69075Y147539D01*
X69075Y147539D01*
X69107Y147548D01*
X69209Y147480D01*
X70029Y147317D01*
X99619D01*
X99972Y146963D01*
X99931Y116772D01*
X99821D01*
X99819D01*
X99577Y116772D01*
X99577Y116772D01*
Y116772D01*
X97644D01*
Y114000D01*
X97244D01*
Y113600D01*
X94669D01*
Y111228D01*
X95069D01*
Y110772D01*
X95069D01*
Y109624D01*
X93861D01*
X93726Y109826D01*
X93163Y110201D01*
X92500Y110333D01*
X91837Y110201D01*
X91274Y109826D01*
X90899Y109263D01*
X90767Y108600D01*
X90899Y107937D01*
X91274Y107374D01*
X91837Y106999D01*
X92500Y106867D01*
X93163Y106999D01*
X93429Y107176D01*
X95069D01*
Y106028D01*
X99419D01*
Y106028D01*
X99563Y106028D01*
X99916Y105674D01*
X99904Y96355D01*
X99548Y96004D01*
X97126Y96032D01*
X96893Y96474D01*
X97001Y96637D01*
X97133Y97300D01*
X97001Y97963D01*
X96626Y98526D01*
X96063Y98901D01*
X95400Y99033D01*
X94737Y98901D01*
X94174Y98526D01*
X93969Y98218D01*
X89400D01*
X89107Y98159D01*
X89049Y98148D01*
X88751Y97949D01*
X86952Y96149D01*
X85821Y96162D01*
X85801Y96263D01*
X85426Y96826D01*
X84863Y97201D01*
X84200Y97333D01*
X83537Y97201D01*
X82974Y96826D01*
X82599Y96263D01*
X82586Y96200D01*
X82540Y96200D01*
X82543Y95984D01*
X82467Y95600D01*
X82555Y95157D01*
X82558Y94931D01*
X82200Y94633D01*
X81537Y94501D01*
X80974Y94126D01*
X80696Y93709D01*
X80218Y93854D01*
Y97753D01*
X80870Y98405D01*
X81069Y98703D01*
X81139Y99054D01*
Y102416D01*
X81226Y102474D01*
X81601Y103037D01*
X81733Y103700D01*
X81601Y104363D01*
X81226Y104926D01*
X80663Y105301D01*
X80275Y105379D01*
X80130Y105857D01*
X81749Y107476D01*
X81948Y107774D01*
X81959Y107832D01*
X82018Y108125D01*
Y117300D01*
X81948Y117651D01*
X81749Y117949D01*
X74674Y125024D01*
X74865Y125486D01*
X76213D01*
Y129045D01*
X76613D01*
Y129445D01*
X79779D01*
Y130682D01*
X80241Y130873D01*
X80935Y130179D01*
Y125886D01*
X86465D01*
Y132204D01*
X82082D01*
X79842Y134444D01*
X79478Y134687D01*
X79379Y134707D01*
Y134941D01*
X79379D01*
Y141259D01*
X73848D01*
Y140722D01*
X69821D01*
Y141572D01*
X64881D01*
Y137098D01*
X64119D01*
Y138800D01*
X58379D01*
Y137098D01*
X56077D01*
X56077Y137099D01*
X55648Y137013D01*
X55284Y136770D01*
X54228Y135714D01*
X54158Y135609D01*
X53668Y135512D01*
X53635Y135534D01*
X53453Y135570D01*
Y133341D01*
X52653D01*
Y135570D01*
X52643Y135568D01*
X52257Y135886D01*
Y137728D01*
X53921D01*
Y139078D01*
X54618D01*
X55037Y138799D01*
X55700Y138667D01*
X56363Y138799D01*
X56926Y139174D01*
X57301Y139737D01*
X57433Y140400D01*
X57301Y141063D01*
X56926Y141626D01*
X56363Y142001D01*
X55700Y142133D01*
X55037Y142001D01*
X54474Y141626D01*
X54400Y141514D01*
X53921Y141659D01*
Y142472D01*
X48981D01*
Y137728D01*
X49912D01*
Y135855D01*
X49450Y135663D01*
X48600Y136514D01*
X48236Y136757D01*
X47864Y136831D01*
X47913Y137328D01*
X48219D01*
Y139700D01*
X42479D01*
Y138910D01*
X42140Y138572D01*
X42125Y138572D01*
X42125Y138572D01*
Y138572D01*
X37200D01*
Y133828D01*
X41689D01*
Y133741D01*
X43210D01*
Y132941D01*
X41689D01*
Y132554D01*
X41785Y132068D01*
X41432Y131715D01*
X40946Y131811D01*
X40559D01*
Y130290D01*
X40159D01*
Y129890D01*
X37930D01*
X37936Y129858D01*
X37626Y129480D01*
X37613Y129472D01*
X33181D01*
Y124728D01*
X36244D01*
X36650Y124323D01*
X36650Y124323D01*
X36650Y124323D01*
X37305Y123343D01*
X37305Y123168D01*
X36408Y122272D01*
X33181D01*
Y117528D01*
X38121D01*
X38121Y117528D01*
X38121D01*
X38296Y117403D01*
D01*
X38296D01*
X38378Y116989D01*
X38343Y116936D01*
X38258Y116510D01*
X38343Y116084D01*
X38584Y115723D01*
X38945Y115481D01*
X39241Y115423D01*
Y109344D01*
X38453Y108556D01*
X38012Y108792D01*
X38133Y109400D01*
X38001Y110063D01*
X37626Y110626D01*
X37063Y111001D01*
X36400Y111133D01*
X35737Y111001D01*
X35174Y110626D01*
X34799Y110063D01*
X34667Y109400D01*
X34756Y108953D01*
X30116Y104314D01*
X29917Y104016D01*
X29847Y103665D01*
Y83538D01*
X29917Y83187D01*
X30116Y82889D01*
X32882Y80123D01*
Y78162D01*
X32404Y78017D01*
X32249Y78249D01*
X29780Y80717D01*
X29483Y80916D01*
X29131Y80986D01*
X26363D01*
Y81637D01*
X22214D01*
Y81437D01*
X21752Y81246D01*
X21375Y81622D01*
Y82224D01*
X21550D01*
Y85491D01*
X22041Y85982D01*
X24669D01*
X24874Y85674D01*
X25437Y85299D01*
X26100Y85167D01*
X26763Y85299D01*
X27326Y85674D01*
X27701Y86237D01*
X27833Y86900D01*
X27701Y87563D01*
X27326Y88126D01*
X26763Y88501D01*
X26100Y88633D01*
X25437Y88501D01*
X24874Y88126D01*
X24669Y87818D01*
X21661D01*
X21310Y87748D01*
X21012Y87549D01*
X19869Y86406D01*
X19476Y86568D01*
X19407Y86614D01*
Y87409D01*
X21180Y89182D01*
X21769D01*
X21974Y88874D01*
X22537Y88499D01*
X23200Y88367D01*
X23863Y88499D01*
X24426Y88874D01*
X24801Y89437D01*
X24933Y90100D01*
X24801Y90763D01*
X24426Y91326D01*
X23863Y91701D01*
X23200Y91833D01*
X22537Y91701D01*
X21974Y91326D01*
X21769Y91018D01*
X20800D01*
X20449Y90948D01*
X20151Y90749D01*
X17840Y88438D01*
X17641Y88140D01*
X17572Y87789D01*
Y85574D01*
X15429D01*
Y85098D01*
X14967Y84907D01*
X14518Y85356D01*
Y98120D01*
X15699Y99301D01*
X15974Y99274D01*
X16537Y98899D01*
X17200Y98767D01*
X17863Y98899D01*
X18426Y99274D01*
X18801Y99837D01*
X18933Y100500D01*
X18801Y101163D01*
X18426Y101726D01*
X17863Y102101D01*
X17200Y102233D01*
X16537Y102101D01*
X16043Y101771D01*
X15682Y101921D01*
X15575Y101992D01*
X15501Y102363D01*
X15126Y102926D01*
X14563Y103301D01*
X13900Y103433D01*
X13237Y103301D01*
X12674Y102926D01*
X12299Y102363D01*
X12167Y101700D01*
X12239Y101337D01*
X11541Y100639D01*
X11342Y100341D01*
X11272Y99990D01*
Y83129D01*
X11015D01*
Y81561D01*
X10615D01*
Y80468D01*
X12190D01*
Y79668D01*
X10615D01*
Y78576D01*
X11015D01*
Y77624D01*
X10615D01*
Y76531D01*
X12190D01*
Y75731D01*
X10615D01*
Y74639D01*
Y74563D01*
X12190D01*
Y74163D01*
X12590D01*
Y72671D01*
X14103D01*
Y70301D01*
X13494Y69692D01*
X7009Y69697D01*
Y76209D01*
X6939Y76560D01*
X6740Y76857D01*
X3661Y79937D01*
X3733Y80300D01*
X3601Y80963D01*
X3226Y81526D01*
X3000Y81676D01*
Y110979D01*
X3300D01*
Y113849D01*
Y116719D01*
X3000D01*
Y117481D01*
X6072D01*
Y118352D01*
X7569D01*
Y117628D01*
X11919D01*
Y122372D01*
X7569D01*
Y121248D01*
X6072D01*
Y122421D01*
X5148D01*
Y125870D01*
X5197Y125903D01*
X5656Y126590D01*
D01*
Y126590D01*
X5656D01*
D01*
Y126590D01*
X5892Y126683D01*
X6071Y126564D01*
X6500Y126478D01*
X13805D01*
X13903Y126413D01*
X14723Y126250D01*
X15542Y126413D01*
X16237Y126877D01*
X16701Y127571D01*
X16706Y127596D01*
X16693Y127601D01*
X16839Y128008D01*
X18440Y131394D01*
X20366Y134606D01*
X22596Y137614D01*
X25112Y140389D01*
X27887Y142904D01*
X30895Y145135D01*
X34107Y147061D01*
X37493Y148662D01*
X41019Y149924D01*
X44652Y150833D01*
X48357Y151383D01*
X52097Y151567D01*
X55838Y151383D01*
D02*
G37*
%LPC*%
G36*
X104282Y93121D02*
Y93121D01*
X103972Y93121D01*
X103950D01*
X103928D01*
X103618Y93121D01*
X103618Y93121D01*
Y93121D01*
X101600D01*
Y90251D01*
Y87381D01*
X103618D01*
X103618Y87381D01*
Y87381D01*
X103928Y87381D01*
X103950D01*
X103972D01*
X104282Y87381D01*
X104282Y87381D01*
Y87381D01*
X106300D01*
Y90251D01*
Y93121D01*
X104282D01*
X104282Y93121D01*
D02*
G37*
G36*
X94251Y93972D02*
X91781D01*
Y91600D01*
X94251D01*
Y93972D01*
D02*
G37*
G36*
X97521D02*
X95051D01*
Y91600D01*
X97521D01*
Y93972D01*
D02*
G37*
G36*
X58972Y105519D02*
X56600D01*
Y103049D01*
X58972D01*
Y105519D01*
D02*
G37*
G36*
X67319Y110700D02*
X64849D01*
Y108328D01*
X67319D01*
Y110700D01*
D02*
G37*
G36*
X58972Y102249D02*
X56600D01*
Y99779D01*
X58972D01*
Y102249D01*
D02*
G37*
G36*
X50800D02*
X48428D01*
Y99779D01*
X50800D01*
Y102249D01*
D02*
G37*
G36*
X55800Y105519D02*
X51600D01*
Y102649D01*
Y99779D01*
X55800D01*
Y102649D01*
Y105519D01*
D02*
G37*
G36*
X100800Y93121D02*
X98428D01*
Y90651D01*
X100800D01*
Y93121D01*
D02*
G37*
G36*
X52672Y78021D02*
X50300D01*
Y75551D01*
X52672D01*
Y78021D01*
D02*
G37*
G36*
X43700Y78070D02*
X41328D01*
Y75600D01*
X43700D01*
Y78070D01*
D02*
G37*
G36*
X103372Y63656D02*
X101000D01*
Y61481D01*
X103372D01*
Y63656D01*
D02*
G37*
G36*
X11790Y73763D02*
X10615D01*
Y72671D01*
X11790D01*
Y73763D01*
D02*
G37*
G36*
X24388Y83529D02*
X22214D01*
Y82437D01*
X24388D01*
Y83529D01*
D02*
G37*
G36*
X94251Y90800D02*
X91781D01*
Y88428D01*
X94251D01*
Y90800D01*
D02*
G37*
G36*
X97521D02*
X95051D01*
Y88428D01*
X97521D01*
Y90800D01*
D02*
G37*
G36*
X26363Y83529D02*
X25188D01*
Y82437D01*
X26363D01*
Y83529D01*
D02*
G37*
G36*
X100800Y89851D02*
X98428D01*
Y87381D01*
X100800D01*
Y89851D01*
D02*
G37*
G36*
X33168Y138972D02*
X30698D01*
Y136600D01*
X33168D01*
Y138972D01*
D02*
G37*
G36*
X36438D02*
X33968D01*
Y136600D01*
X36438D01*
Y138972D01*
D02*
G37*
G36*
X86865Y137700D02*
X84100D01*
Y134541D01*
X86865D01*
Y137700D01*
D02*
G37*
G36*
X36438Y135800D02*
X33968D01*
Y133428D01*
X36438D01*
Y135800D01*
D02*
G37*
G36*
X83300Y137700D02*
X80535D01*
Y134541D01*
X83300D01*
Y137700D01*
D02*
G37*
G36*
Y141659D02*
X80535D01*
Y138500D01*
X83300D01*
Y141659D01*
D02*
G37*
G36*
X44949Y142872D02*
X42479D01*
Y140500D01*
X44949D01*
Y142872D01*
D02*
G37*
G36*
X48219D02*
X45749D01*
Y140500D01*
X48219D01*
Y142872D01*
D02*
G37*
G36*
X64119Y141972D02*
X61649D01*
Y139600D01*
X64119D01*
Y141972D01*
D02*
G37*
G36*
X86865Y141659D02*
X84100D01*
Y138500D01*
X86865D01*
Y141659D01*
D02*
G37*
G36*
X60849Y141972D02*
X58379D01*
Y139600D01*
X60849D01*
Y141972D01*
D02*
G37*
G36*
X96844Y116772D02*
X94669D01*
Y114400D01*
X96844D01*
Y116772D01*
D02*
G37*
G36*
X24089Y123125D02*
X22800D01*
Y120157D01*
Y117188D01*
X24089D01*
Y117588D01*
X26248D01*
Y118609D01*
X27079D01*
Y117528D01*
X32019D01*
Y122272D01*
X27079D01*
Y121505D01*
X26248D01*
Y122725D01*
X24089D01*
Y123125D01*
D02*
G37*
G36*
X6472Y116719D02*
X4100D01*
Y114249D01*
X6472D01*
Y116719D01*
D02*
G37*
G36*
Y113449D02*
X4100D01*
Y110979D01*
X6472D01*
Y113449D01*
D02*
G37*
G36*
X42810Y113059D02*
X41689D01*
Y112672D01*
X41805Y112090D01*
X42134Y111596D01*
X42628Y111266D01*
X42810Y111230D01*
Y113059D01*
D02*
G37*
G36*
X22000Y123125D02*
X20711D01*
Y122725D01*
X18552D01*
Y121448D01*
X17431D01*
Y122372D01*
X13081D01*
Y117628D01*
X17431D01*
Y118552D01*
X18552D01*
Y117588D01*
X20711D01*
Y117188D01*
X22000D01*
Y120157D01*
Y123125D01*
D02*
G37*
G36*
X39759Y131811D02*
X39372D01*
X38789Y131695D01*
X38296Y131366D01*
X37966Y130872D01*
X37930Y130690D01*
X39759D01*
Y131811D01*
D02*
G37*
G36*
X33168Y135800D02*
X30698D01*
Y133428D01*
X33168D01*
Y135800D01*
D02*
G37*
G36*
X79779Y128645D02*
X77013D01*
Y125486D01*
X79779D01*
Y128645D01*
D02*
G37*
G36*
X22000Y130212D02*
X20711D01*
Y129812D01*
X18552D01*
Y124675D01*
X20711D01*
Y124275D01*
X22000D01*
Y127243D01*
Y130212D01*
D02*
G37*
G36*
X24089D02*
X22800D01*
Y127243D01*
Y124275D01*
X24089D01*
Y124675D01*
X26248D01*
Y125696D01*
X27079D01*
Y124728D01*
X32019D01*
Y129472D01*
X27079D01*
Y128591D01*
X26248D01*
Y129812D01*
X24089D01*
Y130212D01*
D02*
G37*
%LPD*%
D10*
X40159Y130290D02*
D03*
Y128321D02*
D03*
Y126353D02*
D03*
Y124384D02*
D03*
Y122416D02*
D03*
Y120447D02*
D03*
Y118479D02*
D03*
Y116510D02*
D03*
X60041D02*
D03*
Y118479D02*
D03*
Y120447D02*
D03*
Y122416D02*
D03*
Y124384D02*
D03*
Y126353D02*
D03*
Y128321D02*
D03*
Y130290D02*
D03*
D11*
X43210Y113459D02*
D03*
X45179D02*
D03*
X47147D02*
D03*
X49116D02*
D03*
X51084D02*
D03*
X53053D02*
D03*
X55021D02*
D03*
X56990D02*
D03*
Y133341D02*
D03*
X55021D02*
D03*
X53053D02*
D03*
X51084D02*
D03*
X49116D02*
D03*
X47147D02*
D03*
X45179D02*
D03*
X43210D02*
D03*
D12*
X50100Y123400D02*
D03*
D13*
X20458Y72301D02*
D03*
X18489D02*
D03*
X16521D02*
D03*
Y83899D02*
D03*
X18489D02*
D03*
X20458D02*
D03*
D14*
X12690Y74163D02*
D03*
Y76131D02*
D03*
Y78100D02*
D03*
Y80068D02*
D03*
Y82037D02*
D03*
X24288D02*
D03*
Y80068D02*
D03*
Y78100D02*
D03*
Y76131D02*
D03*
Y74163D02*
D03*
D15*
X3700Y127400D02*
D03*
D16*
X83700Y138100D02*
D03*
X76613D02*
D03*
X83700Y129045D02*
D03*
X76613D02*
D03*
D17*
X43151Y53000D02*
D03*
X37049D02*
D03*
X15449Y65300D02*
D03*
X21551D02*
D03*
X70551Y111100D02*
D03*
X64449D02*
D03*
X35651Y119900D02*
D03*
X29549D02*
D03*
X35651Y127100D02*
D03*
X29549D02*
D03*
X12949Y19900D02*
D03*
X19051D02*
D03*
X39670Y136200D02*
D03*
X33568D02*
D03*
X45349Y140100D02*
D03*
X51451D02*
D03*
X67351Y139200D02*
D03*
X61249D02*
D03*
X94651Y91200D02*
D03*
X88549D02*
D03*
D18*
X40200Y36856D02*
D03*
Y31344D02*
D03*
X100600Y58544D02*
D03*
Y64056D02*
D03*
X105400Y31244D02*
D03*
Y36756D02*
D03*
D19*
X28400Y63898D02*
D03*
Y70000D02*
D03*
X56200Y102649D02*
D03*
Y108751D02*
D03*
X51200D02*
D03*
Y102649D02*
D03*
X3700Y119951D02*
D03*
Y113849D02*
D03*
X68800Y127549D02*
D03*
Y133651D02*
D03*
X101200Y84149D02*
D03*
Y90251D02*
D03*
X106700D02*
D03*
Y84149D02*
D03*
X100600Y69249D02*
D03*
Y75351D02*
D03*
X106400Y69249D02*
D03*
Y75351D02*
D03*
X49900Y75151D02*
D03*
Y69049D02*
D03*
X44100Y69098D02*
D03*
Y75200D02*
D03*
X7900Y27749D02*
D03*
Y33851D02*
D03*
D20*
X100744Y53600D02*
D03*
X106256D02*
D03*
X9744Y120000D02*
D03*
X15256D02*
D03*
X64844Y116300D02*
D03*
X70356D02*
D03*
X102756Y108400D02*
D03*
X97244D02*
D03*
X102756Y114000D02*
D03*
X97244D02*
D03*
D21*
X28700Y55073D02*
D03*
X23700D02*
D03*
X18700D02*
D03*
X13700D02*
D03*
X28700Y26727D02*
D03*
X23700D02*
D03*
X18700D02*
D03*
X13700D02*
D03*
D22*
X19841Y120157D02*
D03*
X22400D02*
D03*
X24959D02*
D03*
Y127243D02*
D03*
X22400D02*
D03*
X19841D02*
D03*
D23*
X89079Y61173D02*
D03*
Y63142D02*
D03*
Y65110D02*
D03*
Y67079D02*
D03*
Y69047D02*
D03*
Y71016D02*
D03*
Y72984D02*
D03*
Y74953D02*
D03*
Y76921D02*
D03*
Y78890D02*
D03*
Y80858D02*
D03*
Y82827D02*
D03*
X61520D02*
D03*
Y80858D02*
D03*
Y78890D02*
D03*
Y76921D02*
D03*
Y74953D02*
D03*
Y72984D02*
D03*
Y71016D02*
D03*
Y69047D02*
D03*
Y67079D02*
D03*
Y65110D02*
D03*
Y63142D02*
D03*
Y61173D02*
D03*
D24*
X86127Y85780D02*
D03*
X84158D02*
D03*
X82190D02*
D03*
X80221D02*
D03*
X78253D02*
D03*
X76284D02*
D03*
X74316D02*
D03*
X72347D02*
D03*
X70379D02*
D03*
X68410D02*
D03*
X66442D02*
D03*
X64473D02*
D03*
Y58220D02*
D03*
X66442D02*
D03*
X68410D02*
D03*
X70379D02*
D03*
X72347D02*
D03*
X74316D02*
D03*
X76284D02*
D03*
X78253D02*
D03*
X80221D02*
D03*
X82190D02*
D03*
X84158D02*
D03*
X86127D02*
D03*
D25*
X75300Y72000D02*
D03*
D26*
X84000Y47000D02*
D03*
X102500Y175000D02*
D03*
D27*
X65649Y130700D02*
X68800Y127549D01*
X64800Y130700D02*
X65649D01*
X17800Y36100D02*
X19300Y34600D01*
X21600D01*
X17400Y32500D02*
X18700Y31200D01*
X9251Y32500D02*
X17400D01*
X55021Y134921D02*
X56077Y135977D01*
X55021Y134921D02*
X55800Y135700D01*
X56077Y135977D02*
X65928D01*
X67751Y139600D02*
X75700D01*
X66573Y138421D02*
X67751Y139600D01*
X66573Y136621D02*
Y138421D01*
X65928Y135977D02*
X66573Y136621D01*
X25900Y61800D02*
X27998Y63898D01*
X75700Y139600D02*
X75713Y139587D01*
Y138200D02*
Y139587D01*
X82800Y129145D02*
Y129900D01*
X79049Y133651D02*
X82800Y129900D01*
X68800Y133651D02*
X79049D01*
X18700Y20251D02*
Y26727D01*
Y20251D02*
X19051Y19900D01*
X40200Y27800D02*
Y31344D01*
X55500Y140200D02*
X55700Y140400D01*
X102756Y114000D02*
X102956Y114200D01*
X7900Y20900D02*
X8900Y19900D01*
X12949D01*
X107000Y89351D02*
X107000Y89351D01*
X20458Y66393D02*
Y71801D01*
X14900Y61700D02*
Y64751D01*
X55021Y109635D02*
X56200Y108456D01*
X40159Y120447D02*
X47147D01*
X40159Y126353D02*
X47147D01*
X61520Y71016D02*
X74316D01*
X49116Y113459D02*
Y122416D01*
X47147Y126353D02*
Y133341D01*
X53053Y126353D02*
Y133341D01*
X51084Y124384D02*
X60041D01*
X40035Y135721D02*
X47807D01*
X51084Y108572D02*
Y113459D01*
X60051Y116500D02*
X65044D01*
X66442Y58220D02*
Y63142D01*
X80221Y76921D02*
X89080D01*
X84158Y80858D02*
X89080D01*
X56249Y108800D02*
X60100D01*
X57300Y133651D02*
X68800D01*
X55021Y109635D02*
Y113459D01*
X60041Y116510D02*
X60051Y116500D01*
X55021Y133341D02*
Y134921D01*
X47807Y135721D02*
X49116Y134411D01*
Y133341D02*
Y134411D01*
X39956Y135800D02*
X40035Y135721D01*
X45179Y128321D02*
Y133341D01*
X43210Y130290D02*
Y133341D01*
X40159Y130290D02*
X43210D01*
X40159Y128321D02*
X45179D01*
X40159Y118479D02*
X45179D01*
X43210Y113459D02*
Y116690D01*
X56990Y113459D02*
Y117190D01*
X55021Y118479D02*
X60041D01*
X100700Y90351D02*
X106400D01*
X100600Y69249D02*
X106400D01*
X100600Y64056D02*
Y69249D01*
X37951Y47800D02*
X43151Y53000D01*
X33600Y47800D02*
X37951D01*
X18700Y27413D02*
Y31200D01*
X40800Y37456D02*
Y40100D01*
X20458Y66393D02*
X21551Y65300D01*
X51100Y108556D02*
X53053Y110509D01*
Y113459D01*
X51156Y140200D02*
X55500D01*
X21600Y34600D02*
X23700Y32500D01*
Y26727D02*
Y32500D01*
X24789Y74163D02*
X27388D01*
X28200Y74975D02*
Y77600D01*
X27388Y74163D02*
X28200Y74975D01*
X15449Y65300D02*
Y65549D01*
X16521Y66621D02*
Y71801D01*
X15449Y65300D02*
X16521Y66372D01*
X16521Y66372D01*
X15449Y65549D02*
X16521Y66621D01*
X24789Y71012D02*
Y74163D01*
Y71012D02*
X25800Y70000D01*
X28400D01*
X7900Y20900D02*
Y27749D01*
X27998Y63898D02*
X28400D01*
X22300Y61800D02*
X25900D01*
X21551Y62549D02*
X22300Y61800D01*
X21551Y62549D02*
Y65300D01*
X16521Y66372D02*
X17772D01*
X18489Y67089D01*
Y71801D01*
X55323Y69047D02*
X61520D01*
X54870Y69500D02*
X55323Y69047D01*
X50351Y69500D02*
X54870D01*
X49900Y69049D02*
X50351Y69500D01*
X102956Y114200D02*
X105800D01*
D28*
X32100Y100905D02*
X40159Y108964D01*
X32100Y83900D02*
Y100905D01*
Y83900D02*
X35200Y80800D01*
X30765Y83538D02*
Y103665D01*
Y83538D02*
X33800Y80503D01*
X30765Y103665D02*
X35800Y108700D01*
X58888Y83588D02*
X61000Y85700D01*
X36675Y87900D02*
X38875Y85700D01*
X36000Y87900D02*
X36675D01*
X74719Y106600D02*
Y106600D01*
X71719Y103600D02*
X74719Y106600D01*
X67800Y103600D02*
X71719D01*
X67300Y103100D02*
X67800Y103600D01*
X71222Y104800D02*
X73519Y107097D01*
X67000Y104800D02*
X71222D01*
X66100Y103900D02*
X67000Y104800D01*
X69100Y102400D02*
X72216D01*
X68500Y101800D02*
X69100Y102400D01*
X72216D02*
X73922Y104106D01*
X67300Y93903D02*
Y103100D01*
X66100Y94481D02*
Y103900D01*
X77700Y101400D02*
Y104725D01*
X71500Y95200D02*
X77700Y101400D01*
X71500Y91225D02*
Y95200D01*
X77700Y104725D02*
X81100Y108125D01*
X68500Y93406D02*
Y101800D01*
X82200Y85600D02*
Y92900D01*
X80900Y87808D02*
Y90500D01*
X80221Y85780D02*
Y87129D01*
X80900Y87808D01*
X79300Y92100D02*
X80900Y90500D01*
X79300Y92100D02*
Y98133D01*
X80221Y99054D02*
Y103479D01*
X79300Y98133D02*
X80221Y99054D01*
X80000Y103700D02*
X80221Y103479D01*
X84200Y85821D02*
Y93728D01*
X84158Y85780D02*
X84200Y85821D01*
X84158Y93770D02*
Y95342D01*
Y93770D02*
X84200Y93728D01*
X84158Y95342D02*
X84200Y95300D01*
Y95600D01*
X85779Y93676D02*
X86800Y94697D01*
X85779Y86128D02*
Y93676D01*
X76300Y91600D02*
Y92800D01*
X74316Y85780D02*
Y91084D01*
X73700Y91700D02*
X74316Y91084D01*
X73700Y91700D02*
Y94300D01*
X28500Y8700D02*
X30400Y6800D01*
X24600Y7374D02*
X27459Y4516D01*
X27500D01*
X18516Y13500D02*
X24600Y7416D01*
Y7374D02*
Y7416D01*
X27013Y6700D02*
X28113Y5600D01*
X26972Y6700D02*
X27013D01*
X25800Y7872D02*
X26972Y6700D01*
X25800Y7872D02*
Y7913D01*
X24800Y8913D02*
X25800Y7913D01*
X27800Y8700D02*
X28500D01*
X27500Y13000D02*
X28300D01*
X8006Y13500D02*
X18516D01*
X2828Y18677D02*
Y58528D01*
X8231Y14972D02*
X21772D01*
X4028Y19175D02*
Y57928D01*
X2828Y18677D02*
X8006Y13500D01*
X4028Y19175D02*
X8231Y14972D01*
X8728Y16172D02*
X21072D01*
X5228Y19672D02*
X8728Y16172D01*
X5228Y19672D02*
Y57228D01*
X44100Y60200D02*
X58100D01*
X35200Y69100D02*
X44100Y60200D01*
X35200Y69100D02*
Y80800D01*
X32600Y68303D02*
Y71800D01*
X34700Y61200D02*
Y66203D01*
X32600Y68303D02*
X34700Y66203D01*
X50800Y51800D02*
X68542D01*
X33800Y68800D02*
X50800Y51800D01*
X33800Y68800D02*
Y80503D01*
X31600Y72800D02*
X32600Y71800D01*
X31600Y72800D02*
Y77600D01*
X29131Y80069D02*
X31600Y77600D01*
X24788Y80069D02*
X29131D01*
X2000Y80300D02*
X6091Y76209D01*
Y61791D02*
Y76209D01*
X10400Y67600D02*
X12700D01*
X9700Y66900D02*
X10400Y67600D01*
X9700Y63600D02*
Y66900D01*
X12700Y67600D02*
X15021Y69921D01*
X4028Y57928D02*
X9700Y63600D01*
X33600Y60100D02*
X34700Y61200D01*
X33600Y54569D02*
Y60100D01*
X28631Y49600D02*
X33600Y54569D01*
X56186Y62114D02*
X58014D01*
X55006Y63294D02*
X56186Y62114D01*
X49100Y63294D02*
X55006D01*
X59042Y63142D02*
X61520D01*
X58014Y62114D02*
X59042Y63142D01*
X59073Y61173D02*
X61520D01*
X58100Y60200D02*
X59073Y61173D01*
X70379Y55879D02*
Y58220D01*
X69800Y55300D02*
X70379Y55879D01*
X69800Y53058D02*
Y55300D01*
X68542Y51800D02*
X69800Y53058D01*
X67600Y54100D02*
X68400D01*
X68410Y54090D01*
X64500Y54100D02*
X65200D01*
X64473Y54827D02*
X65200Y54100D01*
X46116Y50600D02*
X72500D01*
X46613Y49400D02*
X75800D01*
X74300Y52400D02*
Y58205D01*
X72500Y50600D02*
X74300Y52400D01*
X79000Y52600D02*
Y54800D01*
X75800Y49400D02*
X79000Y52600D01*
X78253Y55547D02*
X79000Y54800D01*
X78253Y55547D02*
Y58220D01*
X96500Y49700D02*
Y57100D01*
X87700Y40900D02*
X96500Y49700D01*
X97900Y45700D02*
Y57600D01*
X82600Y30400D02*
X97900Y45700D01*
X50200Y30400D02*
X82600D01*
X106149Y50220D02*
Y53493D01*
X52900Y28000D02*
X83928D01*
X106149Y50220D01*
X102500Y48400D02*
Y49400D01*
X83300Y29200D02*
X102500Y48400D01*
X50800Y29200D02*
X83300D01*
X98100Y40300D02*
X105400D01*
X84600Y26800D02*
X98100Y40300D01*
X54800Y26800D02*
X84600D01*
X43300Y23500D02*
X50200Y30400D01*
X43300Y9413D02*
Y23500D01*
X44500Y22900D02*
X50800Y29200D01*
X44500Y8916D02*
Y22900D01*
X46900Y18900D02*
X54800Y26800D01*
X46900Y7921D02*
Y18900D01*
X32000Y34787D02*
X46613Y49400D01*
X30781Y35265D02*
X46116Y50600D01*
X32000Y22926D02*
Y34787D01*
X30781Y23404D02*
Y35265D01*
X72347Y85780D02*
Y90378D01*
X68800Y89400D02*
Y89500D01*
X70800Y86358D02*
Y90228D01*
X70300Y85858D02*
X70800Y86358D01*
X71500Y91225D02*
X72347Y90378D01*
X65519Y93900D02*
X66100Y94481D01*
X63578Y93900D02*
X65519D01*
X61000Y91322D02*
X63578Y93900D01*
X61000Y85700D02*
Y91322D01*
X66016Y92700D02*
X66716Y93400D01*
X64074Y92700D02*
X66016D01*
X62200Y90825D02*
X64074Y92700D01*
X62200Y88174D02*
Y90825D01*
Y88174D02*
X62300Y88074D01*
Y82900D02*
Y88074D01*
X64549Y85855D02*
Y87523D01*
X63400Y88672D02*
X64549Y87523D01*
X63400Y88672D02*
Y90328D01*
X64572Y91500D01*
X66228D01*
X66328Y91400D01*
X66413D01*
X70300Y90728D02*
Y99700D01*
Y90728D02*
X70800Y90228D01*
X66413Y91400D02*
X67213Y92200D01*
X66442Y85780D02*
Y88458D01*
X65400Y89500D02*
X66442Y88458D01*
X67213Y92200D02*
X67294D01*
X66716Y93400D02*
X66797D01*
X67294Y92200D02*
X68500Y93406D01*
X66797Y93400D02*
X67300Y93903D01*
X76300Y110113D02*
Y115300D01*
X75187Y109000D02*
X76300Y110113D01*
X73725Y109000D02*
X75187D01*
X72319Y107594D02*
X73725Y109000D01*
X77500Y109616D02*
Y115797D01*
X75684Y107800D02*
X77500Y109616D01*
X74222Y107800D02*
X75684D01*
X73519Y107097D02*
X74222Y107800D01*
X78700Y109119D02*
Y116294D01*
X76181Y106600D02*
X78700Y109119D01*
X74719Y106600D02*
X76181D01*
X79900Y108622D02*
Y116791D01*
X76678Y105400D02*
X79900Y108622D01*
X75216Y105400D02*
X76678D01*
X73922Y104106D02*
X75216Y105400D01*
X81100Y108125D02*
Y117300D01*
X73519Y107097D02*
Y107097D01*
X72319Y107594D02*
Y107594D01*
X72025Y107300D02*
X72319Y107594D01*
X73922Y104106D02*
X73922D01*
X70500Y106400D02*
Y107100D01*
X89080Y82827D02*
Y91428D01*
X44600Y107600D02*
X46500Y105700D01*
X44600Y107600D02*
Y111271D01*
X45179Y111849D02*
Y113459D01*
X44600Y111271D02*
X45179Y111849D01*
X30400Y6800D02*
X42384D01*
X30000Y10378D02*
Y11300D01*
X28300Y13000D02*
X30000Y11300D01*
Y10378D02*
X32300Y8078D01*
X37400Y75700D02*
X40719Y72381D01*
X61302Y74900D02*
X61468D01*
X61202Y75000D02*
X61302Y74900D01*
X86127Y58220D02*
X89921D01*
X64473Y54827D02*
Y58220D01*
X84100Y55900D02*
Y57244D01*
X17838Y59615D02*
X28700D01*
X11700Y26800D02*
X13627D01*
X10973Y26073D02*
X11700Y26800D01*
X10973Y24000D02*
Y26073D01*
X72297Y121000D02*
X77500Y115797D01*
X72794Y122200D02*
X78700Y116294D01*
X71800Y121000D02*
X72297D01*
X71400Y107300D02*
X72025D01*
X18489Y79911D02*
X18900Y79500D01*
X76284Y85780D02*
Y91584D01*
X76300Y91600D01*
X23700Y55073D02*
Y58100D01*
X27085Y22185D02*
X29562D01*
X21072Y16172D02*
X27085Y22185D01*
X76284Y54316D02*
X76700Y53900D01*
X76284Y54316D02*
Y58220D01*
X82000Y53200D02*
Y53700D01*
Y53200D02*
X82200Y53000D01*
Y58210D01*
X37400Y90500D02*
X54900D01*
X70551Y111100D02*
X74200D01*
X74400Y110900D01*
X68410Y54090D02*
X68410D01*
X68410D02*
Y58220D01*
X70556Y111600D02*
Y116500D01*
X78253Y89653D02*
X78300Y89700D01*
X78253Y85780D02*
Y89653D01*
X18700Y52900D02*
X21000Y50600D01*
X21772Y14972D02*
X27785Y20985D01*
X29562Y22185D02*
X30781Y23404D01*
X74300Y58205D02*
X74316Y58220D01*
X23700Y49500D02*
Y55073D01*
X47147Y109247D02*
Y113459D01*
X35900Y54149D02*
X37049Y53000D01*
X35900Y54149D02*
Y57900D01*
X89080Y67079D02*
X89158Y67000D01*
X54479Y67079D02*
X61520D01*
X72347Y54553D02*
Y58220D01*
X68410Y85780D02*
Y89790D01*
X23700Y49500D02*
X23800Y49600D01*
X28631D01*
X18326Y61800D02*
X18500D01*
X13700Y57174D02*
X18326Y61800D01*
X13700Y55073D02*
Y57174D01*
X93584Y72984D02*
X94900Y74300D01*
X89080Y63142D02*
X89121Y63100D01*
X106149Y53493D02*
X106256Y53600D01*
X89400Y97300D02*
X95400D01*
X61468Y74900D02*
X61520Y74953D01*
X61399Y76800D02*
X61520Y76921D01*
X61431Y78800D02*
X61520Y78890D01*
X18489Y79911D02*
Y87789D01*
X20800Y90100D01*
X23200D01*
X72000Y119600D02*
X76300Y115300D01*
X73700Y124700D02*
X81100Y117300D01*
X100600Y53744D02*
Y58544D01*
Y53744D02*
X100744Y53600D01*
X73191Y123500D02*
X79900Y116791D01*
X86799Y94699D02*
X86800Y94697D01*
X86799Y94699D02*
Y94699D01*
X89400Y97300D01*
X85779Y86128D02*
X86127Y85780D01*
X11331Y50532D02*
X14562D01*
X24800Y13584D02*
X28273Y17058D01*
X105400Y36756D02*
Y40300D01*
X105400Y36756D02*
X105400Y36756D01*
X27785Y20985D02*
X30059D01*
X12190Y78100D02*
X14000D01*
X14665Y78765D01*
X20458Y85697D02*
X21661Y86900D01*
X26100D01*
X12190Y82037D02*
Y99990D01*
X13900Y101700D01*
X13600Y98500D02*
X15600Y100500D01*
X17200D01*
X14562Y50532D02*
X16100Y52069D01*
Y57877D01*
X17838Y59615D01*
X40719Y72381D02*
X58281D01*
X58884Y72984D01*
X61520D01*
X58911Y75000D02*
X61202D01*
X58900Y76800D02*
X61399D01*
X58600Y78800D02*
X61431D01*
X55600Y80100D02*
X58900Y76800D01*
X55600Y80100D02*
Y85900D01*
X53802Y80108D02*
X58911Y75000D01*
X59090Y64800D02*
X59400Y65110D01*
X57000Y64800D02*
X59090D01*
X59400Y65110D02*
X62220D01*
X84100Y55900D02*
X85000Y55000D01*
X91400D01*
X93300Y56900D01*
X89080Y72984D02*
X93584D01*
X89080Y69047D02*
X92153D01*
X92900Y68300D01*
X94500D01*
X89158Y67000D02*
X92000D01*
X94300Y64700D01*
X96600D01*
X89080Y65056D02*
X92141D01*
X89121Y63100D02*
X92400D01*
X92141Y65056D02*
X98297Y58900D01*
X99200D01*
X92400Y63100D02*
X97900Y57600D01*
X89080Y61173D02*
X92427D01*
X96500Y57100D01*
X89080Y91428D02*
X89300Y91649D01*
X66128Y125306D02*
Y125363D01*
X65840Y122200D02*
X72794D01*
X66237Y123500D02*
X73191D01*
X61201Y130290D02*
X66128Y125363D01*
Y125306D02*
X66734Y124700D01*
X73700D01*
X61416Y128321D02*
X66237Y123500D01*
X61687Y126353D02*
X65840Y122200D01*
X60041Y130290D02*
X61201D01*
X60041Y128321D02*
X61416D01*
X60041Y126353D02*
X61687D01*
X60041Y120447D02*
X61953D01*
X62800Y119600D01*
X72000D01*
X60041Y122416D02*
X62084D01*
X63500Y121000D01*
X72297D01*
X35700Y108700D02*
X35800D01*
X30059Y20985D02*
X32000Y22926D01*
X10100Y60400D02*
X11900D01*
X11800Y63800D02*
Y65400D01*
X20458Y81242D02*
Y85697D01*
Y81242D02*
X22314Y79386D01*
X38875Y85700D02*
X52100D01*
X53802Y83998D01*
Y80108D02*
Y83998D01*
X59342Y80858D02*
X61520D01*
X58888Y81312D02*
X59342Y80858D01*
X58888Y81312D02*
Y83588D01*
X57600Y79800D02*
X58600Y78800D01*
X57600Y79800D02*
Y87800D01*
X54900Y90500D02*
X57600Y87800D01*
X32300Y8078D02*
X41965D01*
X22314Y70486D02*
Y79386D01*
Y70486D02*
X25900Y66900D01*
X31400D01*
X32100Y66200D01*
Y61000D02*
Y66200D01*
X30715Y59615D02*
X32100Y61000D01*
X28700Y59615D02*
X30715D01*
X28700Y55073D02*
Y59615D01*
X13600Y84976D02*
Y98500D01*
Y84976D02*
X14665Y83911D01*
Y78765D02*
Y83911D01*
X15021Y69921D02*
Y74521D01*
X16521Y76021D01*
Y84399D01*
X73700Y94300D02*
X73800Y94400D01*
X20800Y46600D02*
X23700Y49500D01*
X18700Y46600D02*
X20800D01*
X41965Y8078D02*
X43300Y9413D01*
X42384Y6800D02*
X44500Y8916D01*
X42881Y5600D02*
X45700Y8419D01*
Y20800D01*
X43378Y4400D02*
X46900Y7921D01*
X45700Y20800D02*
X52900Y28000D01*
X24800Y8913D02*
Y13584D01*
X28113Y5600D02*
X42881D01*
X9300Y59600D02*
X10100Y60400D01*
X27500Y4400D02*
X43378D01*
X23300Y36800D02*
X28700Y31400D01*
Y26727D02*
Y31400D01*
X5228Y57228D02*
X11800Y63800D01*
X2828Y58528D02*
X6091Y61791D01*
X9300Y48900D02*
Y59600D01*
Y48900D02*
X21400Y36800D01*
X23300D01*
X35700Y108700D02*
X36400Y109400D01*
X40159Y108964D02*
Y116510D01*
D29*
X4000Y119851D02*
X4051Y119800D01*
X3700Y120151D02*
X4000Y119851D01*
X3700Y120151D02*
Y127400D01*
X4051Y119800D02*
X10244D01*
X16200Y120000D02*
X19300D01*
X25736Y127143D02*
X28501D01*
X25736Y120057D02*
X28901D01*
X36592Y120408D02*
X38398Y122214D01*
X36660Y126360D02*
X38480Y124541D01*
D30*
X37400Y70600D02*
X38902Y69098D01*
X44100D02*
X44149Y69049D01*
X49900D01*
X92700Y108400D02*
X97244D01*
X14900Y64751D02*
X15449Y65300D01*
X105600Y27372D02*
Y31244D01*
X38902Y69098D02*
X44100D01*
X102856Y108300D02*
X105600D01*
D31*
X28273Y17058D02*
Y17527D01*
D32*
X100600Y75351D02*
X106400D01*
X106400Y79800D02*
Y84249D01*
X106400Y79800D02*
X106400Y79800D01*
X106400Y79800D02*
X106500D01*
Y75451D02*
Y79800D01*
X106400Y75351D02*
X106500Y75451D01*
X7700Y34051D02*
Y40500D01*
D33*
X89079Y71016D02*
X96216D01*
X89079Y78890D02*
X91334D01*
X96693Y84249D01*
X106400D01*
X96240Y70991D02*
X100600Y75351D01*
X51084Y133341D02*
Y139733D01*
D34*
X51451Y140100D01*
D35*
X103804Y12395D02*
D03*
X66796D02*
D03*
D36*
X54700Y175100D02*
D03*
D37*
Y12300D02*
D03*
D38*
X18986Y113976D02*
D03*
X21486D02*
D03*
X85236Y111476D02*
D03*
X92300Y115400D02*
D03*
X58986Y143976D02*
D03*
X105236Y61476D02*
D03*
X90236Y141476D02*
D03*
Y136476D02*
D03*
X88986Y143976D02*
D03*
Y138976D02*
D03*
Y133976D02*
D03*
X87736Y131476D02*
D03*
X88986Y128976D02*
D03*
X87736Y126476D02*
D03*
X86486Y143976D02*
D03*
Y123976D02*
D03*
X85236Y116476D02*
D03*
X83986Y143976D02*
D03*
Y123976D02*
D03*
X82736Y121476D02*
D03*
X83986Y118976D02*
D03*
Y113976D02*
D03*
Y108976D02*
D03*
Y98976D02*
D03*
X81486Y143976D02*
D03*
Y123976D02*
D03*
X80236Y121476D02*
D03*
X78986Y143976D02*
D03*
Y123976D02*
D03*
X76486Y143976D02*
D03*
X73986D02*
D03*
X72736Y136476D02*
D03*
X73986Y113976D02*
D03*
X71486Y143976D02*
D03*
X67736Y146476D02*
D03*
X68986Y143976D02*
D03*
X66486D02*
D03*
X63986D02*
D03*
X61486Y148976D02*
D03*
Y143976D02*
D03*
Y113976D02*
D03*
X58986Y148976D02*
D03*
Y113976D02*
D03*
Y93976D02*
D03*
X56486Y148976D02*
D03*
X53986D02*
D03*
Y93976D02*
D03*
X51486Y148976D02*
D03*
X50236Y81476D02*
D03*
X48986Y148976D02*
D03*
Y93976D02*
D03*
X46486Y148976D02*
D03*
X43986D02*
D03*
X42736Y106476D02*
D03*
X43986Y103976D02*
D03*
X40236Y146476D02*
D03*
X37736D02*
D03*
X38986Y103976D02*
D03*
X35236Y131476D02*
D03*
X36486Y113976D02*
D03*
X33986Y143976D02*
D03*
X32736Y131476D02*
D03*
X33986Y113976D02*
D03*
X31486Y143976D02*
D03*
X30236Y141476D02*
D03*
Y131476D02*
D03*
X31486Y113976D02*
D03*
X27736Y131476D02*
D03*
X28986Y113976D02*
D03*
X26486Y138976D02*
D03*
X25236Y136476D02*
D03*
Y131476D02*
D03*
X26486Y113976D02*
D03*
X22736Y131476D02*
D03*
X23986Y113976D02*
D03*
X21486Y133976D02*
D03*
X20236Y131476D02*
D03*
Y96476D02*
D03*
X17736Y116476D02*
D03*
X16486Y123976D02*
D03*
X15236Y116476D02*
D03*
X16486Y93976D02*
D03*
X15236Y11476D02*
D03*
Y6476D02*
D03*
X13986Y123976D02*
D03*
X12736Y116476D02*
D03*
X11486Y123976D02*
D03*
X10236Y116476D02*
D03*
X8986Y123976D02*
D03*
X7736Y116476D02*
D03*
X8986Y113976D02*
D03*
X7736Y111476D02*
D03*
X6486Y123976D02*
D03*
Y108976D02*
D03*
X5236Y101476D02*
D03*
X90200Y177700D02*
D03*
X36000Y87900D02*
D03*
X71300Y100300D02*
D03*
X82200Y92900D02*
D03*
X84200Y95600D02*
D03*
X76300Y92800D02*
D03*
X27800Y8700D02*
D03*
X27500Y13000D02*
D03*
X17800Y36100D02*
D03*
X2000Y80300D02*
D03*
X67600Y54100D02*
D03*
X64500D02*
D03*
X72300Y54000D02*
D03*
X87600Y40800D02*
D03*
X40900Y40100D02*
D03*
X68800Y89400D02*
D03*
X74200Y111100D02*
D03*
X78300Y89700D02*
D03*
X70500Y107100D02*
D03*
X105000Y64800D02*
D03*
X24700Y62000D02*
D03*
X96900Y78900D02*
D03*
X93300Y56900D02*
D03*
X90000Y58300D02*
D03*
X63400Y43400D02*
D03*
X62200Y162900D02*
D03*
X102500Y49400D02*
D03*
X93400Y49800D02*
D03*
X40000Y27600D02*
D03*
X55700Y140400D02*
D03*
X11800Y65400D02*
D03*
X92500Y108600D02*
D03*
X64800Y130700D02*
D03*
X75300Y102200D02*
D03*
X95200Y26800D02*
D03*
X97400Y32600D02*
D03*
X63400Y38100D02*
D03*
X7900Y20900D02*
D03*
X14900Y61700D02*
D03*
X28200Y77600D02*
D03*
X51300Y88400D02*
D03*
X18900Y79500D02*
D03*
X11900Y60400D02*
D03*
X23200Y90100D02*
D03*
X26100Y86900D02*
D03*
X55600Y85900D02*
D03*
X17200Y100500D02*
D03*
X13900Y101700D02*
D03*
X46500Y105700D02*
D03*
X80000Y103700D02*
D03*
X31600Y75800D02*
D03*
X49100Y63294D02*
D03*
X82000Y53700D02*
D03*
X76700Y53900D02*
D03*
X54400Y67000D02*
D03*
X10973Y24000D02*
D03*
X35900Y57900D02*
D03*
X18500Y61800D02*
D03*
X37400Y90500D02*
D03*
X37400Y75700D02*
D03*
X21000Y50600D02*
D03*
X7700Y40500D02*
D03*
X94900Y74300D02*
D03*
X47147Y109247D02*
D03*
X95400Y97300D02*
D03*
X96600Y64700D02*
D03*
X94500Y68300D02*
D03*
X28273Y17527D02*
D03*
X57000Y64800D02*
D03*
X52100Y37900D02*
D03*
X60100Y108800D02*
D03*
X12100Y70900D02*
D03*
X105400Y40300D02*
D03*
X106500Y79800D02*
D03*
X94600Y86700D02*
D03*
X33600Y47800D02*
D03*
X65400Y89500D02*
D03*
X11300Y50500D02*
D03*
X105600Y27372D02*
D03*
X37400Y70600D02*
D03*
X73800Y94400D02*
D03*
X18700Y46600D02*
D03*
X49100Y24100D02*
D03*
X36400Y109400D02*
D03*
X105800Y114200D02*
D03*
X105600Y108300D02*
D03*
D39*
X45376Y128124D02*
D03*
X50100D02*
D03*
X54824D02*
D03*
X45376Y123400D02*
D03*
X50100D02*
D03*
X54824D02*
D03*
X45376Y118676D02*
D03*
X50100D02*
D03*
X54824D02*
D03*
X36330Y19726D02*
D03*
Y15002D02*
D03*
Y10277D02*
D03*
X41054Y19726D02*
D03*
Y15002D02*
D03*
Y10277D02*
D03*
X82387Y64913D02*
D03*
X77662D02*
D03*
X72938D02*
D03*
X68213D02*
D03*
X82387Y69638D02*
D03*
X77662D02*
D03*
X72938D02*
D03*
X68213D02*
D03*
X82387Y74362D02*
D03*
X77662D02*
D03*
X72938D02*
D03*
X68213D02*
D03*
X82387Y79087D02*
D03*
X77662D02*
D03*
X72938D02*
D03*
X68213D02*
D03*
D40*
X6900Y8000D02*
D03*
X80300Y5500D02*
D03*
X90200Y5400D02*
D03*
M02*
