%FSLAX25Y25*%
%MOIN*%
G70*
G01*
G75*
G04 Layer_Physical_Order=2*
G04 Layer_Color=32768*
%ADD10O,0.02559X0.00984*%
%ADD11O,0.00984X0.02559*%
%ADD12R,0.13780X0.13780*%
%ADD13R,0.00984X0.02150*%
%ADD14R,0.02150X0.00984*%
%ADD15C,0.02953*%
%ADD16R,0.04331X0.05118*%
%ADD17R,0.03740X0.03543*%
%ADD18R,0.03543X0.03150*%
%ADD19R,0.03543X0.03740*%
%ADD20R,0.03150X0.03543*%
%ADD21O,0.02362X0.07284*%
%ADD22R,0.01378X0.03937*%
%ADD23O,0.03465X0.01102*%
%ADD24O,0.01102X0.03465*%
%ADD25R,0.20866X0.20866*%
%ADD26C,0.04700*%
%ADD27C,0.01000*%
%ADD28C,0.00600*%
%ADD29C,0.01640*%
%ADD30C,0.01200*%
%ADD31C,0.00800*%
%ADD32C,0.02000*%
%ADD33C,0.01100*%
%ADD34C,0.01500*%
%ADD35O,0.09843X0.10827*%
%ADD36C,0.12500*%
%ADD37C,0.10000*%
%ADD38C,0.02200*%
%ADD39C,0.02598*%
%ADD40C,0.05000*%
%ADD41C,0.09200*%
%ADD42C,0.06000*%
%ADD43C,0.14900*%
%ADD44C,0.12400*%
%ADD45C,0.03200*%
%ADD46C,0.04600*%
G36*
X109200Y156000D02*
X39500Y155900D01*
X17700Y145500D01*
X9100Y129900D01*
X1400Y119800D01*
X1464Y164164D01*
X1400Y186800D01*
X109400Y187400D01*
X109200Y156000D01*
D02*
G37*
D27*
X91800Y89000D02*
X100000D01*
X74400Y700D02*
Y35800D01*
X74000Y36200D02*
X74400Y35800D01*
X68000Y36200D02*
X74000D01*
X64800Y39400D02*
X68000Y36200D01*
X43900Y39400D02*
X64800D01*
X43900Y34400D02*
Y39400D01*
X43500Y34000D02*
X43900Y34400D01*
X36900Y34000D02*
X43500D01*
X36500Y34400D02*
X36900Y34000D01*
X36500Y34400D02*
Y42800D01*
X35400Y43900D02*
X36500Y42800D01*
X2000Y43900D02*
X35400D01*
X46100Y66500D02*
X63800D01*
X100000Y89300D02*
Y156600D01*
X86700Y83900D02*
X91800Y89000D01*
X63800Y83900D02*
X86700D01*
X63800Y66500D02*
Y83900D01*
X29700Y66500D02*
X46100D01*
X0D02*
X29700D01*
D41*
X62107Y158777D02*
G03*
X13107Y137263I-8669J-46813D01*
G01*
D42*
X0Y0D02*
X110400D01*
Y187400D01*
X0D02*
X110400D01*
X0Y0D02*
Y187400D01*
D43*
X54700Y175100D02*
D03*
D44*
Y12300D02*
D03*
D45*
X90200Y177700D02*
D03*
X36000Y87900D02*
D03*
X71300Y100300D02*
D03*
X82200Y92900D02*
D03*
X84200Y95600D02*
D03*
X76300Y92800D02*
D03*
X27800Y8700D02*
D03*
X27500Y13000D02*
D03*
X2000Y80300D02*
D03*
X67600Y54100D02*
D03*
X64500D02*
D03*
X72300Y54000D02*
D03*
X87600Y40800D02*
D03*
X68800Y89400D02*
D03*
X74200Y111100D02*
D03*
X78300Y89700D02*
D03*
X70500Y107100D02*
D03*
X93300Y56900D02*
D03*
X90000Y58300D02*
D03*
X102500Y49400D02*
D03*
X93400Y49800D02*
D03*
X55700Y140400D02*
D03*
X11800Y65400D02*
D03*
X92500Y108600D02*
D03*
X14900Y61700D02*
D03*
X28200Y77600D02*
D03*
X18900Y79500D02*
D03*
X11900Y60400D02*
D03*
X23200Y90100D02*
D03*
X26100Y86900D02*
D03*
X55600Y85900D02*
D03*
X17200Y100500D02*
D03*
X13900Y101700D02*
D03*
X46500Y105700D02*
D03*
X80000Y103700D02*
D03*
X31600Y75800D02*
D03*
X49100Y63294D02*
D03*
X82000Y53700D02*
D03*
X76700Y53900D02*
D03*
X54400Y67000D02*
D03*
X10973Y24000D02*
D03*
X35900Y57900D02*
D03*
X18500Y61800D02*
D03*
X37400Y90500D02*
D03*
X37400Y75700D02*
D03*
X21000Y50600D02*
D03*
X7700Y40500D02*
D03*
X94900Y74300D02*
D03*
X47147Y109247D02*
D03*
X95400Y97300D02*
D03*
X96600Y64700D02*
D03*
X94500Y68300D02*
D03*
X28273Y17527D02*
D03*
X57000Y64800D02*
D03*
X52100Y37900D02*
D03*
X60100Y108800D02*
D03*
X105400Y40300D02*
D03*
X106500Y79800D02*
D03*
X65400Y89500D02*
D03*
X11300Y50500D02*
D03*
X105600Y27372D02*
D03*
X37400Y70600D02*
D03*
X73800Y94400D02*
D03*
X18700Y46600D02*
D03*
X49100Y24100D02*
D03*
X36400Y109400D02*
D03*
X105600Y108300D02*
D03*
D46*
X62200Y162900D02*
D03*
M02*
