M48
;Layer_Color=9474304
;FILE_FORMAT=2:5
INCH,LZ
;TYPE=PLATED
T1F00S00C0.00800
T2F00S00C0.01299
T3F00S00C0.02200
T4F00S00C0.02800
T5F00S00C0.07087
;TYPE=NON_PLATED
T6F00S00C0.10000
T7F00S00C0.12500
%
T01
X00491Y00241
X00521Y00379
X00634Y00381
Y00434
X00645Y00541
X00676
X00723Y0054
X00767Y00539
X0082Y00537
X009Y00583
X00933Y00569
X00934Y00498
X01025Y00494
X01054Y00403
X01056Y0027372
X00952Y00268
X00974Y00326
X00876Y00408
X00966Y00647
X00945Y00683
X00949Y00743
X00969Y00789
X00946Y00867
X00954Y00973
X00842Y00956
X0083986Y0098976
X00822Y00929
X00763Y00928
X00738Y00944
X00713Y01003
X00753Y01022
X008Y01037
X0083986Y0108976
X0085236Y0111476
X0083986Y0113976
X0085236Y0116476
X0083986Y0118976
X0082736Y0121476
X0080236
X0081486Y0123976
X0083986
X0086486
X0078986
X0073986Y0113976
X00742Y01111
X00705Y01071
X00601Y01088
X0058986Y0113976
X0061486
X0058986Y0093976
X0053986
X0048986
X00513Y00884
X00556Y00859
X0050236Y0081476
X00544Y0067
X0057Y00648
X00491Y0063294
X00654Y00895
X00688Y00894
X00783Y00897
X00925Y01086
X00923Y01154
X01058Y01142
X01056Y01083
X01065Y00798
X0105Y00648
X0105236Y0061476
X00359Y00579
X00336Y00478
X00409Y00401
X004Y00276
X0028273Y0017527
X00275Y0013
X00278Y00087
X0015236Y0006476
Y0011476
X00079Y00209
X0010973Y0024
X00178Y00361
X00187Y00466
X0021Y00506
X00113Y00505
X00119Y00604
X00149Y00617
X00185Y00618
X00247Y0062
X00118Y00654
X00121Y00709
X00189Y00795
X00282Y00776
X00316Y00758
X00374Y00757
X00374Y00706
X0036Y00879
X00374Y00905
X00232Y00901
X00261Y00869
X0020236Y0096476
X0016486Y0093976
X00172Y01005
X00139Y01017
X0005236Y0101476
X0006486Y0108976
X0007736Y0111476
X0008986Y0113976
X0010236Y0116476
X0012736
X0015236
X0017736
X0018986Y0113976
X0021486
X0023986
X0026486
X0028986
X0031486
X0033986
X0036486
X00364Y01094
X0038986Y0103976
X0043986
X0042736Y0106476
X00465Y01057
X0047147Y0109247
X0016486Y0123976
X0013986
X0011486
X0008986
X0006486
X0007736Y0116476
X0002Y00803
X00077Y00405
X0020236Y0131476
X0022736
X0025236
X0027736
X0030236
X0032736
X0035236
X0033986Y0143976
X0031486
X0030236Y0141476
X0026486Y0138976
X0025236Y0136476
X0021486Y0133976
X0037736Y0146476
X0040236
X0043986Y0148976
X0046486
X0048986
X0051486
X0053986
X0056486
X0058986
X0061486
Y0143976
X0058986
X0063986
X0066486
X0068986
X0071486
X0073986
X0076486
X0078986
X0081486
X0083986
X0086486
X0088986
X0090236Y0141476
X0088986Y0138976
X0090236Y0136476
X0088986Y0133976
X0087736Y0131476
X0088986Y0128976
X0087736Y0126476
X0072736Y0136476
X00648Y01307
X0067736Y0146476
X00557Y01404
X00902Y01777
T02
X0068213Y0064913
X0072938
X0077662
X0082387
Y0069638
X0077662
X0072938
X0068213
Y0074362
X0072938
X0077662
X0082387
Y0079087
X0077662
X0072938
X0068213
X0054824Y0118676
Y01234
X00501
Y0118676
X0045376
Y01234
X0041054Y0019726
X003633
Y0015002
Y0010277
X0041054
Y0015002
X0045376Y0128124
X00501
X0054824
T03
X00622Y01629
T04
X00803Y00055
X00902Y00054
X00069Y0008
T05
X0065418Y0012395
X0105182
T06
X00547Y00123
T07
X00547Y01751
M30
