%FSLAX25Y25*%
%MOIN*%
G70*
G01*
G75*
G04 Layer_Physical_Order=3*
G04 Layer_Color=128*
%ADD10O,0.02559X0.00984*%
%ADD11O,0.00984X0.02559*%
%ADD12R,0.13780X0.13780*%
%ADD13R,0.00984X0.02150*%
%ADD14R,0.02150X0.00984*%
%ADD15C,0.02953*%
%ADD16R,0.04331X0.05118*%
%ADD17R,0.03740X0.03543*%
%ADD18R,0.03543X0.03150*%
%ADD19R,0.03543X0.03740*%
%ADD20R,0.03150X0.03543*%
%ADD21O,0.02362X0.07284*%
%ADD22R,0.01378X0.03937*%
%ADD23O,0.03465X0.01102*%
%ADD24O,0.01102X0.03465*%
%ADD25R,0.20866X0.20866*%
%ADD26C,0.04700*%
%ADD27C,0.01000*%
%ADD28C,0.00600*%
%ADD29C,0.01640*%
%ADD30C,0.01200*%
%ADD31C,0.00800*%
%ADD32C,0.02000*%
%ADD33C,0.01100*%
%ADD34C,0.01500*%
%ADD35O,0.09843X0.10827*%
%ADD36C,0.12500*%
%ADD37C,0.10000*%
%ADD38C,0.02200*%
%ADD39C,0.02598*%
%ADD40C,0.05000*%
%ADD41C,0.09200*%
%ADD42C,0.06000*%
%ADD43C,0.14900*%
%ADD44C,0.12400*%
%ADD45C,0.03200*%
%ADD46C,0.04600*%
%ADD47R,0.03490X0.23475*%
%ADD48R,0.02800X0.02500*%
%ADD49R,0.02700X0.04700*%
%ADD50R,0.04600X0.05300*%
%ADD51R,0.05500X0.02400*%
%ADD52R,0.02400X0.05200*%
%ADD53R,0.05400X0.02500*%
%ADD54R,0.14173X0.14173*%
%ADD55C,0.09487*%
%ADD56C,0.03699*%
%ADD57C,0.05200*%
G36*
X108390Y181900D02*
X100500D01*
X88300Y181800D01*
X88200Y177600D01*
X88900Y173600D01*
X94100Y173700D01*
X105200Y177300D01*
X105100Y170000D01*
X105700Y154300D01*
X68665Y154427D01*
X58900Y159700D01*
X45000Y161000D01*
X25200Y153600D01*
X800Y122500D01*
X1582Y164914D01*
X500Y187400D01*
X108500D01*
X108390Y181900D01*
D02*
G37*
D27*
X100000Y66900D02*
Y155200D01*
X99700Y66600D02*
X100000Y66900D01*
X-200Y66600D02*
X99700D01*
D41*
X68665Y159037D02*
G03*
X4700Y120400I-16727J-44574D01*
G01*
D42*
X0Y0D02*
X110400D01*
Y187400D01*
X0D02*
X110400D01*
X0Y0D02*
Y187400D01*
D43*
X54700Y175100D02*
D03*
D44*
Y12300D02*
D03*
D45*
X18986Y113976D02*
D03*
X21486D02*
D03*
X85236Y111476D02*
D03*
X92300Y115400D02*
D03*
X58986Y143976D02*
D03*
X105236Y61476D02*
D03*
X90236Y141476D02*
D03*
Y136476D02*
D03*
X88986Y143976D02*
D03*
Y138976D02*
D03*
Y133976D02*
D03*
X87736Y131476D02*
D03*
X88986Y128976D02*
D03*
X87736Y126476D02*
D03*
X86486Y143976D02*
D03*
Y123976D02*
D03*
X85236Y116476D02*
D03*
X83986Y143976D02*
D03*
Y123976D02*
D03*
X82736Y121476D02*
D03*
X83986Y118976D02*
D03*
Y113976D02*
D03*
Y108976D02*
D03*
Y98976D02*
D03*
X81486Y143976D02*
D03*
Y123976D02*
D03*
X80236Y121476D02*
D03*
X78986Y143976D02*
D03*
Y123976D02*
D03*
X76486Y143976D02*
D03*
X73986D02*
D03*
X72736Y136476D02*
D03*
X73986Y113976D02*
D03*
X71486Y143976D02*
D03*
X67736Y146476D02*
D03*
X68986Y143976D02*
D03*
X66486D02*
D03*
X63986D02*
D03*
X61486Y148976D02*
D03*
Y143976D02*
D03*
Y113976D02*
D03*
X58986Y148976D02*
D03*
Y113976D02*
D03*
Y93976D02*
D03*
X56486Y148976D02*
D03*
X53986D02*
D03*
Y93976D02*
D03*
X51486Y148976D02*
D03*
X50236Y81476D02*
D03*
X48986Y148976D02*
D03*
Y93976D02*
D03*
X46486Y148976D02*
D03*
X43986D02*
D03*
X42736Y106476D02*
D03*
X43986Y103976D02*
D03*
X40236Y146476D02*
D03*
X37736D02*
D03*
X38986Y103976D02*
D03*
X35236Y131476D02*
D03*
X36486Y113976D02*
D03*
X33986Y143976D02*
D03*
X32736Y131476D02*
D03*
X33986Y113976D02*
D03*
X31486Y143976D02*
D03*
X30236Y141476D02*
D03*
Y131476D02*
D03*
X31486Y113976D02*
D03*
X27736Y131476D02*
D03*
X28986Y113976D02*
D03*
X26486Y138976D02*
D03*
X25236Y136476D02*
D03*
Y131476D02*
D03*
X26486Y113976D02*
D03*
X22736Y131476D02*
D03*
X23986Y113976D02*
D03*
X21486Y133976D02*
D03*
X20236Y131476D02*
D03*
Y96476D02*
D03*
X17736Y116476D02*
D03*
X16486Y123976D02*
D03*
X15236Y116476D02*
D03*
X16486Y93976D02*
D03*
X15236Y11476D02*
D03*
Y6476D02*
D03*
X13986Y123976D02*
D03*
X12736Y116476D02*
D03*
X11486Y123976D02*
D03*
X10236Y116476D02*
D03*
X8986Y123976D02*
D03*
X7736Y116476D02*
D03*
X8986Y113976D02*
D03*
X7736Y111476D02*
D03*
X6486Y123976D02*
D03*
Y108976D02*
D03*
X5236Y101476D02*
D03*
X36000Y87900D02*
D03*
X71300Y100300D02*
D03*
X82200Y92900D02*
D03*
X84200Y95600D02*
D03*
X76300Y92800D02*
D03*
X27800Y8700D02*
D03*
X27500Y13000D02*
D03*
X17800Y36100D02*
D03*
X2000Y80300D02*
D03*
X67600Y54100D02*
D03*
X64500D02*
D03*
X72300Y54000D02*
D03*
X87600Y40800D02*
D03*
X40900Y40100D02*
D03*
X68800Y89400D02*
D03*
X74200Y111100D02*
D03*
X78300Y89700D02*
D03*
X70500Y107100D02*
D03*
X105000Y64800D02*
D03*
X24700Y62000D02*
D03*
X96900Y78900D02*
D03*
X93300Y56900D02*
D03*
X90000Y58300D02*
D03*
X63400Y43400D02*
D03*
X102500Y49400D02*
D03*
X40000Y27600D02*
D03*
X11800Y65400D02*
D03*
X64800Y130700D02*
D03*
X75300Y102200D02*
D03*
X95200Y26800D02*
D03*
X97400Y32600D02*
D03*
X63400Y38100D02*
D03*
X7900Y20900D02*
D03*
X51300Y88400D02*
D03*
X18900Y79500D02*
D03*
X11900Y60400D02*
D03*
X23200Y90100D02*
D03*
X26100Y86900D02*
D03*
X55600Y85900D02*
D03*
X17200Y100500D02*
D03*
X13900Y101700D02*
D03*
X46500Y105700D02*
D03*
X80000Y103700D02*
D03*
X31600Y75800D02*
D03*
X49100Y63294D02*
D03*
X82000Y53700D02*
D03*
X76700Y53900D02*
D03*
X54400Y67000D02*
D03*
X10973Y24000D02*
D03*
X35900Y57900D02*
D03*
X18500Y61800D02*
D03*
X37400Y90500D02*
D03*
X37400Y75700D02*
D03*
X21000Y50600D02*
D03*
X94900Y74300D02*
D03*
X47147Y109247D02*
D03*
X95400Y97300D02*
D03*
X96600Y64700D02*
D03*
X94500Y68300D02*
D03*
X28273Y17527D02*
D03*
X57000Y64800D02*
D03*
X12100Y70900D02*
D03*
X105400Y40300D02*
D03*
X94600Y86700D02*
D03*
X33600Y47800D02*
D03*
X65400Y89500D02*
D03*
X11300Y50500D02*
D03*
X73800Y94400D02*
D03*
X18700Y46600D02*
D03*
X49100Y24100D02*
D03*
X36400Y109400D02*
D03*
X105800Y114200D02*
D03*
D46*
X62200Y162900D02*
D03*
D47*
X97745Y133138D02*
D03*
D48*
X38700Y17450D02*
D03*
D49*
X38650Y13850D02*
D03*
D50*
X49000Y122550D02*
D03*
D51*
X50950Y121100D02*
D03*
D52*
X52500Y124500D02*
D03*
D53*
X49000Y125750D02*
D03*
D54*
X75300Y72000D02*
D03*
D55*
X105182Y12395D02*
D03*
X65418D02*
D03*
D56*
X45376Y128124D02*
D03*
X50100D02*
D03*
X54824D02*
D03*
X45376Y123400D02*
D03*
X50100D02*
D03*
X54824D02*
D03*
X45376Y118676D02*
D03*
X50100D02*
D03*
X54824D02*
D03*
X36330Y19726D02*
D03*
Y15002D02*
D03*
Y10277D02*
D03*
X41054Y19726D02*
D03*
Y15002D02*
D03*
Y10277D02*
D03*
X82387Y64913D02*
D03*
X77662D02*
D03*
X72938D02*
D03*
X68213D02*
D03*
X82387Y69638D02*
D03*
X77662D02*
D03*
X72938D02*
D03*
X68213D02*
D03*
X82387Y74362D02*
D03*
X77662D02*
D03*
X72938D02*
D03*
X68213D02*
D03*
X82387Y79087D02*
D03*
X77662D02*
D03*
X72938D02*
D03*
X68213D02*
D03*
D57*
X6900Y8000D02*
D03*
X80300Y5500D02*
D03*
X90200Y5400D02*
D03*
M02*
