%FSLAX25Y25*%
%MOIN*%
G70*
G01*
G75*
G04 Layer_Color=8388736*
%ADD10O,0.02559X0.00984*%
%ADD11O,0.00984X0.02559*%
%ADD12R,0.13780X0.13780*%
%ADD13R,0.00984X0.02150*%
%ADD14R,0.02150X0.00984*%
%ADD15C,0.02953*%
%ADD16R,0.04331X0.05118*%
%ADD17R,0.03740X0.03543*%
%ADD18R,0.03543X0.03150*%
%ADD19R,0.03543X0.03740*%
%ADD20R,0.03150X0.03543*%
%ADD21O,0.02362X0.07284*%
%ADD22R,0.01378X0.03937*%
%ADD23O,0.03465X0.01102*%
%ADD24O,0.01102X0.03465*%
%ADD25R,0.20866X0.20866*%
%ADD26C,0.04700*%
%ADD27C,0.01000*%
%ADD28C,0.00600*%
%ADD29C,0.01640*%
%ADD30C,0.01200*%
%ADD31C,0.00800*%
%ADD32C,0.02000*%
%ADD33C,0.01100*%
%ADD34C,0.01500*%
%ADD35O,0.09843X0.10827*%
%ADD36C,0.12500*%
%ADD37C,0.10000*%
%ADD38C,0.02200*%
%ADD39C,0.02598*%
%ADD40C,0.05000*%
%ADD41C,0.09200*%
%ADD42C,0.06000*%
%ADD43C,0.14900*%
%ADD44C,0.12400*%
%ADD45C,0.03200*%
%ADD46C,0.04600*%
%ADD47R,0.03490X0.23475*%
%ADD48R,0.02800X0.02500*%
%ADD49R,0.02700X0.04700*%
%ADD50R,0.04600X0.05300*%
%ADD51R,0.05500X0.02400*%
%ADD52R,0.02400X0.05200*%
%ADD53R,0.05400X0.02500*%
%ADD54R,0.14173X0.14173*%
%ADD55C,0.09487*%
%ADD56C,0.03699*%
%ADD57C,0.05200*%
%ADD58R,0.05906X0.07480*%
%ADD59R,0.01181X0.06299*%
%ADD60O,0.01181X0.03150*%
%ADD61O,0.01181X0.04724*%
%ADD62O,0.03150X0.01181*%
%ADD63R,0.08661X0.12598*%
%ADD64O,0.08268X0.02362*%
%ADD65R,0.05118X0.03150*%
%ADD66R,0.11811X0.08268*%
%ADD67R,0.08268X0.03937*%
%ADD68R,0.03347X0.03543*%
%ADD69R,0.01772X0.01969*%
%ADD70C,0.02500*%
%ADD71C,0.00984*%
%ADD72C,0.02362*%
%ADD73C,0.00787*%
%ADD74O,0.02159X0.00584*%
%ADD75O,0.00584X0.02159*%
%ADD76R,0.09843X0.09843*%
%ADD77R,0.00684X0.01850*%
%ADD78R,0.01850X0.00684*%
%ADD79R,0.04131X0.04918*%
%ADD80R,0.03540X0.03343*%
%ADD81R,0.03343X0.02950*%
%ADD82R,0.03343X0.03540*%
%ADD83R,0.02950X0.03343*%
%ADD84O,0.02162X0.07084*%
%ADD85R,0.01178X0.03737*%
%ADD86O,0.03065X0.00702*%
%ADD87O,0.00702X0.03065*%
%ADD88R,0.10866X0.10866*%
%ADD89O,0.02959X0.01384*%
%ADD90O,0.01384X0.02959*%
%ADD91R,0.14379X0.14379*%
%ADD92R,0.01384X0.02550*%
%ADD93R,0.02550X0.01384*%
%ADD94R,0.04931X0.05718*%
%ADD95R,0.04340X0.04143*%
%ADD96R,0.04143X0.03750*%
%ADD97R,0.04143X0.04340*%
%ADD98R,0.03750X0.04143*%
%ADD99O,0.02962X0.07883*%
%ADD100R,0.01978X0.04537*%
%ADD101O,0.03865X0.01502*%
%ADD102O,0.01502X0.03865*%
%ADD103R,0.21466X0.21466*%
%ADD104C,0.09900*%
%ADD105O,0.10443X0.11427*%
D36*
X54700Y175100D02*
D03*
D37*
Y12300D02*
D03*
D89*
X40159Y130290D02*
D03*
Y128321D02*
D03*
Y126353D02*
D03*
Y124384D02*
D03*
Y122416D02*
D03*
Y120447D02*
D03*
Y118479D02*
D03*
Y116510D02*
D03*
X60041D02*
D03*
Y118479D02*
D03*
Y120447D02*
D03*
Y122416D02*
D03*
Y124384D02*
D03*
Y126353D02*
D03*
Y128321D02*
D03*
Y130290D02*
D03*
D90*
X43210Y113459D02*
D03*
X45179D02*
D03*
X47147D02*
D03*
X49116D02*
D03*
X51084D02*
D03*
X53053D02*
D03*
X55021D02*
D03*
X56990D02*
D03*
Y133341D02*
D03*
X55021D02*
D03*
X53053D02*
D03*
X51084D02*
D03*
X49116D02*
D03*
X47147D02*
D03*
X45179D02*
D03*
X43210D02*
D03*
D91*
X50100Y123400D02*
D03*
D92*
X20458Y72301D02*
D03*
X18489D02*
D03*
X16521D02*
D03*
Y83899D02*
D03*
X18489D02*
D03*
X20458D02*
D03*
D93*
X12690Y74163D02*
D03*
Y76131D02*
D03*
Y78100D02*
D03*
Y80068D02*
D03*
Y82037D02*
D03*
X24288D02*
D03*
Y80068D02*
D03*
Y78100D02*
D03*
Y76131D02*
D03*
Y74163D02*
D03*
D94*
X83700Y138100D02*
D03*
X76613D02*
D03*
X83700Y129045D02*
D03*
X76613D02*
D03*
D95*
X43151Y53000D02*
D03*
X37049D02*
D03*
X15449Y65300D02*
D03*
X21551D02*
D03*
X70551Y111100D02*
D03*
X64449D02*
D03*
X35651Y119900D02*
D03*
X29549D02*
D03*
X35651Y127100D02*
D03*
X29549D02*
D03*
X12949Y19900D02*
D03*
X19051D02*
D03*
X39670Y136200D02*
D03*
X33568D02*
D03*
X45349Y140100D02*
D03*
X51451D02*
D03*
X67351Y139200D02*
D03*
X61249D02*
D03*
X94651Y91200D02*
D03*
X88549D02*
D03*
D96*
X40200Y36856D02*
D03*
Y31344D02*
D03*
X100600Y58544D02*
D03*
Y64056D02*
D03*
X105400Y31244D02*
D03*
Y36756D02*
D03*
D97*
X28400Y63898D02*
D03*
Y70000D02*
D03*
X56200Y102649D02*
D03*
Y108751D02*
D03*
X51200D02*
D03*
Y102649D02*
D03*
X3700Y119951D02*
D03*
Y113849D02*
D03*
X68800Y127549D02*
D03*
Y133651D02*
D03*
X101200Y84149D02*
D03*
Y90251D02*
D03*
X106700D02*
D03*
Y84149D02*
D03*
X100600Y69249D02*
D03*
Y75351D02*
D03*
X106400Y69249D02*
D03*
Y75351D02*
D03*
X49900Y75151D02*
D03*
Y69049D02*
D03*
X44100Y69098D02*
D03*
Y75200D02*
D03*
X7900Y27749D02*
D03*
Y33851D02*
D03*
D98*
X100744Y53600D02*
D03*
X106256D02*
D03*
X9744Y120000D02*
D03*
X15256D02*
D03*
X64844Y116300D02*
D03*
X70356D02*
D03*
X102756Y108400D02*
D03*
X97244D02*
D03*
X102756Y114000D02*
D03*
X97244D02*
D03*
D99*
X28700Y55073D02*
D03*
X23700D02*
D03*
X18700D02*
D03*
X13700D02*
D03*
X28700Y26727D02*
D03*
X23700D02*
D03*
X18700D02*
D03*
X13700D02*
D03*
D100*
X19841Y120157D02*
D03*
X22400D02*
D03*
X24959D02*
D03*
Y127243D02*
D03*
X22400D02*
D03*
X19841D02*
D03*
D101*
X89079Y61173D02*
D03*
Y63142D02*
D03*
Y65110D02*
D03*
Y67079D02*
D03*
Y69047D02*
D03*
Y71016D02*
D03*
Y72984D02*
D03*
Y74953D02*
D03*
Y76921D02*
D03*
Y78890D02*
D03*
Y80858D02*
D03*
Y82827D02*
D03*
X61520D02*
D03*
Y80858D02*
D03*
Y78890D02*
D03*
Y76921D02*
D03*
Y74953D02*
D03*
Y72984D02*
D03*
Y71016D02*
D03*
Y69047D02*
D03*
Y67079D02*
D03*
Y65110D02*
D03*
Y63142D02*
D03*
Y61173D02*
D03*
D102*
X86127Y85780D02*
D03*
X84158D02*
D03*
X82190D02*
D03*
X80221D02*
D03*
X78253D02*
D03*
X76284D02*
D03*
X74316D02*
D03*
X72347D02*
D03*
X70379D02*
D03*
X68410D02*
D03*
X66442D02*
D03*
X64473D02*
D03*
Y58220D02*
D03*
X66442D02*
D03*
X68410D02*
D03*
X70379D02*
D03*
X72347D02*
D03*
X74316D02*
D03*
X76284D02*
D03*
X78253D02*
D03*
X80221D02*
D03*
X82190D02*
D03*
X84158D02*
D03*
X86127D02*
D03*
D103*
X75300Y72000D02*
D03*
D104*
X84000Y47000D02*
D03*
X102500Y175000D02*
D03*
D105*
X103804Y12395D02*
D03*
X66796D02*
D03*
M02*
