%FSLAX25Y25*%
%MOIN*%
G70*
G01*
G75*
G04 Layer_Physical_Order=1*
G04 Layer_Color=255*
%ADD10R,0.07874X0.01969*%
%ADD11R,0.03543X0.03740*%
%ADD12R,0.03740X0.03543*%
%ADD13R,0.10268X0.03143*%
%ADD14R,0.10268X0.03543*%
%ADD15R,0.24016X0.06000*%
%ADD16O,0.01772X0.07284*%
%ADD17C,0.01500*%
%ADD18C,0.05906*%
%ADD19R,0.05906X0.05906*%
%ADD20R,0.05906X0.05906*%
%ADD21R,0.04200X0.04200*%
%ADD22C,0.04200*%
%ADD23C,0.03200*%
%ADD24C,0.09843*%
%ADD25C,0.09449*%
%ADD26C,0.06299*%
D10*
X286614Y322642D02*
D03*
Y326579D02*
D03*
Y330516D02*
D03*
Y334453D02*
D03*
Y338390D02*
D03*
X313386Y324610D02*
D03*
Y328547D02*
D03*
Y332484D02*
D03*
Y336421D02*
D03*
Y340358D02*
D03*
D11*
X327000Y402898D02*
D03*
Y409000D02*
D03*
X341000Y402898D02*
D03*
Y409000D02*
D03*
X334000D02*
D03*
Y402898D02*
D03*
D12*
X267051Y402000D02*
D03*
X260949D02*
D03*
X267051Y395000D02*
D03*
X260949D02*
D03*
D13*
X330134Y373644D02*
D03*
D14*
Y363801D02*
D03*
Y346085D02*
D03*
Y355927D02*
D03*
D15*
X337008Y332750D02*
D03*
X337008Y386978D02*
D03*
D16*
X310134Y406173D02*
D03*
X307575D02*
D03*
X305016D02*
D03*
X302457D02*
D03*
X299898D02*
D03*
X297339D02*
D03*
X294780D02*
D03*
X292220D02*
D03*
X289661D02*
D03*
X287102D02*
D03*
X284543D02*
D03*
X281984D02*
D03*
X279425D02*
D03*
X276866D02*
D03*
X310134Y377827D02*
D03*
X307575D02*
D03*
X305016D02*
D03*
X302457D02*
D03*
X299898D02*
D03*
X297339D02*
D03*
X294780D02*
D03*
X292220D02*
D03*
X289661D02*
D03*
X287102D02*
D03*
X284543D02*
D03*
X281984D02*
D03*
X279425D02*
D03*
X276866D02*
D03*
D17*
X264000Y370500D02*
X269500Y365000D01*
X286614Y334453D02*
X294453D01*
X302000Y332500D02*
X313370D01*
X269500Y365000D02*
X302000Y332500D01*
X209500Y365000D02*
X269500D01*
X244000Y414892D02*
X246758Y417650D01*
X244000Y413500D02*
Y414892D01*
X246758Y417650D02*
X303195D01*
X260949Y395000D02*
Y402000D01*
X297339Y401661D02*
Y406173D01*
X264539Y391678D02*
X270724D01*
X261217Y395000D02*
X264539Y391678D01*
X315200Y361585D02*
X319500Y357285D01*
Y342000D02*
Y357285D01*
X317858Y340358D02*
X319500Y342000D01*
X279142Y322642D02*
X286614D01*
X320000Y333500D02*
X323800Y337300D01*
Y345500D01*
X324385Y346085D01*
X330134D01*
X209500Y325000D02*
X249545D01*
X252695Y328150D02*
X259597D01*
X270555Y317192D01*
X249545Y325000D02*
X252695Y328150D01*
X270555Y317192D02*
X295332D01*
X302750Y324610D01*
X313386D01*
X248500Y309500D02*
X253997Y314997D01*
Y324997D01*
X254000Y325000D01*
X271508Y319492D02*
X294379D01*
X246000Y345000D02*
X271508Y319492D01*
X209500Y345000D02*
X246000D01*
X294379Y319492D02*
X303434Y328547D01*
X224500Y350000D02*
X246000D01*
X269421Y326579D01*
X222503Y314997D02*
X233997D01*
X217003Y320497D02*
X222503Y314997D01*
X207635Y320497D02*
X217003D01*
X204500Y323632D02*
Y400000D01*
Y323632D02*
X207635Y320497D01*
X304921Y336421D02*
X313386D01*
X303434Y328547D02*
X313386D01*
X209500Y355000D02*
X249545D01*
X269421Y326579D02*
X286614D01*
X233997Y314997D02*
X238500Y319500D01*
X249545Y355000D02*
X274029Y330516D01*
X286614D01*
X315358Y340358D02*
X317858D01*
X315200Y361585D02*
Y383800D01*
X297339Y401661D02*
X315200Y383800D01*
X313370Y332500D02*
X313386Y332484D01*
X286979Y377704D02*
X287102Y377827D01*
X282917Y370000D02*
X286979Y374062D01*
X270500Y370000D02*
X282917D01*
X286979Y374062D02*
Y377704D01*
X265500Y375000D02*
X270500Y370000D01*
X209500Y375000D02*
X265500D01*
X240000Y395000D02*
X245000Y390000D01*
X209500Y395000D02*
X240000D01*
X204500Y400000D02*
X209500Y405000D01*
X292220Y377827D02*
Y385280D01*
X297339Y406173D02*
X297462Y406296D01*
X297215Y406050D02*
X297339Y406173D01*
X297462Y411917D02*
X303195Y417650D01*
X331184D01*
X297462Y406296D02*
Y411917D01*
X331184Y417650D02*
X339834Y409000D01*
X341000D01*
X302457Y412457D02*
X302500Y412500D01*
X305000Y400000D02*
Y401489D01*
X317500Y367337D02*
X324358Y360479D01*
X317500Y367337D02*
Y408500D01*
X325582Y360479D02*
X330134Y355927D01*
X324358Y360479D02*
X325582D01*
X327435Y366500D02*
X330134Y363801D01*
X325500Y366500D02*
X327435D01*
X320000Y372000D02*
X325500Y366500D01*
X320000Y372000D02*
Y409536D01*
X319268Y410268D02*
X320000Y409536D01*
X319268Y410268D02*
Y410268D01*
X318535Y411000D02*
X319268Y410268D01*
X318535Y411000D02*
X318535D01*
X316036Y413500D02*
X318535Y411000D01*
X309098Y413500D02*
X316036D01*
X307634Y412036D02*
X309098Y413500D01*
X307634Y411000D02*
Y412036D01*
X307575Y411000D02*
X307634D01*
X307575Y406173D02*
Y411000D01*
X315000D02*
X317500Y408500D01*
X310134Y411000D02*
X315000D01*
X310134Y406173D02*
Y411000D01*
X294656Y406297D02*
Y409938D01*
X291094Y413500D02*
X294656Y409938D01*
X290812Y413500D02*
X291094D01*
X305016Y401505D02*
Y406173D01*
X280000Y396150D02*
X290957D01*
X275195D02*
X280000D01*
X284543Y377827D02*
Y391607D01*
X280000Y396150D02*
X284543Y391607D01*
X290957Y396150D02*
X297215Y402408D01*
X270724Y391678D02*
X275195Y396150D01*
X297215Y402408D02*
Y406050D01*
X260949Y395000D02*
X261217D01*
X276866Y377827D02*
Y392634D01*
X276500Y393000D02*
X276866Y392634D01*
X244000Y413338D02*
Y413500D01*
X235662Y405000D02*
X244000Y413338D01*
X209500Y405000D02*
X235662D01*
X323000Y379778D02*
X329134Y373644D01*
X323000Y379778D02*
Y391898D01*
X334000Y402898D01*
X341000D01*
X327000Y409000D02*
X334000D01*
X284543Y406173D02*
Y410043D01*
X281984Y406173D02*
Y410484D01*
X284543Y410043D02*
X288000Y413500D01*
X281984Y410484D02*
X285000Y413500D01*
X288000D02*
X290812D01*
X285000D02*
X288000D01*
X302457Y406173D02*
Y412457D01*
X323500Y400000D02*
X326674Y403174D01*
X267051Y395000D02*
Y402000D01*
Y407449D01*
X327000Y409000D02*
Y414500D01*
Y403174D02*
Y403449D01*
X278390Y338390D02*
X286614D01*
D18*
X228500Y319500D02*
D03*
X238500Y309500D02*
D03*
Y319500D02*
D03*
X248500Y309500D02*
D03*
Y319500D02*
D03*
X258500D02*
D03*
X228500Y309500D02*
D03*
X209500Y335000D02*
D03*
Y405000D02*
D03*
Y395000D02*
D03*
Y385000D02*
D03*
Y375000D02*
D03*
Y365000D02*
D03*
Y355000D02*
D03*
Y345000D02*
D03*
Y325000D02*
D03*
D19*
X258500Y309500D02*
D03*
D20*
X209500Y315000D02*
D03*
D21*
X249000Y413500D02*
D03*
D22*
X244000D02*
D03*
X239000D02*
D03*
X234000D02*
D03*
X229000D02*
D03*
X224000D02*
D03*
D23*
X264000Y370500D02*
D03*
X294453Y334453D02*
D03*
X270500Y370000D02*
D03*
X279142Y322642D02*
D03*
X320000Y333500D02*
D03*
X254000Y325000D02*
D03*
X224500Y350000D02*
D03*
X278390Y338390D02*
D03*
X304921Y336421D02*
D03*
X245000Y390000D02*
D03*
X292220Y385280D02*
D03*
X302500Y412500D02*
D03*
X305000Y400000D02*
D03*
X276500Y393000D02*
D03*
X290812Y413500D02*
D03*
X323500Y400000D02*
D03*
X267051Y407449D02*
D03*
X327000Y414500D02*
D03*
D24*
X310236Y351776D02*
D03*
Y311224D02*
D03*
D25*
X289764Y353744D02*
D03*
Y309256D02*
D03*
D26*
X300000Y309453D02*
D03*
Y353547D02*
D03*
M02*
