%FSLAX25Y25*%
%MOIN*%
G70*
G01*
G75*
G04 Layer_Color=16711935*
%ADD10R,0.07874X0.01969*%
%ADD11R,0.03543X0.03740*%
%ADD12R,0.03740X0.03543*%
%ADD13R,0.10268X0.03143*%
%ADD14R,0.10268X0.03543*%
%ADD15R,0.24016X0.06000*%
%ADD16O,0.01772X0.07284*%
%ADD17C,0.01500*%
%ADD18C,0.05906*%
%ADD19R,0.05906X0.05906*%
%ADD20R,0.05906X0.05906*%
%ADD21R,0.04200X0.04200*%
%ADD22C,0.04200*%
%ADD23C,0.03200*%
%ADD24C,0.09843*%
%ADD25C,0.09449*%
%ADD26C,0.06299*%
%ADD27C,0.01000*%
%ADD28C,0.02362*%
%ADD29C,0.00984*%
%ADD30C,0.02000*%
%ADD31C,0.00787*%
%ADD32C,0.00394*%
%ADD33C,0.01378*%
%ADD34R,0.08474X0.02569*%
%ADD35R,0.04143X0.04340*%
%ADD36R,0.04340X0.04143*%
%ADD37R,0.10868X0.03743*%
%ADD38R,0.10868X0.04143*%
%ADD39R,0.24616X0.06600*%
%ADD40O,0.02372X0.07883*%
%ADD41C,0.06506*%
%ADD42R,0.06506X0.06506*%
%ADD43R,0.06506X0.06506*%
%ADD44C,0.03800*%
%ADD45C,0.10443*%
%ADD46C,0.10049*%
%ADD47C,0.06899*%
D21*
X249000Y413500D02*
D03*
D22*
X244000D02*
D03*
X239000D02*
D03*
X234000D02*
D03*
X229000D02*
D03*
X224000D02*
D03*
D39*
X337008Y332750D02*
D03*
X337008Y386978D02*
D03*
D41*
X228500Y319500D02*
D03*
X238500Y309500D02*
D03*
Y319500D02*
D03*
X248500Y309500D02*
D03*
Y319500D02*
D03*
X258500D02*
D03*
X228500Y309500D02*
D03*
X209500Y335000D02*
D03*
Y405000D02*
D03*
Y395000D02*
D03*
Y385000D02*
D03*
Y375000D02*
D03*
Y365000D02*
D03*
Y355000D02*
D03*
Y345000D02*
D03*
Y325000D02*
D03*
D42*
X258500Y309500D02*
D03*
D43*
X209500Y315000D02*
D03*
D44*
X264000Y370500D02*
D03*
X294453Y334453D02*
D03*
X270500Y370000D02*
D03*
X279142Y322642D02*
D03*
X320000Y333500D02*
D03*
X254000Y325000D02*
D03*
X224500Y350000D02*
D03*
X278390Y338390D02*
D03*
X304921Y336421D02*
D03*
X245000Y390000D02*
D03*
X292220Y385280D02*
D03*
X302500Y412500D02*
D03*
X305000Y400000D02*
D03*
X276500Y393000D02*
D03*
X290812Y413500D02*
D03*
X323500Y400000D02*
D03*
X267051Y407449D02*
D03*
X327000Y414500D02*
D03*
D45*
X310236Y351776D02*
D03*
Y311224D02*
D03*
D46*
X289764Y353744D02*
D03*
Y309256D02*
D03*
D47*
X300000Y309453D02*
D03*
Y353547D02*
D03*
M02*
