M48
;Layer_Color=9474304
;FILE_FORMAT=2:5
INCH,LZ
;TYPE=PLATED
T1F00S00C0.01600
T2F00S00C0.02500
T3F00S00C0.03543
T4F00S00C0.04000
T5F00S00C0.06299
T6F00S00C0.07874
T7F00S00C0.08268
%
T01
X02245Y035
X0254Y0325
X0279142Y0322642
X027839Y033839
X0294453Y0334453
X0304921Y0336421
X029222Y038528
X02765Y0393
X0267051Y0407449
X0290812Y04135
X03025Y04125
X0305Y04
X02705Y037
X0264Y03705
X0245Y039
X03235Y04
X0327Y04145
X032Y03335
T02
X0224Y04135
X0229
X0234
X0239
X0244
X0249
T03
X02095Y0315
Y0325
Y0335
Y0345
Y0355
Y0365
Y0375
Y0385
Y0395
Y0405
T04
X02285Y03095
X02385
X02485
X02585
Y03195
X02485
X02385
X02285
T05
X03Y0309453
Y0353547
T06
X0289764Y0309256
Y0353744
T07
X0310236Y0311224
Y0351776
M30
