%FSLAX25Y25*%
%MOIN*%
G70*
G01*
G75*
G04 Layer_Color=8421504*
%ADD10R,0.07874X0.01969*%
%ADD11R,0.03543X0.03740*%
%ADD12R,0.03740X0.03543*%
%ADD13R,0.10268X0.03143*%
%ADD14R,0.10268X0.03543*%
%ADD15R,0.24016X0.06000*%
%ADD16O,0.01772X0.07284*%
%ADD17C,0.01500*%
%ADD18C,0.05906*%
%ADD19R,0.05906X0.05906*%
%ADD20R,0.05906X0.05906*%
%ADD21R,0.04200X0.04200*%
%ADD22C,0.04200*%
%ADD23C,0.03200*%
%ADD24C,0.09843*%
%ADD25C,0.09449*%
%ADD26C,0.06299*%
%ADD27C,0.01000*%
%ADD28C,0.02362*%
%ADD29C,0.00984*%
%ADD30C,0.02000*%
%ADD31C,0.00787*%
%ADD32C,0.00394*%
%ADD33C,0.01378*%
D10*
X286614Y322642D02*
D03*
Y326579D02*
D03*
Y330516D02*
D03*
Y334453D02*
D03*
Y338390D02*
D03*
X313386Y324610D02*
D03*
Y328547D02*
D03*
Y332484D02*
D03*
Y336421D02*
D03*
Y340358D02*
D03*
D11*
X327000Y402898D02*
D03*
Y409000D02*
D03*
X341000Y402898D02*
D03*
Y409000D02*
D03*
X334000D02*
D03*
Y402898D02*
D03*
D12*
X267051Y402000D02*
D03*
X260949D02*
D03*
X267051Y395000D02*
D03*
X260949D02*
D03*
D13*
X330134Y373644D02*
D03*
D14*
Y363801D02*
D03*
Y346085D02*
D03*
Y355927D02*
D03*
D15*
X337008Y332750D02*
D03*
X337008Y386978D02*
D03*
D16*
X310134Y406173D02*
D03*
X307575D02*
D03*
X305016D02*
D03*
X302457D02*
D03*
X299898D02*
D03*
X297339D02*
D03*
X294780D02*
D03*
X292220D02*
D03*
X289661D02*
D03*
X287102D02*
D03*
X284543D02*
D03*
X281984D02*
D03*
X279425D02*
D03*
X276866D02*
D03*
X310134Y377827D02*
D03*
X307575D02*
D03*
X305016D02*
D03*
X302457D02*
D03*
X299898D02*
D03*
X297339D02*
D03*
X294780D02*
D03*
X292220D02*
D03*
X289661D02*
D03*
X287102D02*
D03*
X284543D02*
D03*
X281984D02*
D03*
X279425D02*
D03*
X276866D02*
D03*
M02*
