%FSLAX25Y25*%
%MOIN*%
G70*
G01*
G75*
G04 Layer_Physical_Order=2*
G04 Layer_Color=16711680*
%ADD10R,0.07874X0.01969*%
%ADD11R,0.03543X0.03740*%
%ADD12R,0.03740X0.03543*%
%ADD13R,0.10268X0.03143*%
%ADD14R,0.10268X0.03543*%
%ADD15R,0.24016X0.06000*%
%ADD16O,0.01772X0.07284*%
%ADD17C,0.01500*%
%ADD18C,0.05906*%
%ADD19R,0.05906X0.05906*%
%ADD20R,0.05906X0.05906*%
%ADD21R,0.04200X0.04200*%
%ADD22C,0.04200*%
%ADD23C,0.03200*%
%ADD24C,0.09843*%
%ADD25C,0.09449*%
%ADD26C,0.06299*%
G36*
X347500Y392500D02*
X322500D01*
Y335850D01*
X321854Y335354D01*
X321311Y335771D01*
X320679Y336033D01*
X320400Y336070D01*
Y333500D01*
Y330930D01*
X320679Y330967D01*
X321311Y331229D01*
X321854Y331646D01*
X322500Y331150D01*
Y327500D01*
X347500D01*
Y302500D01*
X202500D01*
Y322630D01*
X203170Y322833D01*
X203382Y322515D01*
X206298Y319600D01*
X206030Y318953D01*
X205547D01*
Y315400D01*
X213453D01*
Y318917D01*
X216348D01*
X221385Y313880D01*
X221898Y313537D01*
X222503Y313417D01*
X226343D01*
X226389Y313305D01*
X226576Y312754D01*
X225823Y312176D01*
X225222Y311393D01*
X224844Y310480D01*
X224715Y309500D01*
X224844Y308520D01*
X225222Y307607D01*
X225823Y306823D01*
X226607Y306222D01*
X227520Y305844D01*
X228500Y305715D01*
X229480Y305844D01*
X230393Y306222D01*
X231176Y306823D01*
X231778Y307607D01*
X232156Y308520D01*
X232285Y309500D01*
X232156Y310480D01*
X231778Y311393D01*
X231176Y312176D01*
X230424Y312754D01*
X230611Y313305D01*
X230657Y313417D01*
X236343D01*
X236389Y313305D01*
X236576Y312754D01*
X235823Y312176D01*
X235222Y311393D01*
X234844Y310480D01*
X234715Y309500D01*
X234844Y308520D01*
X235222Y307607D01*
X235823Y306823D01*
X236607Y306222D01*
X237520Y305844D01*
X238500Y305715D01*
X239480Y305844D01*
X240393Y306222D01*
X241177Y306823D01*
X241778Y307607D01*
X242156Y308520D01*
X242285Y309500D01*
X242156Y310480D01*
X241778Y311393D01*
X241177Y312176D01*
X240424Y312754D01*
X240611Y313305D01*
X240657Y313417D01*
X246343D01*
X246389Y313305D01*
X246576Y312754D01*
X245824Y312176D01*
X245222Y311393D01*
X244844Y310480D01*
X244715Y309500D01*
X244844Y308520D01*
X245222Y307607D01*
X245824Y306823D01*
X246607Y306222D01*
X247520Y305844D01*
X248500Y305715D01*
X249480Y305844D01*
X250393Y306222D01*
X251177Y306823D01*
X251778Y307607D01*
X252156Y308520D01*
X252285Y309500D01*
X252156Y310480D01*
X251778Y311393D01*
X251177Y312176D01*
X250424Y312754D01*
X250611Y313305D01*
X250657Y313417D01*
X254547D01*
Y309900D01*
X262453D01*
Y313417D01*
X285202D01*
X285511Y312789D01*
X284938Y312042D01*
X284382Y310698D01*
X284192Y309256D01*
X284382Y307814D01*
X284938Y306470D01*
X285824Y305316D01*
X286978Y304430D01*
X288322Y303874D01*
X289764Y303684D01*
X291206Y303874D01*
X292550Y304430D01*
X293704Y305316D01*
X294589Y306470D01*
X295146Y307814D01*
X295336Y309256D01*
X295146Y310698D01*
X294589Y312042D01*
X293704Y313196D01*
X292550Y314082D01*
X291206Y314638D01*
X289764Y314828D01*
X289615Y314809D01*
X289306Y315436D01*
X289789Y315920D01*
X296500D01*
X297105Y316040D01*
X297618Y316383D01*
X297618Y316383D01*
X297618Y316383D01*
X304618Y323382D01*
X304960Y323895D01*
X305080Y324500D01*
X305080Y324500D01*
X305080Y324500D01*
Y324500D01*
Y334006D01*
X305858Y334160D01*
X306651Y334691D01*
X307182Y335485D01*
X307368Y336421D01*
X307182Y337358D01*
X306651Y338152D01*
X305858Y338682D01*
X304921Y338868D01*
X303985Y338682D01*
X303191Y338152D01*
X302660Y337358D01*
X302474Y336421D01*
X302509Y336244D01*
X302382Y336118D01*
X302040Y335605D01*
X301920Y335000D01*
Y325155D01*
X295845Y319080D01*
X289135D01*
X288530Y318960D01*
X288017Y318618D01*
X285977Y316578D01*
X261779D01*
X261470Y317205D01*
X261778Y317607D01*
X262156Y318520D01*
X262285Y319500D01*
X262156Y320480D01*
X261778Y321393D01*
X261176Y322177D01*
X260393Y322778D01*
X259480Y323156D01*
X258500Y323285D01*
X257520Y323156D01*
X256607Y322778D01*
X255823Y322177D01*
X255222Y321393D01*
X254844Y320480D01*
X254715Y319500D01*
X254844Y318520D01*
X255222Y317607D01*
X255531Y317205D01*
X255221Y316578D01*
X251779D01*
X251469Y317205D01*
X251778Y317607D01*
X252156Y318520D01*
X252285Y319500D01*
X252156Y320480D01*
X251778Y321393D01*
X251177Y322177D01*
X250393Y322778D01*
X249480Y323156D01*
X248500Y323285D01*
X247520Y323156D01*
X246607Y322778D01*
X245824Y322177D01*
X245222Y321393D01*
X244844Y320480D01*
X244715Y319500D01*
X244844Y318520D01*
X244973Y318208D01*
X243343Y316578D01*
X241779D01*
X241470Y317205D01*
X241778Y317607D01*
X242156Y318520D01*
X242285Y319500D01*
X242156Y320480D01*
X241778Y321393D01*
X241177Y322177D01*
X240393Y322778D01*
X239480Y323156D01*
X238500Y323285D01*
X237520Y323156D01*
X236607Y322778D01*
X235823Y322177D01*
X235222Y321393D01*
X234844Y320480D01*
X234715Y319500D01*
X234844Y318520D01*
X235222Y317607D01*
X235530Y317205D01*
X235221Y316578D01*
X231779D01*
X231469Y317205D01*
X231778Y317607D01*
X232156Y318520D01*
X232285Y319500D01*
X232156Y320480D01*
X231778Y321393D01*
X231176Y322177D01*
X230393Y322778D01*
X229480Y323156D01*
X228500Y323285D01*
X227520Y323156D01*
X226607Y322778D01*
X225823Y322177D01*
X225222Y321393D01*
X224844Y320480D01*
X224715Y319500D01*
X224844Y318520D01*
X225222Y317607D01*
X225531Y317205D01*
X225221Y316578D01*
X223157D01*
X218120Y321615D01*
X217607Y321957D01*
X217003Y322078D01*
X212779D01*
X212470Y322705D01*
X212778Y323107D01*
X213156Y324020D01*
X213285Y325000D01*
X213156Y325980D01*
X213027Y326292D01*
X240118Y353382D01*
X240460Y353895D01*
X240580Y354500D01*
X240580Y354500D01*
X240580Y354500D01*
Y354500D01*
Y411057D01*
X241068Y411432D01*
X241150Y411538D01*
X241850D01*
X241932Y411432D01*
X242537Y410967D01*
X243243Y410675D01*
X244000Y410575D01*
X244757Y410675D01*
X245462Y410967D01*
X245472Y410974D01*
X246100Y410665D01*
Y410600D01*
X251900D01*
Y411920D01*
X255345D01*
X274088Y393177D01*
X274053Y393000D01*
X274088Y392823D01*
X262882Y381617D01*
X262540Y381105D01*
X262420Y380500D01*
Y372330D01*
X262270Y372230D01*
X261739Y371436D01*
X261553Y370500D01*
X261739Y369564D01*
X262270Y368770D01*
X263064Y368239D01*
X264000Y368053D01*
X264936Y368239D01*
X265730Y368770D01*
X266261Y369564D01*
X266447Y370500D01*
X266261Y371436D01*
X265730Y372230D01*
X265580Y372330D01*
Y379845D01*
X276323Y390588D01*
X276500Y390553D01*
X277436Y390739D01*
X278230Y391270D01*
X278761Y392064D01*
X278947Y393000D01*
X278761Y393936D01*
X278230Y394730D01*
X277436Y395261D01*
X276500Y395447D01*
X276323Y395412D01*
X267485Y404250D01*
X267710Y404913D01*
X267730Y404916D01*
X268362Y405178D01*
X268905Y405594D01*
X269322Y406138D01*
X269584Y406770D01*
X269621Y407049D01*
X267051D01*
Y407449D01*
X266651D01*
Y410019D01*
X266372Y409982D01*
X265740Y409720D01*
X265197Y409303D01*
X264780Y408760D01*
X264518Y408127D01*
X264515Y408107D01*
X263853Y407882D01*
X257118Y414617D01*
X256605Y414960D01*
X256000Y415080D01*
X251900D01*
Y416400D01*
X246100D01*
Y416335D01*
X245472Y416026D01*
X245462Y416033D01*
X244757Y416325D01*
X244000Y416425D01*
X243243Y416325D01*
X242537Y416033D01*
X241932Y415568D01*
X241850Y415462D01*
X241150D01*
X241068Y415568D01*
X240462Y416033D01*
X239757Y416325D01*
X239000Y416425D01*
X238243Y416325D01*
X237538Y416033D01*
X236932Y415568D01*
X236850Y415462D01*
X236150D01*
X236068Y415568D01*
X235462Y416033D01*
X234757Y416325D01*
X234000Y416425D01*
X233243Y416325D01*
X232538Y416033D01*
X231940Y415574D01*
X231246Y415666D01*
X231211Y415711D01*
X230563Y416208D01*
X229809Y416520D01*
X229400Y416574D01*
Y413500D01*
Y410426D01*
X229809Y410480D01*
X230563Y410792D01*
X231211Y411289D01*
X231246Y411334D01*
X231893Y411419D01*
X232420Y410958D01*
Y360155D01*
X224677Y352412D01*
X224500Y352447D01*
X223564Y352261D01*
X222770Y351730D01*
X222239Y350936D01*
X222053Y350000D01*
X222088Y349823D01*
X210792Y338527D01*
X210480Y338656D01*
X209500Y338785D01*
X208520Y338656D01*
X207607Y338278D01*
X206823Y337677D01*
X206743Y337572D01*
X206080Y337797D01*
Y342203D01*
X206743Y342428D01*
X206823Y342323D01*
X207607Y341722D01*
X208520Y341344D01*
X209500Y341215D01*
X210480Y341344D01*
X211393Y341722D01*
X212176Y342323D01*
X212778Y343107D01*
X213156Y344020D01*
X213285Y345000D01*
X213156Y345980D01*
X212778Y346893D01*
X212176Y347676D01*
X211393Y348278D01*
X210480Y348656D01*
X209500Y348785D01*
X208520Y348656D01*
X207607Y348278D01*
X206823Y347676D01*
X206743Y347572D01*
X206080Y347797D01*
Y352203D01*
X206743Y352428D01*
X206823Y352324D01*
X207607Y351722D01*
X208520Y351344D01*
X209500Y351215D01*
X210480Y351344D01*
X211393Y351722D01*
X212176Y352324D01*
X212778Y353107D01*
X213156Y354020D01*
X213285Y355000D01*
X213156Y355980D01*
X212778Y356893D01*
X212176Y357677D01*
X211393Y358278D01*
X210480Y358656D01*
X209500Y358785D01*
X208520Y358656D01*
X207607Y358278D01*
X206823Y357677D01*
X206743Y357572D01*
X206080Y357797D01*
Y362203D01*
X206743Y362428D01*
X206823Y362323D01*
X207607Y361722D01*
X208520Y361344D01*
X209500Y361215D01*
X210480Y361344D01*
X211393Y361722D01*
X212176Y362323D01*
X212778Y363107D01*
X213156Y364020D01*
X213285Y365000D01*
X213156Y365980D01*
X212778Y366893D01*
X212176Y367676D01*
X211393Y368278D01*
X210480Y368656D01*
X209500Y368785D01*
X208520Y368656D01*
X207607Y368278D01*
X206823Y367676D01*
X206743Y367572D01*
X206080Y367797D01*
Y372203D01*
X206743Y372428D01*
X206823Y372323D01*
X207607Y371722D01*
X208520Y371344D01*
X209500Y371215D01*
X210480Y371344D01*
X211393Y371722D01*
X212176Y372323D01*
X212778Y373107D01*
X213156Y374020D01*
X213285Y375000D01*
X213156Y375980D01*
X213027Y376292D01*
X225117Y388383D01*
X225460Y388895D01*
X225580Y389500D01*
X225580Y389500D01*
X225580Y389500D01*
Y389500D01*
Y410958D01*
X226107Y411419D01*
X226754Y411334D01*
X226789Y411289D01*
X227437Y410792D01*
X228191Y410480D01*
X228600Y410426D01*
Y413500D01*
Y416574D01*
X228191Y416520D01*
X227437Y416208D01*
X226789Y415711D01*
X226754Y415666D01*
X226060Y415574D01*
X225463Y416033D01*
X224757Y416325D01*
X224000Y416425D01*
X223243Y416325D01*
X222537Y416033D01*
X221932Y415568D01*
X221467Y414962D01*
X221175Y414257D01*
X221075Y413500D01*
X221175Y412743D01*
X221467Y412038D01*
X221932Y411432D01*
X222420Y411057D01*
Y390155D01*
X210792Y378527D01*
X210480Y378656D01*
X209500Y378785D01*
X208520Y378656D01*
X207607Y378278D01*
X206823Y377677D01*
X206743Y377572D01*
X206080Y377797D01*
Y379345D01*
X208208Y381473D01*
X208520Y381344D01*
X209500Y381215D01*
X210480Y381344D01*
X211393Y381722D01*
X212176Y382324D01*
X212778Y383107D01*
X213156Y384020D01*
X213285Y385000D01*
X213156Y385980D01*
X212778Y386893D01*
X212176Y387677D01*
X211393Y388278D01*
X210480Y388656D01*
X209500Y388785D01*
X208520Y388656D01*
X207607Y388278D01*
X206823Y387677D01*
X206222Y386893D01*
X205844Y385980D01*
X205715Y385000D01*
X205844Y384020D01*
X205973Y383708D01*
X203382Y381118D01*
X203170Y380799D01*
X202500Y381002D01*
Y417500D01*
X325654D01*
X325791Y416814D01*
X325689Y416771D01*
X325146Y416354D01*
X324729Y415811D01*
X324467Y415179D01*
X324430Y414900D01*
X329570D01*
X329533Y415179D01*
X329271Y415811D01*
X328854Y416354D01*
X328311Y416771D01*
X328209Y416814D01*
X328346Y417500D01*
X347500D01*
Y392500D01*
D02*
G37*
%LPC*%
G36*
X319600Y336070D02*
X319321Y336033D01*
X318689Y335771D01*
X318146Y335354D01*
X317729Y334811D01*
X317467Y334179D01*
X317430Y333900D01*
X319600D01*
Y336070D01*
D02*
G37*
G36*
X245000Y392447D02*
X244064Y392261D01*
X243270Y391730D01*
X242739Y390936D01*
X242553Y390000D01*
X242739Y389064D01*
X243270Y388270D01*
X243420Y388170D01*
Y364000D01*
X243420Y364000D01*
X243420D01*
X243540Y363395D01*
X243882Y362882D01*
X266148Y340617D01*
X265880Y339970D01*
X261390D01*
X260785Y339850D01*
X260272Y339507D01*
X252883Y332118D01*
X252540Y331605D01*
X252420Y331000D01*
Y326831D01*
X252270Y326730D01*
X251739Y325936D01*
X251553Y325000D01*
X251739Y324064D01*
X252270Y323270D01*
X253064Y322739D01*
X254000Y322553D01*
X254936Y322739D01*
X255730Y323270D01*
X256261Y324064D01*
X256447Y325000D01*
X256261Y325936D01*
X255730Y326730D01*
X255580Y326831D01*
Y330345D01*
X262044Y336809D01*
X276559D01*
X276659Y336660D01*
X277453Y336129D01*
X278390Y335943D01*
X279326Y336129D01*
X280120Y336660D01*
X280651Y337453D01*
X280837Y338390D01*
X280651Y339326D01*
X280120Y340120D01*
X279326Y340651D01*
X278390Y340837D01*
X277453Y340651D01*
X276659Y340120D01*
X276559Y339970D01*
X271265D01*
X246580Y364655D01*
Y388170D01*
X246730Y388270D01*
X247261Y389064D01*
X247447Y390000D01*
X247261Y390936D01*
X246730Y391730D01*
X245936Y392261D01*
X245000Y392447D01*
D02*
G37*
G36*
X279542Y325212D02*
Y323042D01*
X281712D01*
X281675Y323321D01*
X281413Y323953D01*
X280996Y324496D01*
X280453Y324913D01*
X279820Y325175D01*
X279542Y325212D01*
D02*
G37*
G36*
X319600Y333100D02*
X317430D01*
X317467Y332821D01*
X317729Y332189D01*
X318146Y331646D01*
X318689Y331229D01*
X319321Y330967D01*
X319600Y330930D01*
Y333100D01*
D02*
G37*
G36*
X300000Y357531D02*
X298969Y357395D01*
X298008Y356997D01*
X297183Y356364D01*
X296550Y355539D01*
X296152Y354578D01*
X296016Y353547D01*
X296152Y352516D01*
X296550Y351555D01*
X297183Y350730D01*
X298008Y350097D01*
X298969Y349699D01*
X300000Y349564D01*
X301031Y349699D01*
X301992Y350097D01*
X302817Y350730D01*
X303450Y351555D01*
X303848Y352516D01*
X303984Y353547D01*
X303848Y354578D01*
X303450Y355539D01*
X302817Y356364D01*
X301992Y356997D01*
X301031Y357395D01*
X300000Y357531D01*
D02*
G37*
G36*
X291820Y384880D02*
X289651D01*
X289687Y384601D01*
X289949Y383968D01*
X290366Y383425D01*
X290909Y383009D01*
X291542Y382747D01*
X291820Y382710D01*
Y384880D01*
D02*
G37*
G36*
X310236Y357546D02*
X308743Y357350D01*
X307351Y356773D01*
X306156Y355856D01*
X305239Y354661D01*
X304662Y353269D01*
X304466Y351776D01*
X304662Y350282D01*
X305239Y348890D01*
X306156Y347695D01*
X307351Y346778D01*
X308743Y346202D01*
X310236Y346005D01*
X311730Y346202D01*
X313122Y346778D01*
X314317Y347695D01*
X315234Y348890D01*
X315810Y350282D01*
X316007Y351776D01*
X315810Y353269D01*
X315234Y354661D01*
X314317Y355856D01*
X313122Y356773D01*
X311730Y357350D01*
X310236Y357546D01*
D02*
G37*
G36*
X270500Y372447D02*
X269564Y372261D01*
X268770Y371730D01*
X268239Y370936D01*
X268053Y370000D01*
X268239Y369064D01*
X268770Y368270D01*
X269564Y367739D01*
X270500Y367553D01*
X270677Y367588D01*
X281909Y356356D01*
Y351145D01*
X281909Y351145D01*
X281909D01*
X282029Y350540D01*
X282372Y350028D01*
X292872Y339527D01*
Y336283D01*
X292723Y336183D01*
X292192Y335389D01*
X292006Y334453D01*
X292192Y333516D01*
X292723Y332722D01*
X293516Y332192D01*
X294453Y332006D01*
X295389Y332192D01*
X296183Y332722D01*
X296713Y333516D01*
X296900Y334453D01*
X296713Y335389D01*
X296183Y336183D01*
X296033Y336283D01*
Y340182D01*
X295913Y340786D01*
X295570Y341299D01*
X289306Y347564D01*
X289615Y348191D01*
X289764Y348172D01*
X291206Y348362D01*
X292550Y348918D01*
X293704Y349804D01*
X294589Y350958D01*
X295146Y352302D01*
X295336Y353744D01*
X295146Y355186D01*
X294589Y356530D01*
X293704Y357684D01*
X292550Y358570D01*
X291206Y359126D01*
X289764Y359316D01*
X288322Y359126D01*
X286978Y358570D01*
X285824Y357684D01*
X285635Y357438D01*
X284953Y357597D01*
X284949Y357615D01*
X284607Y358128D01*
X272912Y369823D01*
X272947Y370000D01*
X272761Y370936D01*
X272230Y371730D01*
X271436Y372261D01*
X270500Y372447D01*
D02*
G37*
G36*
X278742Y325212D02*
X278463Y325175D01*
X277831Y324913D01*
X277287Y324496D01*
X276871Y323953D01*
X276609Y323321D01*
X276572Y323042D01*
X278742D01*
Y325212D01*
D02*
G37*
G36*
X258100Y309100D02*
X254547D01*
Y305547D01*
X258100D01*
Y309100D01*
D02*
G37*
G36*
X262453D02*
X258900D01*
Y305547D01*
X262453D01*
Y309100D01*
D02*
G37*
G36*
X310236Y316995D02*
X308743Y316798D01*
X307351Y316222D01*
X306156Y315305D01*
X305239Y314110D01*
X304662Y312718D01*
X304466Y311224D01*
X304662Y309731D01*
X305239Y308339D01*
X306156Y307144D01*
X307351Y306227D01*
X308743Y305650D01*
X310236Y305454D01*
X311730Y305650D01*
X313122Y306227D01*
X314317Y307144D01*
X315234Y308339D01*
X315810Y309731D01*
X316007Y311224D01*
X315810Y312718D01*
X315234Y314110D01*
X314317Y315305D01*
X313122Y316222D01*
X311730Y316798D01*
X310236Y316995D01*
D02*
G37*
G36*
X300000Y313437D02*
X298969Y313301D01*
X298008Y312903D01*
X297183Y312270D01*
X296550Y311445D01*
X296152Y310484D01*
X296016Y309453D01*
X296152Y308422D01*
X296550Y307461D01*
X297183Y306636D01*
X298008Y306003D01*
X298969Y305605D01*
X300000Y305469D01*
X301031Y305605D01*
X301992Y306003D01*
X302817Y306636D01*
X303450Y307461D01*
X303848Y308422D01*
X303984Y309453D01*
X303848Y310484D01*
X303450Y311445D01*
X302817Y312270D01*
X301992Y312903D01*
X301031Y313301D01*
X300000Y313437D01*
D02*
G37*
G36*
X278742Y322242D02*
X276572D01*
X276609Y321963D01*
X276871Y321331D01*
X277287Y320787D01*
X277831Y320371D01*
X278463Y320109D01*
X278742Y320072D01*
Y322242D01*
D02*
G37*
G36*
X281712D02*
X279542D01*
Y320072D01*
X279820Y320109D01*
X280453Y320371D01*
X280996Y320787D01*
X281413Y321331D01*
X281675Y321963D01*
X281712Y322242D01*
D02*
G37*
G36*
X209100Y314600D02*
X205547D01*
Y311047D01*
X209100D01*
Y314600D01*
D02*
G37*
G36*
X213453D02*
X209900D01*
Y311047D01*
X213453D01*
Y314600D01*
D02*
G37*
G36*
X326600Y414100D02*
X324430D01*
X324467Y413821D01*
X324729Y413189D01*
X325146Y412646D01*
X325689Y412229D01*
X326321Y411967D01*
X326600Y411930D01*
Y414100D01*
D02*
G37*
G36*
X329570D02*
X327400D01*
Y411930D01*
X327679Y411967D01*
X328311Y412229D01*
X328854Y412646D01*
X329271Y413189D01*
X329533Y413821D01*
X329570Y414100D01*
D02*
G37*
G36*
X290412Y413100D02*
X288242D01*
X288279Y412821D01*
X288541Y412189D01*
X288957Y411646D01*
X289500Y411229D01*
X290133Y410967D01*
X290412Y410930D01*
Y413100D01*
D02*
G37*
G36*
X293381D02*
X291212D01*
Y410930D01*
X291490Y410967D01*
X292123Y411229D01*
X292666Y411646D01*
X293083Y412189D01*
X293345Y412821D01*
X293381Y413100D01*
D02*
G37*
G36*
X290412Y416070D02*
X290133Y416033D01*
X289500Y415771D01*
X288957Y415354D01*
X288541Y414811D01*
X288279Y414179D01*
X288242Y413900D01*
X290412D01*
Y416070D01*
D02*
G37*
G36*
X291212D02*
Y413900D01*
X293381D01*
X293345Y414179D01*
X293083Y414811D01*
X292666Y415354D01*
X292123Y415771D01*
X291490Y416033D01*
X291212Y416070D01*
D02*
G37*
G36*
X302100Y415070D02*
X301821Y415033D01*
X301189Y414771D01*
X300646Y414354D01*
X300229Y413811D01*
X299967Y413179D01*
X299930Y412900D01*
X302100D01*
Y415070D01*
D02*
G37*
G36*
X302900D02*
Y412900D01*
X305070D01*
X305033Y413179D01*
X304771Y413811D01*
X304354Y414354D01*
X303811Y414771D01*
X303179Y415033D01*
X302900Y415070D01*
D02*
G37*
G36*
X305070Y412100D02*
X302900D01*
Y409930D01*
X303179Y409967D01*
X303811Y410229D01*
X304354Y410646D01*
X304771Y411189D01*
X305033Y411821D01*
X305070Y412100D01*
D02*
G37*
G36*
X292620Y387849D02*
Y385680D01*
X294790D01*
X294754Y385958D01*
X294492Y386591D01*
X294075Y387134D01*
X293532Y387551D01*
X292899Y387813D01*
X292620Y387849D01*
D02*
G37*
G36*
X209500Y398785D02*
X208520Y398656D01*
X207607Y398278D01*
X206823Y397676D01*
X206222Y396893D01*
X205844Y395980D01*
X205715Y395000D01*
X205844Y394020D01*
X206222Y393107D01*
X206823Y392323D01*
X207607Y391722D01*
X208520Y391344D01*
X209500Y391215D01*
X210480Y391344D01*
X211393Y391722D01*
X212176Y392323D01*
X212778Y393107D01*
X213156Y394020D01*
X213285Y395000D01*
X213156Y395980D01*
X212778Y396893D01*
X212176Y397676D01*
X211393Y398278D01*
X210480Y398656D01*
X209500Y398785D01*
D02*
G37*
G36*
X294790Y384880D02*
X292620D01*
Y382710D01*
X292899Y382747D01*
X293532Y383009D01*
X294075Y383425D01*
X294492Y383968D01*
X294754Y384601D01*
X294790Y384880D01*
D02*
G37*
G36*
X291820Y387849D02*
X291542Y387813D01*
X290909Y387551D01*
X290366Y387134D01*
X289949Y386591D01*
X289687Y385958D01*
X289651Y385680D01*
X291820D01*
Y387849D01*
D02*
G37*
G36*
X267451Y410019D02*
Y407849D01*
X269621D01*
X269584Y408127D01*
X269322Y408760D01*
X268905Y409303D01*
X268362Y409720D01*
X267730Y409982D01*
X267451Y410019D01*
D02*
G37*
G36*
X302100Y412100D02*
X299930D01*
X299967Y411821D01*
X300229Y411189D01*
X300646Y410646D01*
X301189Y410229D01*
X301821Y409967D01*
X302100Y409930D01*
Y412100D01*
D02*
G37*
G36*
X209500Y408785D02*
X208520Y408656D01*
X207607Y408278D01*
X206823Y407677D01*
X206222Y406893D01*
X205844Y405980D01*
X205715Y405000D01*
X205844Y404020D01*
X206222Y403107D01*
X206823Y402323D01*
X207607Y401722D01*
X208520Y401344D01*
X209500Y401215D01*
X210480Y401344D01*
X211393Y401722D01*
X212176Y402323D01*
X212778Y403107D01*
X213156Y404020D01*
X213285Y405000D01*
X213156Y405980D01*
X212778Y406893D01*
X212176Y407677D01*
X211393Y408278D01*
X210480Y408656D01*
X209500Y408785D01*
D02*
G37*
G36*
X323500Y402447D02*
X322564Y402261D01*
X321770Y401730D01*
X321670Y401580D01*
X306831D01*
X306730Y401730D01*
X305936Y402261D01*
X305000Y402447D01*
X304064Y402261D01*
X303270Y401730D01*
X302739Y400936D01*
X302553Y400000D01*
X302739Y399064D01*
X303270Y398270D01*
X304064Y397739D01*
X305000Y397553D01*
X305936Y397739D01*
X306730Y398270D01*
X306831Y398420D01*
X321670D01*
X321770Y398270D01*
X322564Y397739D01*
X323500Y397553D01*
X324436Y397739D01*
X325230Y398270D01*
X325761Y399064D01*
X325947Y400000D01*
X325761Y400936D01*
X325230Y401730D01*
X324436Y402261D01*
X323500Y402447D01*
D02*
G37*
%LPD*%
D15*
X337008Y332750D02*
D03*
X337008Y386978D02*
D03*
D17*
X264000Y380500D02*
X276500Y393000D01*
X264000Y370500D02*
Y380500D01*
X270500Y370000D02*
X283489Y357011D01*
Y351145D02*
Y357011D01*
Y351145D02*
X294453Y340182D01*
Y334453D02*
Y340182D01*
X261390Y338390D02*
X278390D01*
X254000Y331000D02*
X261390Y338390D01*
X254000Y325000D02*
Y331000D01*
X209500Y335000D02*
X224500Y350000D01*
X234000Y359500D01*
X245000Y364000D02*
X270610Y338390D01*
X243997Y314997D02*
X286632D01*
X243997D02*
X248500Y319500D01*
X286632Y314997D02*
X289135Y317500D01*
X296500D01*
X303500Y324500D01*
Y335000D02*
X304921Y336421D01*
X303500Y324500D02*
Y335000D01*
X245000Y364000D02*
Y390000D01*
X222503Y314997D02*
X243997D01*
X217003Y320497D02*
X222503Y314997D01*
X204500Y323632D02*
X207635Y320497D01*
X204500Y323632D02*
Y380000D01*
X207635Y320497D02*
X217003D01*
X204500Y380000D02*
X209500Y385000D01*
X305000Y400000D02*
X323500D01*
X256000Y413500D02*
X276500Y393000D01*
X249000Y413500D02*
X256000D01*
X209500Y375000D02*
X224000Y389500D01*
Y413500D01*
X209500Y325000D02*
X239000Y354500D01*
Y413500D01*
X234000Y359500D02*
Y413500D01*
D18*
X228500Y319500D02*
D03*
X238500Y309500D02*
D03*
Y319500D02*
D03*
X248500Y309500D02*
D03*
Y319500D02*
D03*
X258500D02*
D03*
X228500Y309500D02*
D03*
X209500Y335000D02*
D03*
Y405000D02*
D03*
Y395000D02*
D03*
Y385000D02*
D03*
Y375000D02*
D03*
Y365000D02*
D03*
Y355000D02*
D03*
Y345000D02*
D03*
Y325000D02*
D03*
D19*
X258500Y309500D02*
D03*
D20*
X209500Y315000D02*
D03*
D21*
X249000Y413500D02*
D03*
D22*
X244000D02*
D03*
X239000D02*
D03*
X234000D02*
D03*
X229000D02*
D03*
X224000D02*
D03*
D23*
X264000Y370500D02*
D03*
X294453Y334453D02*
D03*
X270500Y370000D02*
D03*
X279142Y322642D02*
D03*
X320000Y333500D02*
D03*
X254000Y325000D02*
D03*
X224500Y350000D02*
D03*
X278390Y338390D02*
D03*
X304921Y336421D02*
D03*
X245000Y390000D02*
D03*
X292220Y385280D02*
D03*
X302500Y412500D02*
D03*
X305000Y400000D02*
D03*
X276500Y393000D02*
D03*
X290812Y413500D02*
D03*
X323500Y400000D02*
D03*
X267051Y407449D02*
D03*
X327000Y414500D02*
D03*
D24*
X310236Y351776D02*
D03*
Y311224D02*
D03*
D25*
X289764Y353744D02*
D03*
Y309256D02*
D03*
D26*
X300000Y309453D02*
D03*
Y353547D02*
D03*
M02*
