M48
;Layer_Color=9474304
;FILE_FORMAT=2:5
INCH,LZ
;TYPE=PLATED
T1F00S00C0.01600
T2F00S00C0.03100
T3F00S00C0.07874
T4F00S00C0.08268
T5F00S00C0.08700
;TYPE=NON_PLATED
T6F00S00C0.06299
T7F00S00C0.12500
%
T01
X0225Y0394
X02947
X03644
X0434
X05037
X05734Y03939
X0643Y0394
X07127Y03939
T02
X0398987Y03155
X0408987
X0418987
X0428987
X0438987
X0448987
X0458987
X0463987Y0323
X0453987
X0443987
X0433987
X0423987
X0413987
X0403987
X0398987Y03305
X0408987
X0418987
X0428987
X0438987
X0448987
X0458987
X0463987Y0338
X0453987
X0443987
X0433987
X0423987
X0413987
X0403987
X0473987
X0483987
X0493987
X0503987
X0513987
X0523987
X0533987
X0543987
X0553987
X0563987
X0573987
X0583987
X0593987
X0603987
X0613987
X0623987
X0618987Y03305
X0608987
X0598987
X0588987
X0578987
X0568987
X0558987
X0548987
X0538987
X0528987
X0518987
X0508987
X0498987
X0488987
X0478987
X0468987
X0473987Y0323
X0483987
X0493987
X0503987
X0513987
X0523987
X0533987
X0543987
X0553987
X0563987
X0573987
X0583987
X0593987
X0603987
X0613987
X0623987
X0618987Y03155
X0608987
X0598987
X0588987
X0578987
X0568987
X0558987
X0548987
X0538987
X0528987
X0518987
X0508987
X0498987
X0488987
X0478987
X0468987
X0628987
X0638987
X0643987Y0323
X0633987
X0638987Y03305
X0628987
X0633987Y0338
X0643987
T03
X0238012Y0380598
Y0425087
X0307716
Y0380598
X0377413
Y0425087
X0447012
Y0380598
X0516716
Y0425087
X0586413
Y0380598
X0656012
Y0425087
X0725716
Y0380598
T04
X0258484Y0382567
Y0423118
X0328189
Y0382567
X0397886
Y0423118
X0467484
Y0382567
X0537189
Y0423118
X0606886
Y0382567
X0676484
Y0423118
X0746189
Y0382567
T05
X0378987Y031555
X0663987
T06
X0248248Y0380795
Y042489
X0317953
Y0380795
X038765
Y042489
X0457248
Y0380795
X0526953
Y042489
X059665
Y0380795
X0666248
Y042489
X0735953
Y0380795
T07
X0284984Y0330038
Y0429938
X0699984Y0430038
Y0330038
M30
