%FSLAX25Y25*%
%MOIN*%
G70*
G01*
G75*
G04 Layer_Physical_Order=2*
G04 Layer_Color=16711680*
%ADD10R,0.07874X0.01969*%
%ADD11C,0.01500*%
%ADD12C,0.06299*%
%ADD13C,0.12500*%
%ADD14C,0.05500*%
%ADD15R,0.05500X0.05500*%
%ADD16C,0.09843*%
%ADD17C,0.09449*%
%ADD18C,0.12000*%
%ADD19C,0.02500*%
D11*
X700760Y393900D02*
X712700D01*
X635768Y333700D02*
X638287Y336219D01*
X632187Y333700D02*
X635768D01*
X649160Y342300D02*
X700760Y393900D01*
X640595Y342300D02*
X649160D01*
X638287Y339992D02*
X640595Y342300D01*
X638287Y336219D02*
Y339992D01*
X628987Y330500D02*
X632187Y333700D01*
X598987Y349987D02*
X643000Y394000D01*
X598987Y330500D02*
Y349987D01*
X573400Y343494D02*
Y393900D01*
X569687Y339781D02*
X573400Y343494D01*
X569687Y331200D02*
Y339781D01*
X568987Y330500D02*
X569687Y331200D01*
X503700Y365787D02*
Y394000D01*
Y365787D02*
X529687Y339800D01*
Y336219D02*
Y339800D01*
Y336219D02*
X532206Y333700D01*
X535787D01*
X538987Y330500D01*
X434000Y394000D02*
X440737Y387263D01*
Y377999D02*
Y387263D01*
X489687Y336219D02*
X492206Y333700D01*
X495768D01*
X496868Y334800D01*
X500768D01*
X505068Y330500D01*
X440737Y377999D02*
X476437Y342300D01*
X485768D01*
X489687Y338381D01*
Y336219D02*
Y338381D01*
X505068Y330500D02*
X508987D01*
X364400Y394000D02*
X414068D01*
X469687Y338381D01*
Y336219D02*
Y338381D01*
Y336219D02*
X472206Y333700D01*
X475787D01*
X478987Y330500D01*
X294700Y394000D02*
X344900D01*
X365500Y373400D01*
X445787Y333700D02*
X448987Y330500D01*
X442206Y333700D02*
X445787D01*
X439687Y336219D02*
X442206Y333700D01*
X439687Y336219D02*
Y338381D01*
X404668Y373400D02*
X439687Y338381D01*
X365500Y373400D02*
X404668D01*
X225000Y394000D02*
X275400D01*
X298300Y371100D01*
X376968D01*
X409687Y338381D01*
Y336219D02*
Y338381D01*
Y336219D02*
X412206Y333700D01*
X415787D01*
X418987Y330500D01*
D12*
X248248Y424890D02*
D03*
Y380795D02*
D03*
X317953D02*
D03*
Y424890D02*
D03*
X387650D02*
D03*
Y380795D02*
D03*
X457248D02*
D03*
Y424890D02*
D03*
X526953D02*
D03*
Y380795D02*
D03*
X596650D02*
D03*
Y424890D02*
D03*
X666248D02*
D03*
Y380795D02*
D03*
X735953D02*
D03*
Y424890D02*
D03*
D13*
X699984Y430038D02*
D03*
Y330038D02*
D03*
X284984D02*
D03*
Y429938D02*
D03*
D14*
X398987Y315500D02*
D03*
X408987D02*
D03*
X418987D02*
D03*
X428987D02*
D03*
X438987D02*
D03*
X403987Y323000D02*
D03*
X413987D02*
D03*
X423987D02*
D03*
X433987D02*
D03*
X443987D02*
D03*
X398987Y330500D02*
D03*
X408987D02*
D03*
X418987D02*
D03*
X428987D02*
D03*
X438987D02*
D03*
X448987D02*
D03*
X403987Y338000D02*
D03*
X413987D02*
D03*
X423987D02*
D03*
X433987D02*
D03*
X643987Y323000D02*
D03*
X633987D02*
D03*
X638987Y315500D02*
D03*
X633987Y338000D02*
D03*
X623987D02*
D03*
X613987D02*
D03*
X603987D02*
D03*
X593987D02*
D03*
X583987D02*
D03*
X573987D02*
D03*
X563987D02*
D03*
X553987D02*
D03*
X543987D02*
D03*
X533987D02*
D03*
X523987D02*
D03*
X513987D02*
D03*
X503987D02*
D03*
X493987D02*
D03*
X483987D02*
D03*
X473987D02*
D03*
X463987D02*
D03*
X453987D02*
D03*
X443987D02*
D03*
X638987Y330500D02*
D03*
X628987D02*
D03*
X618987D02*
D03*
X608987D02*
D03*
X598987D02*
D03*
X588987D02*
D03*
X578987D02*
D03*
X568987D02*
D03*
X558987D02*
D03*
X548987D02*
D03*
X538987D02*
D03*
X528987D02*
D03*
X518987D02*
D03*
X508987D02*
D03*
X498987D02*
D03*
X488987D02*
D03*
X478987D02*
D03*
X468987D02*
D03*
X458987D02*
D03*
X623987Y323000D02*
D03*
X613987D02*
D03*
X603987D02*
D03*
X593987D02*
D03*
X583987D02*
D03*
X573987D02*
D03*
X563987D02*
D03*
X553987D02*
D03*
X543987D02*
D03*
X533987D02*
D03*
X523987D02*
D03*
X513987D02*
D03*
X503987D02*
D03*
X493987D02*
D03*
X483987D02*
D03*
X473987D02*
D03*
X463987D02*
D03*
X453987D02*
D03*
X628987Y315500D02*
D03*
X618987D02*
D03*
X608987D02*
D03*
X598987D02*
D03*
X588987D02*
D03*
X578987D02*
D03*
X568987D02*
D03*
X558987D02*
D03*
X548987D02*
D03*
X538987D02*
D03*
X528987D02*
D03*
X518987D02*
D03*
X508987D02*
D03*
X498987D02*
D03*
X488987D02*
D03*
X478987D02*
D03*
X468987D02*
D03*
X458987D02*
D03*
X448987D02*
D03*
D15*
X643987Y338000D02*
D03*
D16*
X258484Y423118D02*
D03*
Y382567D02*
D03*
X328189D02*
D03*
Y423118D02*
D03*
X397886D02*
D03*
Y382567D02*
D03*
X467484D02*
D03*
Y423118D02*
D03*
X537189D02*
D03*
Y382567D02*
D03*
X606886D02*
D03*
Y423118D02*
D03*
X676484D02*
D03*
Y382567D02*
D03*
X746189D02*
D03*
Y423118D02*
D03*
D17*
X238012Y425087D02*
D03*
Y380598D02*
D03*
X307716D02*
D03*
Y425087D02*
D03*
X377413D02*
D03*
Y380598D02*
D03*
X447012D02*
D03*
Y425087D02*
D03*
X516716D02*
D03*
Y380598D02*
D03*
X586413D02*
D03*
Y425087D02*
D03*
X656012D02*
D03*
Y380598D02*
D03*
X725716D02*
D03*
Y425087D02*
D03*
D18*
X378987Y315550D02*
D03*
X663987D02*
D03*
D19*
X712700Y393900D02*
D03*
X643000Y394000D02*
D03*
X573400Y393900D02*
D03*
X503700Y394000D02*
D03*
X434000D02*
D03*
X364400D02*
D03*
X294700D02*
D03*
X225000D02*
D03*
M02*
