%FSLAX25Y25*%
%MOIN*%
G70*
G01*
G75*
G04 Layer_Color=8388736*
%ADD10R,0.07874X0.01969*%
%ADD11C,0.01500*%
%ADD12C,0.06299*%
%ADD13C,0.12500*%
%ADD14C,0.05500*%
%ADD15R,0.05500X0.05500*%
%ADD16C,0.09843*%
%ADD17C,0.09449*%
%ADD18C,0.12000*%
%ADD19C,0.02500*%
%ADD20C,0.01000*%
%ADD21C,0.01378*%
%ADD22R,0.08474X0.02569*%
%ADD23C,0.06899*%
%ADD24C,0.13100*%
%ADD25C,0.06100*%
%ADD26R,0.06100X0.06100*%
%ADD27C,0.10443*%
%ADD28C,0.10049*%
%ADD29C,0.12600*%
%ADD30C,0.03100*%
D22*
X234862Y393984D02*
D03*
Y397921D02*
D03*
Y401858D02*
D03*
Y405795D02*
D03*
Y409732D02*
D03*
X261634Y395953D02*
D03*
X261634Y399890D02*
D03*
Y403827D02*
D03*
Y407764D02*
D03*
Y411701D02*
D03*
X331339D02*
D03*
Y407764D02*
D03*
Y403827D02*
D03*
Y399890D02*
D03*
X331339Y395953D02*
D03*
X304567Y409732D02*
D03*
Y405795D02*
D03*
Y401858D02*
D03*
Y397921D02*
D03*
Y393984D02*
D03*
X374264D02*
D03*
Y397921D02*
D03*
Y401858D02*
D03*
Y405795D02*
D03*
Y409732D02*
D03*
X401035Y395953D02*
D03*
X401035Y399890D02*
D03*
Y403827D02*
D03*
Y407764D02*
D03*
Y411701D02*
D03*
X470634D02*
D03*
Y407764D02*
D03*
Y403827D02*
D03*
Y399890D02*
D03*
X470634Y395953D02*
D03*
X443862Y409732D02*
D03*
Y405795D02*
D03*
Y401858D02*
D03*
Y397921D02*
D03*
Y393984D02*
D03*
X513567D02*
D03*
Y397921D02*
D03*
Y401858D02*
D03*
Y405795D02*
D03*
Y409732D02*
D03*
X540339Y395953D02*
D03*
X540339Y399890D02*
D03*
Y403827D02*
D03*
Y407764D02*
D03*
Y411701D02*
D03*
X610036D02*
D03*
Y407764D02*
D03*
Y403827D02*
D03*
Y399890D02*
D03*
X610036Y395953D02*
D03*
X583264Y409732D02*
D03*
Y405795D02*
D03*
Y401858D02*
D03*
Y397921D02*
D03*
Y393984D02*
D03*
X652862D02*
D03*
Y397921D02*
D03*
Y401858D02*
D03*
Y405795D02*
D03*
Y409732D02*
D03*
X679634Y395953D02*
D03*
X679634Y399890D02*
D03*
Y403827D02*
D03*
Y407764D02*
D03*
Y411701D02*
D03*
X749339D02*
D03*
Y407764D02*
D03*
Y403827D02*
D03*
Y399890D02*
D03*
X749339Y395953D02*
D03*
X722567Y409732D02*
D03*
Y405795D02*
D03*
Y401858D02*
D03*
Y397921D02*
D03*
Y393984D02*
D03*
D23*
X248248Y424890D02*
D03*
Y380795D02*
D03*
X317953D02*
D03*
Y424890D02*
D03*
X387650D02*
D03*
Y380795D02*
D03*
X457248D02*
D03*
Y424890D02*
D03*
X526953D02*
D03*
Y380795D02*
D03*
X596650D02*
D03*
Y424890D02*
D03*
X666248D02*
D03*
Y380795D02*
D03*
X735953D02*
D03*
Y424890D02*
D03*
D24*
X699984Y430038D02*
D03*
Y330038D02*
D03*
X284984D02*
D03*
Y429938D02*
D03*
D25*
X398987Y315500D02*
D03*
X408987D02*
D03*
X418987D02*
D03*
X428987D02*
D03*
X438987D02*
D03*
X403987Y323000D02*
D03*
X413987D02*
D03*
X423987D02*
D03*
X433987D02*
D03*
X443987D02*
D03*
X398987Y330500D02*
D03*
X408987D02*
D03*
X418987D02*
D03*
X428987D02*
D03*
X438987D02*
D03*
X448987D02*
D03*
X403987Y338000D02*
D03*
X413987D02*
D03*
X423987D02*
D03*
X433987D02*
D03*
X643987Y323000D02*
D03*
X633987D02*
D03*
X638987Y315500D02*
D03*
X633987Y338000D02*
D03*
X623987D02*
D03*
X613987D02*
D03*
X603987D02*
D03*
X593987D02*
D03*
X583987D02*
D03*
X573987D02*
D03*
X563987D02*
D03*
X553987D02*
D03*
X543987D02*
D03*
X533987D02*
D03*
X523987D02*
D03*
X513987D02*
D03*
X503987D02*
D03*
X493987D02*
D03*
X483987D02*
D03*
X473987D02*
D03*
X463987D02*
D03*
X453987D02*
D03*
X443987D02*
D03*
X638987Y330500D02*
D03*
X628987D02*
D03*
X618987D02*
D03*
X608987D02*
D03*
X598987D02*
D03*
X588987D02*
D03*
X578987D02*
D03*
X568987D02*
D03*
X558987D02*
D03*
X548987D02*
D03*
X538987D02*
D03*
X528987D02*
D03*
X518987D02*
D03*
X508987D02*
D03*
X498987D02*
D03*
X488987D02*
D03*
X478987D02*
D03*
X468987D02*
D03*
X458987D02*
D03*
X623987Y323000D02*
D03*
X613987D02*
D03*
X603987D02*
D03*
X593987D02*
D03*
X583987D02*
D03*
X573987D02*
D03*
X563987D02*
D03*
X553987D02*
D03*
X543987D02*
D03*
X533987D02*
D03*
X523987D02*
D03*
X513987D02*
D03*
X503987D02*
D03*
X493987D02*
D03*
X483987D02*
D03*
X473987D02*
D03*
X463987D02*
D03*
X453987D02*
D03*
X628987Y315500D02*
D03*
X618987D02*
D03*
X608987D02*
D03*
X598987D02*
D03*
X588987D02*
D03*
X578987D02*
D03*
X568987D02*
D03*
X558987D02*
D03*
X548987D02*
D03*
X538987D02*
D03*
X528987D02*
D03*
X518987D02*
D03*
X508987D02*
D03*
X498987D02*
D03*
X488987D02*
D03*
X478987D02*
D03*
X468987D02*
D03*
X458987D02*
D03*
X448987D02*
D03*
D26*
X643987Y338000D02*
D03*
D27*
X258484Y423118D02*
D03*
Y382567D02*
D03*
X328189D02*
D03*
Y423118D02*
D03*
X397886D02*
D03*
Y382567D02*
D03*
X467484D02*
D03*
Y423118D02*
D03*
X537189D02*
D03*
Y382567D02*
D03*
X606886D02*
D03*
Y423118D02*
D03*
X676484D02*
D03*
Y382567D02*
D03*
X746189D02*
D03*
Y423118D02*
D03*
D28*
X238012Y425087D02*
D03*
Y380598D02*
D03*
X307716D02*
D03*
Y425087D02*
D03*
X377413D02*
D03*
Y380598D02*
D03*
X447012D02*
D03*
Y425087D02*
D03*
X516716D02*
D03*
Y380598D02*
D03*
X586413D02*
D03*
Y425087D02*
D03*
X656012D02*
D03*
Y380598D02*
D03*
X725716D02*
D03*
Y425087D02*
D03*
D29*
X378987Y315550D02*
D03*
X663987D02*
D03*
D30*
X712700Y393900D02*
D03*
X643000Y394000D02*
D03*
X573400Y393900D02*
D03*
X503700Y394000D02*
D03*
X434000D02*
D03*
X364400D02*
D03*
X294700D02*
D03*
X225000D02*
D03*
M02*
