%FSLAX25Y25*%
%MOIN*%
G70*
G01*
G75*
G04 Layer_Color=65535*
%ADD10R,0.07874X0.01969*%
%ADD11C,0.01500*%
%ADD12C,0.06299*%
%ADD13C,0.12500*%
%ADD14C,0.05500*%
%ADD15R,0.05500X0.05500*%
%ADD16C,0.09843*%
%ADD17C,0.09449*%
%ADD18C,0.12000*%
%ADD19C,0.02500*%
%ADD20C,0.01000*%
%ADD21C,0.01378*%
G36*
X257735Y332144D02*
X257796Y332137D01*
X257872Y332129D01*
X257956Y332114D01*
X258054Y332091D01*
X258252Y332030D01*
X258351Y331992D01*
X258458Y331939D01*
X258564Y331885D01*
X258671Y331817D01*
X258770Y331741D01*
X258861Y331649D01*
X258869Y331642D01*
X258884Y331627D01*
X258907Y331596D01*
X258937Y331558D01*
X258975Y331505D01*
X259013Y331444D01*
X259059Y331368D01*
X259105Y331284D01*
X259150Y331193D01*
X259196Y331086D01*
X259234Y330972D01*
X259272Y330850D01*
X259302Y330713D01*
X259325Y330569D01*
X259341Y330417D01*
X259348Y330257D01*
Y330249D01*
Y330226D01*
Y330188D01*
Y330143D01*
X259341Y330082D01*
Y330006D01*
X259333Y329930D01*
X259318Y329846D01*
X259295Y329671D01*
X259257Y329481D01*
X259204Y329298D01*
X259127Y329131D01*
Y329123D01*
X259120Y329115D01*
X259105Y329093D01*
X259089Y329062D01*
X259036Y328986D01*
X258968Y328895D01*
X258884Y328796D01*
X258777Y328689D01*
X258648Y328583D01*
X258503Y328491D01*
X258496D01*
X258488Y328484D01*
X258465Y328468D01*
X258435Y328461D01*
X258397Y328438D01*
X258351Y328423D01*
X258237Y328385D01*
X258100Y328339D01*
X257948Y328309D01*
X257781Y328278D01*
X257605Y328271D01*
X257529D01*
X257476Y328278D01*
X257408Y328286D01*
X257331Y328293D01*
X257248Y328309D01*
X257156Y328331D01*
X256959Y328392D01*
X256852Y328430D01*
X256746Y328476D01*
X256647Y328537D01*
X256540Y328606D01*
X256441Y328682D01*
X256350Y328765D01*
X256342Y328773D01*
X256327Y328788D01*
X256304Y328818D01*
X256274Y328857D01*
X256236Y328910D01*
X256198Y328971D01*
X256152Y329047D01*
X256114Y329138D01*
X256068Y329229D01*
X256023Y329336D01*
X255984Y329458D01*
X255946Y329587D01*
X255916Y329724D01*
X255893Y329876D01*
X255878Y330036D01*
X255870Y330211D01*
Y330226D01*
Y330257D01*
X255878Y330310D01*
Y330379D01*
X255886Y330462D01*
X255901Y330561D01*
X255916Y330668D01*
X255939Y330789D01*
X255969Y330911D01*
X256007Y331033D01*
X256053Y331162D01*
X256114Y331284D01*
X256175Y331406D01*
X256251Y331528D01*
X256342Y331634D01*
X256441Y331733D01*
X256449Y331741D01*
X256464Y331748D01*
X256487Y331771D01*
X256525Y331802D01*
X256571Y331832D01*
X256631Y331862D01*
X256692Y331901D01*
X256768Y331946D01*
X256844Y331984D01*
X256936Y332022D01*
X257134Y332083D01*
X257362Y332137D01*
X257476Y332144D01*
X257605Y332152D01*
X257681D01*
X257735Y332144D01*
D02*
G37*
G36*
X245817D02*
X245886Y332137D01*
X245954Y332121D01*
X246038Y332106D01*
X246130Y332091D01*
X246320Y332030D01*
X246419Y331984D01*
X246525Y331939D01*
X246624Y331878D01*
X246723Y331809D01*
X246822Y331733D01*
X246913Y331642D01*
X246921Y331634D01*
X246936Y331619D01*
X246959Y331589D01*
X246989Y331551D01*
X247027Y331497D01*
X247066Y331436D01*
X247111Y331360D01*
X247157Y331277D01*
X247195Y331178D01*
X247241Y331071D01*
X247279Y330957D01*
X247317Y330828D01*
X247347Y330691D01*
X247370Y330546D01*
X247385Y330386D01*
X247393Y330219D01*
Y330211D01*
Y330173D01*
Y330120D01*
X247385Y330051D01*
X244615D01*
Y330044D01*
Y330021D01*
X244623Y329991D01*
Y329952D01*
X244630Y329899D01*
X244638Y329838D01*
X244668Y329701D01*
X244714Y329549D01*
X244775Y329397D01*
X244851Y329245D01*
X244958Y329108D01*
X244973Y329093D01*
X245011Y329054D01*
X245079Y329009D01*
X245171Y328948D01*
X245285Y328887D01*
X245414Y328841D01*
X245566Y328803D01*
X245734Y328788D01*
X245795D01*
X245856Y328796D01*
X245939Y328811D01*
X246031Y328834D01*
X246130Y328864D01*
X246229Y328902D01*
X246327Y328963D01*
X246335Y328971D01*
X246365Y329001D01*
X246411Y329039D01*
X246472Y329108D01*
X246533Y329184D01*
X246601Y329290D01*
X246662Y329412D01*
X246723Y329549D01*
X247370Y329465D01*
Y329458D01*
X247362Y329443D01*
X247355Y329412D01*
X247340Y329374D01*
X247324Y329321D01*
X247302Y329268D01*
X247241Y329138D01*
X247165Y329001D01*
X247066Y328849D01*
X246944Y328712D01*
X246799Y328583D01*
X246792D01*
X246784Y328567D01*
X246754Y328552D01*
X246723Y328537D01*
X246685Y328514D01*
X246632Y328484D01*
X246579Y328453D01*
X246510Y328430D01*
X246358Y328369D01*
X246175Y328316D01*
X245962Y328286D01*
X245734Y328271D01*
X245658D01*
X245597Y328278D01*
X245528Y328286D01*
X245452Y328293D01*
X245361Y328309D01*
X245270Y328331D01*
X245064Y328392D01*
X244950Y328430D01*
X244844Y328476D01*
X244737Y328537D01*
X244630Y328606D01*
X244531Y328682D01*
X244440Y328765D01*
X244432Y328773D01*
X244417Y328788D01*
X244394Y328818D01*
X244364Y328857D01*
X244334Y328910D01*
X244288Y328971D01*
X244250Y329047D01*
X244204Y329131D01*
X244159Y329222D01*
X244121Y329328D01*
X244075Y329443D01*
X244044Y329572D01*
X244014Y329709D01*
X243991Y329854D01*
X243976Y330006D01*
X243968Y330173D01*
Y330181D01*
Y330211D01*
Y330264D01*
X243976Y330325D01*
X243984Y330409D01*
X243991Y330500D01*
X244006Y330599D01*
X244029Y330713D01*
X244082Y330942D01*
X244128Y331064D01*
X244174Y331185D01*
X244227Y331307D01*
X244288Y331421D01*
X244364Y331535D01*
X244448Y331634D01*
X244455Y331642D01*
X244471Y331657D01*
X244501Y331680D01*
X244531Y331718D01*
X244585Y331756D01*
X244638Y331802D01*
X244707Y331847D01*
X244783Y331893D01*
X244866Y331939D01*
X244965Y331992D01*
X245064Y332030D01*
X245178Y332068D01*
X245292Y332106D01*
X245422Y332129D01*
X245559Y332144D01*
X245696Y332152D01*
X245764D01*
X245817Y332144D01*
D02*
G37*
G36*
X229791Y328354D02*
X229022D01*
X228429Y329907D01*
X226283D01*
X225727Y328354D01*
X225012D01*
X226960Y333476D01*
X227706D01*
X229791Y328354D01*
D02*
G37*
G36*
X255307Y332875D02*
X252530D01*
Y331284D01*
X254934D01*
Y330683D01*
X252530D01*
Y328354D01*
X251852D01*
Y333476D01*
X255307D01*
Y332875D01*
D02*
G37*
G36*
X243436Y331649D02*
X241427Y329298D01*
X241038Y328857D01*
X241076D01*
X241107Y328864D01*
X241191Y328872D01*
X241297Y328879D01*
X241419D01*
X241548Y328887D01*
X241830Y328895D01*
X243550D01*
Y328354D01*
X240270D01*
Y328857D01*
X242621Y331581D01*
X242553D01*
X242477Y331573D01*
X242385D01*
X242271Y331566D01*
X242149D01*
X242035Y331558D01*
X240407D01*
Y332068D01*
X243436D01*
Y331649D01*
D02*
G37*
G36*
X248785Y328156D02*
Y328149D01*
Y328126D01*
Y328088D01*
Y328042D01*
X248778Y327989D01*
Y327928D01*
X248763Y327784D01*
X248740Y327624D01*
X248709Y327464D01*
X248671Y327319D01*
X248641Y327251D01*
X248610Y327198D01*
X248603Y327182D01*
X248565Y327144D01*
X248512Y327083D01*
X248428Y327023D01*
X248321Y326962D01*
X248192Y326901D01*
X248032Y326863D01*
X247948Y326855D01*
X247849Y326848D01*
X247811D01*
X247758Y326855D01*
X247697D01*
X247621Y326863D01*
X247545Y326878D01*
X247362Y326916D01*
X247484Y327456D01*
X247492D01*
X247515Y327449D01*
X247553Y327441D01*
X247591Y327433D01*
X247690Y327411D01*
X247735Y327403D01*
X247804D01*
X247842Y327411D01*
X247880Y327418D01*
X247925Y327433D01*
X247971Y327456D01*
X248017Y327487D01*
X248055Y327532D01*
X248062Y327540D01*
X248070Y327563D01*
X248085Y327601D01*
X248108Y327662D01*
X248123Y327746D01*
X248139Y327860D01*
X248146Y327921D01*
Y327997D01*
X248154Y328080D01*
Y328172D01*
Y332068D01*
X248785D01*
Y328156D01*
D02*
G37*
G36*
X247113Y318984D02*
X247212Y318968D01*
X247326Y318953D01*
X247448Y318923D01*
X247569Y318877D01*
X247691Y318824D01*
X247706Y318816D01*
X247744Y318793D01*
X247798Y318755D01*
X247874Y318702D01*
X247950Y318633D01*
X248041Y318550D01*
X248125Y318458D01*
X248201Y318344D01*
X248209Y318329D01*
X248231Y318291D01*
X248270Y318222D01*
X248315Y318131D01*
X248368Y318025D01*
X248422Y317895D01*
X248475Y317743D01*
X248521Y317583D01*
Y317576D01*
X248528Y317560D01*
X248536Y317538D01*
X248543Y317499D01*
X248551Y317454D01*
X248559Y317401D01*
X248574Y317340D01*
X248582Y317264D01*
X248597Y317180D01*
X248604Y317089D01*
X248612Y316990D01*
X248627Y316883D01*
X248635Y316769D01*
Y316647D01*
X248642Y316510D01*
Y316373D01*
Y316366D01*
Y316335D01*
Y316289D01*
Y316221D01*
X248635Y316145D01*
Y316061D01*
X248627Y315962D01*
X248620Y315856D01*
X248597Y315627D01*
X248559Y315384D01*
X248513Y315140D01*
X248483Y315026D01*
X248452Y314920D01*
Y314912D01*
X248445Y314897D01*
X248429Y314866D01*
X248422Y314828D01*
X248399Y314783D01*
X248376Y314729D01*
X248315Y314608D01*
X248239Y314471D01*
X248140Y314326D01*
X248026Y314189D01*
X247897Y314067D01*
X247889D01*
X247881Y314052D01*
X247859Y314037D01*
X247828Y314022D01*
X247752Y313976D01*
X247645Y313923D01*
X247509Y313862D01*
X247349Y313816D01*
X247174Y313786D01*
X246968Y313771D01*
X246900D01*
X246846Y313778D01*
X246785Y313786D01*
X246709Y313801D01*
X246633Y313816D01*
X246550Y313839D01*
X246458Y313862D01*
X246359Y313900D01*
X246260Y313938D01*
X246169Y313991D01*
X246070Y314052D01*
X245979Y314121D01*
X245888Y314204D01*
X245804Y314296D01*
X245796Y314303D01*
X245781Y314326D01*
X245758Y314364D01*
X245728Y314418D01*
X245690Y314486D01*
X245644Y314577D01*
X245598Y314676D01*
X245553Y314798D01*
X245507Y314935D01*
X245461Y315087D01*
X245416Y315255D01*
X245378Y315445D01*
X245347Y315650D01*
X245324Y315871D01*
X245309Y316114D01*
X245302Y316373D01*
Y316381D01*
Y316411D01*
Y316457D01*
Y316525D01*
X245309Y316601D01*
Y316693D01*
X245317Y316792D01*
X245324Y316898D01*
X245347Y317127D01*
X245378Y317370D01*
X245423Y317614D01*
X245454Y317728D01*
X245484Y317834D01*
Y317842D01*
X245492Y317857D01*
X245507Y317888D01*
X245522Y317926D01*
X245537Y317971D01*
X245560Y318025D01*
X245629Y318146D01*
X245705Y318283D01*
X245796Y318428D01*
X245910Y318565D01*
X246040Y318687D01*
X246047D01*
X246055Y318702D01*
X246078Y318717D01*
X246108Y318732D01*
X246146Y318755D01*
X246184Y318786D01*
X246299Y318839D01*
X246428Y318892D01*
X246588Y318945D01*
X246770Y318976D01*
X246968Y318991D01*
X247037D01*
X247113Y318984D01*
D02*
G37*
G36*
X261191Y325483D02*
X261252Y325476D01*
X261328Y325468D01*
X261404Y325461D01*
X261495Y325438D01*
X261678Y325392D01*
X261876Y325316D01*
X261967Y325270D01*
X262058Y325217D01*
X262150Y325156D01*
X262233Y325080D01*
X262241Y325073D01*
X262249Y325065D01*
X262271Y325042D01*
X262302Y325004D01*
X262332Y324966D01*
X262370Y324920D01*
X262408Y324859D01*
X262454Y324799D01*
X262530Y324654D01*
X262599Y324479D01*
X262629Y324388D01*
X262652Y324281D01*
X262660Y324182D01*
X262667Y324068D01*
Y324053D01*
Y324015D01*
X262660Y323954D01*
X262652Y323878D01*
X262637Y323779D01*
X262614Y323680D01*
X262583Y323573D01*
X262538Y323459D01*
X262530Y323444D01*
X262515Y323406D01*
X262485Y323353D01*
X262439Y323277D01*
X262378Y323178D01*
X262310Y323071D01*
X262218Y322957D01*
X262119Y322835D01*
X262104Y322820D01*
X262066Y322774D01*
X262035Y322744D01*
X261990Y322698D01*
X261944Y322653D01*
X261891Y322599D01*
X261830Y322538D01*
X261754Y322470D01*
X261678Y322401D01*
X261586Y322318D01*
X261495Y322234D01*
X261389Y322143D01*
X261275Y322044D01*
X261153Y321937D01*
X261145Y321930D01*
X261130Y321914D01*
X261100Y321891D01*
X261061Y321861D01*
X260970Y321777D01*
X260848Y321678D01*
X260727Y321572D01*
X260612Y321465D01*
X260506Y321366D01*
X260468Y321328D01*
X260430Y321290D01*
X260422Y321283D01*
X260407Y321260D01*
X260377Y321230D01*
X260338Y321184D01*
X260293Y321138D01*
X260247Y321077D01*
X260163Y320955D01*
X262675D01*
Y320354D01*
X259288D01*
Y320362D01*
Y320392D01*
Y320438D01*
X259296Y320491D01*
X259303Y320560D01*
X259311Y320628D01*
X259334Y320712D01*
X259357Y320788D01*
Y320796D01*
X259364Y320803D01*
X259380Y320849D01*
X259410Y320918D01*
X259456Y321001D01*
X259517Y321108D01*
X259585Y321222D01*
X259669Y321344D01*
X259768Y321465D01*
Y321473D01*
X259783Y321481D01*
X259821Y321526D01*
X259890Y321595D01*
X259981Y321686D01*
X260095Y321800D01*
X260240Y321937D01*
X260407Y322082D01*
X260597Y322242D01*
X260605Y322249D01*
X260635Y322272D01*
X260673Y322310D01*
X260734Y322356D01*
X260803Y322409D01*
X260879Y322478D01*
X261046Y322637D01*
X261237Y322805D01*
X261419Y322987D01*
X261510Y323079D01*
X261586Y323162D01*
X261663Y323246D01*
X261723Y323322D01*
Y323330D01*
X261739Y323337D01*
X261754Y323360D01*
X261769Y323391D01*
X261815Y323467D01*
X261876Y323566D01*
X261929Y323688D01*
X261975Y323817D01*
X262005Y323946D01*
X262020Y324083D01*
Y324091D01*
Y324098D01*
X262013Y324144D01*
X262005Y324213D01*
X261990Y324304D01*
X261952Y324403D01*
X261906Y324509D01*
X261838Y324616D01*
X261746Y324715D01*
X261731Y324723D01*
X261701Y324753D01*
X261640Y324799D01*
X261564Y324844D01*
X261457Y324890D01*
X261343Y324936D01*
X261206Y324966D01*
X261054Y324974D01*
X261008D01*
X260978Y324966D01*
X260894Y324958D01*
X260795Y324936D01*
X260673Y324905D01*
X260552Y324852D01*
X260430Y324783D01*
X260323Y324692D01*
X260316Y324677D01*
X260285Y324639D01*
X260240Y324578D01*
X260194Y324494D01*
X260141Y324388D01*
X260103Y324258D01*
X260072Y324106D01*
X260057Y323939D01*
X259410Y324007D01*
Y324015D01*
Y324038D01*
X259418Y324076D01*
X259425Y324129D01*
X259440Y324190D01*
X259456Y324258D01*
X259494Y324418D01*
X259555Y324593D01*
X259646Y324776D01*
X259699Y324867D01*
X259760Y324951D01*
X259829Y325034D01*
X259905Y325111D01*
X259912Y325118D01*
X259928Y325126D01*
X259950Y325149D01*
X259981Y325171D01*
X260027Y325202D01*
X260080Y325232D01*
X260141Y325263D01*
X260217Y325301D01*
X260293Y325339D01*
X260377Y325369D01*
X260475Y325400D01*
X260582Y325430D01*
X260688Y325453D01*
X260810Y325476D01*
X260932Y325483D01*
X261069Y325491D01*
X261138D01*
X261191Y325483D01*
D02*
G37*
G36*
X250347Y313854D02*
X249632D01*
Y314570D01*
X250347D01*
Y313854D01*
D02*
G37*
G36*
X253018Y318984D02*
X253117Y318968D01*
X253239Y318945D01*
X253368Y318915D01*
X253498Y318869D01*
X253635Y318808D01*
X253642D01*
X253650Y318801D01*
X253695Y318778D01*
X253756Y318732D01*
X253840Y318679D01*
X253924Y318611D01*
X254015Y318519D01*
X254106Y318428D01*
X254183Y318314D01*
X254190Y318299D01*
X254213Y318261D01*
X254243Y318200D01*
X254281Y318116D01*
X254312Y318017D01*
X254342Y317910D01*
X254365Y317789D01*
X254373Y317659D01*
Y317644D01*
Y317606D01*
X254365Y317538D01*
X254350Y317461D01*
X254327Y317362D01*
X254297Y317264D01*
X254251Y317157D01*
X254190Y317051D01*
X254183Y317035D01*
X254160Y317005D01*
X254114Y316959D01*
X254061Y316898D01*
X253985Y316830D01*
X253893Y316761D01*
X253787Y316685D01*
X253665Y316624D01*
X253673D01*
X253688Y316617D01*
X253711Y316609D01*
X253741Y316601D01*
X253817Y316571D01*
X253924Y316533D01*
X254030Y316472D01*
X254152Y316396D01*
X254266Y316305D01*
X254365Y316191D01*
X254373Y316175D01*
X254403Y316130D01*
X254449Y316061D01*
X254495Y315962D01*
X254540Y315848D01*
X254586Y315704D01*
X254616Y315544D01*
X254624Y315369D01*
Y315361D01*
Y315338D01*
Y315308D01*
X254616Y315255D01*
X254609Y315201D01*
X254601Y315133D01*
X254586Y315057D01*
X254563Y314973D01*
X254502Y314798D01*
X254464Y314707D01*
X254418Y314608D01*
X254358Y314509D01*
X254289Y314418D01*
X254213Y314326D01*
X254129Y314235D01*
X254122Y314227D01*
X254106Y314212D01*
X254076Y314189D01*
X254046Y314166D01*
X253992Y314128D01*
X253939Y314090D01*
X253870Y314045D01*
X253794Y314006D01*
X253711Y313961D01*
X253612Y313915D01*
X253513Y313877D01*
X253406Y313847D01*
X253285Y313816D01*
X253163Y313793D01*
X253033Y313778D01*
X252896Y313771D01*
X252828D01*
X252782Y313778D01*
X252729Y313786D01*
X252660Y313793D01*
X252584Y313801D01*
X252501Y313824D01*
X252326Y313870D01*
X252135Y313938D01*
X252044Y313984D01*
X251945Y314037D01*
X251854Y314098D01*
X251770Y314166D01*
X251763Y314174D01*
X251755Y314182D01*
X251732Y314204D01*
X251702Y314242D01*
X251663Y314281D01*
X251625Y314326D01*
X251587Y314387D01*
X251542Y314448D01*
X251450Y314600D01*
X251374Y314783D01*
X251306Y314988D01*
X251283Y315095D01*
X251268Y315216D01*
X251899Y315300D01*
Y315293D01*
X251907Y315277D01*
X251915Y315247D01*
X251922Y315209D01*
X251930Y315171D01*
X251945Y315118D01*
X251983Y315003D01*
X252036Y314874D01*
X252097Y314745D01*
X252173Y314623D01*
X252265Y314524D01*
X252280Y314516D01*
X252310Y314486D01*
X252364Y314448D01*
X252440Y314410D01*
X252531Y314364D01*
X252638Y314326D01*
X252759Y314296D01*
X252896Y314288D01*
X252942D01*
X252973Y314296D01*
X253056Y314303D01*
X253163Y314326D01*
X253277Y314364D01*
X253406Y314418D01*
X253528Y314494D01*
X253650Y314593D01*
X253665Y314608D01*
X253695Y314646D01*
X253749Y314714D01*
X253802Y314798D01*
X253855Y314912D01*
X253908Y315041D01*
X253939Y315186D01*
X253954Y315346D01*
Y315353D01*
Y315369D01*
Y315391D01*
X253946Y315422D01*
X253939Y315498D01*
X253916Y315597D01*
X253886Y315711D01*
X253832Y315833D01*
X253764Y315947D01*
X253665Y316061D01*
X253650Y316076D01*
X253612Y316107D01*
X253551Y316153D01*
X253467Y316206D01*
X253368Y316251D01*
X253246Y316297D01*
X253102Y316328D01*
X252950Y316343D01*
X252881D01*
X252828Y316335D01*
X252767Y316328D01*
X252691Y316312D01*
X252607Y316297D01*
X252508Y316274D01*
X252577Y316830D01*
X252615D01*
X252645Y316822D01*
X252744D01*
X252820Y316830D01*
X252919Y316845D01*
X253033Y316876D01*
X253148Y316906D01*
X253277Y316959D01*
X253399Y317028D01*
X253406D01*
X253414Y317035D01*
X253452Y317066D01*
X253505Y317119D01*
X253566Y317188D01*
X253619Y317279D01*
X253673Y317393D01*
X253711Y317522D01*
X253726Y317598D01*
Y317674D01*
Y317682D01*
Y317690D01*
Y317735D01*
X253711Y317796D01*
X253695Y317872D01*
X253665Y317964D01*
X253627Y318063D01*
X253566Y318154D01*
X253490Y318245D01*
X253482Y318253D01*
X253444Y318283D01*
X253399Y318321D01*
X253323Y318359D01*
X253239Y318405D01*
X253132Y318436D01*
X253018Y318466D01*
X252881Y318474D01*
X252820D01*
X252752Y318458D01*
X252668Y318443D01*
X252569Y318413D01*
X252470Y318375D01*
X252371Y318314D01*
X252272Y318238D01*
X252265Y318230D01*
X252234Y318192D01*
X252189Y318139D01*
X252143Y318070D01*
X252090Y317971D01*
X252036Y317850D01*
X251991Y317713D01*
X251960Y317553D01*
X251329Y317667D01*
Y317674D01*
X251336Y317697D01*
X251344Y317728D01*
X251351Y317774D01*
X251367Y317819D01*
X251390Y317880D01*
X251435Y318025D01*
X251504Y318177D01*
X251595Y318344D01*
X251709Y318496D01*
X251846Y318641D01*
X251854Y318649D01*
X251869Y318656D01*
X251892Y318671D01*
X251922Y318694D01*
X251960Y318725D01*
X252006Y318755D01*
X252067Y318786D01*
X252128Y318816D01*
X252272Y318877D01*
X252447Y318938D01*
X252645Y318976D01*
X252752Y318991D01*
X252934D01*
X253018Y318984D01*
D02*
G37*
G36*
X243513Y313854D02*
X242920D01*
X241512Y317568D01*
X242174D01*
X242973Y315338D01*
Y315331D01*
X242981Y315323D01*
X242996Y315277D01*
X243019Y315201D01*
X243049Y315110D01*
X243087Y314996D01*
X243125Y314874D01*
X243171Y314737D01*
X243209Y314593D01*
X243216Y314608D01*
X243224Y314646D01*
X243247Y314707D01*
X243270Y314790D01*
X243300Y314897D01*
X243346Y315019D01*
X243391Y315156D01*
X243445Y315300D01*
X244267Y317568D01*
X244914D01*
X243513Y313854D01*
D02*
G37*
G36*
X733903Y326531D02*
X734131Y326493D01*
X734169Y326455D01*
X734208D01*
X734627Y326303D01*
X735046Y326074D01*
X735427Y325845D01*
X735769Y325617D01*
X736074Y325388D01*
X736303Y325236D01*
X736455Y325084D01*
X736493Y325046D01*
X736798Y324779D01*
X737064Y324474D01*
X737255Y324208D01*
X737293Y324131D01*
X737331Y324093D01*
X737560Y323789D01*
X737826Y323484D01*
X738093Y323217D01*
X738359Y322951D01*
X738626Y322760D01*
X738855Y322608D01*
X739007Y322494D01*
X739045Y322455D01*
X739464Y322189D01*
X739845Y321960D01*
X740111Y321770D01*
X740302Y321618D01*
X740454Y321503D01*
X740569Y321427D01*
X740645Y321351D01*
X740988Y321008D01*
X741368Y320741D01*
X741749Y320475D01*
X742130Y320284D01*
X742473Y320094D01*
X742740Y319980D01*
X742892Y319941D01*
X742968Y319903D01*
X743083D01*
X743235Y319865D01*
X743349Y319827D01*
X743425D01*
X743692Y319789D01*
X743921Y319713D01*
X744073Y319637D01*
X744111Y319599D01*
X744378Y319408D01*
X744568Y319256D01*
X744644Y319142D01*
X744682Y319104D01*
X744797Y318913D01*
X744873Y318723D01*
X744949Y318570D01*
Y318532D01*
X745025Y318380D01*
X745101Y318227D01*
X745139Y318189D01*
Y318151D01*
X745482Y317466D01*
X745597Y317161D01*
X745673Y316894D01*
X745749Y316666D01*
X745787Y316475D01*
X745825Y316361D01*
Y316323D01*
X745863Y316056D01*
Y315828D01*
X745901Y315637D01*
Y315523D01*
X745863Y315333D01*
Y315256D01*
X745749Y315028D01*
X745597Y314799D01*
X745482Y314609D01*
X745406Y314571D01*
Y314533D01*
X745025Y314266D01*
X744606Y313999D01*
X744187Y313809D01*
X743768Y313619D01*
X743387Y313504D01*
X743044Y313390D01*
X742854Y313352D01*
X742816Y313314D01*
X742778D01*
X742359Y313238D01*
X741978Y313200D01*
X741026D01*
X740073Y313771D01*
X739426Y314152D01*
X739159Y314342D01*
X738931Y314457D01*
X738702Y314571D01*
X738550Y314647D01*
X738474Y314723D01*
X738436D01*
X738055Y314914D01*
X737674Y315066D01*
X737331Y315180D01*
X737064Y315295D01*
X736798Y315333D01*
X736607Y315371D01*
X736493Y315409D01*
X736455D01*
X735884Y315485D01*
X735427D01*
X735274Y315447D01*
X735160D01*
X735084Y315409D01*
X735046D01*
X734627Y315295D01*
X734208Y315142D01*
X734017Y315066D01*
X733865Y314990D01*
X733750Y314952D01*
X733712D01*
X733103Y314609D01*
X732836Y314457D01*
X732646Y314342D01*
X732455Y314228D01*
X732341Y314152D01*
X732265Y314114D01*
X732227Y314076D01*
X731732Y313695D01*
X731275Y313314D01*
X731084Y313123D01*
X730932Y312971D01*
X730818Y312895D01*
X730780Y312857D01*
X730513Y312590D01*
X730284Y312400D01*
X730094Y312209D01*
X729980Y312095D01*
X729789Y311905D01*
X729713Y311866D01*
X729370Y311638D01*
X729065Y311447D01*
X728761Y311333D01*
X728532Y311219D01*
X728342Y311181D01*
X728189Y311143D01*
X728113Y311105D01*
X727580D01*
X727161Y311181D01*
X727009Y311257D01*
X726894Y311295D01*
X726818Y311333D01*
X726780D01*
X726475Y311524D01*
X726209Y311752D01*
X725980Y312019D01*
X725752Y312247D01*
X725599Y312476D01*
X725485Y312666D01*
X725447Y312781D01*
X725409Y312819D01*
X725218Y313314D01*
X725104Y313771D01*
X725066Y313961D01*
X725028Y314114D01*
Y314190D01*
Y314228D01*
Y314495D01*
X725066Y314723D01*
X725180Y315066D01*
X725256Y315256D01*
X725294Y315333D01*
X725409Y315523D01*
X725561Y315714D01*
X725675Y315866D01*
X725713Y315904D01*
X725866Y316094D01*
X726094Y316285D01*
X726285Y316475D01*
X726323Y316551D01*
X726361D01*
X726742Y316970D01*
X727123Y317351D01*
X727275Y317542D01*
X727351Y317694D01*
X727427Y317770D01*
X727466Y317808D01*
X727694Y318113D01*
X727923Y318456D01*
X728342Y319142D01*
X728494Y319408D01*
X728608Y319675D01*
X728685Y319827D01*
X728723Y319865D01*
X729065Y320513D01*
X729332Y321160D01*
X729561Y321694D01*
X729789Y322189D01*
X729942Y322570D01*
X730056Y322874D01*
X730094Y323027D01*
X730132Y323103D01*
X730322Y323598D01*
X730475Y323979D01*
X730589Y324322D01*
X730665Y324588D01*
X730741Y324779D01*
X730780Y324893D01*
X730818Y324969D01*
Y325008D01*
X730932Y325350D01*
X731084Y325579D01*
X731199Y325731D01*
X731237Y325769D01*
X731617Y326112D01*
X731998Y326341D01*
X732151Y326417D01*
X732227Y326455D01*
X732303Y326493D01*
X732341D01*
X732608Y326531D01*
X732874Y326569D01*
X733560D01*
X733903Y326531D01*
D02*
G37*
G36*
X248785Y332745D02*
X248154D01*
Y333476D01*
X248785D01*
Y332745D01*
D02*
G37*
G36*
X722171Y334492D02*
X722285Y334454D01*
X722324Y334416D01*
X722743Y334225D01*
X723085Y333997D01*
X723352Y333844D01*
X723581Y333692D01*
X723733Y333578D01*
X723847Y333463D01*
X723885Y333425D01*
X723923Y333387D01*
X724190Y333121D01*
X724418Y332892D01*
X724571Y332663D01*
X724609Y332626D01*
Y332587D01*
X724799Y332283D01*
X724952Y332016D01*
X725028Y331826D01*
X725066Y331749D01*
X725180Y331407D01*
X725256Y331064D01*
X725294Y330911D01*
X725333Y330797D01*
Y330721D01*
Y330683D01*
X725409Y330226D01*
X725447Y329921D01*
Y329769D01*
Y329693D01*
Y329540D01*
X725485Y329388D01*
Y329007D01*
Y328817D01*
Y328664D01*
Y328550D01*
Y328512D01*
Y328245D01*
X725523Y328017D01*
Y327826D01*
Y327712D01*
Y327598D01*
Y327559D01*
Y327521D01*
Y327255D01*
X725485Y326988D01*
X725447Y326798D01*
X725409Y326760D01*
Y326722D01*
X725333Y326417D01*
X725294Y326188D01*
X725256Y326036D01*
X725218Y325998D01*
X725142Y325769D01*
X725066Y325541D01*
X724990Y325350D01*
X724952Y325312D01*
Y325274D01*
X724837Y325008D01*
X724761Y324817D01*
X724723Y324741D01*
Y324703D01*
X724571Y324322D01*
X724418Y324017D01*
X724228Y323827D01*
X724038Y323636D01*
X723847Y323522D01*
X723695Y323446D01*
X723619Y323408D01*
X723581D01*
X723276Y323370D01*
X722971Y323446D01*
X722704Y323560D01*
X722476Y323674D01*
X722285Y323827D01*
X722133Y323979D01*
X722057Y324055D01*
X722019Y324093D01*
X721447Y324931D01*
X720990Y325845D01*
X720647Y326722D01*
X720381Y327598D01*
X720228Y328359D01*
X720152Y328702D01*
X720114Y328969D01*
X720076Y329235D01*
X720038Y329388D01*
Y329502D01*
Y329540D01*
X719962Y330416D01*
X720038Y330949D01*
X720152Y331749D01*
X720305Y332435D01*
X720495Y333006D01*
X720724Y333463D01*
X720914Y333806D01*
X721067Y334035D01*
X721181Y334187D01*
X721219Y334225D01*
X721486Y334416D01*
X721676Y334492D01*
X721828Y334530D01*
X722057D01*
X722171Y334492D01*
D02*
G37*
G36*
X728951Y342910D02*
X729180Y342834D01*
X729637Y342605D01*
X729789Y342453D01*
X729942Y342338D01*
X730018Y342262D01*
X730056Y342224D01*
X730170Y342072D01*
X730284Y341919D01*
X730551Y341539D01*
X730665Y341348D01*
X730780Y341234D01*
X730818Y341120D01*
X730856Y341081D01*
X731237Y340548D01*
X731465Y340129D01*
X731541Y339977D01*
X731617Y339863D01*
X731656Y339825D01*
Y339786D01*
X731884Y339215D01*
X732074Y338606D01*
X732227Y338034D01*
X732341Y337501D01*
X732379Y337044D01*
X732417Y336663D01*
X732455Y336511D01*
Y336396D01*
Y336358D01*
Y336320D01*
Y335596D01*
X732417Y334949D01*
X732379Y334339D01*
X732265Y333806D01*
X732189Y333387D01*
X732074Y333045D01*
X732036Y332854D01*
X731998Y332778D01*
X731884Y332435D01*
X731732Y332130D01*
X731465Y331673D01*
X731199Y331292D01*
X730932Y331064D01*
X730703Y330911D01*
X730513Y330797D01*
X730399Y330759D01*
X730361D01*
X729903Y330721D01*
X729523Y330683D01*
X729142D01*
X728723Y330759D01*
X728380Y330911D01*
X728227Y330988D01*
X728113Y331064D01*
X728075Y331140D01*
X728037D01*
X727694Y331521D01*
X727427Y331978D01*
X727351Y332130D01*
X727275Y332283D01*
X727237Y332397D01*
Y332435D01*
X726970Y333425D01*
X726742Y334378D01*
X726590Y335216D01*
X726513Y335977D01*
X726475Y336587D01*
X726437Y336854D01*
Y337044D01*
Y337234D01*
Y337349D01*
Y337425D01*
Y337463D01*
Y337882D01*
X726475Y338263D01*
Y338644D01*
X726513Y338948D01*
X726551Y339444D01*
X726590Y339825D01*
X726628Y340091D01*
X726666Y340282D01*
X726704Y340358D01*
Y340396D01*
X726856Y340853D01*
X726970Y341234D01*
X727161Y341577D01*
X727313Y341843D01*
X727466Y342110D01*
X727618Y342300D01*
X727961Y342605D01*
X728227Y342795D01*
X728456Y342910D01*
X728646Y342948D01*
X728685D01*
X728951Y342910D01*
D02*
G37*
G36*
X743844Y333616D02*
X744111Y333502D01*
X744340Y333349D01*
X744568Y333159D01*
X744759Y333006D01*
X744873Y332854D01*
X744949Y332740D01*
X744987Y332702D01*
X745139Y332511D01*
X745216Y332397D01*
X745292Y332321D01*
X745406Y332168D01*
X745558Y332016D01*
X745787Y331635D01*
X745901Y331445D01*
X745977Y331292D01*
X746054Y331178D01*
Y331140D01*
X746282Y330645D01*
X746434Y330150D01*
X746587Y329693D01*
X746663Y329235D01*
X746739Y328855D01*
Y328550D01*
X746777Y328359D01*
Y328283D01*
Y327712D01*
X746739Y327179D01*
X746663Y326722D01*
X746587Y326303D01*
X746511Y325960D01*
X746434Y325693D01*
X746396Y325541D01*
X746358Y325465D01*
X746168Y325046D01*
X745977Y324741D01*
X745825Y324512D01*
X745787Y324474D01*
X745749Y324436D01*
X745482Y324169D01*
X745216Y324017D01*
X745063Y323979D01*
X744987Y323941D01*
X744073D01*
X743730Y324017D01*
X743502Y324093D01*
X743349Y324131D01*
X743311Y324169D01*
X743006Y324398D01*
X742740Y324703D01*
X742511Y325008D01*
X742359Y325312D01*
X742206Y325617D01*
X742130Y325845D01*
X742092Y325998D01*
X742054Y326074D01*
X741940Y326493D01*
X741864Y326950D01*
X741826Y327369D01*
X741787Y327788D01*
X741749Y328169D01*
Y328436D01*
Y328626D01*
Y328702D01*
X741787Y329388D01*
X741864Y330035D01*
X741978Y330645D01*
X742054Y331178D01*
X742168Y331635D01*
X742283Y331940D01*
X742321Y332168D01*
X742359Y332245D01*
X742473Y332587D01*
X742587Y332854D01*
X742702Y333045D01*
X742816Y333235D01*
X742892Y333349D01*
X742968Y333425D01*
X743044Y333502D01*
X743197Y333578D01*
X743349Y333654D01*
X743540D01*
X743844Y333616D01*
D02*
G37*
G36*
X237233Y328354D02*
X236648D01*
Y328818D01*
X236640Y328811D01*
X236632Y328796D01*
X236609Y328765D01*
X236579Y328735D01*
X236541Y328689D01*
X236495Y328643D01*
X236442Y328598D01*
X236381Y328545D01*
X236313Y328491D01*
X236237Y328446D01*
X236153Y328400D01*
X236054Y328354D01*
X235955Y328324D01*
X235848Y328293D01*
X235727Y328278D01*
X235605Y328271D01*
X235559D01*
X235529Y328278D01*
X235445Y328286D01*
X235339Y328301D01*
X235209Y328331D01*
X235072Y328377D01*
X234935Y328430D01*
X234791Y328514D01*
X234783D01*
X234775Y328529D01*
X234730Y328560D01*
X234661Y328613D01*
X234578Y328689D01*
X234486Y328788D01*
X234387Y328902D01*
X234296Y329039D01*
X234212Y329191D01*
Y329199D01*
X234205Y329214D01*
X234197Y329237D01*
X234182Y329268D01*
X234167Y329313D01*
X234151Y329359D01*
X234113Y329481D01*
X234075Y329633D01*
X234045Y329808D01*
X234022Y329998D01*
X234014Y330204D01*
Y330211D01*
Y330226D01*
Y330257D01*
Y330295D01*
X234022Y330348D01*
Y330401D01*
X234037Y330538D01*
X234060Y330691D01*
X234090Y330866D01*
X234136Y331033D01*
X234197Y331208D01*
Y331216D01*
X234205Y331231D01*
X234220Y331254D01*
X234235Y331284D01*
X234273Y331368D01*
X234334Y331467D01*
X234410Y331581D01*
X234509Y331695D01*
X234616Y331809D01*
X234745Y331908D01*
X234753D01*
X234760Y331916D01*
X234783Y331931D01*
X234813Y331946D01*
X234890Y331984D01*
X234988Y332030D01*
X235110Y332076D01*
X235255Y332114D01*
X235407Y332144D01*
X235575Y332152D01*
X235628D01*
X235696Y332144D01*
X235772Y332137D01*
X235864Y332114D01*
X235970Y332091D01*
X236069Y332053D01*
X236168Y332007D01*
X236183Y331999D01*
X236214Y331984D01*
X236259Y331954D01*
X236320Y331908D01*
X236389Y331855D01*
X236465Y331794D01*
X236533Y331726D01*
X236602Y331642D01*
Y333476D01*
X237233D01*
Y328354D01*
D02*
G37*
G36*
X267422Y332144D02*
X267521Y332137D01*
X267643Y332121D01*
X267772Y332098D01*
X267902Y332068D01*
X268031Y332022D01*
X268039D01*
X268046Y332015D01*
X268084Y331999D01*
X268145Y331969D01*
X268214Y331931D01*
X268298Y331885D01*
X268374Y331824D01*
X268450Y331756D01*
X268518Y331680D01*
X268526Y331672D01*
X268541Y331642D01*
X268571Y331596D01*
X268609Y331528D01*
X268640Y331444D01*
X268678Y331353D01*
X268708Y331239D01*
X268739Y331109D01*
X268122Y331025D01*
Y331041D01*
X268115Y331071D01*
X268100Y331124D01*
X268077Y331185D01*
X268039Y331254D01*
X268001Y331330D01*
X267940Y331406D01*
X267871Y331467D01*
X267864Y331474D01*
X267833Y331490D01*
X267788Y331520D01*
X267727Y331551D01*
X267651Y331581D01*
X267552Y331611D01*
X267438Y331627D01*
X267308Y331634D01*
X267240D01*
X267164Y331627D01*
X267072Y331619D01*
X266966Y331596D01*
X266867Y331573D01*
X266768Y331535D01*
X266692Y331490D01*
X266684Y331482D01*
X266661Y331467D01*
X266631Y331436D01*
X266600Y331391D01*
X266570Y331345D01*
X266540Y331284D01*
X266517Y331223D01*
X266509Y331155D01*
Y331147D01*
Y331132D01*
X266517Y331109D01*
Y331079D01*
X266540Y331010D01*
X266585Y330934D01*
X266593Y330926D01*
X266600Y330919D01*
X266646Y330873D01*
X266676Y330850D01*
X266715Y330820D01*
X266768Y330789D01*
X266821Y330767D01*
X266829D01*
X266844Y330759D01*
X266874Y330751D01*
X266928Y330729D01*
X267004Y330706D01*
X267095Y330683D01*
X267156Y330660D01*
X267225Y330645D01*
X267293Y330622D01*
X267377Y330599D01*
X267384D01*
X267407Y330592D01*
X267438Y330584D01*
X267483Y330569D01*
X267536Y330554D01*
X267605Y330538D01*
X267742Y330500D01*
X267894Y330455D01*
X268054Y330401D01*
X268191Y330356D01*
X268252Y330333D01*
X268305Y330310D01*
X268320Y330303D01*
X268351Y330287D01*
X268396Y330264D01*
X268457Y330226D01*
X268526Y330181D01*
X268594Y330120D01*
X268663Y330051D01*
X268724Y329975D01*
X268731Y329968D01*
X268746Y329937D01*
X268769Y329891D01*
X268800Y329831D01*
X268830Y329755D01*
X268853Y329663D01*
X268868Y329557D01*
X268876Y329443D01*
Y329427D01*
Y329389D01*
X268868Y329328D01*
X268853Y329252D01*
X268830Y329161D01*
X268792Y329062D01*
X268746Y328956D01*
X268686Y328849D01*
X268678Y328834D01*
X268655Y328803D01*
X268609Y328750D01*
X268549Y328689D01*
X268473Y328621D01*
X268381Y328545D01*
X268275Y328476D01*
X268153Y328415D01*
X268138Y328408D01*
X268092Y328392D01*
X268023Y328369D01*
X267925Y328347D01*
X267810Y328316D01*
X267681Y328293D01*
X267536Y328278D01*
X267377Y328271D01*
X267308D01*
X267255Y328278D01*
X267194D01*
X267126Y328286D01*
X266966Y328309D01*
X266791Y328347D01*
X266608Y328392D01*
X266433Y328468D01*
X266349Y328514D01*
X266273Y328567D01*
X266266D01*
X266258Y328583D01*
X266212Y328628D01*
X266151Y328697D01*
X266068Y328796D01*
X265992Y328918D01*
X265908Y329077D01*
X265839Y329260D01*
X265794Y329465D01*
X266418Y329564D01*
Y329557D01*
Y329549D01*
X266425Y329503D01*
X266448Y329435D01*
X266471Y329351D01*
X266509Y329260D01*
X266555Y329161D01*
X266623Y329070D01*
X266699Y328986D01*
X266715Y328978D01*
X266745Y328956D01*
X266798Y328925D01*
X266874Y328887D01*
X266973Y328849D01*
X267088Y328818D01*
X267225Y328796D01*
X267377Y328788D01*
X267445D01*
X267521Y328796D01*
X267620Y328811D01*
X267719Y328834D01*
X267826Y328864D01*
X267925Y328902D01*
X268016Y328963D01*
X268023Y328971D01*
X268046Y328994D01*
X268084Y329032D01*
X268122Y329077D01*
X268161Y329138D01*
X268198Y329214D01*
X268221Y329290D01*
X268229Y329374D01*
Y329382D01*
Y329412D01*
X268221Y329450D01*
X268206Y329496D01*
X268183Y329549D01*
X268145Y329602D01*
X268100Y329663D01*
X268039Y329709D01*
X268031Y329716D01*
X268008Y329724D01*
X267970Y329739D01*
X267909Y329770D01*
X267826Y329800D01*
X267711Y329831D01*
X267651Y329854D01*
X267575Y329876D01*
X267491Y329899D01*
X267400Y329922D01*
X267392D01*
X267369Y329930D01*
X267331Y329937D01*
X267285Y329952D01*
X267232Y329968D01*
X267164Y329983D01*
X267019Y330029D01*
X266859Y330074D01*
X266699Y330127D01*
X266555Y330173D01*
X266494Y330204D01*
X266441Y330226D01*
X266425Y330234D01*
X266395Y330249D01*
X266349Y330280D01*
X266288Y330318D01*
X266228Y330371D01*
X266159Y330432D01*
X266091Y330500D01*
X266037Y330576D01*
X266030Y330584D01*
X266015Y330614D01*
X265992Y330660D01*
X265969Y330729D01*
X265946Y330797D01*
X265923Y330889D01*
X265908Y330980D01*
X265900Y331079D01*
Y331094D01*
Y331124D01*
X265908Y331170D01*
X265915Y331231D01*
X265923Y331299D01*
X265946Y331376D01*
X265969Y331459D01*
X266007Y331535D01*
X266015Y331543D01*
X266030Y331573D01*
X266053Y331611D01*
X266091Y331657D01*
X266136Y331718D01*
X266190Y331779D01*
X266250Y331840D01*
X266319Y331893D01*
X266326Y331901D01*
X266349Y331908D01*
X266380Y331931D01*
X266425Y331954D01*
X266479Y331984D01*
X266547Y332015D01*
X266623Y332045D01*
X266715Y332076D01*
X266730D01*
X266760Y332091D01*
X266813Y332098D01*
X266882Y332114D01*
X266966Y332129D01*
X267057Y332137D01*
X267156Y332152D01*
X267339D01*
X267422Y332144D01*
D02*
G37*
G36*
X264097Y328293D02*
Y328286D01*
X264089Y328271D01*
X264074Y328233D01*
X264059Y328194D01*
X264043Y328149D01*
X264021Y328088D01*
X263967Y327959D01*
X263914Y327822D01*
X263853Y327677D01*
X263800Y327555D01*
X263770Y327494D01*
X263747Y327449D01*
X263739Y327433D01*
X263716Y327396D01*
X263686Y327342D01*
X263632Y327281D01*
X263579Y327205D01*
X263511Y327129D01*
X263442Y327061D01*
X263359Y327000D01*
X263351Y326992D01*
X263320Y326977D01*
X263275Y326954D01*
X263214Y326924D01*
X263138Y326893D01*
X263047Y326870D01*
X262948Y326855D01*
X262841Y326848D01*
X262811D01*
X262773Y326855D01*
X262719D01*
X262666Y326863D01*
X262598Y326878D01*
X262438Y326924D01*
X262369Y327510D01*
X262377D01*
X262407Y327502D01*
X262445Y327494D01*
X262491Y327479D01*
X262605Y327456D01*
X262727Y327449D01*
X262765D01*
X262795Y327456D01*
X262849D01*
X262955Y327479D01*
X263008Y327502D01*
X263054Y327525D01*
X263062D01*
X263077Y327540D01*
X263100Y327555D01*
X263130Y327578D01*
X263199Y327631D01*
X263267Y327715D01*
Y327723D01*
X263282Y327738D01*
X263290Y327768D01*
X263313Y327814D01*
X263343Y327875D01*
X263374Y327959D01*
X263412Y328058D01*
X263457Y328187D01*
Y328194D01*
X263473Y328225D01*
X263488Y328271D01*
X263518Y328339D01*
X262111Y332068D01*
X262780D01*
X263556Y329930D01*
Y329922D01*
X263564Y329914D01*
X263572Y329891D01*
X263579Y329861D01*
X263610Y329777D01*
X263648Y329671D01*
X263686Y329541D01*
X263732Y329397D01*
X263777Y329245D01*
X263823Y329077D01*
Y329085D01*
X263830Y329093D01*
Y329115D01*
X263846Y329146D01*
X263868Y329229D01*
X263899Y329336D01*
X263929Y329458D01*
X263975Y329595D01*
X264028Y329747D01*
X264082Y329899D01*
X264881Y332068D01*
X265505D01*
X264097Y328293D01*
D02*
G37*
G36*
X239699Y332144D02*
X239783Y332129D01*
X239882Y332098D01*
X239988Y332068D01*
X240110Y332015D01*
X240232Y331946D01*
X240003Y331368D01*
X239996Y331376D01*
X239966Y331391D01*
X239920Y331414D01*
X239859Y331436D01*
X239790Y331459D01*
X239714Y331482D01*
X239631Y331497D01*
X239547Y331505D01*
X239509D01*
X239471Y331497D01*
X239425Y331490D01*
X239364Y331474D01*
X239303Y331452D01*
X239235Y331421D01*
X239174Y331376D01*
X239166Y331368D01*
X239151Y331353D01*
X239121Y331322D01*
X239083Y331284D01*
X239045Y331239D01*
X239014Y331178D01*
X238976Y331109D01*
X238946Y331033D01*
X238938Y331018D01*
X238931Y330972D01*
X238915Y330904D01*
X238900Y330812D01*
X238877Y330706D01*
X238862Y330584D01*
X238854Y330439D01*
X238847Y330295D01*
Y328354D01*
X238215D01*
Y332068D01*
X238786D01*
Y331512D01*
X238793Y331520D01*
X238824Y331566D01*
X238862Y331634D01*
X238915Y331718D01*
X238976Y331802D01*
X239045Y331893D01*
X239113Y331969D01*
X239182Y332022D01*
X239189Y332030D01*
X239212Y332045D01*
X239250Y332060D01*
X239303Y332091D01*
X239364Y332114D01*
X239433Y332129D01*
X239501Y332144D01*
X239585Y332152D01*
X239638D01*
X239699Y332144D01*
D02*
G37*
G36*
X232127D02*
X232211Y332137D01*
X232302Y332121D01*
X232409Y332098D01*
X232515Y332068D01*
X232622Y332030D01*
X232637Y332022D01*
X232667Y332007D01*
X232721Y331984D01*
X232782Y331946D01*
X232850Y331901D01*
X232919Y331847D01*
X232987Y331779D01*
X233040Y331710D01*
X233048Y331703D01*
X233063Y331672D01*
X233086Y331634D01*
X233116Y331581D01*
X233155Y331512D01*
X233185Y331429D01*
X233215Y331345D01*
X233238Y331246D01*
Y331239D01*
X233246Y331216D01*
X233253Y331170D01*
X233261Y331101D01*
Y331018D01*
X233269Y330919D01*
X233276Y330789D01*
Y330637D01*
Y328354D01*
X232645D01*
Y330607D01*
Y330614D01*
Y330622D01*
Y330668D01*
Y330736D01*
X232637Y330828D01*
X232629Y330919D01*
X232614Y331018D01*
X232591Y331109D01*
X232569Y331185D01*
Y331193D01*
X232553Y331216D01*
X232538Y331254D01*
X232508Y331292D01*
X232470Y331345D01*
X232424Y331391D01*
X232371Y331444D01*
X232302Y331490D01*
X232295Y331497D01*
X232272Y331505D01*
X232234Y331528D01*
X232180Y331551D01*
X232119Y331566D01*
X232043Y331589D01*
X231960Y331596D01*
X231868Y331604D01*
X231800D01*
X231731Y331589D01*
X231632Y331573D01*
X231526Y331543D01*
X231412Y331497D01*
X231298Y331429D01*
X231184Y331345D01*
X231168Y331330D01*
X231138Y331292D01*
X231115Y331261D01*
X231092Y331223D01*
X231069Y331178D01*
X231039Y331124D01*
X231009Y331064D01*
X230986Y330995D01*
X230963Y330919D01*
X230940Y330828D01*
X230925Y330729D01*
X230909Y330622D01*
X230894Y330508D01*
Y330379D01*
Y328354D01*
X230263D01*
Y332068D01*
X230833D01*
Y331535D01*
X230841Y331543D01*
X230856Y331566D01*
X230879Y331596D01*
X230909Y331634D01*
X230948Y331680D01*
X231001Y331733D01*
X231062Y331786D01*
X231130Y331847D01*
X231206Y331901D01*
X231298Y331954D01*
X231397Y332007D01*
X231495Y332053D01*
X231610Y332098D01*
X231731Y332129D01*
X231868Y332144D01*
X232005Y332152D01*
X232059D01*
X232127Y332144D01*
D02*
G37*
G36*
X261563D02*
X261646Y332129D01*
X261745Y332098D01*
X261852Y332068D01*
X261974Y332015D01*
X262095Y331946D01*
X261867Y331368D01*
X261859Y331376D01*
X261829Y331391D01*
X261783Y331414D01*
X261722Y331436D01*
X261654Y331459D01*
X261578Y331482D01*
X261494Y331497D01*
X261410Y331505D01*
X261372D01*
X261334Y331497D01*
X261289Y331490D01*
X261228Y331474D01*
X261167Y331452D01*
X261098Y331421D01*
X261037Y331376D01*
X261030Y331368D01*
X261015Y331353D01*
X260984Y331322D01*
X260946Y331284D01*
X260908Y331239D01*
X260878Y331178D01*
X260840Y331109D01*
X260809Y331033D01*
X260802Y331018D01*
X260794Y330972D01*
X260779Y330904D01*
X260764Y330812D01*
X260741Y330706D01*
X260725Y330584D01*
X260718Y330439D01*
X260710Y330295D01*
Y328354D01*
X260079D01*
Y332068D01*
X260649D01*
Y331512D01*
X260657Y331520D01*
X260687Y331566D01*
X260725Y331634D01*
X260779Y331718D01*
X260840Y331802D01*
X260908Y331893D01*
X260977Y331969D01*
X261045Y332022D01*
X261053Y332030D01*
X261076Y332045D01*
X261114Y332060D01*
X261167Y332091D01*
X261228Y332114D01*
X261296Y332129D01*
X261365Y332144D01*
X261449Y332152D01*
X261502D01*
X261563Y332144D01*
D02*
G37*
G36*
X697308Y350394D02*
X696654D01*
X695581Y354290D01*
Y354298D01*
X695573Y354313D01*
X695566Y354336D01*
X695558Y354366D01*
X695535Y354450D01*
X695512Y354549D01*
X695482Y354655D01*
X695452Y354754D01*
X695429Y354838D01*
X695421Y354868D01*
X695413Y354891D01*
X695406Y354876D01*
X695398Y354830D01*
X695383Y354769D01*
X695360Y354686D01*
X695337Y354594D01*
X695307Y354488D01*
X695284Y354389D01*
X695254Y354290D01*
X694181Y350394D01*
X693473D01*
X692126Y355515D01*
X692826D01*
X693595Y352152D01*
Y352144D01*
X693602Y352129D01*
X693610Y352098D01*
X693618Y352060D01*
X693625Y352015D01*
X693640Y351961D01*
X693656Y351893D01*
X693671Y351824D01*
X693709Y351665D01*
X693739Y351489D01*
X693777Y351299D01*
X693815Y351109D01*
Y351117D01*
X693823Y351147D01*
X693831Y351185D01*
X693846Y351238D01*
X693861Y351299D01*
X693884Y351375D01*
X693922Y351535D01*
X693960Y351695D01*
X693998Y351847D01*
X694013Y351916D01*
X694029Y351977D01*
X694044Y352022D01*
X694051Y352053D01*
X695025Y355515D01*
X695840D01*
X696570Y352920D01*
Y352913D01*
X696586Y352875D01*
X696593Y352829D01*
X696616Y352753D01*
X696639Y352669D01*
X696662Y352570D01*
X696692Y352456D01*
X696723Y352334D01*
X696753Y352197D01*
X696791Y352053D01*
X696859Y351748D01*
X696920Y351429D01*
X696974Y351109D01*
Y351117D01*
X696981Y351132D01*
Y351155D01*
X696989Y351193D01*
X697004Y351238D01*
X697012Y351292D01*
X697027Y351360D01*
X697042Y351429D01*
X697080Y351589D01*
X697126Y351779D01*
X697179Y351992D01*
X697232Y352220D01*
X698031Y355515D01*
X698716D01*
X697308Y350394D01*
D02*
G37*
G36*
X735587Y354184D02*
X735693Y354176D01*
X735823Y354161D01*
X735952Y354145D01*
X736074Y354115D01*
X736196Y354077D01*
X736211Y354069D01*
X736241Y354054D01*
X736294Y354031D01*
X736363Y354001D01*
X736431Y353955D01*
X736508Y353909D01*
X736568Y353856D01*
X736629Y353795D01*
X736637Y353788D01*
X736652Y353765D01*
X736675Y353727D01*
X736705Y353681D01*
X736743Y353620D01*
X736774Y353544D01*
X736804Y353461D01*
X736827Y353369D01*
Y353362D01*
X736835Y353339D01*
X736842Y353293D01*
X736850Y353240D01*
Y353156D01*
X736858Y353057D01*
X736865Y352935D01*
Y352791D01*
Y351946D01*
Y351939D01*
Y351908D01*
Y351862D01*
Y351809D01*
Y351733D01*
Y351657D01*
X736873Y351482D01*
Y351292D01*
X736880Y351109D01*
X736888Y351025D01*
Y350949D01*
X736896Y350888D01*
X736903Y350835D01*
Y350828D01*
X736911Y350797D01*
X736918Y350751D01*
X736934Y350698D01*
X736957Y350630D01*
X736987Y350553D01*
X737055Y350394D01*
X736401D01*
X736393Y350401D01*
X736386Y350432D01*
X736371Y350470D01*
X736348Y350523D01*
X736325Y350592D01*
X736310Y350675D01*
X736294Y350759D01*
X736279Y350858D01*
X736264Y350843D01*
X736218Y350812D01*
X736150Y350759D01*
X736066Y350691D01*
X735960Y350622D01*
X735846Y350553D01*
X735724Y350485D01*
X735602Y350432D01*
X735587Y350424D01*
X735549Y350416D01*
X735480Y350394D01*
X735396Y350371D01*
X735290Y350348D01*
X735176Y350333D01*
X735046Y350318D01*
X734909Y350310D01*
X734848D01*
X734810Y350318D01*
X734757D01*
X734696Y350325D01*
X734559Y350348D01*
X734407Y350386D01*
X734255Y350432D01*
X734103Y350508D01*
X733966Y350607D01*
X733951Y350622D01*
X733913Y350660D01*
X733859Y350729D01*
X733806Y350812D01*
X733745Y350926D01*
X733692Y351056D01*
X733654Y351200D01*
X733646Y351284D01*
X733639Y351368D01*
Y351383D01*
Y351413D01*
X733646Y351467D01*
X733654Y351535D01*
X733669Y351611D01*
X733692Y351695D01*
X733722Y351786D01*
X733760Y351870D01*
X733768Y351878D01*
X733783Y351908D01*
X733806Y351946D01*
X733844Y351999D01*
X733890Y352060D01*
X733951Y352121D01*
X734011Y352174D01*
X734080Y352228D01*
X734088Y352235D01*
X734118Y352251D01*
X734156Y352273D01*
X734217Y352304D01*
X734285Y352342D01*
X734362Y352372D01*
X734445Y352410D01*
X734537Y352441D01*
X734544D01*
X734575Y352448D01*
X734620Y352456D01*
X734681Y352471D01*
X734757Y352486D01*
X734856Y352502D01*
X734970Y352517D01*
X735100Y352532D01*
X735107D01*
X735130Y352540D01*
X735176D01*
X735229Y352547D01*
X735290Y352555D01*
X735358Y352570D01*
X735442Y352578D01*
X735526Y352593D01*
X735716Y352623D01*
X735899Y352661D01*
X736074Y352707D01*
X736158Y352730D01*
X736226Y352753D01*
Y352760D01*
Y352776D01*
X736234Y352821D01*
Y352875D01*
Y352897D01*
Y352913D01*
Y352920D01*
Y352928D01*
Y352974D01*
X736226Y353042D01*
X736211Y353126D01*
X736188Y353217D01*
X736158Y353308D01*
X736112Y353384D01*
X736051Y353453D01*
X736043Y353461D01*
X736005Y353491D01*
X735952Y353521D01*
X735868Y353567D01*
X735769Y353605D01*
X735640Y353643D01*
X735495Y353666D01*
X735328Y353674D01*
X735259D01*
X735176Y353666D01*
X735084Y353651D01*
X734978Y353636D01*
X734864Y353605D01*
X734765Y353567D01*
X734674Y353514D01*
X734666Y353506D01*
X734635Y353483D01*
X734597Y353445D01*
X734552Y353392D01*
X734506Y353316D01*
X734453Y353217D01*
X734407Y353103D01*
X734362Y352966D01*
X733745Y353050D01*
Y353057D01*
X733753Y353065D01*
X733760Y353118D01*
X733783Y353187D01*
X733814Y353278D01*
X733852Y353377D01*
X733897Y353483D01*
X733951Y353582D01*
X734019Y353681D01*
X734027Y353689D01*
X734057Y353719D01*
X734095Y353765D01*
X734164Y353818D01*
X734240Y353879D01*
X734331Y353940D01*
X734445Y354001D01*
X734575Y354054D01*
X734582D01*
X734590Y354062D01*
X734613Y354069D01*
X734643Y354077D01*
X734719Y354100D01*
X734818Y354123D01*
X734940Y354145D01*
X735084Y354168D01*
X735244Y354184D01*
X735419Y354191D01*
X735495D01*
X735587Y354184D01*
D02*
G37*
G36*
X713312Y350394D02*
X712620D01*
X709926Y354412D01*
Y350394D01*
X709279D01*
Y355515D01*
X709964D01*
X712665Y351489D01*
Y355515D01*
X713312D01*
Y350394D01*
D02*
G37*
G36*
X747770Y354184D02*
X747816D01*
X747869Y354176D01*
X747991Y354153D01*
X748128Y354115D01*
X748273Y354062D01*
X748410Y353986D01*
X748531Y353879D01*
X748547Y353864D01*
X748577Y353818D01*
X748623Y353750D01*
X748684Y353651D01*
X748737Y353514D01*
X748760Y353438D01*
X748782Y353354D01*
X748798Y353263D01*
X748813Y353156D01*
X748828Y353050D01*
Y352935D01*
Y350394D01*
X748197D01*
Y352730D01*
Y352738D01*
Y352745D01*
Y352791D01*
Y352859D01*
X748189Y352935D01*
X748181Y353027D01*
X748174Y353118D01*
X748158Y353202D01*
X748136Y353270D01*
Y353278D01*
X748120Y353301D01*
X748105Y353331D01*
X748082Y353369D01*
X748052Y353407D01*
X748014Y353453D01*
X747968Y353499D01*
X747915Y353537D01*
X747907Y353544D01*
X747885Y353552D01*
X747854Y353567D01*
X747808Y353590D01*
X747755Y353613D01*
X747687Y353628D01*
X747618Y353636D01*
X747534Y353643D01*
X747519D01*
X747473Y353636D01*
X747397Y353628D01*
X747306Y353613D01*
X747207Y353575D01*
X747093Y353529D01*
X746986Y353468D01*
X746880Y353377D01*
X746872Y353362D01*
X746842Y353331D01*
X746796Y353263D01*
X746751Y353179D01*
X746705Y353057D01*
X746659Y352920D01*
X746629Y352745D01*
X746621Y352547D01*
Y350394D01*
X745990D01*
Y352799D01*
Y352806D01*
Y352814D01*
Y352836D01*
Y352867D01*
X745982Y352943D01*
X745974Y353034D01*
X745952Y353133D01*
X745929Y353240D01*
X745891Y353339D01*
X745837Y353430D01*
X745830Y353438D01*
X745807Y353461D01*
X745769Y353499D01*
X745716Y353537D01*
X745647Y353575D01*
X745563Y353613D01*
X745457Y353636D01*
X745335Y353643D01*
X745290D01*
X745236Y353636D01*
X745175Y353628D01*
X745099Y353605D01*
X745015Y353582D01*
X744924Y353544D01*
X744840Y353499D01*
X744833Y353491D01*
X744802Y353476D01*
X744764Y353438D01*
X744719Y353400D01*
X744665Y353339D01*
X744612Y353270D01*
X744559Y353187D01*
X744513Y353088D01*
X744506Y353072D01*
X744498Y353042D01*
X744483Y352974D01*
X744468Y352890D01*
X744445Y352783D01*
X744429Y352646D01*
X744422Y352494D01*
X744414Y352311D01*
Y350394D01*
X743783D01*
Y354107D01*
X744346D01*
Y353582D01*
X744353Y353597D01*
X744376Y353628D01*
X744414Y353681D01*
X744468Y353742D01*
X744536Y353811D01*
X744612Y353887D01*
X744711Y353955D01*
X744810Y354024D01*
X744825Y354031D01*
X744863Y354047D01*
X744924Y354077D01*
X745008Y354107D01*
X745107Y354138D01*
X745221Y354168D01*
X745343Y354184D01*
X745480Y354191D01*
X745548D01*
X745624Y354184D01*
X745716Y354168D01*
X745822Y354145D01*
X745936Y354115D01*
X746043Y354077D01*
X746149Y354016D01*
X746165Y354008D01*
X746195Y353986D01*
X746241Y353948D01*
X746294Y353894D01*
X746362Y353826D01*
X746423Y353742D01*
X746484Y353643D01*
X746530Y353537D01*
X746537Y353544D01*
X746553Y353567D01*
X746576Y353597D01*
X746614Y353636D01*
X746652Y353689D01*
X746705Y353742D01*
X746766Y353803D01*
X746842Y353864D01*
X746918Y353925D01*
X747002Y353986D01*
X747101Y354039D01*
X747200Y354092D01*
X747314Y354130D01*
X747428Y354161D01*
X747550Y354184D01*
X747679Y354191D01*
X747732D01*
X747770Y354184D01*
D02*
G37*
G36*
X741812D02*
X741857D01*
X741911Y354176D01*
X742032Y354153D01*
X742169Y354115D01*
X742314Y354062D01*
X742451Y353986D01*
X742573Y353879D01*
X742588Y353864D01*
X742618Y353818D01*
X742664Y353750D01*
X742725Y353651D01*
X742778Y353514D01*
X742801Y353438D01*
X742824Y353354D01*
X742839Y353263D01*
X742854Y353156D01*
X742870Y353050D01*
Y352935D01*
Y350394D01*
X742238D01*
Y352730D01*
Y352738D01*
Y352745D01*
Y352791D01*
Y352859D01*
X742230Y352935D01*
X742223Y353027D01*
X742215Y353118D01*
X742200Y353202D01*
X742177Y353270D01*
Y353278D01*
X742162Y353301D01*
X742146Y353331D01*
X742124Y353369D01*
X742093Y353407D01*
X742055Y353453D01*
X742010Y353499D01*
X741956Y353537D01*
X741949Y353544D01*
X741926Y353552D01*
X741895Y353567D01*
X741850Y353590D01*
X741796Y353613D01*
X741728Y353628D01*
X741659Y353636D01*
X741576Y353643D01*
X741561D01*
X741515Y353636D01*
X741439Y353628D01*
X741348Y353613D01*
X741249Y353575D01*
X741134Y353529D01*
X741028Y353468D01*
X740921Y353377D01*
X740914Y353362D01*
X740883Y353331D01*
X740838Y353263D01*
X740792Y353179D01*
X740746Y353057D01*
X740701Y352920D01*
X740670Y352745D01*
X740663Y352547D01*
Y350394D01*
X740031D01*
Y352799D01*
Y352806D01*
Y352814D01*
Y352836D01*
Y352867D01*
X740023Y352943D01*
X740016Y353034D01*
X739993Y353133D01*
X739970Y353240D01*
X739932Y353339D01*
X739879Y353430D01*
X739871Y353438D01*
X739848Y353461D01*
X739810Y353499D01*
X739757Y353537D01*
X739688Y353575D01*
X739605Y353613D01*
X739498Y353636D01*
X739376Y353643D01*
X739331D01*
X739278Y353636D01*
X739217Y353628D01*
X739141Y353605D01*
X739057Y353582D01*
X738966Y353544D01*
X738882Y353499D01*
X738874Y353491D01*
X738844Y353476D01*
X738806Y353438D01*
X738760Y353400D01*
X738707Y353339D01*
X738654Y353270D01*
X738600Y353187D01*
X738555Y353088D01*
X738547Y353072D01*
X738539Y353042D01*
X738524Y352974D01*
X738509Y352890D01*
X738486Y352783D01*
X738471Y352646D01*
X738463Y352494D01*
X738456Y352311D01*
Y350394D01*
X737824D01*
Y354107D01*
X738387D01*
Y353582D01*
X738395Y353597D01*
X738418Y353628D01*
X738456Y353681D01*
X738509Y353742D01*
X738578Y353811D01*
X738654Y353887D01*
X738753Y353955D01*
X738851Y354024D01*
X738867Y354031D01*
X738905Y354047D01*
X738966Y354077D01*
X739049Y354107D01*
X739148Y354138D01*
X739262Y354168D01*
X739384Y354184D01*
X739521Y354191D01*
X739590D01*
X739666Y354184D01*
X739757Y354168D01*
X739863Y354145D01*
X739978Y354115D01*
X740084Y354077D01*
X740191Y354016D01*
X740206Y354008D01*
X740236Y353986D01*
X740282Y353948D01*
X740335Y353894D01*
X740404Y353826D01*
X740465Y353742D01*
X740526Y353643D01*
X740571Y353537D01*
X740579Y353544D01*
X740594Y353567D01*
X740617Y353597D01*
X740655Y353636D01*
X740693Y353689D01*
X740746Y353742D01*
X740807Y353803D01*
X740883Y353864D01*
X740959Y353925D01*
X741043Y353986D01*
X741142Y354039D01*
X741241Y354092D01*
X741355Y354130D01*
X741469Y354161D01*
X741591Y354184D01*
X741720Y354191D01*
X741774D01*
X741812Y354184D01*
D02*
G37*
G36*
X718654Y355508D02*
X718776Y355500D01*
X718906Y355492D01*
X719035Y355477D01*
X719141Y355462D01*
X719157D01*
X719202Y355447D01*
X719278Y355432D01*
X719362Y355409D01*
X719461Y355378D01*
X719568Y355340D01*
X719674Y355287D01*
X719773Y355226D01*
X719788Y355218D01*
X719819Y355196D01*
X719865Y355158D01*
X719925Y355097D01*
X719986Y355028D01*
X720055Y354944D01*
X720123Y354846D01*
X720184Y354731D01*
X720192Y354716D01*
X720207Y354678D01*
X720237Y354610D01*
X720268Y354526D01*
X720291Y354419D01*
X720321Y354305D01*
X720336Y354168D01*
X720344Y354031D01*
Y354024D01*
Y354001D01*
Y353970D01*
X720336Y353925D01*
X720329Y353864D01*
X720321Y353803D01*
X720306Y353727D01*
X720291Y353651D01*
X720245Y353476D01*
X720169Y353293D01*
X720123Y353194D01*
X720062Y353103D01*
X720001Y353011D01*
X719925Y352928D01*
X719918Y352920D01*
X719903Y352905D01*
X719880Y352890D01*
X719842Y352859D01*
X719796Y352821D01*
X719735Y352783D01*
X719667Y352745D01*
X719583Y352707D01*
X719484Y352661D01*
X719377Y352623D01*
X719256Y352585D01*
X719119Y352547D01*
X718966Y352517D01*
X718799Y352502D01*
X718624Y352486D01*
X718426Y352479D01*
X717117D01*
Y350394D01*
X716440D01*
Y355515D01*
X718540D01*
X718654Y355508D01*
D02*
G37*
G36*
X725138Y354184D02*
X725199Y354176D01*
X725275Y354168D01*
X725359Y354153D01*
X725458Y354130D01*
X725656Y354069D01*
X725755Y354031D01*
X725861Y353978D01*
X725968Y353925D01*
X726074Y353856D01*
X726173Y353780D01*
X726264Y353689D01*
X726272Y353681D01*
X726287Y353666D01*
X726310Y353636D01*
X726341Y353597D01*
X726379Y353544D01*
X726417Y353483D01*
X726462Y353407D01*
X726508Y353324D01*
X726554Y353232D01*
X726599Y353126D01*
X726637Y353011D01*
X726675Y352890D01*
X726706Y352753D01*
X726729Y352608D01*
X726744Y352456D01*
X726752Y352296D01*
Y352289D01*
Y352266D01*
Y352228D01*
Y352182D01*
X726744Y352121D01*
Y352045D01*
X726736Y351969D01*
X726721Y351885D01*
X726698Y351710D01*
X726660Y351520D01*
X726607Y351337D01*
X726531Y351170D01*
Y351162D01*
X726523Y351155D01*
X726508Y351132D01*
X726493Y351101D01*
X726440Y351025D01*
X726371Y350934D01*
X726287Y350835D01*
X726181Y350729D01*
X726051Y350622D01*
X725907Y350531D01*
X725899D01*
X725892Y350523D01*
X725869Y350508D01*
X725838Y350500D01*
X725800Y350477D01*
X725755Y350462D01*
X725640Y350424D01*
X725503Y350378D01*
X725351Y350348D01*
X725184Y350318D01*
X725009Y350310D01*
X724933D01*
X724879Y350318D01*
X724811Y350325D01*
X724735Y350333D01*
X724651Y350348D01*
X724560Y350371D01*
X724362Y350432D01*
X724255Y350470D01*
X724149Y350516D01*
X724050Y350576D01*
X723943Y350645D01*
X723844Y350721D01*
X723753Y350805D01*
X723746Y350812D01*
X723730Y350828D01*
X723707Y350858D01*
X723677Y350896D01*
X723639Y350949D01*
X723601Y351010D01*
X723555Y351086D01*
X723517Y351178D01*
X723472Y351269D01*
X723426Y351375D01*
X723388Y351497D01*
X723350Y351626D01*
X723319Y351764D01*
X723297Y351916D01*
X723281Y352076D01*
X723274Y352251D01*
Y352266D01*
Y352296D01*
X723281Y352349D01*
Y352418D01*
X723289Y352502D01*
X723304Y352601D01*
X723319Y352707D01*
X723342Y352829D01*
X723373Y352951D01*
X723411Y353072D01*
X723456Y353202D01*
X723517Y353324D01*
X723578Y353445D01*
X723654Y353567D01*
X723746Y353674D01*
X723844Y353772D01*
X723852Y353780D01*
X723867Y353788D01*
X723890Y353811D01*
X723928Y353841D01*
X723974Y353871D01*
X724035Y353902D01*
X724096Y353940D01*
X724172Y353986D01*
X724248Y354024D01*
X724339Y354062D01*
X724537Y354123D01*
X724765Y354176D01*
X724879Y354184D01*
X725009Y354191D01*
X725085D01*
X725138Y354184D01*
D02*
G37*
G36*
X728958D02*
X729019Y354176D01*
X729080Y354161D01*
X729232Y354123D01*
X729316Y354092D01*
X729400Y354062D01*
X729491Y354016D01*
X729582Y353963D01*
X729674Y353902D01*
X729765Y353826D01*
X729849Y353750D01*
X729932Y353651D01*
Y354107D01*
X730511D01*
Y350896D01*
Y350888D01*
Y350858D01*
Y350812D01*
Y350759D01*
X730503Y350683D01*
Y350607D01*
X730496Y350516D01*
X730488Y350424D01*
X730465Y350219D01*
X730435Y350021D01*
X730419Y349922D01*
X730397Y349831D01*
X730366Y349755D01*
X730336Y349678D01*
Y349671D01*
X730328Y349663D01*
X730305Y349618D01*
X730260Y349549D01*
X730199Y349473D01*
X730123Y349374D01*
X730024Y349283D01*
X729910Y349184D01*
X729773Y349100D01*
X729765D01*
X729757Y349092D01*
X729735Y349077D01*
X729704Y349070D01*
X729666Y349054D01*
X729621Y349031D01*
X729514Y348993D01*
X729377Y348955D01*
X729217Y348917D01*
X729035Y348895D01*
X728837Y348887D01*
X728776D01*
X728730Y348895D01*
X728669D01*
X728608Y348902D01*
X728456Y348925D01*
X728281Y348963D01*
X728106Y349016D01*
X727931Y349092D01*
X727764Y349191D01*
X727756D01*
X727748Y349206D01*
X727703Y349245D01*
X727634Y349313D01*
X727558Y349412D01*
X727490Y349541D01*
X727421Y349694D01*
X727383Y349876D01*
X727368Y349975D01*
Y350082D01*
X727977Y349998D01*
Y349983D01*
X727984Y349952D01*
X727999Y349899D01*
X728015Y349838D01*
X728045Y349777D01*
X728083Y349709D01*
X728129Y349640D01*
X728190Y349587D01*
X728197Y349579D01*
X728235Y349557D01*
X728289Y349526D01*
X728357Y349496D01*
X728448Y349465D01*
X728563Y349435D01*
X728685Y349412D01*
X728829Y349404D01*
X728905D01*
X728981Y349412D01*
X729080Y349427D01*
X729187Y349450D01*
X729301Y349481D01*
X729407Y349526D01*
X729506Y349587D01*
X729514Y349595D01*
X729544Y349618D01*
X729582Y349656D01*
X729636Y349716D01*
X729689Y349785D01*
X729742Y349869D01*
X729788Y349968D01*
X729826Y350074D01*
Y350082D01*
X729834Y350112D01*
X729841Y350165D01*
X729849Y350249D01*
X729856Y350295D01*
X729864Y350356D01*
Y350424D01*
X729872Y350493D01*
Y350576D01*
Y350668D01*
Y350767D01*
Y350881D01*
X729864Y350873D01*
X729856Y350858D01*
X729834Y350835D01*
X729796Y350805D01*
X729757Y350767D01*
X729712Y350729D01*
X729651Y350683D01*
X729590Y350637D01*
X729438Y350546D01*
X729263Y350470D01*
X729172Y350439D01*
X729065Y350416D01*
X728958Y350401D01*
X728844Y350394D01*
X728814D01*
X728768Y350401D01*
X728722D01*
X728654Y350409D01*
X728578Y350424D01*
X728502Y350439D01*
X728410Y350462D01*
X728319Y350493D01*
X728220Y350531D01*
X728121Y350569D01*
X728022Y350622D01*
X727923Y350691D01*
X727832Y350759D01*
X727741Y350843D01*
X727657Y350942D01*
X727649Y350949D01*
X727642Y350964D01*
X727619Y350995D01*
X727589Y351041D01*
X727558Y351094D01*
X727528Y351155D01*
X727490Y351231D01*
X727452Y351314D01*
X727406Y351406D01*
X727368Y351512D01*
X727338Y351619D01*
X727307Y351733D01*
X727254Y351992D01*
X727246Y352121D01*
X727239Y352266D01*
Y352273D01*
Y352289D01*
Y352319D01*
Y352357D01*
X727246Y352403D01*
Y352456D01*
X727261Y352585D01*
X727284Y352738D01*
X727322Y352905D01*
X727368Y353080D01*
X727429Y353247D01*
Y353255D01*
X727436Y353270D01*
X727452Y353293D01*
X727467Y353324D01*
X727513Y353400D01*
X727573Y353506D01*
X727657Y353613D01*
X727748Y353727D01*
X727863Y353841D01*
X727992Y353940D01*
X727999D01*
X728007Y353948D01*
X728030Y353963D01*
X728060Y353978D01*
X728136Y354016D01*
X728235Y354069D01*
X728365Y354115D01*
X728509Y354153D01*
X728677Y354184D01*
X728852Y354191D01*
X728913D01*
X728958Y354184D01*
D02*
G37*
G36*
X751385D02*
X751454Y354176D01*
X751522Y354161D01*
X751606Y354145D01*
X751697Y354130D01*
X751887Y354069D01*
X751986Y354024D01*
X752093Y353978D01*
X752192Y353917D01*
X752291Y353849D01*
X752390Y353772D01*
X752481Y353681D01*
X752489Y353674D01*
X752504Y353658D01*
X752527Y353628D01*
X752557Y353590D01*
X752595Y353537D01*
X752633Y353476D01*
X752679Y353400D01*
X752724Y353316D01*
X752763Y353217D01*
X752808Y353111D01*
X752846Y352996D01*
X752884Y352867D01*
X752915Y352730D01*
X752938Y352585D01*
X752953Y352426D01*
X752960Y352258D01*
Y352251D01*
Y352213D01*
Y352159D01*
X752953Y352091D01*
X750183D01*
Y352083D01*
Y352060D01*
X750190Y352030D01*
Y351992D01*
X750198Y351939D01*
X750206Y351878D01*
X750236Y351741D01*
X750282Y351589D01*
X750343Y351436D01*
X750419Y351284D01*
X750525Y351147D01*
X750540Y351132D01*
X750578Y351094D01*
X750647Y351048D01*
X750738Y350987D01*
X750852Y350926D01*
X750982Y350881D01*
X751134Y350843D01*
X751301Y350828D01*
X751362D01*
X751423Y350835D01*
X751507Y350850D01*
X751598Y350873D01*
X751697Y350904D01*
X751796Y350942D01*
X751895Y351003D01*
X751903Y351010D01*
X751933Y351041D01*
X751979Y351079D01*
X752039Y351147D01*
X752100Y351223D01*
X752169Y351330D01*
X752230Y351451D01*
X752291Y351589D01*
X752938Y351505D01*
Y351497D01*
X752930Y351482D01*
X752922Y351451D01*
X752907Y351413D01*
X752892Y351360D01*
X752869Y351307D01*
X752808Y351178D01*
X752732Y351041D01*
X752633Y350888D01*
X752511Y350751D01*
X752367Y350622D01*
X752359D01*
X752352Y350607D01*
X752321Y350592D01*
X752291Y350576D01*
X752253Y350553D01*
X752199Y350523D01*
X752146Y350493D01*
X752078Y350470D01*
X751925Y350409D01*
X751743Y350356D01*
X751530Y350325D01*
X751301Y350310D01*
X751225D01*
X751164Y350318D01*
X751096Y350325D01*
X751020Y350333D01*
X750928Y350348D01*
X750837Y350371D01*
X750632Y350432D01*
X750518Y350470D01*
X750411Y350516D01*
X750305Y350576D01*
X750198Y350645D01*
X750099Y350721D01*
X750008Y350805D01*
X750000Y350812D01*
X749985Y350828D01*
X749962Y350858D01*
X749932Y350896D01*
X749901Y350949D01*
X749856Y351010D01*
X749817Y351086D01*
X749772Y351170D01*
X749726Y351261D01*
X749688Y351368D01*
X749642Y351482D01*
X749612Y351611D01*
X749581Y351748D01*
X749559Y351893D01*
X749544Y352045D01*
X749536Y352213D01*
Y352220D01*
Y352251D01*
Y352304D01*
X749544Y352365D01*
X749551Y352448D01*
X749559Y352540D01*
X749574Y352639D01*
X749597Y352753D01*
X749650Y352981D01*
X749696Y353103D01*
X749741Y353225D01*
X749795Y353346D01*
X749856Y353461D01*
X749932Y353575D01*
X750015Y353674D01*
X750023Y353681D01*
X750038Y353696D01*
X750069Y353719D01*
X750099Y353757D01*
X750152Y353795D01*
X750206Y353841D01*
X750274Y353887D01*
X750350Y353932D01*
X750434Y353978D01*
X750533Y354031D01*
X750632Y354069D01*
X750746Y354107D01*
X750860Y354145D01*
X750989Y354168D01*
X751126Y354184D01*
X751263Y354191D01*
X751332D01*
X751385Y354184D01*
D02*
G37*
G36*
X708229Y354914D02*
X705200D01*
Y353346D01*
X708039D01*
Y352745D01*
X705200D01*
Y350995D01*
X708351D01*
Y350394D01*
X704523D01*
Y355515D01*
X708229D01*
Y354914D01*
D02*
G37*
G36*
X701791Y355508D02*
X701859D01*
X702011Y355500D01*
X702179Y355477D01*
X702346Y355454D01*
X702514Y355416D01*
X702590Y355394D01*
X702658Y355371D01*
X702666D01*
X702673Y355363D01*
X702719Y355348D01*
X702780Y355310D01*
X702864Y355257D01*
X702955Y355188D01*
X703054Y355104D01*
X703145Y355005D01*
X703229Y354884D01*
X703237Y354868D01*
X703267Y354823D01*
X703298Y354754D01*
X703343Y354655D01*
X703381Y354541D01*
X703419Y354412D01*
X703442Y354267D01*
X703450Y354115D01*
Y354107D01*
Y354092D01*
Y354062D01*
X703442Y354024D01*
Y353978D01*
X703435Y353925D01*
X703404Y353795D01*
X703366Y353651D01*
X703298Y353499D01*
X703214Y353339D01*
X703153Y353263D01*
X703092Y353194D01*
X703084Y353187D01*
X703077Y353179D01*
X703054Y353156D01*
X703023Y353133D01*
X702985Y353103D01*
X702940Y353072D01*
X702886Y353034D01*
X702826Y352996D01*
X702750Y352958D01*
X702673Y352913D01*
X702582Y352875D01*
X702483Y352836D01*
X702377Y352806D01*
X702262Y352768D01*
X702141Y352745D01*
X702004Y352722D01*
X702019Y352715D01*
X702049Y352699D01*
X702095Y352677D01*
X702156Y352639D01*
X702293Y352563D01*
X702354Y352509D01*
X702415Y352464D01*
X702430Y352448D01*
X702468Y352418D01*
X702521Y352357D01*
X702597Y352273D01*
X702681Y352174D01*
X702772Y352060D01*
X702871Y351931D01*
X702970Y351786D01*
X703861Y350394D01*
X703016D01*
X702339Y351451D01*
Y351459D01*
X702323Y351474D01*
X702308Y351497D01*
X702285Y351528D01*
X702232Y351611D01*
X702164Y351718D01*
X702087Y351832D01*
X702004Y351946D01*
X701920Y352060D01*
X701844Y352159D01*
X701836Y352167D01*
X701814Y352197D01*
X701776Y352243D01*
X701730Y352296D01*
X701623Y352410D01*
X701562Y352456D01*
X701502Y352502D01*
X701494Y352509D01*
X701479Y352517D01*
X701448Y352532D01*
X701403Y352555D01*
X701304Y352601D01*
X701190Y352639D01*
X701182D01*
X701167Y352646D01*
X701136D01*
X701098Y352654D01*
X701045Y352661D01*
X700984D01*
X700908Y352669D01*
X700033D01*
Y350394D01*
X699356D01*
Y355515D01*
X701737D01*
X701791Y355508D01*
D02*
G37*
G36*
X253223Y325483D02*
X253322Y325468D01*
X253436Y325453D01*
X253558Y325423D01*
X253680Y325377D01*
X253801Y325324D01*
X253817Y325316D01*
X253855Y325293D01*
X253908Y325255D01*
X253984Y325202D01*
X254060Y325133D01*
X254152Y325050D01*
X254235Y324958D01*
X254311Y324844D01*
X254319Y324829D01*
X254342Y324791D01*
X254380Y324723D01*
X254426Y324631D01*
X254479Y324525D01*
X254532Y324395D01*
X254585Y324243D01*
X254631Y324083D01*
Y324076D01*
X254639Y324060D01*
X254646Y324038D01*
X254654Y324000D01*
X254661Y323954D01*
X254669Y323901D01*
X254684Y323840D01*
X254692Y323764D01*
X254707Y323680D01*
X254715Y323589D01*
X254722Y323490D01*
X254737Y323383D01*
X254745Y323269D01*
Y323147D01*
X254753Y323010D01*
Y322873D01*
Y322866D01*
Y322835D01*
Y322790D01*
Y322721D01*
X254745Y322645D01*
Y322561D01*
X254737Y322462D01*
X254730Y322356D01*
X254707Y322127D01*
X254669Y321884D01*
X254623Y321640D01*
X254593Y321526D01*
X254562Y321420D01*
Y321412D01*
X254555Y321397D01*
X254540Y321366D01*
X254532Y321328D01*
X254509Y321283D01*
X254486Y321230D01*
X254426Y321108D01*
X254349Y320971D01*
X254251Y320826D01*
X254136Y320689D01*
X254007Y320567D01*
X253999D01*
X253992Y320552D01*
X253969Y320537D01*
X253939Y320522D01*
X253862Y320476D01*
X253756Y320423D01*
X253619Y320362D01*
X253459Y320316D01*
X253284Y320286D01*
X253079Y320271D01*
X253010D01*
X252957Y320278D01*
X252896Y320286D01*
X252820Y320301D01*
X252744Y320316D01*
X252660Y320339D01*
X252569Y320362D01*
X252470Y320400D01*
X252371Y320438D01*
X252279Y320491D01*
X252181Y320552D01*
X252089Y320621D01*
X251998Y320704D01*
X251914Y320796D01*
X251907Y320803D01*
X251891Y320826D01*
X251869Y320864D01*
X251838Y320918D01*
X251800Y320986D01*
X251754Y321077D01*
X251709Y321176D01*
X251663Y321298D01*
X251617Y321435D01*
X251572Y321587D01*
X251526Y321755D01*
X251488Y321945D01*
X251458Y322150D01*
X251435Y322371D01*
X251420Y322615D01*
X251412Y322873D01*
Y322881D01*
Y322911D01*
Y322957D01*
Y323025D01*
X251420Y323101D01*
Y323193D01*
X251427Y323292D01*
X251435Y323398D01*
X251458Y323627D01*
X251488Y323870D01*
X251534Y324114D01*
X251564Y324228D01*
X251595Y324334D01*
Y324342D01*
X251602Y324357D01*
X251617Y324388D01*
X251633Y324426D01*
X251648Y324471D01*
X251671Y324525D01*
X251739Y324646D01*
X251815Y324783D01*
X251907Y324928D01*
X252021Y325065D01*
X252150Y325187D01*
X252158D01*
X252165Y325202D01*
X252188Y325217D01*
X252219Y325232D01*
X252257Y325255D01*
X252295Y325286D01*
X252409Y325339D01*
X252538Y325392D01*
X252698Y325445D01*
X252881Y325476D01*
X253079Y325491D01*
X253147D01*
X253223Y325483D01*
D02*
G37*
G36*
X245651Y320271D02*
X245149D01*
X246633Y325560D01*
X247135D01*
X245651Y320271D01*
D02*
G37*
G36*
X243285Y325483D02*
X243345Y325476D01*
X243422Y325468D01*
X243498Y325461D01*
X243589Y325438D01*
X243772Y325392D01*
X243969Y325316D01*
X244061Y325270D01*
X244152Y325217D01*
X244243Y325156D01*
X244327Y325080D01*
X244335Y325073D01*
X244342Y325065D01*
X244365Y325042D01*
X244395Y325004D01*
X244426Y324966D01*
X244464Y324920D01*
X244502Y324859D01*
X244548Y324799D01*
X244624Y324654D01*
X244692Y324479D01*
X244723Y324388D01*
X244746Y324281D01*
X244753Y324182D01*
X244761Y324068D01*
Y324053D01*
Y324015D01*
X244753Y323954D01*
X244746Y323878D01*
X244730Y323779D01*
X244707Y323680D01*
X244677Y323573D01*
X244631Y323459D01*
X244624Y323444D01*
X244609Y323406D01*
X244578Y323353D01*
X244532Y323277D01*
X244472Y323178D01*
X244403Y323071D01*
X244312Y322957D01*
X244213Y322835D01*
X244198Y322820D01*
X244160Y322774D01*
X244129Y322744D01*
X244083Y322698D01*
X244038Y322653D01*
X243985Y322599D01*
X243924Y322538D01*
X243848Y322470D01*
X243772Y322401D01*
X243680Y322318D01*
X243589Y322234D01*
X243482Y322143D01*
X243368Y322044D01*
X243246Y321937D01*
X243239Y321930D01*
X243224Y321914D01*
X243193Y321891D01*
X243155Y321861D01*
X243064Y321777D01*
X242942Y321678D01*
X242820Y321572D01*
X242706Y321465D01*
X242600Y321366D01*
X242562Y321328D01*
X242524Y321290D01*
X242516Y321283D01*
X242501Y321260D01*
X242470Y321230D01*
X242432Y321184D01*
X242387Y321138D01*
X242341Y321077D01*
X242257Y320955D01*
X244768D01*
Y320354D01*
X241382D01*
Y320362D01*
Y320392D01*
Y320438D01*
X241390Y320491D01*
X241397Y320560D01*
X241405Y320628D01*
X241428Y320712D01*
X241451Y320788D01*
Y320796D01*
X241458Y320803D01*
X241473Y320849D01*
X241504Y320918D01*
X241549Y321001D01*
X241610Y321108D01*
X241679Y321222D01*
X241762Y321344D01*
X241861Y321465D01*
Y321473D01*
X241877Y321481D01*
X241915Y321526D01*
X241983Y321595D01*
X242074Y321686D01*
X242189Y321800D01*
X242333Y321937D01*
X242501Y322082D01*
X242691Y322242D01*
X242699Y322249D01*
X242729Y322272D01*
X242767Y322310D01*
X242828Y322356D01*
X242896Y322409D01*
X242972Y322478D01*
X243140Y322637D01*
X243330Y322805D01*
X243513Y322987D01*
X243604Y323079D01*
X243680Y323162D01*
X243756Y323246D01*
X243817Y323322D01*
Y323330D01*
X243832Y323337D01*
X243848Y323360D01*
X243863Y323391D01*
X243909Y323467D01*
X243969Y323566D01*
X244023Y323688D01*
X244068Y323817D01*
X244099Y323946D01*
X244114Y324083D01*
Y324091D01*
Y324098D01*
X244106Y324144D01*
X244099Y324213D01*
X244083Y324304D01*
X244045Y324403D01*
X244000Y324509D01*
X243931Y324616D01*
X243840Y324715D01*
X243825Y324723D01*
X243794Y324753D01*
X243734Y324799D01*
X243657Y324844D01*
X243551Y324890D01*
X243437Y324936D01*
X243300Y324966D01*
X243147Y324974D01*
X243102D01*
X243071Y324966D01*
X242988Y324958D01*
X242889Y324936D01*
X242767Y324905D01*
X242645Y324852D01*
X242524Y324783D01*
X242417Y324692D01*
X242409Y324677D01*
X242379Y324639D01*
X242333Y324578D01*
X242288Y324494D01*
X242234Y324388D01*
X242196Y324258D01*
X242166Y324106D01*
X242151Y323939D01*
X241504Y324007D01*
Y324015D01*
Y324038D01*
X241511Y324076D01*
X241519Y324129D01*
X241534Y324190D01*
X241549Y324258D01*
X241587Y324418D01*
X241648Y324593D01*
X241740Y324776D01*
X241793Y324867D01*
X241854Y324951D01*
X241922Y325034D01*
X241998Y325111D01*
X242006Y325118D01*
X242021Y325126D01*
X242044Y325149D01*
X242074Y325171D01*
X242120Y325202D01*
X242173Y325232D01*
X242234Y325263D01*
X242310Y325301D01*
X242387Y325339D01*
X242470Y325369D01*
X242569Y325400D01*
X242676Y325430D01*
X242782Y325453D01*
X242904Y325476D01*
X243026Y325483D01*
X243163Y325491D01*
X243231D01*
X243285Y325483D01*
D02*
G37*
G36*
X257759Y320354D02*
X257127D01*
Y324350D01*
X257119Y324342D01*
X257089Y324311D01*
X257036Y324273D01*
X256967Y324213D01*
X256884Y324152D01*
X256777Y324076D01*
X256655Y324000D01*
X256526Y323916D01*
X256518D01*
X256511Y323908D01*
X256465Y323878D01*
X256397Y323840D01*
X256305Y323794D01*
X256206Y323741D01*
X256100Y323695D01*
X255986Y323642D01*
X255871Y323596D01*
Y324205D01*
X255879D01*
X255894Y324213D01*
X255925Y324228D01*
X255963Y324251D01*
X256008Y324273D01*
X256062Y324304D01*
X256183Y324372D01*
X256328Y324456D01*
X256480Y324555D01*
X256632Y324669D01*
X256785Y324799D01*
X256792Y324806D01*
X256800Y324814D01*
X256853Y324859D01*
X256922Y324928D01*
X257005Y325019D01*
X257097Y325126D01*
X257188Y325240D01*
X257279Y325362D01*
X257348Y325491D01*
X257759D01*
Y320354D01*
D02*
G37*
G36*
X249251Y325483D02*
X249312Y325476D01*
X249388Y325468D01*
X249464Y325461D01*
X249555Y325438D01*
X249738Y325392D01*
X249936Y325316D01*
X250027Y325270D01*
X250118Y325217D01*
X250210Y325156D01*
X250293Y325080D01*
X250301Y325073D01*
X250308Y325065D01*
X250331Y325042D01*
X250362Y325004D01*
X250392Y324966D01*
X250430Y324920D01*
X250468Y324859D01*
X250514Y324799D01*
X250590Y324654D01*
X250659Y324479D01*
X250689Y324388D01*
X250712Y324281D01*
X250719Y324182D01*
X250727Y324068D01*
Y324053D01*
Y324015D01*
X250719Y323954D01*
X250712Y323878D01*
X250697Y323779D01*
X250674Y323680D01*
X250643Y323573D01*
X250598Y323459D01*
X250590Y323444D01*
X250575Y323406D01*
X250544Y323353D01*
X250499Y323277D01*
X250438Y323178D01*
X250369Y323071D01*
X250278Y322957D01*
X250179Y322835D01*
X250164Y322820D01*
X250126Y322774D01*
X250095Y322744D01*
X250050Y322698D01*
X250004Y322653D01*
X249951Y322599D01*
X249890Y322538D01*
X249814Y322470D01*
X249738Y322401D01*
X249646Y322318D01*
X249555Y322234D01*
X249449Y322143D01*
X249334Y322044D01*
X249213Y321937D01*
X249205Y321930D01*
X249190Y321914D01*
X249159Y321891D01*
X249121Y321861D01*
X249030Y321777D01*
X248908Y321678D01*
X248786Y321572D01*
X248672Y321465D01*
X248566Y321366D01*
X248528Y321328D01*
X248490Y321290D01*
X248482Y321283D01*
X248467Y321260D01*
X248436Y321230D01*
X248398Y321184D01*
X248353Y321138D01*
X248307Y321077D01*
X248223Y320955D01*
X250735D01*
Y320354D01*
X247348D01*
Y320362D01*
Y320392D01*
Y320438D01*
X247356Y320491D01*
X247363Y320560D01*
X247371Y320628D01*
X247394Y320712D01*
X247417Y320788D01*
Y320796D01*
X247424Y320803D01*
X247440Y320849D01*
X247470Y320918D01*
X247516Y321001D01*
X247576Y321108D01*
X247645Y321222D01*
X247729Y321344D01*
X247828Y321465D01*
Y321473D01*
X247843Y321481D01*
X247881Y321526D01*
X247949Y321595D01*
X248041Y321686D01*
X248155Y321800D01*
X248300Y321937D01*
X248467Y322082D01*
X248657Y322242D01*
X248665Y322249D01*
X248695Y322272D01*
X248733Y322310D01*
X248794Y322356D01*
X248863Y322409D01*
X248939Y322478D01*
X249106Y322637D01*
X249296Y322805D01*
X249479Y322987D01*
X249570Y323079D01*
X249646Y323162D01*
X249723Y323246D01*
X249783Y323322D01*
Y323330D01*
X249799Y323337D01*
X249814Y323360D01*
X249829Y323391D01*
X249875Y323467D01*
X249936Y323566D01*
X249989Y323688D01*
X250034Y323817D01*
X250065Y323946D01*
X250080Y324083D01*
Y324091D01*
Y324098D01*
X250073Y324144D01*
X250065Y324213D01*
X250050Y324304D01*
X250012Y324403D01*
X249966Y324509D01*
X249898Y324616D01*
X249806Y324715D01*
X249791Y324723D01*
X249761Y324753D01*
X249700Y324799D01*
X249624Y324844D01*
X249517Y324890D01*
X249403Y324936D01*
X249266Y324966D01*
X249114Y324974D01*
X249068D01*
X249038Y324966D01*
X248954Y324958D01*
X248855Y324936D01*
X248733Y324905D01*
X248611Y324852D01*
X248490Y324783D01*
X248383Y324692D01*
X248376Y324677D01*
X248345Y324639D01*
X248300Y324578D01*
X248254Y324494D01*
X248200Y324388D01*
X248163Y324258D01*
X248132Y324106D01*
X248117Y323939D01*
X247470Y324007D01*
Y324015D01*
Y324038D01*
X247478Y324076D01*
X247485Y324129D01*
X247500Y324190D01*
X247516Y324258D01*
X247554Y324418D01*
X247615Y324593D01*
X247706Y324776D01*
X247759Y324867D01*
X247820Y324951D01*
X247888Y325034D01*
X247965Y325111D01*
X247972Y325118D01*
X247987Y325126D01*
X248010Y325149D01*
X248041Y325171D01*
X248086Y325202D01*
X248140Y325232D01*
X248200Y325263D01*
X248277Y325301D01*
X248353Y325339D01*
X248436Y325369D01*
X248535Y325400D01*
X248642Y325430D01*
X248748Y325453D01*
X248870Y325476D01*
X248992Y325483D01*
X249129Y325491D01*
X249197D01*
X249251Y325483D01*
D02*
G37*
G36*
X239297D02*
X239396Y325468D01*
X239510Y325453D01*
X239632Y325423D01*
X239753Y325377D01*
X239875Y325324D01*
X239890Y325316D01*
X239929Y325293D01*
X239982Y325255D01*
X240058Y325202D01*
X240134Y325133D01*
X240225Y325050D01*
X240309Y324958D01*
X240385Y324844D01*
X240393Y324829D01*
X240416Y324791D01*
X240454Y324723D01*
X240499Y324631D01*
X240552Y324525D01*
X240606Y324395D01*
X240659Y324243D01*
X240705Y324083D01*
Y324076D01*
X240712Y324060D01*
X240720Y324038D01*
X240727Y324000D01*
X240735Y323954D01*
X240743Y323901D01*
X240758Y323840D01*
X240766Y323764D01*
X240781Y323680D01*
X240788Y323589D01*
X240796Y323490D01*
X240811Y323383D01*
X240819Y323269D01*
Y323147D01*
X240826Y323010D01*
Y322873D01*
Y322866D01*
Y322835D01*
Y322790D01*
Y322721D01*
X240819Y322645D01*
Y322561D01*
X240811Y322462D01*
X240804Y322356D01*
X240781Y322127D01*
X240743Y321884D01*
X240697Y321640D01*
X240667Y321526D01*
X240636Y321420D01*
Y321412D01*
X240629Y321397D01*
X240613Y321366D01*
X240606Y321328D01*
X240583Y321283D01*
X240560Y321230D01*
X240499Y321108D01*
X240423Y320971D01*
X240324Y320826D01*
X240210Y320689D01*
X240081Y320567D01*
X240073D01*
X240065Y320552D01*
X240043Y320537D01*
X240012Y320522D01*
X239936Y320476D01*
X239829Y320423D01*
X239692Y320362D01*
X239533Y320316D01*
X239358Y320286D01*
X239152Y320271D01*
X239084D01*
X239031Y320278D01*
X238970Y320286D01*
X238894Y320301D01*
X238817Y320316D01*
X238734Y320339D01*
X238642Y320362D01*
X238543Y320400D01*
X238444Y320438D01*
X238353Y320491D01*
X238254Y320552D01*
X238163Y320621D01*
X238072Y320704D01*
X237988Y320796D01*
X237980Y320803D01*
X237965Y320826D01*
X237942Y320864D01*
X237912Y320918D01*
X237874Y320986D01*
X237828Y321077D01*
X237782Y321176D01*
X237737Y321298D01*
X237691Y321435D01*
X237646Y321587D01*
X237600Y321755D01*
X237562Y321945D01*
X237531Y322150D01*
X237509Y322371D01*
X237493Y322615D01*
X237486Y322873D01*
Y322881D01*
Y322911D01*
Y322957D01*
Y323025D01*
X237493Y323101D01*
Y323193D01*
X237501Y323292D01*
X237509Y323398D01*
X237531Y323627D01*
X237562Y323870D01*
X237607Y324114D01*
X237638Y324228D01*
X237668Y324334D01*
Y324342D01*
X237676Y324357D01*
X237691Y324388D01*
X237706Y324426D01*
X237722Y324471D01*
X237744Y324525D01*
X237813Y324646D01*
X237889Y324783D01*
X237980Y324928D01*
X238094Y325065D01*
X238224Y325187D01*
X238231D01*
X238239Y325202D01*
X238262Y325217D01*
X238292Y325232D01*
X238330Y325255D01*
X238368Y325286D01*
X238483Y325339D01*
X238612Y325392D01*
X238772Y325445D01*
X238954Y325476D01*
X239152Y325491D01*
X239221D01*
X239297Y325483D01*
D02*
G37*
G36*
X732946Y354184D02*
X733030Y354168D01*
X733129Y354138D01*
X733235Y354107D01*
X733357Y354054D01*
X733479Y353986D01*
X733251Y353407D01*
X733243Y353415D01*
X733212Y353430D01*
X733167Y353453D01*
X733106Y353476D01*
X733037Y353499D01*
X732961Y353521D01*
X732878Y353537D01*
X732794Y353544D01*
X732756D01*
X732718Y353537D01*
X732672Y353529D01*
X732611Y353514D01*
X732550Y353491D01*
X732482Y353461D01*
X732421Y353415D01*
X732413Y353407D01*
X732398Y353392D01*
X732368Y353362D01*
X732330Y353324D01*
X732292Y353278D01*
X732261Y353217D01*
X732223Y353149D01*
X732193Y353072D01*
X732185Y353057D01*
X732177Y353011D01*
X732162Y352943D01*
X732147Y352852D01*
X732124Y352745D01*
X732109Y352623D01*
X732101Y352479D01*
X732094Y352334D01*
Y350394D01*
X731462D01*
Y354107D01*
X732033D01*
Y353552D01*
X732041Y353559D01*
X732071Y353605D01*
X732109Y353674D01*
X732162Y353757D01*
X732223Y353841D01*
X732292Y353932D01*
X732360Y354008D01*
X732429Y354062D01*
X732436Y354069D01*
X732459Y354084D01*
X732497Y354100D01*
X732550Y354130D01*
X732611Y354153D01*
X732680Y354168D01*
X732748Y354184D01*
X732832Y354191D01*
X732885D01*
X732946Y354184D01*
D02*
G37*
G36*
X722604D02*
X722688Y354168D01*
X722787Y354138D01*
X722893Y354107D01*
X723015Y354054D01*
X723137Y353986D01*
X722908Y353407D01*
X722901Y353415D01*
X722870Y353430D01*
X722825Y353453D01*
X722764Y353476D01*
X722695Y353499D01*
X722619Y353521D01*
X722536Y353537D01*
X722452Y353544D01*
X722414D01*
X722376Y353537D01*
X722330Y353529D01*
X722269Y353514D01*
X722208Y353491D01*
X722140Y353461D01*
X722079Y353415D01*
X722071Y353407D01*
X722056Y353392D01*
X722026Y353362D01*
X721988Y353324D01*
X721950Y353278D01*
X721919Y353217D01*
X721881Y353149D01*
X721851Y353072D01*
X721843Y353057D01*
X721836Y353011D01*
X721820Y352943D01*
X721805Y352852D01*
X721782Y352745D01*
X721767Y352623D01*
X721759Y352479D01*
X721752Y352334D01*
Y350394D01*
X721120D01*
Y354107D01*
X721691D01*
Y353552D01*
X721699Y353559D01*
X721729Y353605D01*
X721767Y353674D01*
X721820Y353757D01*
X721881Y353841D01*
X721950Y353932D01*
X722018Y354008D01*
X722087Y354062D01*
X722094Y354069D01*
X722117Y354084D01*
X722155Y354100D01*
X722208Y354130D01*
X722269Y354153D01*
X722338Y354168D01*
X722406Y354184D01*
X722490Y354191D01*
X722543D01*
X722604Y354184D01*
D02*
G37*
G36*
X755205D02*
X755289Y354168D01*
X755388Y354138D01*
X755494Y354107D01*
X755616Y354054D01*
X755738Y353986D01*
X755510Y353407D01*
X755502Y353415D01*
X755472Y353430D01*
X755426Y353453D01*
X755365Y353476D01*
X755297Y353499D01*
X755221Y353521D01*
X755137Y353537D01*
X755053Y353544D01*
X755015D01*
X754977Y353537D01*
X754931Y353529D01*
X754871Y353514D01*
X754810Y353491D01*
X754741Y353461D01*
X754680Y353415D01*
X754673Y353407D01*
X754657Y353392D01*
X754627Y353362D01*
X754589Y353324D01*
X754551Y353278D01*
X754520Y353217D01*
X754482Y353149D01*
X754452Y353072D01*
X754444Y353057D01*
X754437Y353011D01*
X754422Y352943D01*
X754406Y352852D01*
X754383Y352745D01*
X754368Y352623D01*
X754361Y352479D01*
X754353Y352334D01*
Y350394D01*
X753721D01*
Y354107D01*
X754292D01*
Y353552D01*
X754300Y353559D01*
X754330Y353605D01*
X754368Y353674D01*
X754422Y353757D01*
X754482Y353841D01*
X754551Y353932D01*
X754619Y354008D01*
X754688Y354062D01*
X754695Y354069D01*
X754718Y354084D01*
X754756Y354100D01*
X754810Y354130D01*
X754871Y354153D01*
X754939Y354168D01*
X755007Y354184D01*
X755091Y354191D01*
X755144D01*
X755205Y354184D01*
D02*
G37*
G36*
X235705Y320271D02*
X235203D01*
X236687Y325560D01*
X237189D01*
X235705Y320271D01*
D02*
G37*
G36*
X233300Y325483D02*
X233353Y325476D01*
X233422Y325468D01*
X233574Y325445D01*
X233741Y325392D01*
X233924Y325324D01*
X234015Y325278D01*
X234099Y325225D01*
X234191Y325164D01*
X234267Y325095D01*
X234274Y325088D01*
X234282Y325080D01*
X234305Y325057D01*
X234328Y325027D01*
X234366Y324989D01*
X234396Y324943D01*
X234472Y324829D01*
X234548Y324692D01*
X234617Y324532D01*
X234662Y324350D01*
X234670Y324251D01*
X234678Y324152D01*
Y324144D01*
Y324136D01*
Y324091D01*
X234670Y324022D01*
X234655Y323939D01*
X234632Y323840D01*
X234594Y323741D01*
X234548Y323634D01*
X234487Y323528D01*
X234480Y323520D01*
X234449Y323482D01*
X234404Y323436D01*
X234343Y323383D01*
X234267Y323315D01*
X234168Y323246D01*
X234053Y323185D01*
X233917Y323124D01*
X233924D01*
X233939Y323117D01*
X233962Y323109D01*
X233993Y323094D01*
X234084Y323056D01*
X234191Y323003D01*
X234305Y322934D01*
X234426Y322850D01*
X234541Y322751D01*
X234640Y322630D01*
X234647Y322615D01*
X234678Y322569D01*
X234716Y322500D01*
X234769Y322401D01*
X234815Y322280D01*
X234853Y322143D01*
X234883Y321983D01*
X234891Y321815D01*
Y321808D01*
Y321785D01*
Y321755D01*
X234883Y321709D01*
X234875Y321648D01*
X234868Y321587D01*
X234853Y321511D01*
X234830Y321435D01*
X234776Y321260D01*
X234738Y321169D01*
X234693Y321077D01*
X234640Y320978D01*
X234571Y320887D01*
X234503Y320796D01*
X234419Y320712D01*
X234411Y320704D01*
X234396Y320697D01*
X234373Y320674D01*
X234335Y320643D01*
X234289Y320613D01*
X234236Y320575D01*
X234168Y320529D01*
X234092Y320491D01*
X234008Y320453D01*
X233917Y320408D01*
X233818Y320370D01*
X233711Y320339D01*
X233597Y320309D01*
X233468Y320293D01*
X233338Y320278D01*
X233201Y320271D01*
X233125D01*
X233072Y320278D01*
X233011Y320286D01*
X232935Y320293D01*
X232851Y320309D01*
X232760Y320324D01*
X232570Y320377D01*
X232463Y320415D01*
X232364Y320461D01*
X232265Y320507D01*
X232159Y320567D01*
X232067Y320636D01*
X231976Y320712D01*
X231968Y320720D01*
X231953Y320735D01*
X231930Y320758D01*
X231908Y320796D01*
X231870Y320834D01*
X231831Y320887D01*
X231786Y320948D01*
X231748Y321024D01*
X231702Y321100D01*
X231656Y321184D01*
X231588Y321374D01*
X231557Y321481D01*
X231535Y321587D01*
X231519Y321709D01*
X231512Y321831D01*
Y321838D01*
Y321853D01*
Y321876D01*
X231519Y321914D01*
Y321960D01*
X231527Y322006D01*
X231542Y322127D01*
X231573Y322257D01*
X231618Y322394D01*
X231679Y322538D01*
X231763Y322668D01*
Y322675D01*
X231778Y322683D01*
X231809Y322721D01*
X231870Y322782D01*
X231946Y322850D01*
X232052Y322926D01*
X232174Y323003D01*
X232318Y323071D01*
X232486Y323124D01*
X232478D01*
X232471Y323132D01*
X232425Y323155D01*
X232349Y323185D01*
X232265Y323231D01*
X232166Y323292D01*
X232075Y323360D01*
X231984Y323444D01*
X231900Y323535D01*
X231892Y323551D01*
X231870Y323581D01*
X231839Y323642D01*
X231809Y323718D01*
X231778Y323809D01*
X231748Y323916D01*
X231725Y324038D01*
X231717Y324167D01*
Y324174D01*
Y324190D01*
Y324220D01*
X231725Y324258D01*
X231733Y324311D01*
X231740Y324365D01*
X231770Y324494D01*
X231816Y324646D01*
X231885Y324806D01*
X231930Y324882D01*
X231984Y324958D01*
X232045Y325034D01*
X232113Y325111D01*
X232121Y325118D01*
X232128Y325126D01*
X232159Y325149D01*
X232189Y325171D01*
X232227Y325202D01*
X232273Y325232D01*
X232334Y325263D01*
X232402Y325301D01*
X232471Y325339D01*
X232554Y325369D01*
X232737Y325430D01*
X232950Y325476D01*
X233064Y325483D01*
X233186Y325491D01*
X233255D01*
X233300Y325483D01*
D02*
G37*
G36*
X374822Y441249D02*
X374896Y441237D01*
X374988Y441220D01*
X375085Y441197D01*
X375182Y441163D01*
X375285Y441117D01*
X375290D01*
X375296Y441112D01*
X375330Y441094D01*
X375376Y441060D01*
X375439Y441020D01*
X375502Y440969D01*
X375570Y440900D01*
X375639Y440832D01*
X375696Y440746D01*
X375701Y440735D01*
X375719Y440706D01*
X375742Y440660D01*
X375770Y440598D01*
X375793Y440523D01*
X375816Y440443D01*
X375833Y440352D01*
X375838Y440255D01*
Y440244D01*
Y440215D01*
X375833Y440164D01*
X375821Y440106D01*
X375804Y440032D01*
X375781Y439958D01*
X375747Y439878D01*
X375701Y439798D01*
X375696Y439787D01*
X375679Y439764D01*
X375644Y439730D01*
X375604Y439684D01*
X375547Y439633D01*
X375479Y439581D01*
X375399Y439524D01*
X375307Y439478D01*
X375313D01*
X375325Y439473D01*
X375342Y439467D01*
X375365Y439461D01*
X375422Y439438D01*
X375502Y439410D01*
X375582Y439364D01*
X375673Y439307D01*
X375759Y439239D01*
X375833Y439153D01*
X375838Y439142D01*
X375861Y439107D01*
X375896Y439056D01*
X375930Y438982D01*
X375964Y438896D01*
X375998Y438788D01*
X376021Y438668D01*
X376027Y438536D01*
Y438531D01*
Y438514D01*
Y438491D01*
X376021Y438451D01*
X376016Y438411D01*
X376010Y438359D01*
X375998Y438302D01*
X375981Y438239D01*
X375936Y438108D01*
X375907Y438039D01*
X375873Y437965D01*
X375827Y437891D01*
X375776Y437822D01*
X375719Y437754D01*
X375656Y437685D01*
X375650Y437680D01*
X375639Y437668D01*
X375616Y437651D01*
X375593Y437634D01*
X375553Y437606D01*
X375513Y437577D01*
X375462Y437543D01*
X375405Y437514D01*
X375342Y437480D01*
X375268Y437446D01*
X375193Y437417D01*
X375113Y437394D01*
X375022Y437371D01*
X374931Y437354D01*
X374834Y437343D01*
X374731Y437337D01*
X374679D01*
X374645Y437343D01*
X374605Y437349D01*
X374554Y437354D01*
X374497Y437360D01*
X374434Y437377D01*
X374303Y437411D01*
X374160Y437463D01*
X374091Y437497D01*
X374017Y437537D01*
X373949Y437583D01*
X373886Y437634D01*
X373880Y437640D01*
X373874Y437645D01*
X373857Y437663D01*
X373834Y437691D01*
X373806Y437720D01*
X373777Y437754D01*
X373749Y437800D01*
X373714Y437845D01*
X373646Y437960D01*
X373589Y438097D01*
X373537Y438251D01*
X373520Y438331D01*
X373509Y438422D01*
X373983Y438485D01*
Y438479D01*
X373989Y438468D01*
X373994Y438445D01*
X374000Y438416D01*
X374006Y438388D01*
X374017Y438348D01*
X374046Y438262D01*
X374086Y438165D01*
X374131Y438068D01*
X374188Y437977D01*
X374257Y437902D01*
X374268Y437897D01*
X374291Y437874D01*
X374331Y437845D01*
X374388Y437817D01*
X374457Y437783D01*
X374537Y437754D01*
X374628Y437731D01*
X374731Y437725D01*
X374765D01*
X374788Y437731D01*
X374851Y437737D01*
X374931Y437754D01*
X375016Y437783D01*
X375113Y437822D01*
X375205Y437880D01*
X375296Y437954D01*
X375307Y437965D01*
X375330Y437994D01*
X375370Y438045D01*
X375410Y438108D01*
X375450Y438194D01*
X375490Y438291D01*
X375513Y438399D01*
X375524Y438519D01*
Y438525D01*
Y438536D01*
Y438553D01*
X375519Y438576D01*
X375513Y438633D01*
X375496Y438708D01*
X375473Y438793D01*
X375433Y438885D01*
X375382Y438970D01*
X375307Y439056D01*
X375296Y439067D01*
X375268Y439090D01*
X375222Y439124D01*
X375159Y439164D01*
X375085Y439199D01*
X374993Y439233D01*
X374885Y439256D01*
X374771Y439267D01*
X374719D01*
X374679Y439261D01*
X374634Y439256D01*
X374577Y439244D01*
X374514Y439233D01*
X374440Y439216D01*
X374491Y439633D01*
X374519D01*
X374542Y439627D01*
X374617D01*
X374674Y439633D01*
X374748Y439644D01*
X374834Y439667D01*
X374919Y439690D01*
X375016Y439730D01*
X375108Y439781D01*
X375113D01*
X375119Y439787D01*
X375148Y439810D01*
X375188Y439850D01*
X375233Y439901D01*
X375273Y439969D01*
X375313Y440055D01*
X375342Y440152D01*
X375353Y440209D01*
Y440266D01*
Y440272D01*
Y440278D01*
Y440312D01*
X375342Y440358D01*
X375330Y440415D01*
X375307Y440483D01*
X375279Y440558D01*
X375233Y440626D01*
X375176Y440695D01*
X375170Y440700D01*
X375142Y440723D01*
X375108Y440752D01*
X375051Y440780D01*
X374988Y440815D01*
X374908Y440837D01*
X374822Y440860D01*
X374719Y440866D01*
X374674D01*
X374622Y440855D01*
X374559Y440843D01*
X374485Y440820D01*
X374411Y440792D01*
X374337Y440746D01*
X374263Y440689D01*
X374257Y440683D01*
X374234Y440655D01*
X374200Y440615D01*
X374166Y440563D01*
X374126Y440489D01*
X374086Y440398D01*
X374051Y440295D01*
X374028Y440175D01*
X373555Y440261D01*
Y440266D01*
X373560Y440284D01*
X373566Y440306D01*
X373572Y440341D01*
X373583Y440375D01*
X373600Y440421D01*
X373635Y440529D01*
X373686Y440643D01*
X373754Y440769D01*
X373840Y440883D01*
X373943Y440992D01*
X373949Y440997D01*
X373960Y441003D01*
X373977Y441014D01*
X374000Y441032D01*
X374028Y441054D01*
X374063Y441077D01*
X374108Y441100D01*
X374154Y441123D01*
X374263Y441169D01*
X374394Y441214D01*
X374542Y441243D01*
X374622Y441254D01*
X374759D01*
X374822Y441249D01*
D02*
G37*
G36*
X441247Y441137D02*
X441293D01*
X441390Y441126D01*
X441504Y441114D01*
X441619Y441091D01*
X441739Y441063D01*
X441841Y441023D01*
X441847D01*
X441853Y441017D01*
X441887Y441000D01*
X441933Y440972D01*
X441995Y440937D01*
X442064Y440886D01*
X442133Y440823D01*
X442195Y440749D01*
X442258Y440663D01*
X442264Y440652D01*
X442281Y440623D01*
X442310Y440572D01*
X442338Y440509D01*
X442361Y440435D01*
X442389Y440349D01*
X442407Y440252D01*
X442412Y440155D01*
Y440144D01*
Y440115D01*
X442407Y440064D01*
X442395Y440006D01*
X442378Y439932D01*
X442355Y439858D01*
X442321Y439772D01*
X442275Y439692D01*
X442270Y439681D01*
X442252Y439658D01*
X442218Y439618D01*
X442178Y439567D01*
X442121Y439510D01*
X442047Y439453D01*
X441967Y439396D01*
X441870Y439344D01*
X441876D01*
X441887Y439338D01*
X441904Y439333D01*
X441927Y439327D01*
X441990Y439298D01*
X442070Y439264D01*
X442155Y439213D01*
X442241Y439150D01*
X442332Y439076D01*
X442407Y438990D01*
X442412Y438979D01*
X442435Y438944D01*
X442469Y438893D01*
X442504Y438825D01*
X442538Y438739D01*
X442572Y438642D01*
X442595Y438533D01*
X442601Y438413D01*
Y438408D01*
Y438402D01*
Y438368D01*
X442595Y438316D01*
X442589Y438248D01*
X442572Y438168D01*
X442555Y438082D01*
X442526Y437997D01*
X442486Y437905D01*
X442481Y437894D01*
X442464Y437865D01*
X442441Y437825D01*
X442407Y437774D01*
X442367Y437717D01*
X442321Y437660D01*
X442264Y437603D01*
X442201Y437551D01*
X442195Y437545D01*
X442172Y437528D01*
X442133Y437506D01*
X442087Y437483D01*
X442024Y437449D01*
X441956Y437420D01*
X441870Y437391D01*
X441778Y437363D01*
X441767D01*
X441733Y437351D01*
X441681Y437346D01*
X441607Y437334D01*
X441516Y437323D01*
X441413Y437311D01*
X441293Y437306D01*
X441162Y437300D01*
X439700D01*
Y441143D01*
X441213D01*
X441247Y441137D01*
D02*
G37*
G36*
X445096Y438653D02*
X445616D01*
Y438219D01*
X445096D01*
Y437300D01*
X444622D01*
Y438219D01*
X442949D01*
Y438653D01*
X444713Y441143D01*
X445096D01*
Y438653D01*
D02*
G37*
G36*
X305174Y441149D02*
X305219Y441143D01*
X305276Y441137D01*
X305333Y441131D01*
X305402Y441114D01*
X305539Y441080D01*
X305687Y441023D01*
X305756Y440989D01*
X305824Y440949D01*
X305893Y440903D01*
X305956Y440846D01*
X305961Y440840D01*
X305967Y440835D01*
X305984Y440817D01*
X306007Y440789D01*
X306030Y440760D01*
X306059Y440726D01*
X306087Y440680D01*
X306121Y440635D01*
X306178Y440526D01*
X306230Y440395D01*
X306253Y440326D01*
X306270Y440246D01*
X306276Y440172D01*
X306281Y440087D01*
Y440075D01*
Y440047D01*
X306276Y440001D01*
X306270Y439944D01*
X306259Y439869D01*
X306241Y439795D01*
X306219Y439715D01*
X306184Y439630D01*
X306178Y439618D01*
X306167Y439590D01*
X306144Y439550D01*
X306110Y439493D01*
X306064Y439418D01*
X306013Y439338D01*
X305944Y439253D01*
X305870Y439161D01*
X305859Y439150D01*
X305830Y439116D01*
X305807Y439093D01*
X305773Y439059D01*
X305739Y439024D01*
X305699Y438984D01*
X305653Y438939D01*
X305596Y438887D01*
X305539Y438836D01*
X305470Y438773D01*
X305402Y438710D01*
X305322Y438642D01*
X305236Y438568D01*
X305145Y438488D01*
X305139Y438482D01*
X305128Y438471D01*
X305105Y438453D01*
X305077Y438431D01*
X305008Y438368D01*
X304917Y438294D01*
X304825Y438214D01*
X304740Y438134D01*
X304660Y438059D01*
X304631Y438031D01*
X304603Y438002D01*
X304597Y437997D01*
X304585Y437980D01*
X304563Y437957D01*
X304534Y437922D01*
X304500Y437888D01*
X304466Y437843D01*
X304403Y437751D01*
X306287D01*
Y437300D01*
X303746D01*
Y437306D01*
Y437328D01*
Y437363D01*
X303752Y437403D01*
X303758Y437454D01*
X303763Y437506D01*
X303780Y437568D01*
X303797Y437626D01*
Y437631D01*
X303803Y437637D01*
X303815Y437671D01*
X303837Y437722D01*
X303872Y437785D01*
X303917Y437865D01*
X303969Y437951D01*
X304032Y438042D01*
X304106Y438134D01*
Y438139D01*
X304117Y438145D01*
X304146Y438179D01*
X304197Y438231D01*
X304266Y438299D01*
X304351Y438385D01*
X304460Y438488D01*
X304585Y438596D01*
X304728Y438716D01*
X304734Y438722D01*
X304757Y438739D01*
X304785Y438767D01*
X304831Y438802D01*
X304882Y438842D01*
X304939Y438893D01*
X305065Y439013D01*
X305208Y439139D01*
X305345Y439276D01*
X305413Y439344D01*
X305470Y439407D01*
X305528Y439470D01*
X305573Y439527D01*
Y439533D01*
X305585Y439538D01*
X305596Y439556D01*
X305608Y439578D01*
X305642Y439635D01*
X305687Y439710D01*
X305727Y439801D01*
X305762Y439898D01*
X305785Y439995D01*
X305796Y440098D01*
Y440104D01*
Y440109D01*
X305790Y440144D01*
X305785Y440195D01*
X305773Y440264D01*
X305745Y440338D01*
X305710Y440418D01*
X305659Y440498D01*
X305590Y440572D01*
X305579Y440578D01*
X305556Y440600D01*
X305510Y440635D01*
X305453Y440669D01*
X305373Y440703D01*
X305288Y440737D01*
X305185Y440760D01*
X305071Y440766D01*
X305036D01*
X305014Y440760D01*
X304951Y440755D01*
X304877Y440737D01*
X304785Y440715D01*
X304694Y440675D01*
X304603Y440623D01*
X304523Y440555D01*
X304517Y440543D01*
X304494Y440515D01*
X304460Y440469D01*
X304426Y440406D01*
X304386Y440326D01*
X304357Y440229D01*
X304334Y440115D01*
X304323Y439989D01*
X303837Y440041D01*
Y440047D01*
Y440064D01*
X303843Y440092D01*
X303849Y440132D01*
X303860Y440178D01*
X303872Y440229D01*
X303900Y440349D01*
X303946Y440481D01*
X304014Y440618D01*
X304054Y440686D01*
X304100Y440749D01*
X304152Y440812D01*
X304209Y440869D01*
X304214Y440874D01*
X304226Y440880D01*
X304243Y440897D01*
X304266Y440914D01*
X304300Y440937D01*
X304340Y440960D01*
X304386Y440983D01*
X304443Y441011D01*
X304500Y441040D01*
X304563Y441063D01*
X304637Y441086D01*
X304717Y441109D01*
X304797Y441126D01*
X304888Y441143D01*
X304979Y441149D01*
X305082Y441154D01*
X305134D01*
X305174Y441149D01*
D02*
G37*
G36*
X371647Y441237D02*
X371693D01*
X371790Y441226D01*
X371904Y441214D01*
X372019Y441191D01*
X372139Y441163D01*
X372241Y441123D01*
X372247D01*
X372253Y441117D01*
X372287Y441100D01*
X372333Y441072D01*
X372395Y441037D01*
X372464Y440986D01*
X372533Y440923D01*
X372595Y440849D01*
X372658Y440763D01*
X372664Y440752D01*
X372681Y440723D01*
X372709Y440672D01*
X372738Y440609D01*
X372761Y440535D01*
X372789Y440449D01*
X372807Y440352D01*
X372812Y440255D01*
Y440244D01*
Y440215D01*
X372807Y440164D01*
X372795Y440106D01*
X372778Y440032D01*
X372755Y439958D01*
X372721Y439872D01*
X372675Y439792D01*
X372670Y439781D01*
X372652Y439758D01*
X372618Y439718D01*
X372578Y439667D01*
X372521Y439610D01*
X372447Y439553D01*
X372367Y439496D01*
X372270Y439444D01*
X372275D01*
X372287Y439438D01*
X372304Y439433D01*
X372327Y439427D01*
X372390Y439398D01*
X372470Y439364D01*
X372555Y439313D01*
X372641Y439250D01*
X372732Y439176D01*
X372807Y439090D01*
X372812Y439079D01*
X372835Y439045D01*
X372869Y438993D01*
X372904Y438925D01*
X372938Y438839D01*
X372972Y438742D01*
X372995Y438633D01*
X373001Y438514D01*
Y438508D01*
Y438502D01*
Y438468D01*
X372995Y438416D01*
X372989Y438348D01*
X372972Y438268D01*
X372955Y438182D01*
X372926Y438097D01*
X372886Y438005D01*
X372881Y437994D01*
X372864Y437965D01*
X372841Y437925D01*
X372807Y437874D01*
X372767Y437817D01*
X372721Y437760D01*
X372664Y437703D01*
X372601Y437651D01*
X372595Y437645D01*
X372572Y437628D01*
X372533Y437606D01*
X372487Y437583D01*
X372424Y437548D01*
X372356Y437520D01*
X372270Y437491D01*
X372178Y437463D01*
X372167D01*
X372133Y437451D01*
X372081Y437446D01*
X372007Y437434D01*
X371916Y437423D01*
X371813Y437411D01*
X371693Y437406D01*
X371562Y437400D01*
X370100D01*
Y441243D01*
X371613D01*
X371647Y441237D01*
D02*
G37*
G36*
X719947D02*
X719993D01*
X720090Y441226D01*
X720204Y441214D01*
X720319Y441191D01*
X720438Y441163D01*
X720541Y441123D01*
X720547D01*
X720553Y441117D01*
X720587Y441100D01*
X720633Y441072D01*
X720695Y441037D01*
X720764Y440986D01*
X720832Y440923D01*
X720895Y440849D01*
X720958Y440763D01*
X720964Y440752D01*
X720981Y440723D01*
X721009Y440672D01*
X721038Y440609D01*
X721061Y440535D01*
X721089Y440449D01*
X721106Y440352D01*
X721112Y440255D01*
Y440244D01*
Y440215D01*
X721106Y440164D01*
X721095Y440106D01*
X721078Y440032D01*
X721055Y439958D01*
X721021Y439872D01*
X720975Y439792D01*
X720969Y439781D01*
X720952Y439758D01*
X720918Y439718D01*
X720878Y439667D01*
X720821Y439610D01*
X720747Y439553D01*
X720667Y439496D01*
X720570Y439444D01*
X720576D01*
X720587Y439438D01*
X720604Y439433D01*
X720627Y439427D01*
X720690Y439398D01*
X720770Y439364D01*
X720855Y439313D01*
X720941Y439250D01*
X721032Y439176D01*
X721106Y439090D01*
X721112Y439079D01*
X721135Y439045D01*
X721169Y438993D01*
X721204Y438925D01*
X721238Y438839D01*
X721272Y438742D01*
X721295Y438633D01*
X721301Y438514D01*
Y438508D01*
Y438502D01*
Y438468D01*
X721295Y438416D01*
X721289Y438348D01*
X721272Y438268D01*
X721255Y438182D01*
X721227Y438097D01*
X721186Y438005D01*
X721181Y437994D01*
X721164Y437965D01*
X721141Y437925D01*
X721106Y437874D01*
X721067Y437817D01*
X721021Y437760D01*
X720964Y437703D01*
X720901Y437651D01*
X720895Y437645D01*
X720872Y437628D01*
X720832Y437606D01*
X720787Y437583D01*
X720724Y437548D01*
X720655Y437520D01*
X720570Y437491D01*
X720478Y437463D01*
X720467D01*
X720433Y437451D01*
X720381Y437446D01*
X720307Y437434D01*
X720216Y437423D01*
X720113Y437411D01*
X719993Y437406D01*
X719862Y437400D01*
X718400D01*
Y441243D01*
X719913D01*
X719947Y441237D01*
D02*
G37*
G36*
X723145Y441249D02*
X723185Y441243D01*
X723236Y441237D01*
X723351Y441220D01*
X723476Y441180D01*
X723613Y441129D01*
X723682Y441094D01*
X723745Y441054D01*
X723813Y441009D01*
X723870Y440957D01*
X723876Y440952D01*
X723882Y440946D01*
X723899Y440929D01*
X723916Y440906D01*
X723944Y440877D01*
X723967Y440843D01*
X724024Y440758D01*
X724082Y440655D01*
X724133Y440535D01*
X724167Y440398D01*
X724173Y440323D01*
X724179Y440249D01*
Y440244D01*
Y440238D01*
Y440204D01*
X724173Y440152D01*
X724161Y440089D01*
X724144Y440015D01*
X724116Y439941D01*
X724082Y439861D01*
X724036Y439781D01*
X724030Y439775D01*
X724007Y439747D01*
X723973Y439713D01*
X723927Y439673D01*
X723870Y439621D01*
X723796Y439570D01*
X723710Y439524D01*
X723607Y439478D01*
X723613D01*
X723625Y439473D01*
X723642Y439467D01*
X723665Y439456D01*
X723733Y439427D01*
X723813Y439387D01*
X723899Y439336D01*
X723990Y439273D01*
X724076Y439199D01*
X724150Y439107D01*
X724156Y439096D01*
X724179Y439062D01*
X724207Y439010D01*
X724247Y438936D01*
X724281Y438845D01*
X724310Y438742D01*
X724333Y438622D01*
X724338Y438496D01*
Y438491D01*
Y438474D01*
Y438451D01*
X724333Y438416D01*
X724327Y438371D01*
X724321Y438325D01*
X724310Y438268D01*
X724293Y438211D01*
X724253Y438080D01*
X724224Y438011D01*
X724190Y437943D01*
X724150Y437868D01*
X724099Y437800D01*
X724047Y437731D01*
X723984Y437668D01*
X723979Y437663D01*
X723967Y437657D01*
X723950Y437640D01*
X723922Y437617D01*
X723887Y437594D01*
X723847Y437566D01*
X723796Y437531D01*
X723739Y437503D01*
X723676Y437474D01*
X723607Y437440D01*
X723533Y437411D01*
X723453Y437389D01*
X723368Y437366D01*
X723271Y437354D01*
X723174Y437343D01*
X723071Y437337D01*
X723014D01*
X722974Y437343D01*
X722928Y437349D01*
X722871Y437354D01*
X722808Y437366D01*
X722740Y437377D01*
X722597Y437417D01*
X722517Y437446D01*
X722443Y437480D01*
X722368Y437514D01*
X722289Y437560D01*
X722220Y437611D01*
X722152Y437668D01*
X722146Y437674D01*
X722134Y437685D01*
X722117Y437703D01*
X722100Y437731D01*
X722072Y437760D01*
X722043Y437800D01*
X722009Y437845D01*
X721980Y437902D01*
X721946Y437960D01*
X721912Y438022D01*
X721860Y438165D01*
X721837Y438245D01*
X721820Y438325D01*
X721809Y438416D01*
X721803Y438508D01*
Y438514D01*
Y438525D01*
Y438542D01*
X721809Y438571D01*
Y438605D01*
X721815Y438639D01*
X721826Y438730D01*
X721849Y438828D01*
X721883Y438930D01*
X721929Y439039D01*
X721992Y439136D01*
Y439142D01*
X722003Y439147D01*
X722026Y439176D01*
X722072Y439221D01*
X722129Y439273D01*
X722209Y439330D01*
X722300Y439387D01*
X722408Y439438D01*
X722534Y439478D01*
X722528D01*
X722523Y439484D01*
X722488Y439501D01*
X722431Y439524D01*
X722368Y439558D01*
X722294Y439604D01*
X722226Y439655D01*
X722157Y439718D01*
X722094Y439787D01*
X722089Y439798D01*
X722072Y439821D01*
X722049Y439867D01*
X722026Y439924D01*
X722003Y439992D01*
X721980Y440072D01*
X721963Y440164D01*
X721957Y440261D01*
Y440266D01*
Y440278D01*
Y440301D01*
X721963Y440329D01*
X721969Y440369D01*
X721975Y440409D01*
X721997Y440506D01*
X722032Y440620D01*
X722083Y440740D01*
X722117Y440798D01*
X722157Y440855D01*
X722203Y440912D01*
X722254Y440969D01*
X722260Y440975D01*
X722266Y440980D01*
X722289Y440997D01*
X722311Y441014D01*
X722340Y441037D01*
X722374Y441060D01*
X722420Y441083D01*
X722471Y441112D01*
X722523Y441140D01*
X722585Y441163D01*
X722722Y441209D01*
X722882Y441243D01*
X722968Y441249D01*
X723059Y441254D01*
X723111D01*
X723145Y441249D01*
D02*
G37*
G36*
X515173Y440740D02*
X513643D01*
X513437Y439707D01*
X513443Y439713D01*
X513454Y439718D01*
X513471Y439730D01*
X513494Y439747D01*
X513528Y439764D01*
X513563Y439787D01*
X513654Y439832D01*
X513762Y439872D01*
X513888Y439912D01*
X514019Y439941D01*
X514088Y439952D01*
X514208D01*
X514242Y439947D01*
X514282Y439941D01*
X514333Y439935D01*
X514391Y439924D01*
X514453Y439907D01*
X514585Y439867D01*
X514653Y439838D01*
X514727Y439804D01*
X514802Y439764D01*
X514870Y439713D01*
X514939Y439661D01*
X515007Y439598D01*
X515013Y439593D01*
X515024Y439581D01*
X515041Y439564D01*
X515064Y439536D01*
X515087Y439501D01*
X515116Y439461D01*
X515150Y439410D01*
X515184Y439359D01*
X515213Y439296D01*
X515247Y439227D01*
X515276Y439153D01*
X515304Y439073D01*
X515321Y438987D01*
X515338Y438896D01*
X515350Y438805D01*
X515355Y438702D01*
Y438696D01*
Y438679D01*
Y438651D01*
X515350Y438616D01*
X515344Y438571D01*
X515338Y438519D01*
X515333Y438456D01*
X515316Y438393D01*
X515281Y438251D01*
X515224Y438102D01*
X515190Y438022D01*
X515150Y437948D01*
X515104Y437874D01*
X515047Y437800D01*
X515041Y437794D01*
X515030Y437783D01*
X515007Y437760D01*
X514979Y437725D01*
X514944Y437691D01*
X514899Y437651D01*
X514847Y437611D01*
X514784Y437571D01*
X514716Y437526D01*
X514642Y437486D01*
X514556Y437446D01*
X514470Y437411D01*
X514373Y437383D01*
X514271Y437360D01*
X514156Y437343D01*
X514042Y437337D01*
X513991D01*
X513957Y437343D01*
X513911Y437349D01*
X513860Y437354D01*
X513802Y437360D01*
X513740Y437371D01*
X513603Y437406D01*
X513460Y437463D01*
X513386Y437491D01*
X513317Y437531D01*
X513248Y437577D01*
X513186Y437628D01*
X513180Y437634D01*
X513174Y437640D01*
X513157Y437657D01*
X513134Y437680D01*
X513106Y437708D01*
X513077Y437748D01*
X513049Y437788D01*
X513014Y437834D01*
X512980Y437891D01*
X512946Y437948D01*
X512889Y438080D01*
X512837Y438234D01*
X512820Y438319D01*
X512809Y438411D01*
X513306Y438445D01*
Y438439D01*
Y438428D01*
X513311Y438411D01*
X513317Y438388D01*
X513334Y438319D01*
X513357Y438245D01*
X513391Y438154D01*
X513431Y438062D01*
X513488Y437977D01*
X513557Y437902D01*
X513568Y437897D01*
X513591Y437874D01*
X513637Y437845D01*
X513694Y437817D01*
X513762Y437783D01*
X513848Y437754D01*
X513940Y437731D01*
X514042Y437725D01*
X514077D01*
X514099Y437731D01*
X514162Y437737D01*
X514242Y437760D01*
X514333Y437788D01*
X514431Y437834D01*
X514528Y437897D01*
X514573Y437937D01*
X514619Y437982D01*
Y437988D01*
X514630Y437994D01*
X514642Y438011D01*
X514653Y438028D01*
X514693Y438085D01*
X514739Y438165D01*
X514779Y438262D01*
X514819Y438376D01*
X514842Y438514D01*
X514853Y438662D01*
Y438668D01*
Y438679D01*
Y438702D01*
X514847Y438730D01*
Y438765D01*
X514842Y438805D01*
X514824Y438896D01*
X514796Y438999D01*
X514756Y439102D01*
X514699Y439204D01*
X514625Y439301D01*
X514613Y439313D01*
X514585Y439336D01*
X514533Y439376D01*
X514465Y439421D01*
X514385Y439461D01*
X514282Y439501D01*
X514162Y439524D01*
X514031Y439536D01*
X513991D01*
X513951Y439530D01*
X513894Y439524D01*
X513831Y439507D01*
X513762Y439490D01*
X513688Y439461D01*
X513620Y439427D01*
X513614Y439421D01*
X513591Y439410D01*
X513557Y439381D01*
X513517Y439353D01*
X513471Y439313D01*
X513426Y439267D01*
X513380Y439210D01*
X513340Y439153D01*
X512894Y439216D01*
X513266Y441191D01*
X515173D01*
Y440740D01*
D02*
G37*
G36*
X583942Y441249D02*
X583982D01*
X584028Y441243D01*
X584130Y441220D01*
X584250Y441191D01*
X584376Y441146D01*
X584496Y441083D01*
X584553Y441043D01*
X584610Y440997D01*
X584616D01*
X584622Y440986D01*
X584639Y440969D01*
X584656Y440952D01*
X584707Y440895D01*
X584764Y440815D01*
X584827Y440712D01*
X584884Y440592D01*
X584930Y440455D01*
X584964Y440295D01*
X584496Y440261D01*
Y440266D01*
X584490Y440272D01*
X584484Y440306D01*
X584467Y440352D01*
X584450Y440415D01*
X584422Y440478D01*
X584387Y440546D01*
X584353Y440609D01*
X584313Y440660D01*
X584302Y440672D01*
X584279Y440695D01*
X584239Y440723D01*
X584182Y440763D01*
X584113Y440803D01*
X584033Y440832D01*
X583942Y440855D01*
X583839Y440866D01*
X583799D01*
X583759Y440860D01*
X583702Y440849D01*
X583639Y440837D01*
X583577Y440815D01*
X583508Y440780D01*
X583440Y440740D01*
X583428Y440735D01*
X583405Y440712D01*
X583360Y440672D01*
X583314Y440620D01*
X583257Y440552D01*
X583194Y440466D01*
X583137Y440369D01*
X583086Y440261D01*
Y440255D01*
X583080Y440249D01*
X583074Y440227D01*
X583063Y440204D01*
X583057Y440169D01*
X583046Y440135D01*
X583034Y440089D01*
X583023Y440032D01*
X583006Y439975D01*
X582994Y439907D01*
X582983Y439838D01*
X582977Y439758D01*
X582966Y439673D01*
X582960Y439581D01*
X582954Y439478D01*
Y439381D01*
X582960Y439387D01*
X582983Y439416D01*
X583017Y439461D01*
X583069Y439518D01*
X583126Y439581D01*
X583200Y439644D01*
X583280Y439707D01*
X583365Y439758D01*
X583371D01*
X583377Y439764D01*
X583411Y439781D01*
X583457Y439798D01*
X583525Y439827D01*
X583605Y439850D01*
X583691Y439867D01*
X583788Y439884D01*
X583885Y439890D01*
X583931D01*
X583965Y439884D01*
X584005Y439878D01*
X584051Y439872D01*
X584165Y439844D01*
X584290Y439804D01*
X584359Y439775D01*
X584427Y439741D01*
X584490Y439701D01*
X584559Y439655D01*
X584627Y439604D01*
X584690Y439541D01*
X584696Y439536D01*
X584707Y439524D01*
X584719Y439507D01*
X584741Y439478D01*
X584770Y439444D01*
X584799Y439404D01*
X584827Y439353D01*
X584861Y439301D01*
X584890Y439239D01*
X584918Y439170D01*
X584947Y439096D01*
X584976Y439016D01*
X584998Y438930D01*
X585010Y438839D01*
X585021Y438748D01*
X585027Y438645D01*
Y438639D01*
Y438628D01*
Y438611D01*
Y438582D01*
X585021Y438553D01*
Y438514D01*
X585010Y438428D01*
X584987Y438325D01*
X584959Y438211D01*
X584918Y438091D01*
X584867Y437971D01*
Y437965D01*
X584861Y437960D01*
X584850Y437943D01*
X584839Y437920D01*
X584804Y437862D01*
X584759Y437794D01*
X584696Y437720D01*
X584622Y437640D01*
X584536Y437566D01*
X584439Y437497D01*
X584433D01*
X584427Y437491D01*
X584410Y437480D01*
X584393Y437474D01*
X584336Y437446D01*
X584262Y437417D01*
X584170Y437389D01*
X584062Y437360D01*
X583948Y437343D01*
X583822Y437337D01*
X583794D01*
X583765Y437343D01*
X583725D01*
X583674Y437349D01*
X583617Y437360D01*
X583548Y437371D01*
X583480Y437389D01*
X583405Y437411D01*
X583325Y437440D01*
X583246Y437474D01*
X583166Y437520D01*
X583086Y437566D01*
X583006Y437623D01*
X582931Y437691D01*
X582857Y437765D01*
X582852Y437771D01*
X582840Y437788D01*
X582823Y437811D01*
X582800Y437851D01*
X582771Y437897D01*
X582737Y437954D01*
X582709Y438028D01*
X582675Y438108D01*
X582634Y438199D01*
X582606Y438302D01*
X582572Y438422D01*
X582543Y438553D01*
X582520Y438691D01*
X582503Y438845D01*
X582492Y439016D01*
X582486Y439193D01*
Y439199D01*
Y439204D01*
Y439221D01*
Y439244D01*
X582492Y439301D01*
Y439376D01*
X582498Y439467D01*
X582509Y439570D01*
X582520Y439690D01*
X582537Y439815D01*
X582560Y439947D01*
X582589Y440078D01*
X582617Y440215D01*
X582657Y440346D01*
X582709Y440478D01*
X582760Y440598D01*
X582823Y440712D01*
X582897Y440815D01*
X582903Y440820D01*
X582914Y440832D01*
X582937Y440855D01*
X582966Y440883D01*
X583000Y440917D01*
X583046Y440952D01*
X583097Y440992D01*
X583154Y441037D01*
X583217Y441077D01*
X583291Y441117D01*
X583371Y441152D01*
X583457Y441186D01*
X583554Y441214D01*
X583651Y441237D01*
X583754Y441249D01*
X583868Y441254D01*
X583914D01*
X583942Y441249D01*
D02*
G37*
G36*
X580647Y441237D02*
X580693D01*
X580790Y441226D01*
X580904Y441214D01*
X581019Y441191D01*
X581139Y441163D01*
X581241Y441123D01*
X581247D01*
X581253Y441117D01*
X581287Y441100D01*
X581333Y441072D01*
X581395Y441037D01*
X581464Y440986D01*
X581532Y440923D01*
X581595Y440849D01*
X581658Y440763D01*
X581664Y440752D01*
X581681Y440723D01*
X581709Y440672D01*
X581738Y440609D01*
X581761Y440535D01*
X581789Y440449D01*
X581807Y440352D01*
X581812Y440255D01*
Y440244D01*
Y440215D01*
X581807Y440164D01*
X581795Y440106D01*
X581778Y440032D01*
X581755Y439958D01*
X581721Y439872D01*
X581675Y439792D01*
X581670Y439781D01*
X581652Y439758D01*
X581618Y439718D01*
X581578Y439667D01*
X581521Y439610D01*
X581447Y439553D01*
X581367Y439496D01*
X581270Y439444D01*
X581276D01*
X581287Y439438D01*
X581304Y439433D01*
X581327Y439427D01*
X581390Y439398D01*
X581470Y439364D01*
X581555Y439313D01*
X581641Y439250D01*
X581732Y439176D01*
X581807Y439090D01*
X581812Y439079D01*
X581835Y439045D01*
X581869Y438993D01*
X581904Y438925D01*
X581938Y438839D01*
X581972Y438742D01*
X581995Y438633D01*
X582001Y438514D01*
Y438508D01*
Y438502D01*
Y438468D01*
X581995Y438416D01*
X581989Y438348D01*
X581972Y438268D01*
X581955Y438182D01*
X581926Y438097D01*
X581886Y438005D01*
X581881Y437994D01*
X581864Y437965D01*
X581841Y437925D01*
X581807Y437874D01*
X581767Y437817D01*
X581721Y437760D01*
X581664Y437703D01*
X581601Y437651D01*
X581595Y437645D01*
X581572Y437628D01*
X581532Y437606D01*
X581487Y437583D01*
X581424Y437548D01*
X581355Y437520D01*
X581270Y437491D01*
X581178Y437463D01*
X581167D01*
X581133Y437451D01*
X581081Y437446D01*
X581007Y437434D01*
X580916Y437423D01*
X580813Y437411D01*
X580693Y437406D01*
X580562Y437400D01*
X579100D01*
Y441243D01*
X580613D01*
X580647Y441237D01*
D02*
G37*
G36*
X654627Y440726D02*
X654621Y440720D01*
X654610Y440709D01*
X654593Y440686D01*
X654564Y440652D01*
X654530Y440618D01*
X654490Y440566D01*
X654444Y440509D01*
X654399Y440446D01*
X654342Y440378D01*
X654284Y440298D01*
X654227Y440212D01*
X654165Y440121D01*
X654096Y440018D01*
X654033Y439915D01*
X653965Y439801D01*
X653896Y439681D01*
X653890Y439675D01*
X653879Y439652D01*
X653862Y439618D01*
X653839Y439573D01*
X653805Y439510D01*
X653770Y439441D01*
X653730Y439361D01*
X653690Y439276D01*
X653645Y439179D01*
X653599Y439076D01*
X653553Y438967D01*
X653508Y438847D01*
X653416Y438608D01*
X653336Y438356D01*
Y438351D01*
X653331Y438334D01*
X653325Y438311D01*
X653314Y438271D01*
X653302Y438225D01*
X653291Y438174D01*
X653274Y438111D01*
X653262Y438042D01*
X653245Y437968D01*
X653228Y437888D01*
X653199Y437705D01*
X653177Y437511D01*
X653160Y437300D01*
X652674D01*
Y437306D01*
Y437323D01*
Y437346D01*
X652680Y437380D01*
Y437426D01*
X652686Y437477D01*
X652691Y437540D01*
X652697Y437608D01*
X652708Y437683D01*
X652720Y437762D01*
X652737Y437854D01*
X652754Y437951D01*
X652771Y438054D01*
X652794Y438162D01*
X652851Y438391D01*
Y438396D01*
X652857Y438419D01*
X652868Y438453D01*
X652885Y438499D01*
X652903Y438556D01*
X652920Y438625D01*
X652948Y438705D01*
X652977Y438790D01*
X653011Y438882D01*
X653045Y438979D01*
X653131Y439184D01*
X653228Y439407D01*
X653336Y439630D01*
X653342Y439635D01*
X653354Y439658D01*
X653371Y439687D01*
X653394Y439733D01*
X653422Y439784D01*
X653456Y439841D01*
X653496Y439910D01*
X653542Y439984D01*
X653645Y440138D01*
X653759Y440309D01*
X653890Y440481D01*
X654022Y440640D01*
X652137D01*
Y441091D01*
X654627D01*
Y440726D01*
D02*
G37*
G36*
X650247Y441137D02*
X650293D01*
X650390Y441126D01*
X650504Y441114D01*
X650619Y441091D01*
X650738Y441063D01*
X650841Y441023D01*
X650847D01*
X650853Y441017D01*
X650887Y441000D01*
X650933Y440972D01*
X650995Y440937D01*
X651064Y440886D01*
X651132Y440823D01*
X651195Y440749D01*
X651258Y440663D01*
X651264Y440652D01*
X651281Y440623D01*
X651309Y440572D01*
X651338Y440509D01*
X651361Y440435D01*
X651389Y440349D01*
X651406Y440252D01*
X651412Y440155D01*
Y440144D01*
Y440115D01*
X651406Y440064D01*
X651395Y440006D01*
X651378Y439932D01*
X651355Y439858D01*
X651321Y439772D01*
X651275Y439692D01*
X651269Y439681D01*
X651252Y439658D01*
X651218Y439618D01*
X651178Y439567D01*
X651121Y439510D01*
X651047Y439453D01*
X650967Y439396D01*
X650870Y439344D01*
X650876D01*
X650887Y439338D01*
X650904Y439333D01*
X650927Y439327D01*
X650990Y439298D01*
X651070Y439264D01*
X651155Y439213D01*
X651241Y439150D01*
X651332Y439076D01*
X651406Y438990D01*
X651412Y438979D01*
X651435Y438944D01*
X651469Y438893D01*
X651504Y438825D01*
X651538Y438739D01*
X651572Y438642D01*
X651595Y438533D01*
X651601Y438413D01*
Y438408D01*
Y438402D01*
Y438368D01*
X651595Y438316D01*
X651589Y438248D01*
X651572Y438168D01*
X651555Y438082D01*
X651526Y437997D01*
X651486Y437905D01*
X651481Y437894D01*
X651464Y437865D01*
X651441Y437825D01*
X651406Y437774D01*
X651367Y437717D01*
X651321Y437660D01*
X651264Y437603D01*
X651201Y437551D01*
X651195Y437545D01*
X651172Y437528D01*
X651132Y437506D01*
X651087Y437483D01*
X651024Y437449D01*
X650955Y437420D01*
X650870Y437391D01*
X650778Y437363D01*
X650767D01*
X650733Y437351D01*
X650681Y437346D01*
X650607Y437334D01*
X650516Y437323D01*
X650413Y437311D01*
X650293Y437306D01*
X650162Y437300D01*
X648700D01*
Y441143D01*
X650213D01*
X650247Y441137D01*
D02*
G37*
G36*
X510947Y441237D02*
X510993D01*
X511090Y441226D01*
X511204Y441214D01*
X511319Y441191D01*
X511439Y441163D01*
X511541Y441123D01*
X511547D01*
X511553Y441117D01*
X511587Y441100D01*
X511633Y441072D01*
X511695Y441037D01*
X511764Y440986D01*
X511833Y440923D01*
X511895Y440849D01*
X511958Y440763D01*
X511964Y440752D01*
X511981Y440723D01*
X512009Y440672D01*
X512038Y440609D01*
X512061Y440535D01*
X512089Y440449D01*
X512107Y440352D01*
X512112Y440255D01*
Y440244D01*
Y440215D01*
X512107Y440164D01*
X512095Y440106D01*
X512078Y440032D01*
X512055Y439958D01*
X512021Y439872D01*
X511975Y439792D01*
X511970Y439781D01*
X511952Y439758D01*
X511918Y439718D01*
X511878Y439667D01*
X511821Y439610D01*
X511747Y439553D01*
X511667Y439496D01*
X511570Y439444D01*
X511576D01*
X511587Y439438D01*
X511604Y439433D01*
X511627Y439427D01*
X511690Y439398D01*
X511770Y439364D01*
X511855Y439313D01*
X511941Y439250D01*
X512032Y439176D01*
X512107Y439090D01*
X512112Y439079D01*
X512135Y439045D01*
X512169Y438993D01*
X512204Y438925D01*
X512238Y438839D01*
X512272Y438742D01*
X512295Y438633D01*
X512301Y438514D01*
Y438508D01*
Y438502D01*
Y438468D01*
X512295Y438416D01*
X512289Y438348D01*
X512272Y438268D01*
X512255Y438182D01*
X512226Y438097D01*
X512186Y438005D01*
X512181Y437994D01*
X512164Y437965D01*
X512141Y437925D01*
X512107Y437874D01*
X512067Y437817D01*
X512021Y437760D01*
X511964Y437703D01*
X511901Y437651D01*
X511895Y437645D01*
X511872Y437628D01*
X511833Y437606D01*
X511787Y437583D01*
X511724Y437548D01*
X511656Y437520D01*
X511570Y437491D01*
X511478Y437463D01*
X511467D01*
X511433Y437451D01*
X511381Y437446D01*
X511307Y437434D01*
X511216Y437423D01*
X511113Y437411D01*
X510993Y437406D01*
X510862Y437400D01*
X509400D01*
Y441243D01*
X510913D01*
X510947Y441237D01*
D02*
G37*
G36*
X390662Y347600D02*
X390188D01*
Y350598D01*
X390182Y350592D01*
X390159Y350569D01*
X390119Y350541D01*
X390068Y350495D01*
X390005Y350449D01*
X389925Y350392D01*
X389834Y350335D01*
X389737Y350272D01*
X389731D01*
X389725Y350267D01*
X389691Y350244D01*
X389640Y350215D01*
X389571Y350181D01*
X389497Y350141D01*
X389417Y350107D01*
X389331Y350067D01*
X389246Y350032D01*
Y350489D01*
X389251D01*
X389263Y350495D01*
X389286Y350506D01*
X389314Y350523D01*
X389349Y350541D01*
X389388Y350564D01*
X389480Y350615D01*
X389588Y350678D01*
X389703Y350752D01*
X389817Y350838D01*
X389931Y350935D01*
X389937Y350940D01*
X389942Y350946D01*
X389982Y350980D01*
X390034Y351032D01*
X390096Y351100D01*
X390165Y351180D01*
X390234Y351266D01*
X390302Y351357D01*
X390353Y351454D01*
X390662D01*
Y347600D01*
D02*
G37*
G36*
X387162Y351437D02*
X387253Y351431D01*
X387350Y351426D01*
X387447Y351414D01*
X387527Y351403D01*
X387539D01*
X387573Y351391D01*
X387630Y351380D01*
X387693Y351363D01*
X387767Y351340D01*
X387847Y351311D01*
X387927Y351272D01*
X388001Y351226D01*
X388012Y351220D01*
X388035Y351203D01*
X388070Y351174D01*
X388115Y351129D01*
X388161Y351077D01*
X388212Y351015D01*
X388264Y350940D01*
X388309Y350855D01*
X388315Y350843D01*
X388327Y350815D01*
X388349Y350763D01*
X388372Y350700D01*
X388389Y350621D01*
X388412Y350535D01*
X388423Y350432D01*
X388429Y350329D01*
Y350324D01*
Y350307D01*
Y350284D01*
X388423Y350249D01*
X388418Y350204D01*
X388412Y350158D01*
X388401Y350101D01*
X388389Y350044D01*
X388355Y349913D01*
X388298Y349776D01*
X388264Y349701D01*
X388218Y349633D01*
X388172Y349564D01*
X388115Y349501D01*
X388109Y349496D01*
X388098Y349484D01*
X388081Y349473D01*
X388052Y349450D01*
X388018Y349422D01*
X387972Y349393D01*
X387921Y349364D01*
X387858Y349336D01*
X387784Y349302D01*
X387704Y349273D01*
X387613Y349244D01*
X387510Y349216D01*
X387396Y349193D01*
X387270Y349182D01*
X387139Y349170D01*
X386990Y349165D01*
X386008D01*
Y347600D01*
X385500D01*
Y351443D01*
X387076D01*
X387162Y351437D01*
D02*
G37*
G36*
X301947Y441137D02*
X301993D01*
X302090Y441126D01*
X302204Y441114D01*
X302319Y441091D01*
X302438Y441063D01*
X302541Y441023D01*
X302547D01*
X302553Y441017D01*
X302587Y441000D01*
X302633Y440972D01*
X302695Y440937D01*
X302764Y440886D01*
X302833Y440823D01*
X302895Y440749D01*
X302958Y440663D01*
X302964Y440652D01*
X302981Y440623D01*
X303010Y440572D01*
X303038Y440509D01*
X303061Y440435D01*
X303089Y440349D01*
X303106Y440252D01*
X303112Y440155D01*
Y440144D01*
Y440115D01*
X303106Y440064D01*
X303095Y440006D01*
X303078Y439932D01*
X303055Y439858D01*
X303021Y439772D01*
X302975Y439692D01*
X302970Y439681D01*
X302952Y439658D01*
X302918Y439618D01*
X302878Y439567D01*
X302821Y439510D01*
X302747Y439453D01*
X302667Y439396D01*
X302570Y439344D01*
X302575D01*
X302587Y439338D01*
X302604Y439333D01*
X302627Y439327D01*
X302690Y439298D01*
X302770Y439264D01*
X302855Y439213D01*
X302941Y439150D01*
X303032Y439076D01*
X303106Y438990D01*
X303112Y438979D01*
X303135Y438944D01*
X303169Y438893D01*
X303204Y438825D01*
X303238Y438739D01*
X303272Y438642D01*
X303295Y438533D01*
X303301Y438413D01*
Y438408D01*
Y438402D01*
Y438368D01*
X303295Y438316D01*
X303289Y438248D01*
X303272Y438168D01*
X303255Y438082D01*
X303226Y437997D01*
X303186Y437905D01*
X303181Y437894D01*
X303164Y437865D01*
X303141Y437825D01*
X303106Y437774D01*
X303067Y437717D01*
X303021Y437660D01*
X302964Y437603D01*
X302901Y437551D01*
X302895Y437545D01*
X302872Y437528D01*
X302833Y437506D01*
X302787Y437483D01*
X302724Y437449D01*
X302656Y437420D01*
X302570Y437391D01*
X302478Y437363D01*
X302467D01*
X302433Y437351D01*
X302381Y437346D01*
X302307Y437334D01*
X302216Y437323D01*
X302113Y437311D01*
X301993Y437306D01*
X301862Y437300D01*
X300400D01*
Y441143D01*
X301913D01*
X301947Y441137D01*
D02*
G37*
G36*
X735503Y346490D02*
X735579Y346452D01*
X735617Y346414D01*
X735655Y346376D01*
X735769Y346262D01*
X735884Y346147D01*
X735922Y346071D01*
X735960Y346033D01*
X736074Y345881D01*
X736150Y345728D01*
X736226Y345652D01*
Y345614D01*
X736303Y345462D01*
X736341Y345424D01*
Y345386D01*
X736455Y345119D01*
X736531Y344890D01*
X736569Y344738D01*
Y344624D01*
X736493Y344510D01*
X736455Y344472D01*
X736226Y344433D01*
X736112Y344395D01*
X735731D01*
X735541Y344357D01*
X735503Y344319D01*
X735464D01*
X735274Y344205D01*
X735236Y344167D01*
X735046D01*
X735007Y344281D01*
Y344357D01*
X735046Y344586D01*
Y344662D01*
Y344700D01*
X735084Y344852D01*
Y345005D01*
X735122Y345081D01*
Y345119D01*
X735160Y345271D01*
X735198Y345424D01*
X735236Y345576D01*
Y345614D01*
X735274Y345843D01*
X735312Y345995D01*
X735350Y346109D01*
Y346147D01*
X735388Y346338D01*
X735427Y346452D01*
X735464Y346528D01*
X735503Y346490D01*
D02*
G37*
G36*
X232247Y441137D02*
X232293D01*
X232390Y441126D01*
X232504Y441114D01*
X232619Y441091D01*
X232738Y441063D01*
X232841Y441023D01*
X232847D01*
X232853Y441017D01*
X232887Y441000D01*
X232933Y440972D01*
X232995Y440937D01*
X233064Y440886D01*
X233133Y440823D01*
X233195Y440749D01*
X233258Y440663D01*
X233264Y440652D01*
X233281Y440623D01*
X233310Y440572D01*
X233338Y440509D01*
X233361Y440435D01*
X233389Y440349D01*
X233406Y440252D01*
X233412Y440155D01*
Y440144D01*
Y440115D01*
X233406Y440064D01*
X233395Y440006D01*
X233378Y439932D01*
X233355Y439858D01*
X233321Y439772D01*
X233275Y439692D01*
X233270Y439681D01*
X233252Y439658D01*
X233218Y439618D01*
X233178Y439567D01*
X233121Y439510D01*
X233047Y439453D01*
X232967Y439396D01*
X232870Y439344D01*
X232875D01*
X232887Y439338D01*
X232904Y439333D01*
X232927Y439327D01*
X232990Y439298D01*
X233070Y439264D01*
X233155Y439213D01*
X233241Y439150D01*
X233332Y439076D01*
X233406Y438990D01*
X233412Y438979D01*
X233435Y438944D01*
X233469Y438893D01*
X233504Y438825D01*
X233538Y438739D01*
X233572Y438642D01*
X233595Y438533D01*
X233601Y438413D01*
Y438408D01*
Y438402D01*
Y438368D01*
X233595Y438316D01*
X233589Y438248D01*
X233572Y438168D01*
X233555Y438082D01*
X233526Y437997D01*
X233487Y437905D01*
X233481Y437894D01*
X233464Y437865D01*
X233441Y437825D01*
X233406Y437774D01*
X233367Y437717D01*
X233321Y437660D01*
X233264Y437603D01*
X233201Y437551D01*
X233195Y437545D01*
X233172Y437528D01*
X233133Y437506D01*
X233087Y437483D01*
X233024Y437449D01*
X232956Y437420D01*
X232870Y437391D01*
X232778Y437363D01*
X232767D01*
X232733Y437351D01*
X232681Y437346D01*
X232607Y437334D01*
X232516Y437323D01*
X232413Y437311D01*
X232293Y437306D01*
X232162Y437300D01*
X230700D01*
Y441143D01*
X232213D01*
X232247Y441137D01*
D02*
G37*
G36*
X235885Y437300D02*
X235411D01*
Y440298D01*
X235405Y440292D01*
X235382Y440269D01*
X235342Y440241D01*
X235291Y440195D01*
X235228Y440149D01*
X235148Y440092D01*
X235057Y440035D01*
X234960Y439972D01*
X234954D01*
X234948Y439967D01*
X234914Y439944D01*
X234863Y439915D01*
X234794Y439881D01*
X234720Y439841D01*
X234640Y439807D01*
X234554Y439767D01*
X234469Y439733D01*
Y440189D01*
X234474D01*
X234486Y440195D01*
X234509Y440206D01*
X234537Y440224D01*
X234571Y440241D01*
X234611Y440264D01*
X234703Y440315D01*
X234811Y440378D01*
X234925Y440452D01*
X235040Y440538D01*
X235154Y440635D01*
X235159Y440640D01*
X235165Y440646D01*
X235205Y440680D01*
X235257Y440732D01*
X235319Y440800D01*
X235388Y440880D01*
X235456Y440966D01*
X235525Y441057D01*
X235576Y441154D01*
X235885D01*
Y437300D01*
D02*
G37*
G36*
X729142Y346147D02*
X729446Y345805D01*
X729637Y345462D01*
X729713Y345347D01*
X729751Y345233D01*
X729789Y345157D01*
Y345119D01*
X729827Y344852D01*
X729789Y344624D01*
X729751Y344472D01*
X729713Y344433D01*
X729523Y344281D01*
X729332Y344167D01*
X729142Y344129D01*
X728837D01*
X728685Y344167D01*
X728532D01*
X728342Y344243D01*
X728227Y344281D01*
X728113Y344357D01*
X728075Y344433D01*
X728037Y344510D01*
Y344548D01*
X728075Y344776D01*
X728151Y345005D01*
X728380Y345462D01*
X728494Y345614D01*
X728570Y345766D01*
X728646Y345843D01*
X728685Y345881D01*
X729027Y346224D01*
X729142Y346147D01*
D02*
G37*
G36*
X743730Y338453D02*
X743844Y338339D01*
X743959Y338263D01*
X743997Y338225D01*
X744225Y337958D01*
X744378Y337653D01*
X744492Y337425D01*
X744530Y337349D01*
Y337311D01*
X744682Y336892D01*
X744759Y336587D01*
X744797Y336358D01*
Y336320D01*
Y336282D01*
X744759Y335977D01*
X744644Y335787D01*
X744530Y335673D01*
X744492Y335635D01*
X744301Y335596D01*
X744111D01*
X743959Y335635D01*
X743882D01*
X743730Y335673D01*
X743616D01*
X743502Y335635D01*
X743463D01*
X743311Y335596D01*
X743197D01*
X743121Y335635D01*
X743083D01*
X743006Y335711D01*
X742930Y335863D01*
X742892Y335977D01*
Y336016D01*
Y336473D01*
X742930Y336892D01*
X742968Y337082D01*
X743006Y337234D01*
X743044Y337311D01*
Y337349D01*
X743121Y337615D01*
X743197Y337844D01*
X743273Y338034D01*
X743311Y338148D01*
X743387Y338339D01*
X743425Y338377D01*
X743502Y338453D01*
X743540Y338491D01*
X743616D01*
X743730Y338453D01*
D02*
G37*
G36*
X735655Y342872D02*
X735769Y342834D01*
X735807Y342795D01*
X736074Y342643D01*
X736341Y342376D01*
X736607Y342072D01*
X736874Y341767D01*
X737141Y341462D01*
X737331Y341196D01*
X737445Y341043D01*
X737483Y340967D01*
X737979Y340167D01*
X738359Y339444D01*
X738664Y338796D01*
X738893Y338187D01*
X739083Y337691D01*
X739197Y337311D01*
X739235Y337196D01*
X739274Y337082D01*
Y337044D01*
Y337006D01*
X739350Y336587D01*
X739388Y336168D01*
Y335825D01*
X739350Y335482D01*
Y335254D01*
X739312Y335025D01*
X739274Y334911D01*
Y334873D01*
X739121Y334454D01*
X738969Y334073D01*
X738778Y333768D01*
X738626Y333463D01*
X738436Y333235D01*
X738283Y333083D01*
X738207Y332968D01*
X738169Y332930D01*
X737979Y332740D01*
X737750Y332587D01*
X737598Y332473D01*
X737407Y332397D01*
X737179Y332321D01*
X736379D01*
X736150Y332359D01*
X736112Y332397D01*
X736074D01*
X735807Y332511D01*
X735541Y332663D01*
X735160Y333045D01*
X735046Y333235D01*
X734931Y333387D01*
X734893Y333502D01*
X734855Y333540D01*
X734665Y333959D01*
X734512Y334416D01*
X734284Y335406D01*
X734131Y336396D01*
X734055Y337387D01*
X734017Y337806D01*
Y338225D01*
Y338606D01*
Y338948D01*
Y339215D01*
Y339405D01*
Y339558D01*
Y339596D01*
X734093Y340320D01*
X734208Y340929D01*
X734360Y341462D01*
X734512Y341881D01*
X734665Y342224D01*
X734817Y342453D01*
X734893Y342605D01*
X734931Y342643D01*
X735084Y342795D01*
X735236Y342872D01*
X735350Y342910D01*
X735503D01*
X735655Y342872D01*
D02*
G37*
G36*
X721371Y338606D02*
X721600Y338339D01*
X721790Y338110D01*
X722095Y337691D01*
X722285Y337349D01*
X722400Y337120D01*
X722438Y336930D01*
Y336815D01*
X722400Y336777D01*
Y336739D01*
X722362Y336701D01*
X722285Y336663D01*
X722095Y336587D01*
X721905Y336549D01*
X721866Y336511D01*
X721828D01*
X721600Y336435D01*
X721371Y336396D01*
X721105D01*
X720838Y336473D01*
X720686Y336549D01*
X720647Y336663D01*
X720609Y336701D01*
Y336815D01*
Y336968D01*
X720647Y337120D01*
Y337158D01*
X720724Y337425D01*
X720800Y337691D01*
X720876Y337882D01*
Y337920D01*
Y337958D01*
X720990Y338225D01*
X721028Y338415D01*
X721067Y338491D01*
Y338529D01*
X721143Y338872D01*
X721371Y338606D01*
D02*
G37*
%LPC*%
G36*
X650116Y440692D02*
X649208D01*
Y439527D01*
X650150D01*
X650225Y439533D01*
X650299Y439538D01*
X650379Y439544D01*
X650453Y439556D01*
X650516Y439567D01*
X650527Y439573D01*
X650550Y439578D01*
X650584Y439590D01*
X650624Y439613D01*
X650670Y439635D01*
X650721Y439670D01*
X650767Y439710D01*
X650807Y439755D01*
X650813Y439761D01*
X650824Y439778D01*
X650841Y439812D01*
X650858Y439852D01*
X650876Y439898D01*
X650893Y439955D01*
X650904Y440024D01*
X650910Y440098D01*
Y440109D01*
Y440132D01*
X650904Y440166D01*
X650898Y440212D01*
X650887Y440264D01*
X650870Y440321D01*
X650847Y440378D01*
X650813Y440435D01*
X650807Y440441D01*
X650796Y440458D01*
X650773Y440486D01*
X650744Y440515D01*
X650710Y440549D01*
X650664Y440583D01*
X650613Y440612D01*
X650550Y440635D01*
X650544D01*
X650516Y440646D01*
X650476Y440652D01*
X650419Y440663D01*
X650339Y440675D01*
X650236Y440680D01*
X650116Y440692D01*
D02*
G37*
G36*
X650225Y439076D02*
X649208D01*
Y437751D01*
X650299D01*
X650413Y437757D01*
X650464Y437762D01*
X650510Y437768D01*
X650516D01*
X650539Y437774D01*
X650573Y437780D01*
X650613Y437791D01*
X650710Y437825D01*
X650756Y437848D01*
X650801Y437871D01*
X650807Y437877D01*
X650824Y437882D01*
X650841Y437899D01*
X650870Y437928D01*
X650904Y437957D01*
X650933Y437991D01*
X650967Y438037D01*
X650995Y438082D01*
X651001Y438088D01*
X651007Y438105D01*
X651018Y438139D01*
X651035Y438179D01*
X651053Y438225D01*
X651064Y438282D01*
X651070Y438345D01*
X651075Y438413D01*
Y438425D01*
Y438448D01*
X651070Y438488D01*
X651064Y438539D01*
X651047Y438596D01*
X651030Y438659D01*
X651001Y438722D01*
X650961Y438785D01*
X650955Y438790D01*
X650938Y438813D01*
X650915Y438836D01*
X650881Y438870D01*
X650836Y438910D01*
X650784Y438944D01*
X650721Y438979D01*
X650653Y439007D01*
X650641Y439013D01*
X650619Y439019D01*
X650573Y439030D01*
X650510Y439042D01*
X650430Y439053D01*
X650333Y439064D01*
X650225Y439076D01*
D02*
G37*
G36*
X580625Y439176D02*
X579608D01*
Y437851D01*
X580699D01*
X580813Y437857D01*
X580864Y437862D01*
X580910Y437868D01*
X580916D01*
X580939Y437874D01*
X580973Y437880D01*
X581013Y437891D01*
X581110Y437925D01*
X581156Y437948D01*
X581201Y437971D01*
X581207Y437977D01*
X581224Y437982D01*
X581241Y437999D01*
X581270Y438028D01*
X581304Y438057D01*
X581333Y438091D01*
X581367Y438137D01*
X581395Y438182D01*
X581401Y438188D01*
X581407Y438205D01*
X581418Y438239D01*
X581435Y438279D01*
X581453Y438325D01*
X581464Y438382D01*
X581470Y438445D01*
X581475Y438514D01*
Y438525D01*
Y438548D01*
X581470Y438588D01*
X581464Y438639D01*
X581447Y438696D01*
X581430Y438759D01*
X581401Y438822D01*
X581361Y438885D01*
X581355Y438890D01*
X581338Y438913D01*
X581316Y438936D01*
X581281Y438970D01*
X581236Y439010D01*
X581184Y439045D01*
X581121Y439079D01*
X581053Y439107D01*
X581041Y439113D01*
X581019Y439119D01*
X580973Y439130D01*
X580910Y439142D01*
X580830Y439153D01*
X580733Y439164D01*
X580625Y439176D01*
D02*
G37*
G36*
X387105Y350992D02*
X386008D01*
Y349616D01*
X387042D01*
X387076Y349621D01*
X387116D01*
X387162Y349627D01*
X387270Y349639D01*
X387384Y349661D01*
X387498Y349696D01*
X387601Y349735D01*
X387653Y349764D01*
X387693Y349798D01*
X387704Y349810D01*
X387727Y349833D01*
X387761Y349873D01*
X387801Y349930D01*
X387835Y350004D01*
X387870Y350095D01*
X387893Y350198D01*
X387904Y350312D01*
Y350318D01*
Y350324D01*
Y350352D01*
X387898Y350398D01*
X387887Y350455D01*
X387875Y350523D01*
X387853Y350592D01*
X387818Y350661D01*
X387778Y350729D01*
X387773Y350735D01*
X387755Y350758D01*
X387733Y350786D01*
X387693Y350820D01*
X387647Y350860D01*
X387596Y350900D01*
X387527Y350929D01*
X387458Y350957D01*
X387453D01*
X387436Y350963D01*
X387401Y350969D01*
X387350Y350975D01*
X387287Y350980D01*
X387207Y350986D01*
X387105Y350992D01*
D02*
G37*
G36*
X580516Y440792D02*
X579608D01*
Y439627D01*
X580550D01*
X580625Y439633D01*
X580699Y439638D01*
X580779Y439644D01*
X580853Y439655D01*
X580916Y439667D01*
X580927Y439673D01*
X580950Y439678D01*
X580984Y439690D01*
X581024Y439713D01*
X581070Y439735D01*
X581121Y439770D01*
X581167Y439810D01*
X581207Y439855D01*
X581213Y439861D01*
X581224Y439878D01*
X581241Y439912D01*
X581258Y439952D01*
X581276Y439998D01*
X581293Y440055D01*
X581304Y440124D01*
X581310Y440198D01*
Y440209D01*
Y440232D01*
X581304Y440266D01*
X581298Y440312D01*
X581287Y440364D01*
X581270Y440421D01*
X581247Y440478D01*
X581213Y440535D01*
X581207Y440541D01*
X581196Y440558D01*
X581173Y440586D01*
X581144Y440615D01*
X581110Y440649D01*
X581064Y440683D01*
X581013Y440712D01*
X580950Y440735D01*
X580944D01*
X580916Y440746D01*
X580876Y440752D01*
X580819Y440763D01*
X580739Y440775D01*
X580636Y440780D01*
X580516Y440792D01*
D02*
G37*
G36*
X736226Y352258D02*
X736218D01*
X736211Y352251D01*
X736188Y352243D01*
X736158Y352235D01*
X736127Y352220D01*
X736081Y352205D01*
X736028Y352190D01*
X735967Y352174D01*
X735899Y352152D01*
X735823Y352136D01*
X735731Y352114D01*
X735640Y352098D01*
X735541Y352076D01*
X735434Y352053D01*
X735313Y352038D01*
X735191Y352015D01*
X735176D01*
X735130Y352007D01*
X735062Y351992D01*
X734978Y351977D01*
X734795Y351939D01*
X734712Y351916D01*
X734643Y351893D01*
X734635D01*
X734620Y351878D01*
X734590Y351862D01*
X734552Y351840D01*
X734468Y351779D01*
X734392Y351687D01*
Y351680D01*
X734377Y351665D01*
X734369Y351634D01*
X734354Y351596D01*
X734324Y351505D01*
X734316Y351451D01*
X734308Y351391D01*
Y351383D01*
Y351353D01*
X734316Y351299D01*
X734331Y351246D01*
X734354Y351178D01*
X734392Y351109D01*
X734438Y351041D01*
X734499Y350972D01*
X734506Y350964D01*
X734537Y350949D01*
X734575Y350919D01*
X734643Y350888D01*
X734719Y350858D01*
X734810Y350828D01*
X734925Y350812D01*
X735054Y350805D01*
X735115D01*
X735183Y350812D01*
X735275Y350828D01*
X735374Y350843D01*
X735480Y350866D01*
X735594Y350904D01*
X735701Y350957D01*
X735716Y350964D01*
X735746Y350987D01*
X735800Y351025D01*
X735861Y351071D01*
X735929Y351132D01*
X736005Y351208D01*
X736066Y351299D01*
X736127Y351398D01*
X736135Y351406D01*
X736142Y351436D01*
X736158Y351489D01*
X736180Y351558D01*
X736196Y351642D01*
X736211Y351748D01*
X736218Y351878D01*
X736226Y352022D01*
Y352258D01*
D02*
G37*
G36*
X725093Y353674D02*
X724963D01*
X724933Y353666D01*
X724841Y353658D01*
X724735Y353628D01*
X724613Y353590D01*
X724476Y353521D01*
X724347Y353438D01*
X724286Y353377D01*
X724225Y353316D01*
Y353308D01*
X724210Y353301D01*
X724194Y353278D01*
X724179Y353247D01*
X724157Y353209D01*
X724126Y353171D01*
X724103Y353111D01*
X724073Y353050D01*
X724042Y352981D01*
X724019Y352905D01*
X723989Y352814D01*
X723966Y352722D01*
X723951Y352616D01*
X723936Y352502D01*
X723921Y352380D01*
Y352251D01*
Y352243D01*
Y352220D01*
Y352182D01*
X723928Y352136D01*
Y352076D01*
X723936Y352007D01*
X723959Y351847D01*
X723997Y351672D01*
X724050Y351497D01*
X724126Y351330D01*
X724172Y351246D01*
X724225Y351178D01*
X724233D01*
X724240Y351162D01*
X724278Y351124D01*
X724347Y351063D01*
X724438Y351003D01*
X724552Y350942D01*
X724689Y350881D01*
X724841Y350843D01*
X724925Y350835D01*
X725009Y350828D01*
X725055D01*
X725085Y350835D01*
X725176Y350843D01*
X725283Y350873D01*
X725405Y350911D01*
X725541Y350972D01*
X725671Y351063D01*
X725732Y351117D01*
X725793Y351178D01*
Y351185D01*
X725808Y351193D01*
X725823Y351216D01*
X725838Y351246D01*
X725869Y351284D01*
X725892Y351330D01*
X725922Y351383D01*
X725952Y351451D01*
X725975Y351520D01*
X726006Y351604D01*
X726036Y351687D01*
X726059Y351786D01*
X726074Y351893D01*
X726089Y352007D01*
X726105Y352136D01*
Y352266D01*
Y352273D01*
Y352296D01*
Y352334D01*
X726097Y352380D01*
Y352441D01*
X726089Y352502D01*
X726067Y352654D01*
X726029Y352829D01*
X725968Y353004D01*
X725892Y353171D01*
X725838Y353247D01*
X725785Y353316D01*
Y353324D01*
X725770Y353331D01*
X725732Y353369D01*
X725663Y353430D01*
X725572Y353499D01*
X725458Y353559D01*
X725328Y353620D01*
X725176Y353658D01*
X725093Y353674D01*
D02*
G37*
G36*
X723054Y439279D02*
X723019D01*
X722997Y439273D01*
X722939Y439267D01*
X722859Y439250D01*
X722774Y439227D01*
X722683Y439187D01*
X722591Y439130D01*
X722506Y439056D01*
X722494Y439045D01*
X722471Y439016D01*
X722437Y438970D01*
X722397Y438907D01*
X722357Y438828D01*
X722323Y438736D01*
X722300Y438628D01*
X722289Y438508D01*
Y438496D01*
Y438474D01*
X722294Y438434D01*
X722300Y438382D01*
X722311Y438325D01*
X722329Y438262D01*
X722351Y438188D01*
X722380Y438120D01*
X722386Y438114D01*
X722397Y438091D01*
X722420Y438057D01*
X722454Y438011D01*
X722494Y437965D01*
X722540Y437920D01*
X722597Y437868D01*
X722665Y437828D01*
X722677Y437822D01*
X722700Y437811D01*
X722734Y437794D01*
X722785Y437777D01*
X722848Y437760D01*
X722917Y437743D01*
X722991Y437731D01*
X723071Y437725D01*
X723105D01*
X723128Y437731D01*
X723191Y437737D01*
X723271Y437754D01*
X723356Y437777D01*
X723453Y437817D01*
X723545Y437868D01*
X723630Y437943D01*
X723642Y437954D01*
X723665Y437982D01*
X723699Y438028D01*
X723745Y438091D01*
X723784Y438171D01*
X723819Y438268D01*
X723842Y438371D01*
X723853Y438491D01*
Y438496D01*
Y438508D01*
Y438525D01*
X723847Y438548D01*
X723842Y438611D01*
X723825Y438691D01*
X723796Y438782D01*
X723756Y438873D01*
X723699Y438970D01*
X723625Y439056D01*
X723613Y439067D01*
X723585Y439090D01*
X723533Y439124D01*
X723470Y439170D01*
X723385Y439210D01*
X723288Y439244D01*
X723179Y439267D01*
X723054Y439279D01*
D02*
G37*
G36*
X719816Y440792D02*
X718908D01*
Y439627D01*
X719850D01*
X719925Y439633D01*
X719999Y439638D01*
X720079Y439644D01*
X720153Y439655D01*
X720216Y439667D01*
X720227Y439673D01*
X720250Y439678D01*
X720284Y439690D01*
X720324Y439713D01*
X720370Y439735D01*
X720421Y439770D01*
X720467Y439810D01*
X720507Y439855D01*
X720513Y439861D01*
X720524Y439878D01*
X720541Y439912D01*
X720558Y439952D01*
X720576Y439998D01*
X720593Y440055D01*
X720604Y440124D01*
X720610Y440198D01*
Y440209D01*
Y440232D01*
X720604Y440266D01*
X720598Y440312D01*
X720587Y440364D01*
X720570Y440421D01*
X720547Y440478D01*
X720513Y440535D01*
X720507Y440541D01*
X720496Y440558D01*
X720473Y440586D01*
X720444Y440615D01*
X720410Y440649D01*
X720364Y440683D01*
X720313Y440712D01*
X720250Y440735D01*
X720244D01*
X720216Y440746D01*
X720176Y440752D01*
X720119Y440763D01*
X720039Y440775D01*
X719936Y440780D01*
X719816Y440792D01*
D02*
G37*
G36*
X719925Y439176D02*
X718908D01*
Y437851D01*
X719999D01*
X720113Y437857D01*
X720164Y437862D01*
X720210Y437868D01*
X720216D01*
X720239Y437874D01*
X720273Y437880D01*
X720313Y437891D01*
X720410Y437925D01*
X720456Y437948D01*
X720501Y437971D01*
X720507Y437977D01*
X720524Y437982D01*
X720541Y437999D01*
X720570Y438028D01*
X720604Y438057D01*
X720633Y438091D01*
X720667Y438137D01*
X720695Y438182D01*
X720701Y438188D01*
X720707Y438205D01*
X720718Y438239D01*
X720735Y438279D01*
X720752Y438325D01*
X720764Y438382D01*
X720770Y438445D01*
X720775Y438514D01*
Y438525D01*
Y438548D01*
X720770Y438588D01*
X720764Y438639D01*
X720747Y438696D01*
X720730Y438759D01*
X720701Y438822D01*
X720661Y438885D01*
X720655Y438890D01*
X720638Y438913D01*
X720615Y438936D01*
X720581Y438970D01*
X720536Y439010D01*
X720484Y439045D01*
X720421Y439079D01*
X720353Y439107D01*
X720341Y439113D01*
X720319Y439119D01*
X720273Y439130D01*
X720210Y439142D01*
X720130Y439153D01*
X720033Y439164D01*
X719925Y439176D01*
D02*
G37*
G36*
X718578Y354914D02*
X717117D01*
Y353080D01*
X718495D01*
X718540Y353088D01*
X718594D01*
X718654Y353095D01*
X718799Y353111D01*
X718951Y353141D01*
X719103Y353187D01*
X719240Y353240D01*
X719309Y353278D01*
X719362Y353324D01*
X719377Y353339D01*
X719408Y353369D01*
X719453Y353422D01*
X719507Y353499D01*
X719553Y353597D01*
X719598Y353719D01*
X719628Y353856D01*
X719644Y354008D01*
Y354016D01*
Y354024D01*
Y354062D01*
X719636Y354123D01*
X719621Y354199D01*
X719606Y354290D01*
X719575Y354381D01*
X719530Y354473D01*
X719476Y354564D01*
X719469Y354572D01*
X719446Y354602D01*
X719416Y354640D01*
X719362Y354686D01*
X719301Y354739D01*
X719233Y354792D01*
X719141Y354830D01*
X719050Y354868D01*
X719043D01*
X719020Y354876D01*
X718974Y354884D01*
X718906Y354891D01*
X718822Y354899D01*
X718715Y354906D01*
X718578Y354914D01*
D02*
G37*
G36*
X701654Y354952D02*
X700033D01*
Y353255D01*
X701562D01*
X701646Y353263D01*
X701753Y353270D01*
X701867Y353278D01*
X701989Y353293D01*
X702103Y353316D01*
X702209Y353346D01*
X702224Y353354D01*
X702255Y353362D01*
X702301Y353392D01*
X702361Y353422D01*
X702422Y353468D01*
X702491Y353514D01*
X702559Y353582D01*
X702613Y353651D01*
X702620Y353658D01*
X702635Y353689D01*
X702658Y353734D01*
X702681Y353788D01*
X702704Y353856D01*
X702727Y353940D01*
X702742Y354024D01*
X702750Y354115D01*
Y354123D01*
Y354130D01*
X702742Y354176D01*
X702734Y354244D01*
X702719Y354328D01*
X702681Y354419D01*
X702635Y354526D01*
X702574Y354625D01*
X702483Y354716D01*
X702468Y354724D01*
X702430Y354754D01*
X702369Y354792D01*
X702278Y354838D01*
X702164Y354876D01*
X702019Y354914D01*
X701852Y354944D01*
X701654Y354952D01*
D02*
G37*
G36*
X751278Y353674D02*
X751233D01*
X751202Y353666D01*
X751126Y353658D01*
X751020Y353636D01*
X750906Y353605D01*
X750784Y353552D01*
X750655Y353476D01*
X750540Y353377D01*
X750525Y353362D01*
X750495Y353324D01*
X750449Y353263D01*
X750396Y353171D01*
X750335Y353065D01*
X750282Y352928D01*
X750244Y352776D01*
X750221Y352608D01*
X752298D01*
Y352616D01*
Y352631D01*
X752291Y352654D01*
Y352684D01*
X752276Y352768D01*
X752253Y352867D01*
X752222Y352981D01*
X752177Y353103D01*
X752123Y353209D01*
X752055Y353308D01*
Y353316D01*
X752039Y353324D01*
X752001Y353369D01*
X751933Y353422D01*
X751849Y353491D01*
X751735Y353559D01*
X751606Y353620D01*
X751454Y353658D01*
X751370Y353666D01*
X751278Y353674D01*
D02*
G37*
G36*
X723065Y440866D02*
X723019D01*
X722968Y440855D01*
X722905Y440843D01*
X722837Y440820D01*
X722757Y440792D01*
X722683Y440746D01*
X722614Y440689D01*
X722608Y440683D01*
X722585Y440660D01*
X722563Y440620D01*
X722528Y440575D01*
X722500Y440512D01*
X722471Y440443D01*
X722448Y440364D01*
X722443Y440278D01*
Y440272D01*
Y440266D01*
X722448Y440232D01*
X722454Y440181D01*
X722466Y440118D01*
X722483Y440049D01*
X722517Y439975D01*
X722557Y439901D01*
X722614Y439832D01*
X722620Y439827D01*
X722648Y439804D01*
X722683Y439781D01*
X722734Y439747D01*
X722802Y439718D01*
X722877Y439690D01*
X722968Y439667D01*
X723071Y439661D01*
X723082D01*
X723116Y439667D01*
X723168Y439673D01*
X723231Y439684D01*
X723299Y439701D01*
X723373Y439735D01*
X723448Y439775D01*
X723516Y439832D01*
X723522Y439838D01*
X723545Y439861D01*
X723573Y439901D01*
X723607Y439947D01*
X723636Y440009D01*
X723665Y440078D01*
X723688Y440164D01*
X723693Y440249D01*
Y440255D01*
Y440261D01*
Y440295D01*
X723682Y440341D01*
X723670Y440404D01*
X723647Y440472D01*
X723619Y440546D01*
X723573Y440620D01*
X723511Y440689D01*
X723505Y440695D01*
X723476Y440718D01*
X723442Y440746D01*
X723390Y440780D01*
X723322Y440809D01*
X723248Y440837D01*
X723162Y440860D01*
X723065Y440866D01*
D02*
G37*
G36*
X728974Y353674D02*
X728860D01*
X728829Y353666D01*
X728753Y353658D01*
X728654Y353628D01*
X728540Y353590D01*
X728418Y353529D01*
X728296Y353445D01*
X728243Y353392D01*
X728182Y353331D01*
X728167Y353316D01*
X728152Y353293D01*
X728136Y353270D01*
X728114Y353232D01*
X728091Y353187D01*
X728060Y353133D01*
X728038Y353072D01*
X728007Y353004D01*
X727977Y352935D01*
X727954Y352852D01*
X727931Y352760D01*
X727916Y352654D01*
X727901Y352547D01*
X727885Y352433D01*
Y352311D01*
Y352304D01*
Y352281D01*
Y352243D01*
X727893Y352190D01*
Y352129D01*
X727901Y352060D01*
X727923Y351908D01*
X727954Y351733D01*
X728007Y351550D01*
X728076Y351391D01*
X728121Y351314D01*
X728175Y351246D01*
X728190Y351231D01*
X728228Y351193D01*
X728289Y351139D01*
X728380Y351079D01*
X728487Y351018D01*
X728608Y350964D01*
X728753Y350926D01*
X728829Y350919D01*
X728905Y350911D01*
X728951D01*
X728981Y350919D01*
X729057Y350926D01*
X729156Y350949D01*
X729270Y350995D01*
X729392Y351048D01*
X729514Y351132D01*
X729575Y351178D01*
X729628Y351238D01*
Y351246D01*
X729643Y351254D01*
X729659Y351276D01*
X729674Y351299D01*
X729697Y351337D01*
X729719Y351383D01*
X729750Y351436D01*
X729780Y351497D01*
X729803Y351566D01*
X729834Y351642D01*
X729856Y351726D01*
X729879Y351824D01*
X729894Y351923D01*
X729910Y352038D01*
X729925Y352159D01*
Y352289D01*
Y352296D01*
Y352319D01*
Y352357D01*
X729917Y352403D01*
Y352456D01*
X729910Y352524D01*
X729887Y352677D01*
X729849Y352844D01*
X729796Y353011D01*
X729719Y353179D01*
X729674Y353255D01*
X729621Y353324D01*
Y353331D01*
X729605Y353339D01*
X729567Y353377D01*
X729506Y353438D01*
X729423Y353499D01*
X729316Y353559D01*
X729194Y353620D01*
X729050Y353658D01*
X728974Y353674D01*
D02*
G37*
G36*
X301925Y439076D02*
X300908D01*
Y437751D01*
X301999D01*
X302113Y437757D01*
X302164Y437762D01*
X302210Y437768D01*
X302216D01*
X302239Y437774D01*
X302273Y437780D01*
X302313Y437791D01*
X302410Y437825D01*
X302456Y437848D01*
X302501Y437871D01*
X302507Y437877D01*
X302524Y437882D01*
X302541Y437899D01*
X302570Y437928D01*
X302604Y437957D01*
X302633Y437991D01*
X302667Y438037D01*
X302695Y438082D01*
X302701Y438088D01*
X302707Y438105D01*
X302718Y438139D01*
X302735Y438179D01*
X302752Y438225D01*
X302764Y438282D01*
X302770Y438345D01*
X302775Y438413D01*
Y438425D01*
Y438448D01*
X302770Y438488D01*
X302764Y438539D01*
X302747Y438596D01*
X302730Y438659D01*
X302701Y438722D01*
X302661Y438785D01*
X302656Y438790D01*
X302638Y438813D01*
X302615Y438836D01*
X302581Y438870D01*
X302536Y438910D01*
X302484Y438944D01*
X302421Y438979D01*
X302353Y439007D01*
X302341Y439013D01*
X302319Y439019D01*
X302273Y439030D01*
X302210Y439042D01*
X302130Y439053D01*
X302033Y439064D01*
X301925Y439076D01*
D02*
G37*
G36*
X235719Y331634D02*
X235605D01*
X235575Y331627D01*
X235498Y331619D01*
X235399Y331589D01*
X235285Y331551D01*
X235171Y331490D01*
X235057Y331398D01*
X234996Y331345D01*
X234943Y331284D01*
X234928Y331269D01*
X234920Y331246D01*
X234897Y331216D01*
X234874Y331185D01*
X234852Y331140D01*
X234829Y331086D01*
X234806Y331018D01*
X234775Y330949D01*
X234753Y330873D01*
X234730Y330782D01*
X234707Y330683D01*
X234684Y330576D01*
X234677Y330462D01*
X234661Y330341D01*
Y330204D01*
Y330196D01*
Y330173D01*
Y330135D01*
X234669Y330089D01*
Y330029D01*
X234677Y329960D01*
X234699Y329800D01*
X234737Y329633D01*
X234783Y329450D01*
X234859Y329283D01*
X234905Y329207D01*
X234958Y329138D01*
X234973Y329123D01*
X235011Y329085D01*
X235072Y329024D01*
X235163Y328963D01*
X235262Y328902D01*
X235384Y328841D01*
X235521Y328803D01*
X235590Y328796D01*
X235666Y328788D01*
X235704D01*
X235734Y328796D01*
X235810Y328803D01*
X235909Y328834D01*
X236023Y328872D01*
X236138Y328933D01*
X236259Y329016D01*
X236320Y329062D01*
X236373Y329123D01*
Y329131D01*
X236389Y329138D01*
X236404Y329161D01*
X236419Y329184D01*
X236442Y329222D01*
X236465Y329268D01*
X236488Y329321D01*
X236518Y329374D01*
X236549Y329443D01*
X236571Y329519D01*
X236594Y329602D01*
X236617Y329701D01*
X236640Y329800D01*
X236648Y329907D01*
X236663Y330029D01*
Y330150D01*
Y330158D01*
Y330181D01*
Y330226D01*
X236655Y330280D01*
Y330341D01*
X236648Y330409D01*
X236640Y330493D01*
X236625Y330576D01*
X236594Y330767D01*
X236541Y330949D01*
X236465Y331124D01*
X236419Y331208D01*
X236366Y331277D01*
Y331284D01*
X236351Y331292D01*
X236313Y331330D01*
X236252Y331391D01*
X236168Y331459D01*
X236062Y331520D01*
X235940Y331581D01*
X235795Y331619D01*
X235719Y331634D01*
D02*
G37*
G36*
X301816Y440692D02*
X300908D01*
Y439527D01*
X301850D01*
X301925Y439533D01*
X301999Y439538D01*
X302079Y439544D01*
X302153Y439556D01*
X302216Y439567D01*
X302227Y439573D01*
X302250Y439578D01*
X302284Y439590D01*
X302324Y439613D01*
X302370Y439635D01*
X302421Y439670D01*
X302467Y439710D01*
X302507Y439755D01*
X302513Y439761D01*
X302524Y439778D01*
X302541Y439812D01*
X302558Y439852D01*
X302575Y439898D01*
X302593Y439955D01*
X302604Y440024D01*
X302610Y440098D01*
Y440109D01*
Y440132D01*
X302604Y440166D01*
X302598Y440212D01*
X302587Y440264D01*
X302570Y440321D01*
X302547Y440378D01*
X302513Y440435D01*
X302507Y440441D01*
X302496Y440458D01*
X302473Y440486D01*
X302444Y440515D01*
X302410Y440549D01*
X302364Y440583D01*
X302313Y440612D01*
X302250Y440635D01*
X302244D01*
X302216Y440646D01*
X302176Y440652D01*
X302119Y440663D01*
X302039Y440675D01*
X301936Y440680D01*
X301816Y440692D01*
D02*
G37*
G36*
X371516Y440792D02*
X370608D01*
Y439627D01*
X371550D01*
X371625Y439633D01*
X371699Y439638D01*
X371779Y439644D01*
X371853Y439655D01*
X371916Y439667D01*
X371927Y439673D01*
X371950Y439678D01*
X371984Y439690D01*
X372024Y439713D01*
X372070Y439735D01*
X372121Y439770D01*
X372167Y439810D01*
X372207Y439855D01*
X372213Y439861D01*
X372224Y439878D01*
X372241Y439912D01*
X372258Y439952D01*
X372275Y439998D01*
X372293Y440055D01*
X372304Y440124D01*
X372310Y440198D01*
Y440209D01*
Y440232D01*
X372304Y440266D01*
X372298Y440312D01*
X372287Y440364D01*
X372270Y440421D01*
X372247Y440478D01*
X372213Y440535D01*
X372207Y440541D01*
X372196Y440558D01*
X372173Y440586D01*
X372144Y440615D01*
X372110Y440649D01*
X372064Y440683D01*
X372013Y440712D01*
X371950Y440735D01*
X371944D01*
X371916Y440746D01*
X371876Y440752D01*
X371819Y440763D01*
X371739Y440775D01*
X371636Y440780D01*
X371516Y440792D01*
D02*
G37*
G36*
X371625Y439176D02*
X370608D01*
Y437851D01*
X371699D01*
X371813Y437857D01*
X371864Y437862D01*
X371910Y437868D01*
X371916D01*
X371939Y437874D01*
X371973Y437880D01*
X372013Y437891D01*
X372110Y437925D01*
X372156Y437948D01*
X372201Y437971D01*
X372207Y437977D01*
X372224Y437982D01*
X372241Y437999D01*
X372270Y438028D01*
X372304Y438057D01*
X372333Y438091D01*
X372367Y438137D01*
X372395Y438182D01*
X372401Y438188D01*
X372407Y438205D01*
X372418Y438239D01*
X372435Y438279D01*
X372452Y438325D01*
X372464Y438382D01*
X372470Y438445D01*
X372475Y438514D01*
Y438525D01*
Y438548D01*
X372470Y438588D01*
X372464Y438639D01*
X372447Y438696D01*
X372430Y438759D01*
X372401Y438822D01*
X372361Y438885D01*
X372356Y438890D01*
X372338Y438913D01*
X372316Y438936D01*
X372281Y438970D01*
X372235Y439010D01*
X372184Y439045D01*
X372121Y439079D01*
X372053Y439107D01*
X372041Y439113D01*
X372019Y439119D01*
X371973Y439130D01*
X371910Y439142D01*
X371830Y439153D01*
X371733Y439164D01*
X371625Y439176D01*
D02*
G37*
G36*
X257689Y331634D02*
X257560D01*
X257529Y331627D01*
X257438Y331619D01*
X257331Y331589D01*
X257210Y331551D01*
X257073Y331482D01*
X256943Y331398D01*
X256883Y331337D01*
X256822Y331277D01*
Y331269D01*
X256806Y331261D01*
X256791Y331239D01*
X256776Y331208D01*
X256753Y331170D01*
X256723Y331132D01*
X256700Y331071D01*
X256669Y331010D01*
X256639Y330942D01*
X256616Y330866D01*
X256586Y330774D01*
X256563Y330683D01*
X256548Y330576D01*
X256532Y330462D01*
X256517Y330341D01*
Y330211D01*
Y330204D01*
Y330181D01*
Y330143D01*
X256525Y330097D01*
Y330036D01*
X256532Y329968D01*
X256555Y329808D01*
X256593Y329633D01*
X256647Y329458D01*
X256723Y329290D01*
X256768Y329207D01*
X256822Y329138D01*
X256829D01*
X256837Y329123D01*
X256875Y329085D01*
X256943Y329024D01*
X257035Y328963D01*
X257149Y328902D01*
X257286Y328841D01*
X257438Y328803D01*
X257522Y328796D01*
X257605Y328788D01*
X257651D01*
X257681Y328796D01*
X257773Y328803D01*
X257879Y328834D01*
X258001Y328872D01*
X258138Y328933D01*
X258267Y329024D01*
X258328Y329077D01*
X258389Y329138D01*
Y329146D01*
X258404Y329153D01*
X258420Y329176D01*
X258435Y329207D01*
X258465Y329245D01*
X258488Y329290D01*
X258519Y329344D01*
X258549Y329412D01*
X258572Y329481D01*
X258602Y329564D01*
X258633Y329648D01*
X258656Y329747D01*
X258671Y329854D01*
X258686Y329968D01*
X258701Y330097D01*
Y330226D01*
Y330234D01*
Y330257D01*
Y330295D01*
X258694Y330341D01*
Y330401D01*
X258686Y330462D01*
X258663Y330614D01*
X258625Y330789D01*
X258564Y330965D01*
X258488Y331132D01*
X258435Y331208D01*
X258382Y331277D01*
Y331284D01*
X258366Y331292D01*
X258328Y331330D01*
X258260Y331391D01*
X258169Y331459D01*
X258054Y331520D01*
X257925Y331581D01*
X257773Y331619D01*
X257689Y331634D01*
D02*
G37*
G36*
X232225Y439076D02*
X231208D01*
Y437751D01*
X232299D01*
X232413Y437757D01*
X232464Y437762D01*
X232510Y437768D01*
X232516D01*
X232539Y437774D01*
X232573Y437780D01*
X232613Y437791D01*
X232710Y437825D01*
X232756Y437848D01*
X232801Y437871D01*
X232807Y437877D01*
X232824Y437882D01*
X232841Y437899D01*
X232870Y437928D01*
X232904Y437957D01*
X232933Y437991D01*
X232967Y438037D01*
X232995Y438082D01*
X233001Y438088D01*
X233007Y438105D01*
X233018Y438139D01*
X233035Y438179D01*
X233052Y438225D01*
X233064Y438282D01*
X233070Y438345D01*
X233075Y438413D01*
Y438425D01*
Y438448D01*
X233070Y438488D01*
X233064Y438539D01*
X233047Y438596D01*
X233030Y438659D01*
X233001Y438722D01*
X232961Y438785D01*
X232956Y438790D01*
X232938Y438813D01*
X232915Y438836D01*
X232881Y438870D01*
X232836Y438910D01*
X232784Y438944D01*
X232721Y438979D01*
X232653Y439007D01*
X232641Y439013D01*
X232619Y439019D01*
X232573Y439030D01*
X232510Y439042D01*
X232430Y439053D01*
X232333Y439064D01*
X232225Y439076D01*
D02*
G37*
G36*
X737521Y322798D02*
X734550D01*
Y321046D01*
X735122D01*
Y318685D01*
X733370D01*
Y321046D01*
X733941D01*
Y322798D01*
X731008D01*
Y321046D01*
X731617D01*
Y319256D01*
Y318113D01*
X732798Y316932D01*
X735731D01*
X736912Y318113D01*
Y321046D01*
X737521D01*
Y322798D01*
D02*
G37*
G36*
X232116Y440692D02*
X231208D01*
Y439527D01*
X232150D01*
X232225Y439533D01*
X232299Y439538D01*
X232379Y439544D01*
X232453Y439556D01*
X232516Y439567D01*
X232527Y439573D01*
X232550Y439578D01*
X232584Y439590D01*
X232624Y439613D01*
X232670Y439635D01*
X232721Y439670D01*
X232767Y439710D01*
X232807Y439755D01*
X232813Y439761D01*
X232824Y439778D01*
X232841Y439812D01*
X232858Y439852D01*
X232875Y439898D01*
X232893Y439955D01*
X232904Y440024D01*
X232910Y440098D01*
Y440109D01*
Y440132D01*
X232904Y440166D01*
X232898Y440212D01*
X232887Y440264D01*
X232870Y440321D01*
X232847Y440378D01*
X232813Y440435D01*
X232807Y440441D01*
X232796Y440458D01*
X232773Y440486D01*
X232744Y440515D01*
X232710Y440549D01*
X232664Y440583D01*
X232613Y440612D01*
X232550Y440635D01*
X232544D01*
X232516Y440646D01*
X232476Y440652D01*
X232419Y440663D01*
X232339Y440675D01*
X232236Y440680D01*
X232116Y440692D01*
D02*
G37*
G36*
X227318Y332943D02*
Y332936D01*
X227310Y332920D01*
Y332897D01*
X227302Y332859D01*
X227287Y332814D01*
X227280Y332761D01*
X227249Y332631D01*
X227203Y332487D01*
X227158Y332319D01*
X227105Y332144D01*
X227036Y331961D01*
X226481Y330462D01*
X228216D01*
X227683Y331870D01*
Y331878D01*
X227675Y331901D01*
X227660Y331931D01*
X227645Y331977D01*
X227622Y332030D01*
X227599Y332098D01*
X227546Y332251D01*
X227485Y332418D01*
X227424Y332593D01*
X227371Y332776D01*
X227318Y332943D01*
D02*
G37*
G36*
X245711Y331634D02*
X245665D01*
X245635Y331627D01*
X245559Y331619D01*
X245452Y331596D01*
X245338Y331566D01*
X245216Y331512D01*
X245087Y331436D01*
X244973Y331337D01*
X244958Y331322D01*
X244927Y331284D01*
X244882Y331223D01*
X244828Y331132D01*
X244767Y331025D01*
X244714Y330889D01*
X244676Y330736D01*
X244653Y330569D01*
X246731D01*
Y330576D01*
Y330592D01*
X246723Y330614D01*
Y330645D01*
X246708Y330729D01*
X246685Y330828D01*
X246655Y330942D01*
X246609Y331064D01*
X246556Y331170D01*
X246487Y331269D01*
Y331277D01*
X246472Y331284D01*
X246434Y331330D01*
X246365Y331383D01*
X246282Y331452D01*
X246168Y331520D01*
X246038Y331581D01*
X245886Y331619D01*
X245802Y331627D01*
X245711Y331634D01*
D02*
G37*
G36*
X441116Y440692D02*
X440208D01*
Y439527D01*
X441150D01*
X441225Y439533D01*
X441299Y439538D01*
X441379Y439544D01*
X441453Y439556D01*
X441516Y439567D01*
X441527Y439573D01*
X441550Y439578D01*
X441584Y439590D01*
X441624Y439613D01*
X441670Y439635D01*
X441721Y439670D01*
X441767Y439710D01*
X441807Y439755D01*
X441813Y439761D01*
X441824Y439778D01*
X441841Y439812D01*
X441858Y439852D01*
X441876Y439898D01*
X441893Y439955D01*
X441904Y440024D01*
X441910Y440098D01*
Y440109D01*
Y440132D01*
X441904Y440166D01*
X441898Y440212D01*
X441887Y440264D01*
X441870Y440321D01*
X441847Y440378D01*
X441813Y440435D01*
X441807Y440441D01*
X441796Y440458D01*
X441773Y440486D01*
X441744Y440515D01*
X441710Y440549D01*
X441664Y440583D01*
X441613Y440612D01*
X441550Y440635D01*
X441544D01*
X441516Y440646D01*
X441476Y440652D01*
X441419Y440663D01*
X441339Y440675D01*
X441236Y440680D01*
X441116Y440692D01*
D02*
G37*
G36*
X233178Y322858D02*
X233133D01*
X233102Y322850D01*
X233026Y322843D01*
X232920Y322820D01*
X232805Y322790D01*
X232684Y322736D01*
X232562Y322660D01*
X232448Y322561D01*
X232433Y322546D01*
X232402Y322508D01*
X232357Y322447D01*
X232303Y322363D01*
X232250Y322257D01*
X232204Y322135D01*
X232174Y321990D01*
X232159Y321831D01*
Y321815D01*
Y321785D01*
X232166Y321732D01*
X232174Y321663D01*
X232189Y321587D01*
X232212Y321503D01*
X232242Y321405D01*
X232280Y321313D01*
X232288Y321306D01*
X232303Y321275D01*
X232334Y321230D01*
X232379Y321169D01*
X232433Y321108D01*
X232493Y321047D01*
X232570Y320978D01*
X232661Y320925D01*
X232676Y320918D01*
X232707Y320902D01*
X232752Y320879D01*
X232821Y320857D01*
X232904Y320834D01*
X232996Y320811D01*
X233095Y320796D01*
X233201Y320788D01*
X233247D01*
X233277Y320796D01*
X233361Y320803D01*
X233468Y320826D01*
X233582Y320857D01*
X233711Y320910D01*
X233833Y320978D01*
X233947Y321077D01*
X233962Y321093D01*
X233993Y321130D01*
X234038Y321191D01*
X234099Y321275D01*
X234153Y321382D01*
X234198Y321511D01*
X234229Y321648D01*
X234244Y321808D01*
Y321815D01*
Y321831D01*
Y321853D01*
X234236Y321884D01*
X234229Y321968D01*
X234206Y322074D01*
X234168Y322196D01*
X234114Y322318D01*
X234038Y322447D01*
X233939Y322561D01*
X233924Y322576D01*
X233886Y322607D01*
X233818Y322653D01*
X233734Y322713D01*
X233620Y322767D01*
X233490Y322812D01*
X233346Y322843D01*
X233178Y322858D01*
D02*
G37*
G36*
X510925Y439176D02*
X509908D01*
Y437851D01*
X510999D01*
X511113Y437857D01*
X511164Y437862D01*
X511210Y437868D01*
X511216D01*
X511239Y437874D01*
X511273Y437880D01*
X511313Y437891D01*
X511410Y437925D01*
X511456Y437948D01*
X511501Y437971D01*
X511507Y437977D01*
X511524Y437982D01*
X511541Y437999D01*
X511570Y438028D01*
X511604Y438057D01*
X511633Y438091D01*
X511667Y438137D01*
X511695Y438182D01*
X511701Y438188D01*
X511707Y438205D01*
X511718Y438239D01*
X511735Y438279D01*
X511753Y438325D01*
X511764Y438382D01*
X511770Y438445D01*
X511775Y438514D01*
Y438525D01*
Y438548D01*
X511770Y438588D01*
X511764Y438639D01*
X511747Y438696D01*
X511730Y438759D01*
X511701Y438822D01*
X511661Y438885D01*
X511656Y438890D01*
X511638Y438913D01*
X511616Y438936D01*
X511581Y438970D01*
X511536Y439010D01*
X511484Y439045D01*
X511421Y439079D01*
X511353Y439107D01*
X511341Y439113D01*
X511319Y439119D01*
X511273Y439130D01*
X511210Y439142D01*
X511130Y439153D01*
X511033Y439164D01*
X510925Y439176D01*
D02*
G37*
G36*
X583794Y439473D02*
X583765D01*
X583742Y439467D01*
X583679Y439461D01*
X583605Y439444D01*
X583520Y439416D01*
X583428Y439376D01*
X583337Y439319D01*
X583251Y439239D01*
X583240Y439227D01*
X583217Y439199D01*
X583183Y439147D01*
X583143Y439079D01*
X583097Y438993D01*
X583063Y438890D01*
X583040Y438776D01*
X583029Y438645D01*
Y438633D01*
Y438605D01*
X583034Y438553D01*
X583040Y438496D01*
X583051Y438422D01*
X583074Y438342D01*
X583097Y438262D01*
X583131Y438177D01*
X583137Y438165D01*
X583148Y438142D01*
X583171Y438102D01*
X583206Y438051D01*
X583246Y437994D01*
X583297Y437943D01*
X583354Y437885D01*
X583417Y437840D01*
X583428Y437834D01*
X583451Y437822D01*
X583485Y437805D01*
X583537Y437783D01*
X583594Y437760D01*
X583662Y437743D01*
X583737Y437731D01*
X583811Y437725D01*
X583839D01*
X583862Y437731D01*
X583919Y437737D01*
X583988Y437754D01*
X584068Y437783D01*
X584153Y437828D01*
X584245Y437885D01*
X584325Y437965D01*
X584336Y437977D01*
X584359Y438011D01*
X584393Y438062D01*
X584433Y438137D01*
X584473Y438228D01*
X584507Y438342D01*
X584530Y438468D01*
X584542Y438616D01*
Y438622D01*
Y438633D01*
Y438656D01*
X584536Y438679D01*
Y438713D01*
X584530Y438753D01*
X584513Y438845D01*
X584490Y438942D01*
X584450Y439045D01*
X584399Y439147D01*
X584330Y439239D01*
X584319Y439250D01*
X584290Y439273D01*
X584245Y439313D01*
X584182Y439359D01*
X584108Y439398D01*
X584016Y439438D01*
X583908Y439461D01*
X583794Y439473D01*
D02*
G37*
G36*
X510816Y440792D02*
X509908D01*
Y439627D01*
X510850D01*
X510925Y439633D01*
X510999Y439638D01*
X511079Y439644D01*
X511153Y439655D01*
X511216Y439667D01*
X511227Y439673D01*
X511250Y439678D01*
X511284Y439690D01*
X511324Y439713D01*
X511370Y439735D01*
X511421Y439770D01*
X511467Y439810D01*
X511507Y439855D01*
X511513Y439861D01*
X511524Y439878D01*
X511541Y439912D01*
X511558Y439952D01*
X511576Y439998D01*
X511593Y440055D01*
X511604Y440124D01*
X511610Y440198D01*
Y440209D01*
Y440232D01*
X511604Y440266D01*
X511598Y440312D01*
X511587Y440364D01*
X511570Y440421D01*
X511547Y440478D01*
X511513Y440535D01*
X511507Y440541D01*
X511496Y440558D01*
X511473Y440586D01*
X511444Y440615D01*
X511410Y440649D01*
X511364Y440683D01*
X511313Y440712D01*
X511250Y440735D01*
X511244D01*
X511216Y440746D01*
X511176Y440752D01*
X511119Y440763D01*
X511039Y440775D01*
X510936Y440780D01*
X510816Y440792D01*
D02*
G37*
G36*
X239145Y324974D02*
X239107D01*
X239076Y324966D01*
X238992Y324951D01*
X238894Y324928D01*
X238787Y324882D01*
X238673Y324814D01*
X238612Y324776D01*
X238559Y324723D01*
X238505Y324669D01*
X238452Y324601D01*
Y324593D01*
X238437Y324578D01*
X238422Y324547D01*
X238399Y324509D01*
X238376Y324456D01*
X238353Y324388D01*
X238323Y324304D01*
X238292Y324213D01*
X238262Y324098D01*
X238231Y323977D01*
X238209Y323840D01*
X238186Y323680D01*
X238163Y323505D01*
X238148Y323315D01*
X238140Y323109D01*
X238133Y322881D01*
Y322866D01*
Y322828D01*
Y322759D01*
X238140Y322675D01*
Y322576D01*
X238148Y322462D01*
X238155Y322333D01*
X238171Y322196D01*
X238201Y321914D01*
X238254Y321640D01*
X238285Y321511D01*
X238323Y321389D01*
X238368Y321290D01*
X238422Y321199D01*
Y321191D01*
X238437Y321184D01*
X238475Y321138D01*
X238536Y321070D01*
X238627Y320994D01*
X238734Y320918D01*
X238856Y320849D01*
X239000Y320803D01*
X239076Y320796D01*
X239152Y320788D01*
X239198D01*
X239228Y320796D01*
X239304Y320811D01*
X239403Y320841D01*
X239525Y320887D01*
X239647Y320963D01*
X239708Y321009D01*
X239769Y321062D01*
X239829Y321130D01*
X239883Y321199D01*
Y321207D01*
X239898Y321222D01*
X239913Y321245D01*
X239929Y321283D01*
X239951Y321336D01*
X239974Y321397D01*
X240005Y321473D01*
X240035Y321564D01*
X240058Y321671D01*
X240088Y321793D01*
X240111Y321930D01*
X240134Y322082D01*
X240149Y322257D01*
X240164Y322447D01*
X240180Y322653D01*
Y322881D01*
Y322896D01*
Y322934D01*
Y323003D01*
X240172Y323086D01*
Y323185D01*
X240164Y323299D01*
X240157Y323429D01*
X240142Y323558D01*
X240111Y323840D01*
X240058Y324114D01*
X240020Y324243D01*
X239982Y324365D01*
X239936Y324464D01*
X239883Y324555D01*
Y324563D01*
X239868Y324570D01*
X239829Y324623D01*
X239769Y324684D01*
X239677Y324768D01*
X239571Y324844D01*
X239449Y324905D01*
X239304Y324958D01*
X239228Y324966D01*
X239145Y324974D01*
D02*
G37*
G36*
X441225Y439076D02*
X440208D01*
Y437751D01*
X441299D01*
X441413Y437757D01*
X441464Y437762D01*
X441510Y437768D01*
X441516D01*
X441539Y437774D01*
X441573Y437780D01*
X441613Y437791D01*
X441710Y437825D01*
X441756Y437848D01*
X441801Y437871D01*
X441807Y437877D01*
X441824Y437882D01*
X441841Y437899D01*
X441870Y437928D01*
X441904Y437957D01*
X441933Y437991D01*
X441967Y438037D01*
X441995Y438082D01*
X442001Y438088D01*
X442007Y438105D01*
X442018Y438139D01*
X442035Y438179D01*
X442053Y438225D01*
X442064Y438282D01*
X442070Y438345D01*
X442075Y438413D01*
Y438425D01*
Y438448D01*
X442070Y438488D01*
X442064Y438539D01*
X442047Y438596D01*
X442030Y438659D01*
X442001Y438722D01*
X441961Y438785D01*
X441956Y438790D01*
X441938Y438813D01*
X441916Y438836D01*
X441881Y438870D01*
X441835Y438910D01*
X441784Y438944D01*
X441721Y438979D01*
X441653Y439007D01*
X441641Y439013D01*
X441619Y439019D01*
X441573Y439030D01*
X441510Y439042D01*
X441430Y439053D01*
X441333Y439064D01*
X441225Y439076D01*
D02*
G37*
G36*
X246961Y318474D02*
X246922D01*
X246892Y318466D01*
X246808Y318451D01*
X246709Y318428D01*
X246603Y318382D01*
X246489Y318314D01*
X246428Y318276D01*
X246375Y318222D01*
X246321Y318169D01*
X246268Y318101D01*
Y318093D01*
X246253Y318078D01*
X246238Y318047D01*
X246215Y318009D01*
X246192Y317956D01*
X246169Y317888D01*
X246139Y317804D01*
X246108Y317713D01*
X246078Y317598D01*
X246047Y317477D01*
X246024Y317340D01*
X246002Y317180D01*
X245979Y317005D01*
X245964Y316815D01*
X245956Y316609D01*
X245948Y316381D01*
Y316366D01*
Y316328D01*
Y316259D01*
X245956Y316175D01*
Y316076D01*
X245964Y315962D01*
X245971Y315833D01*
X245987Y315696D01*
X246017Y315414D01*
X246070Y315140D01*
X246101Y315011D01*
X246139Y314889D01*
X246184Y314790D01*
X246238Y314699D01*
Y314691D01*
X246253Y314684D01*
X246291Y314638D01*
X246352Y314570D01*
X246443Y314494D01*
X246550Y314418D01*
X246671Y314349D01*
X246816Y314303D01*
X246892Y314296D01*
X246968Y314288D01*
X247014D01*
X247044Y314296D01*
X247120Y314311D01*
X247219Y314341D01*
X247341Y314387D01*
X247463Y314463D01*
X247524Y314509D01*
X247585Y314562D01*
X247645Y314631D01*
X247699Y314699D01*
Y314707D01*
X247714Y314722D01*
X247729Y314745D01*
X247744Y314783D01*
X247767Y314836D01*
X247790Y314897D01*
X247820Y314973D01*
X247851Y315064D01*
X247874Y315171D01*
X247904Y315293D01*
X247927Y315430D01*
X247950Y315582D01*
X247965Y315757D01*
X247980Y315947D01*
X247995Y316153D01*
Y316381D01*
Y316396D01*
Y316434D01*
Y316503D01*
X247988Y316586D01*
Y316685D01*
X247980Y316799D01*
X247973Y316929D01*
X247957Y317058D01*
X247927Y317340D01*
X247874Y317614D01*
X247836Y317743D01*
X247798Y317865D01*
X247752Y317964D01*
X247699Y318055D01*
Y318063D01*
X247684Y318070D01*
X247645Y318124D01*
X247585Y318184D01*
X247493Y318268D01*
X247387Y318344D01*
X247265Y318405D01*
X247120Y318458D01*
X247044Y318466D01*
X246961Y318474D01*
D02*
G37*
G36*
X444622Y440372D02*
X443411Y438653D01*
X444622D01*
Y440372D01*
D02*
G37*
G36*
X253071Y324974D02*
X253033D01*
X253002Y324966D01*
X252919Y324951D01*
X252820Y324928D01*
X252713Y324882D01*
X252599Y324814D01*
X252538Y324776D01*
X252485Y324723D01*
X252432Y324669D01*
X252378Y324601D01*
Y324593D01*
X252363Y324578D01*
X252348Y324547D01*
X252325Y324509D01*
X252302Y324456D01*
X252279Y324388D01*
X252249Y324304D01*
X252219Y324213D01*
X252188Y324098D01*
X252158Y323977D01*
X252135Y323840D01*
X252112Y323680D01*
X252089Y323505D01*
X252074Y323315D01*
X252066Y323109D01*
X252059Y322881D01*
Y322866D01*
Y322828D01*
Y322759D01*
X252066Y322675D01*
Y322576D01*
X252074Y322462D01*
X252082Y322333D01*
X252097Y322196D01*
X252127Y321914D01*
X252181Y321640D01*
X252211Y321511D01*
X252249Y321389D01*
X252295Y321290D01*
X252348Y321199D01*
Y321191D01*
X252363Y321184D01*
X252401Y321138D01*
X252462Y321070D01*
X252554Y320994D01*
X252660Y320918D01*
X252782Y320849D01*
X252926Y320803D01*
X253002Y320796D01*
X253079Y320788D01*
X253124D01*
X253155Y320796D01*
X253231Y320811D01*
X253330Y320841D01*
X253451Y320887D01*
X253573Y320963D01*
X253634Y321009D01*
X253695Y321062D01*
X253756Y321130D01*
X253809Y321199D01*
Y321207D01*
X253824Y321222D01*
X253839Y321245D01*
X253855Y321283D01*
X253878Y321336D01*
X253900Y321397D01*
X253931Y321473D01*
X253961Y321564D01*
X253984Y321671D01*
X254015Y321793D01*
X254037Y321930D01*
X254060Y322082D01*
X254076Y322257D01*
X254091Y322447D01*
X254106Y322653D01*
Y322881D01*
Y322896D01*
Y322934D01*
Y323003D01*
X254098Y323086D01*
Y323185D01*
X254091Y323299D01*
X254083Y323429D01*
X254068Y323558D01*
X254037Y323840D01*
X253984Y324114D01*
X253946Y324243D01*
X253908Y324365D01*
X253862Y324464D01*
X253809Y324555D01*
Y324563D01*
X253794Y324570D01*
X253756Y324623D01*
X253695Y324684D01*
X253604Y324768D01*
X253497Y324844D01*
X253375Y324905D01*
X253231Y324958D01*
X253155Y324966D01*
X253071Y324974D01*
D02*
G37*
G36*
X233194D02*
X233133D01*
X233064Y324958D01*
X232980Y324943D01*
X232889Y324913D01*
X232783Y324875D01*
X232684Y324814D01*
X232592Y324738D01*
X232585Y324730D01*
X232554Y324700D01*
X232524Y324646D01*
X232478Y324586D01*
X232440Y324502D01*
X232402Y324410D01*
X232372Y324304D01*
X232364Y324190D01*
Y324182D01*
Y324174D01*
X232372Y324129D01*
X232379Y324060D01*
X232395Y323977D01*
X232417Y323885D01*
X232463Y323786D01*
X232516Y323688D01*
X232592Y323596D01*
X232600Y323589D01*
X232638Y323558D01*
X232684Y323528D01*
X232752Y323482D01*
X232844Y323444D01*
X232943Y323406D01*
X233064Y323376D01*
X233201Y323368D01*
X233216D01*
X233262Y323376D01*
X233331Y323383D01*
X233414Y323398D01*
X233506Y323421D01*
X233605Y323467D01*
X233703Y323520D01*
X233795Y323596D01*
X233802Y323604D01*
X233833Y323634D01*
X233871Y323688D01*
X233917Y323748D01*
X233955Y323832D01*
X233993Y323923D01*
X234023Y324038D01*
X234031Y324152D01*
Y324159D01*
Y324167D01*
Y324213D01*
X234015Y324273D01*
X234000Y324357D01*
X233970Y324448D01*
X233932Y324547D01*
X233871Y324646D01*
X233787Y324738D01*
X233780Y324745D01*
X233741Y324776D01*
X233696Y324814D01*
X233627Y324859D01*
X233536Y324898D01*
X233437Y324936D01*
X233323Y324966D01*
X233194Y324974D01*
D02*
G37*
%LPD*%
D20*
X219500Y306000D02*
Y443700D01*
Y306000D02*
X766700D01*
Y443700D01*
X219500D02*
X766700D01*
X368987Y306100D02*
Y315500D01*
Y306100D02*
X673987D01*
Y315500D01*
D21*
X231811Y390835D02*
X231581D01*
Y391064D01*
X231811D01*
Y390835D01*
X301516D02*
X301286D01*
Y391064D01*
X301516D01*
Y390835D01*
X371213D02*
X370983D01*
Y391064D01*
X371213D01*
Y390835D01*
X440811D02*
X440582D01*
Y391064D01*
X440811D01*
Y390835D01*
X510516D02*
X510286D01*
Y391064D01*
X510516D01*
Y390835D01*
X580213D02*
X579983D01*
Y391064D01*
X580213D01*
Y390835D01*
X649811D02*
X649581D01*
Y391064D01*
X649811D01*
Y390835D01*
X719516D02*
X719286D01*
Y391064D01*
X719516D01*
Y390835D01*
M02*
